<svg xmlns="http://www.w3.org/2000/svg" width="1241.5" height="217.396" viewBox="0 0 1241.5 217.396">
  <g id="Grupo_146843" data-name="Grupo 146843" transform="translate(-180 -1082)">
    <g id="Grupo_146842" data-name="Grupo 146842">
      <path id="Trazado_185208" data-name="Trazado 185208" d="M0,0H989.948V130.475H0Z" transform="translate(304.347 1168.921)" fill="#ffecf2"/>
      <g id="Grupo_142786" data-name="Grupo 142786" transform="translate(180 1105.301)">
        <g id="Grupo_54976" data-name="Grupo 54976" transform="translate(0 0)">
          <path id="Trazado_103017" data-name="Trazado 103017" d="M2108.141-2082.729h-.313l-19.352,9.054-3.9-17.483,26.846-12.268h19.664v99.685h-22.937Z" transform="translate(-2082.762 2105.217)" fill="#e9dcfd" style="isolation: isolate"/>
          <path id="Trazado_103018" data-name="Trazado 103018" d="M2131.395-2001.645a1.811,1.811,0,0,1-1.821-1.789v-97.9h-17.441l-25.156,11.5,3.1,13.883,17.287-8.081a1.86,1.86,0,0,1,.782-.172h.312a1.8,1.8,0,0,1,1.821,1.787h0v78.982a1.82,1.82,0,0,1-1.821,1.82,1.821,1.821,0,0,1-1.82-1.82h0v-76.3l-17.06,7.978a1.854,1.854,0,0,1-1.583-.008,1.8,1.8,0,0,1-.979-1.219l-3.9-17.486a1.783,1.783,0,0,1,1.011-2l26.844-12.264a1.818,1.818,0,0,1,.768-.167H2131.4a1.8,1.8,0,0,1,1.811,1.781v99.685a1.81,1.81,0,0,1-1.811,1.8Z" transform="translate(-2083.073 2104.91)" fill="#8f52f5"/>
          <path id="Trazado_182393" data-name="Trazado 182393" d="M2123.1-2014.067v59.537h307.816v-149.606l-253.142.082" transform="translate(-2074.777 2105.07)" fill="none" stroke="#8f52f5" stroke-width="3"/>
          <rect id="Rectángulo_39178" data-name="Rectángulo 39178" width="254" height="23" transform="translate(103 -23.301)" fill="#8f52f5"/>
          <rect id="Rectángulo_39179" data-name="Rectángulo 39179" width="293" height="23" transform="translate(525 -23.301)" fill="#500c75"/>
          <rect id="Rectángulo_39180" data-name="Rectángulo 39180" width="296" height="23" transform="translate(945 -23.301)" fill="#e01650"/>
        </g>
        <g id="Grupo_53886" data-name="Grupo 53886" transform="translate(860.772 0.937)">
          <g id="Grupo_54975" data-name="Grupo 54975" transform="translate(0 0)">
            <path id="Trazado_103013" data-name="Trazado 103013" d="M2799.049-2024.406c4.127,2.139,13.6,6.113,23.078,6.113,12.073,0,18.186-5.808,18.186-13.3,0-9.778-9.779-14.213-20.021-14.213h-9.47v-16.66h9.017c7.8-.153,17.73-3.058,17.73-11.469,0-5.961-4.891-10.393-14.672-10.393-8.1,0-16.66,3.515-20.785,5.961l-4.736-16.811c5.959-3.82,17.881-7.485,30.718-7.485,21.242,0,33.01,11.156,33.01,24.758,0,10.545-5.96,18.8-18.185,23.076v.307c11.92,2.138,21.55,11.156,21.55,24.145,0,17.575-15.436,30.412-40.653,30.412-12.837,0-23.687-3.362-29.5-7.031Z" transform="translate(-2792.53 2104.44)" fill="#ffecf2" style="isolation: isolate"/>
            <path id="Trazado_103015" data-name="Trazado 103015" d="M2824.116-1997.864c-13.919,0-24.855-3.774-30.448-7.307a1.784,1.784,0,0,1-.768-1.975l4.736-17.423a1.78,1.78,0,0,1,2.185-1.253,1.759,1.759,0,0,1,.358.141c1.906.988,11.927,5.916,22.257,5.916,10.118,0,16.406-4.413,16.406-11.514,0-9.175-9.826-12.435-18.239-12.435h-9.471a1.784,1.784,0,0,1-1.783-1.783h0v-16.66a1.78,1.78,0,0,1,1.781-1.783h9.02c1.6-.031,15.946-.574,15.946-9.68,0-5.39-4.819-8.61-12.89-8.61-8.1,0-16.539,3.743-19.876,5.712a1.785,1.785,0,0,1-2.441-.624,1.823,1.823,0,0,1-.182-.427l-4.735-16.811a1.782,1.782,0,0,1,.753-1.983c6.036-3.863,18.168-7.77,31.681-7.77,24.034,0,34.794,13.33,34.794,26.542,0,10.108-5.234,18.087-14.849,22.865,11.078,3.787,18.222,13.219,18.222,24.664a30.31,30.31,0,0,1-.669,6.36c-.245.954-.681,3.478-1.635,3.233-.9-.232-1.65-2.111-1.487-3.028a36.2,36.2,0,0,0,.227-6.565c0-12.979-10.086-20.6-20.082-22.391a1.785,1.785,0,0,1-1.466-1.754v-.307a1.782,1.782,0,0,1,1.2-1.682c11.117-3.888,16.993-11.289,16.993-21.394,0-13.743-12.549-22.975-31.228-22.975-11.9,0-22.839,3.27-28.632,6.532l3.763,13.352c4.492-2.267,12.117-5.112,19.678-5.112,12.132,0,16.454,6.29,16.454,12.175,0,9.5-10.491,13.068-19.475,13.246h-7.27v13.092h7.693c10.853,0,21.8,4.95,21.8,15.994,0,9.161-7.838,15.079-19.969,15.079-9.087,0-17.874-3.489-21.921-5.353l-3.817,14.037c5.295,2.945,15.173,6.089,27.416,6.089a1.783,1.783,0,0,1,1.736,1.829,1.785,1.785,0,0,1-1.736,1.736Z" transform="translate(-2792.837 2104.134)" fill="#e01650"/>
          </g>
        </g>
        <g id="Grupo_55788" data-name="Grupo 55788" transform="translate(399.601 1.03)">
          <g id="Grupo_53884" data-name="Grupo 53884" transform="translate(0 0)">
            <path id="Trazado_103021" data-name="Trazado 103021" d="M2439.867-2001.741v-14.04l12.908-11.59c21.816-19.379,32.422-30.516,32.733-42.111,0-8.089-4.919-14.5-16.443-14.5-8.6,0-16.135,4.272-21.36,8.238l-6.607-16.629c7.53-5.645,19.207-10.223,32.731-10.223,22.588,0,35.036,13.123,35.036,31.127,0,16.631-12.139,29.906-26.584,42.724l-9.22,7.63v.3h37.648v19.075Z" transform="translate(-2438.075 2104.361)" fill="#dccee3" style="isolation: isolate"/>
            <path id="Trazado_103023" data-name="Trazado 103023" d="M2511.018-1999.652h-70.842a1.787,1.787,0,0,1-1.793-1.78v-14.039a1.777,1.777,0,0,1,.589-1.321l12.908-11.59c22-19.537,31.857-30.067,32.143-40.839,0-8.154-5.2-12.67-14.651-12.67-6.57,0-13.391,2.65-20.271,7.878a1.8,1.8,0,0,1-1.569.3,1.78,1.78,0,0,1-1.186-1.061l-6.609-16.632a1.772,1.772,0,0,1,.588-2.073c8.969-6.724,21.292-10.582,33.811-10.582,22.371,0,36.828,12.918,36.828,32.905,0,17.517-13.065,31.524-27.183,44.049l-5.835,4.829h33.07a1.78,1.78,0,0,1,1.784,1.775,1.781,1.781,0,0,1-1.776,1.784h-37.656a1.786,1.786,0,0,1-1.793-1.778h0v-.3a1.768,1.768,0,0,1,.646-1.368l9.219-7.63c15.554-13.8,25.94-26.135,25.94-41.354,0-18.1-12.74-29.347-33.244-29.347-11.25,0-22.3,3.292-30.554,9.07l5.245,13.208c6.89-4.793,13.792-7.222,20.545-7.222,11.413,0,18.229,6.084,18.229,16.276-.322,12.133-10.542,23.2-33.331,43.437l-12.314,11.058v11.469h69.055a1.78,1.78,0,0,1,1.738,1.822,1.781,1.781,0,0,1-1.729,1.739h-.01Z" transform="translate(-2438.383 2104.057)" fill="#500c75"/>
          </g>
        </g>
        <g id="Grupo_54976-2" data-name="Grupo 54976" transform="translate(472.149 0.935)">
          <path id="Trazado_182393-2" data-name="Trazado 182393" d="M2123.128-2001.654v47.125h344.743v-149.606h-292" transform="translate(-2123.025 2104.135)" fill="none" stroke="#500c75" stroke-width="3"/>
        </g>
        <g id="Grupo_54976-3" data-name="Grupo 54976" transform="translate(932.184 0.935)">
          <path id="Trazado_182393-3" data-name="Trazado 182393" d="M2123.1-2023.6v69.075h307.816v-149.606H2177.394" transform="translate(-2123.101 2104.135)" fill="none" stroke="#e01650" stroke-width="3"/>
        </g>
      </g>
    </g>
    <text id="También_conocida_como_detección_de_mal_uso_el_reconocimiento_de_firmas_trata_de_identificar_eventos_de_mal_uso_en_el_sistema." data-name="También conocida como detección de mal uso, el reconocimiento de firmas trata de identificar eventos de mal uso en el sistema." transform="translate(265 1123)" fill="#12263f" font-size="17" font-family="Roboto-Regular, Roboto"><tspan x="0" y="18">También conocida como </tspan><tspan x="0" y="42">detección de mal uso, el </tspan><tspan x="0" y="66">reconocimiento de firmas trata </tspan><tspan x="0" y="90">de identificar eventos de mal </tspan><tspan x="0" y="114">uso en el sistema.</tspan></text>
    <text id="Detecta_la_intrusión_basada_en_las_características_de_comportamiento_fijo_de_los_usuarios_y_los_componentes_en_el_sistema_regular." data-name="Detecta la intrusión basada en las características de comportamiento fijo de los usuarios y los componentes en el sistema regular." transform="translate(685 1129)" fill="#12263f" font-size="17" font-family="Roboto-Regular, Roboto"><tspan x="0" y="18">Detecta la intrusión basada en las </tspan><tspan x="0" y="42">características de comportamiento </tspan><tspan x="0" y="66">fijo de los usuarios y los </tspan><tspan x="0" y="90">componentes en el sistema regular.</tspan></text>
    <text id="En_este_tipo_de_detección_lo_modelos_son_construidos_en_protocolo_TCP_IP_usando_sus_especificaciones." data-name="En este tipo de detección, lo modelos son construidos en protocolo TCP/IP, usando sus especificaciones." transform="translate(1156 1129)" fill="#12263f" font-size="17" font-family="Roboto-Regular, Roboto"><tspan x="0" y="18">En este tipo de detección, lo </tspan><tspan x="0" y="42">modelos son construidos en </tspan><tspan x="0" y="66">protocolo TCP/IP, usando sus </tspan><tspan x="0" y="90">especificaciones.</tspan></text>
  </g>
</svg>
