<svg xmlns="http://www.w3.org/2000/svg" width="85" height="69" viewBox="0 0 85 69">
  <g id="Grupo_112377" data-name="Grupo 112377" transform="translate(-285 -7487)">
    <rect id="Rectángulo_37769" data-name="Rectángulo 37769" width="85" height="69" transform="translate(285 7487)" fill="none"/>
    <g id="lista-de-verificacion_1_" data-name="lista-de-verificacion (1)" transform="translate(253.501 7492.021)">
      <path id="Trazado_177094" data-name="Trazado 177094" d="M100.763,60.008H63.237a4.772,4.772,0,0,0-4.772,4.772v44.308a4.772,4.772,0,0,0,4.772,4.772h37.527a4.772,4.772,0,0,0,4.772-4.772V64.78A4.772,4.772,0,0,0,100.763,60.008Z" transform="translate(0 -52.858)" fill="#c86d5c"/>
      <rect id="Rectángulo_37768" data-name="Rectángulo 37768" width="37.955" height="45.42" transform="translate(63.023 11.056)" fill="#efedee"/>
      <path id="Trazado_177095" data-name="Trazado 177095" d="M103.7,93.128a5.7,5.7,0,0,0,5.7,5.7h24.9a5.7,5.7,0,0,0,5.7-5.7c0-.11,0-.219-.008-.329H103.7C103.7,92.908,103.7,93.017,103.7,93.128Z" transform="translate(-39.842 -81.743)" fill="#d4d2d3"/>
      <path id="Trazado_177096" data-name="Trazado 177096" d="M153.6,5.38h-3.693a5.38,5.38,0,1,0-10.761,0h-3.693a6,6,0,0,0-6,6h0a2.629,2.629,0,0,0,2.629,2.629h24.9a2.629,2.629,0,0,0,2.629-2.629h0A6,6,0,0,0,153.6,5.38Z" transform="translate(-62.528)" fill="#bab8b9"/>
      <circle id="Elipse_4094" data-name="Elipse 4094" cx="1.358" cy="1.358" r="1.358" transform="translate(80.643 2.396)" fill="#d4d2d3"/>
      <g id="Grupo_112370" data-name="Grupo 112370" transform="translate(67.503 7.681)">
        <path id="Trazado_177097" data-name="Trazado 177097" d="M174.967,67.911a.92.92,0,0,1-.921-.921v-1.6a.921.921,0,1,1,1.841,0v1.6A.92.92,0,0,1,174.967,67.911Z" transform="translate(-169.314 -64.469)" fill="#3a484a"/>
        <path id="Trazado_177098" data-name="Trazado 177098" d="M323.423,67.911a.92.92,0,0,1-.921-.921v-1.6a.921.921,0,0,1,1.841,0v1.6A.92.92,0,0,1,323.423,67.911Z" transform="translate(-300.082 -64.469)" fill="#3a484a"/>
        <path id="Trazado_177099" data-name="Trazado 177099" d="M233.056,79.773a3.808,3.808,0,0,1-2.876-1.28.921.921,0,1,1,1.386-1.212,2.03,2.03,0,0,0,2.979,0,.921.921,0,0,1,1.386,1.212A3.807,3.807,0,0,1,233.056,79.773Z" transform="translate(-218.559 -75.477)" fill="#3a484a"/>
        <path id="Trazado_177100" data-name="Trazado 177100" d="M139.979,168.448h-4.732a.921.921,0,0,1,0-1.841h4.732a.921.921,0,1,1,0,1.841Z" transform="translate(-134.326 -154.438)" fill="#3a484a"/>
        <path id="Trazado_177101" data-name="Trazado 177101" d="M246.758,168.448H230.874a.921.921,0,0,1,0-1.841h15.884a.921.921,0,1,1,0,1.841Z" transform="translate(-218.56 -154.438)" fill="#3a484a"/>
        <path id="Trazado_177102" data-name="Trazado 177102" d="M139.979,219.558h-4.732a.921.921,0,0,1,0-1.841h4.732a.921.921,0,1,1,0,1.841Z" transform="translate(-134.326 -199.458)" fill="#3a484a"/>
        <path id="Trazado_177103" data-name="Trazado 177103" d="M246.758,219.558H230.874a.921.921,0,0,1,0-1.841h15.884a.921.921,0,1,1,0,1.841Z" transform="translate(-218.56 -199.458)" fill="#3a484a"/>
        <path id="Trazado_177104" data-name="Trazado 177104" d="M139.979,270.667h-4.732a.921.921,0,1,1,0-1.841h4.732a.921.921,0,1,1,0,1.841Z" transform="translate(-134.326 -244.478)" fill="#3a484a"/>
        <path id="Trazado_177105" data-name="Trazado 177105" d="M246.758,270.667H230.874a.921.921,0,1,1,0-1.841h15.884a.921.921,0,1,1,0,1.841Z" transform="translate(-218.56 -244.478)" fill="#3a484a"/>
        <path id="Trazado_177106" data-name="Trazado 177106" d="M139.979,321.777h-4.732a.921.921,0,0,1,0-1.841h4.732a.921.921,0,1,1,0,1.841Z" transform="translate(-134.326 -289.499)" fill="#3a484a"/>
        <path id="Trazado_177107" data-name="Trazado 177107" d="M246.758,321.777H230.874a.921.921,0,0,1,0-1.841h15.884a.921.921,0,1,1,0,1.841Z" transform="translate(-218.56 -289.499)" fill="#3a484a"/>
        <path id="Trazado_177108" data-name="Trazado 177108" d="M139.979,372.886h-4.732a.921.921,0,1,1,0-1.841h4.732a.921.921,0,1,1,0,1.841Z" transform="translate(-134.326 -334.518)" fill="#3a484a"/>
        <path id="Trazado_177109" data-name="Trazado 177109" d="M246.758,372.886H230.874a.921.921,0,0,1,0-1.841h15.884a.921.921,0,1,1,0,1.841Z" transform="translate(-218.56 -334.518)" fill="#3a484a"/>
      </g>
    </g>
    <g id="Grupo_112372" data-name="Grupo 112372" transform="translate(-94 -3.001)">
      <path id="Trazado_177056" data-name="Trazado 177056" d="M33.554,35.2,26.2,42.55l-4.2-4.2,7.27-7.27Z" transform="translate(389.007 7489.182)" fill="#9da1bf"/>
      <path id="Trazado_177057" data-name="Trazado 177057" d="M21.957,37l6.3,6.3L9.608,61.954a4.456,4.456,0,1,1-6.3-6.3Z" transform="translate(388 7489.48)" fill="#858bb5"/>
      <path id="Trazado_177058" data-name="Trazado 177058" d="M6.576,59.151a1.576,1.576,0,1,1,1.576-1.576A1.576,1.576,0,0,1,6.576,59.151Z" transform="translate(388.151 7490.437)" fill="#4c506e"/>
      <path id="Sustracción_1" data-name="Sustracción 1" d="M7510.812,11739.623a19.811,19.811,0,1,1,14.008-5.8A19.676,19.676,0,0,1,7510.812,11739.623ZM7511,11704a16,16,0,1,0,16,16A16.02,16.02,0,0,0,7511,11704Z" transform="translate(-7078 -4210)" fill="#858bb5"/>
    </g>
  </g>
</svg>
