<svg xmlns="http://www.w3.org/2000/svg" width="85" height="69" viewBox="0 0 85 69">
  <g id="Grupo_112376" data-name="Grupo 112376" transform="translate(-600 -7487)">
    <g id="red" transform="translate(609.584 7492.376)">
      <g id="Grupo_112358" data-name="Grupo 112358" transform="translate(18.359 10.908)">
        <path id="Trazado_177059" data-name="Trazado 177059" d="M147.293,105.645a.941.941,0,0,1-.445-1.771l9.812-5.251,9.755-6.1.016-.01,8.337-4.984a.941.941,0,0,1,.966,1.615l-8.329,4.98-9.774,6.112-.055.032-9.84,5.266A.938.938,0,0,1,147.293,105.645Z" transform="translate(-146.351 -87.396)" fill="#500c75"/>
      </g>
      <g id="Grupo_112359" data-name="Grupo 112359" transform="translate(19.785 34.095)">
        <path id="Trazado_177060" data-name="Trazado 177060" d="M185.188,291.076a.938.938,0,0,1-.486-.136l-9.035-5.465-.012-.007-9.084-5.68-.036-.024-8.414-5.815a.941.941,0,1,1,1.07-1.548l8.4,5.8,9.059,5.665,9.029,5.462a.941.941,0,0,1-.488,1.746Z" transform="translate(-157.715 -272.233)" fill="#500c75"/>
      </g>
      <path id="Trazado_177061" data-name="Trazado 177061" d="M393.609,96.236a.941.941,0,0,0-.941.941v33.952a.941.941,0,0,0,1.882,0V97.177A.941.941,0,0,0,393.609,96.236Z" transform="translate(-343.41 -84.219)" fill="#500c75"/>
      <g id="Grupo_112368" data-name="Grupo 112368" transform="translate(0 0)">
        <path id="Trazado_177062" data-name="Trazado 177062" d="M15.93,127.305a15.926,15.926,0,0,0-7.889,29.759l1.082-.59,13.639-.2,1.038.8a15.926,15.926,0,0,0-7.87-29.77Z" transform="translate(-0.005 -111.391)" fill="#98bce5"/>
        <path id="Trazado_177063" data-name="Trazado 177063" d="M10.9,152.579A15.928,15.928,0,0,1,19.859,127.8,15.927,15.927,0,0,0,8.034,157.063Z" transform="translate(0 -111.391)" fill="#7bacdf"/>
        <circle id="Elipse_4092" data-name="Elipse 4092" cx="12.161" cy="12.161" r="12.161" transform="translate(3.764 19.677)" fill="#5f99d7"/>
        <path id="Trazado_177064" data-name="Trazado 177064" d="M39.393,159.852a12.162,12.162,0,0,0,0,23.681,15.92,15.92,0,0,1,0-23.681Z" transform="translate(-26.244 -139.855)" fill="#3c87d0"/>
        <g id="XMLID_171_" transform="translate(8.034 20.136)">
          <g id="Grupo_112360" data-name="Grupo 112360">
            <path id="Trazado_177065" data-name="Trazado 177065" d="M79.746,286.664a2.95,2.95,0,0,0-1.065-2.269l-4.472-3.713-.926-.949h-2.7l-.949.949-4.472,3.713a2.955,2.955,0,0,0-1.065,2.269l-.054,3.706a15.948,15.948,0,0,0,15.761.011Z" transform="translate(-64.045 -264.833)" fill="#ade194"/>
            <path id="Trazado_177066" data-name="Trazado 177066" d="M74.855,281.219l-.647-.537-.926-.949h-2.7l-.949.949-4.472,3.713a2.955,2.955,0,0,0-1.065,2.269l-.054,3.706a15.861,15.861,0,0,0,3,1.322l.052-3.541a2.954,2.954,0,0,1,1.065-2.269l1.184-.983a2.217,2.217,0,0,1,1.811-.494,4.192,4.192,0,0,0,.764.07,4.17,4.17,0,0,0,3.825-2.514Z" transform="translate(-64.044 -264.833)" fill="#97da7b"/>
            <path id="Trazado_177067" data-name="Trazado 177067" d="M113.187,253.352v3.782a2.244,2.244,0,0,1-.03.37,2.286,2.286,0,0,1-4.512,0,2.244,2.244,0,0,1-.03-.37V253.34l.048-.1a5.329,5.329,0,0,0,4.477.013Z" transform="translate(-103.024 -241.661)" fill="#fed2a4"/>
            <path id="Trazado_177068" data-name="Trazado 177068" d="M93.029,161.6H86.976l-1.878-.617a.422.422,0,0,0-.553.4v5.206l1.807,1.934H94.2l.986-1.934v-2.835a2.155,2.155,0,0,0-2.155-2.155Z" transform="translate(-81.973 -160.958)" fill="#a79ba7"/>
            <path id="Trazado_177069" data-name="Trazado 177069" d="M87.564,163.8a.422.422,0,0,1,.553-.4l1.878.617h5.188v-.263a2.155,2.155,0,0,0-2.155-2.155H86.976l-1.878-.617a.422.422,0,0,0-.553.4v5.206l1.807,1.934h1.213Z" transform="translate(-81.973 -160.958)" fill="#918291"/>
            <path id="Trazado_177070" data-name="Trazado 177070" d="M95.184,205.827v3.386a5.319,5.319,0,1,1-10.639,0v-3.386Z" transform="translate(-81.973 -200.198)" fill="#fed2a4"/>
            <path id="Trazado_177071" data-name="Trazado 177071" d="M90.632,214.032a5.318,5.318,0,0,1-3.067-4.82v-3.386H84.545v3.386a5.319,5.319,0,0,0,6.829,5.1A5.283,5.283,0,0,1,90.632,214.032Z" transform="translate(-81.973 -200.198)" fill="#ffbd86"/>
          </g>
        </g>
        <g id="XMLID_172_" transform="translate(38.006 0)">
          <g id="Grupo_112361" data-name="Grupo 112361">
            <path id="Trazado_177072" data-name="Trazado 177072" d="M315.169.444A12.193,12.193,0,0,0,308.008,22.5l1.075-1.006,12.018.187,1.228.821A12.193,12.193,0,0,0,315.169.444Z" transform="translate(-302.976 -0.444)" fill="#98bce5"/>
            <path id="Trazado_177073" data-name="Trazado 177073" d="M311.4,18.476A12.2,12.2,0,0,1,318.632.946,12.194,12.194,0,0,0,308,22.5Z" transform="translate(-302.969 -0.444)" fill="#7bacdf"/>
            <path id="Trazado_177074" data-name="Trazado 177074" d="M341.4,47.3a8.429,8.429,0,1,1,8.43-8.429A8.438,8.438,0,0,1,341.4,47.3Z" transform="translate(-329.21 -26.675)" fill="#5f99d7"/>
            <path id="Trazado_177075" data-name="Trazado 177075" d="M339.288,48.9a12.188,12.188,0,0,1,0-16.321,8.43,8.43,0,0,0,0,16.321Z" transform="translate(-329.21 -28.549)" fill="#3c87d0"/>
          </g>
        </g>
        <g id="XMLID_173_" transform="translate(43.037 3.762)">
          <g id="Grupo_112363" data-name="Grupo 112363">
            <g id="Grupo_112362" data-name="Grupo 112362">
              <path id="Trazado_177076" data-name="Trazado 177076" d="M350.236,114.147a7.154,7.154,0,0,1,7.154,7.154l.006.645a12.2,12.2,0,0,1-14.322,0l.008-.643a7.155,7.155,0,0,1,7.154-7.154Z" transform="translate(-343.074 -103.646)" fill="#f37c7c"/>
              <path id="Trazado_177077" data-name="Trazado 177077" d="M363.565,30.437a5.25,5.25,0,1,1-5.25,5.25A5.251,5.251,0,0,1,363.565,30.437Z" transform="translate(-356.403 -30.437)" fill="#ffe5c2"/>
            </g>
          </g>
        </g>
        <g id="XMLID_210_" transform="translate(43.037 3.762)">
          <g id="Grupo_112365" data-name="Grupo 112365">
            <g id="Grupo_112364" data-name="Grupo 112364">
              <path id="Trazado_177078" data-name="Trazado 177078" d="M345.883,123.141a7.16,7.16,0,0,1,9.568-6.737,7.154,7.154,0,0,0-12.37,4.9l-.008.643a11.639,11.639,0,0,0,2.806,1.546Z" transform="translate(-343.074 -103.646)" fill="#ee6161"/>
              <path id="Trazado_177079" data-name="Trazado 177079" d="M361.968,35.548a5.255,5.255,0,0,1,3.238-4.849,5.251,5.251,0,1,0,.374,9.838A5.253,5.253,0,0,1,361.968,35.548Z" transform="translate(-356.403 -30.437)" fill="#fed2a4"/>
            </g>
          </g>
        </g>
        <g id="XMLID_191_" transform="translate(38.006 37.895)">
          <path id="Trazado_177080" data-name="Trazado 177080" d="M315.173,302.529A12.194,12.194,0,0,0,308.02,324.6l1.162-.5,12.416.252.728.246a12.193,12.193,0,0,0-7.153-22.068Z" transform="translate(-302.979 -302.529)" fill="#98bce5"/>
          <path id="Trazado_177081" data-name="Trazado 177081" d="M311.126,320.587A12.2,12.2,0,0,1,318.49,303,12.2,12.2,0,0,0,308.007,324.6Z" transform="translate(-302.968 -302.534)" fill="#7bacdf"/>
          <g id="Grupo_112366" data-name="Grupo 112366" transform="translate(3.764 3.763)">
            <path id="Trazado_177082" data-name="Trazado 177082" d="M341.4,349.388a8.43,8.43,0,1,1,8.43-8.43A8.439,8.439,0,0,1,341.4,349.388Z" transform="translate(-332.974 -332.528)" fill="#5f99d7"/>
          </g>
          <path id="Trazado_177083" data-name="Trazado 177083" d="M338.911,351.643a12.191,12.191,0,0,1,0-16.105,8.431,8.431,0,0,0,0,16.105Z" transform="translate(-329.211 -331.397)" fill="#3c87d0"/>
        </g>
        <ellipse id="Elipse_4093" data-name="Elipse 4093" cx="5.251" cy="5.251" rx="5.251" ry="5.251" transform="translate(44.948 41.659)" fill="#ffe5c2"/>
        <path id="Trazado_177084" data-name="Trazado 177084" d="M361.533,337.783a5.255,5.255,0,0,1,3.643-5,5.251,5.251,0,1,0,0,10A5.255,5.255,0,0,1,361.533,337.783Z" transform="translate(-313.363 -290.873)" fill="#fed2a4"/>
        <g id="XMLID_192_" transform="translate(43.044 52.16)">
          <g id="Grupo_112367" data-name="Grupo 112367">
            <path id="Trazado_177085" data-name="Trazado 177085" d="M357.443,424.05a12.2,12.2,0,0,1-14.308,0V423.4a7.154,7.154,0,0,1,14.308,0Z" transform="translate(-343.135 -416.247)" fill="#fee97d"/>
          </g>
        </g>
        <path id="Trazado_177086" data-name="Trazado 177086" d="M345.858,425.18a7.16,7.16,0,0,1,9.6-6.725,7.154,7.154,0,0,0-12.323,4.946v.649a12.2,12.2,0,0,0,2.724,1.488Z" transform="translate(-300.091 -364.087)" fill="#fee45a"/>
      </g>
    </g>
    <rect id="Rect치ngulo_37765" data-name="Rect치ngulo 37765" width="85" height="69" transform="translate(600 7487)" fill="none"/>
    <g id="Grupo_112371" data-name="Grupo 112371" transform="translate(224.426 -3.001)">
      <path id="Trazado_177056" data-name="Trazado 177056" d="M33.554,35.2,26.2,42.55l-4.2-4.2,7.27-7.27Z" transform="translate(389.007 7489.182)" fill="#9da1bf"/>
      <path id="Trazado_177057" data-name="Trazado 177057" d="M21.957,37l6.3,6.3L9.608,61.954a4.456,4.456,0,1,1-6.3-6.3Z" transform="translate(388 7489.48)" fill="#858bb5"/>
      <path id="Trazado_177058" data-name="Trazado 177058" d="M6.576,59.151a1.576,1.576,0,1,1,1.576-1.576A1.576,1.576,0,0,1,6.576,59.151Z" transform="translate(388.151 7490.437)" fill="#4c506e"/>
      <path id="Sustracci칩n_1" data-name="Sustracci칩n 1" d="M7510.812,11739.623a19.811,19.811,0,1,1,14.008-5.8A19.676,19.676,0,0,1,7510.812,11739.623ZM7511,11704a16,16,0,1,0,16,16A16.02,16.02,0,0,0,7511,11704Z" transform="translate(-7078 -4210)" fill="#858bb5"/>
    </g>
  </g>
</svg>
