<svg xmlns="http://www.w3.org/2000/svg" width="85" height="69" viewBox="0 0 85 69">
  <g id="Grupo_112374" data-name="Grupo 112374" transform="translate(-1230 -7487)">
    <rect id="Rect치ngulo_37767" data-name="Rect치ngulo 37767" width="85" height="69" transform="translate(1230 7487)" fill="none"/>
    <g id="Grupo_112373" data-name="Grupo 112373" transform="translate(5)">
      <path id="Trazado_177110" data-name="Trazado 177110" d="M32.5,127.305a32.494,32.494,0,0,0-16.1,60.719l2.207-1.2,27.83-.4,2.118,1.632A32.494,32.494,0,0,0,32.5,127.305Z" transform="translate(1241.012 7361.715)" fill="#98bce5"/>
      <ellipse id="Elipse_4095" data-name="Elipse 4095" cx="24.812" cy="24.812" rx="24.812" ry="24.812" transform="translate(1248.697 7496.698)" fill="#5f99d7"/>
      <g id="XMLID_171_" transform="translate(1257.41 7497.634)">
        <g id="Grupo_112360" data-name="Grupo 112360">
          <path id="Trazado_177065" data-name="Trazado 177065" d="M96.08,293.875a6.02,6.02,0,0,0-2.173-4.63l-9.125-7.576-1.889-1.936h-5.5l-1.937,1.936-9.125,7.576a6.028,6.028,0,0,0-2.173,4.63l-.11,7.561a32.54,32.54,0,0,0,32.158.023Z" transform="translate(-64.045 -249.332)" fill="#ade194"/>
          <path id="Trazado_177066" data-name="Trazado 177066" d="M86.1,282.766l-1.321-1.1-1.889-1.936h-5.5l-1.937,1.936-9.125,7.576a6.028,6.028,0,0,0-2.173,4.63l-.11,7.561a32.364,32.364,0,0,0,6.126,2.7l.105-7.226a6.028,6.028,0,0,1,2.173-4.63l2.417-2.007a4.524,4.524,0,0,1,3.695-1.007,8.55,8.55,0,0,0,1.558.143,8.509,8.509,0,0,0,7.8-5.129Z" transform="translate(-64.044 -249.332)" fill="#97da7b"/>
          <path id="Trazado_177067" data-name="Trazado 177067" d="M117.945,253.472v7.717a4.579,4.579,0,0,1-.061.755,4.665,4.665,0,0,1-9.207,0,4.579,4.579,0,0,1-.061-.755v-7.743l.1-.21a10.874,10.874,0,0,0,9.135.026Z" transform="translate(-97.207 -229.618)" fill="#fed2a4"/>
          <path id="Trazado_177068" data-name="Trazado 177068" d="M101.855,162.261H89.505L85.674,161a.862.862,0,0,0-1.129.819v10.622l3.687,3.946h16.009l2.012-3.946v-5.785a4.4,4.4,0,0,0-4.4-4.4Z" transform="translate(-79.298 -160.958)" fill="#a79ba7"/>
          <path id="Trazado_177069" data-name="Trazado 177069" d="M90.706,166.755a.862.862,0,0,1,1.129-.819l3.832,1.259h10.586v-.537a4.4,4.4,0,0,0-4.4-4.4H89.505L85.674,161a.862.862,0,0,0-1.129.819v10.622l3.687,3.946h2.474Z" transform="translate(-79.298 -160.958)" fill="#918291"/>
          <path id="Trazado_177070" data-name="Trazado 177070" d="M106.253,205.827v6.908a10.854,10.854,0,1,1-21.708,0v-6.908Z" transform="translate(-79.298 -194.343)" fill="#fed2a4"/>
          <path id="Trazado_177071" data-name="Trazado 177071" d="M96.964,222.569a10.85,10.85,0,0,1-6.258-9.834v-6.908H84.545v6.908a10.852,10.852,0,0,0,13.933,10.406A10.786,10.786,0,0,1,96.964,222.569Z" transform="translate(-79.298 -194.343)" fill="#ffbd86"/>
        </g>
      </g>
    </g>
    <g id="Grupo_112357" data-name="Grupo 112357" transform="translate(845.426)">
      <path id="Trazado_177056" data-name="Trazado 177056" d="M33.554,35.2,26.2,42.55l-4.2-4.2,7.27-7.27Z" transform="translate(389.007 7489.182)" fill="#9da1bf"/>
      <path id="Trazado_177057" data-name="Trazado 177057" d="M21.957,37l6.3,6.3L9.608,61.954a4.456,4.456,0,1,1-6.3-6.3Z" transform="translate(388 7489.48)" fill="#858bb5"/>
      <path id="Trazado_177058" data-name="Trazado 177058" d="M6.576,59.151a1.576,1.576,0,1,1,1.576-1.576A1.576,1.576,0,0,1,6.576,59.151Z" transform="translate(388.151 7490.437)" fill="#4c506e"/>
      <path id="Sustracci칩n_1" data-name="Sustracci칩n 1" d="M7510.812,11739.623a19.811,19.811,0,1,1,14.008-5.8A19.676,19.676,0,0,1,7510.812,11739.623ZM7511,11704a16,16,0,1,0,16,16A16.02,16.02,0,0,0,7511,11704Z" transform="translate(-7078 -4210)" fill="#858bb5"/>
    </g>
  </g>
</svg>
