<svg xmlns="http://www.w3.org/2000/svg" xmlns:xlink="http://www.w3.org/1999/xlink" width="1030" height="450.828" viewBox="0 0 1030 450.828">
  <defs>
    <clipPath id="clip-path">
      <rect id="Rectángulo_37770" data-name="Rectángulo 37770" width="1030" height="341.258" fill="none"/>
    </clipPath>
    <clipPath id="clip-path-2">
      <path id="Trazado_177126" data-name="Trazado 177126" d="M39.217,504.267a70.72,70.72,0,1,0,71.881-69.54c-.4-.007-.795-.01-1.194-.01a70.726,70.726,0,0,0-70.688,69.55" transform="translate(-39.208 -434.717)" fill="none"/>
    </clipPath>
    <linearGradient id="linear-gradient" x1="0.064" y1="0.935" x2="0.066" y2="0.935" gradientUnits="objectBoundingBox">
      <stop offset="0" stop-color="#fff"/>
      <stop offset="0.997" stop-color="#d7d6d6"/>
      <stop offset="1" stop-color="#d7d6d6"/>
    </linearGradient>
    <clipPath id="clip-path-4">
      <path id="Trazado_177128" data-name="Trazado 177128" d="M546.486,108.767a70.72,70.72,0,1,0,71.881-69.54c-.4-.007-.795-.01-1.194-.01a70.726,70.726,0,0,0-70.687,69.55" transform="translate(-546.477 -39.217)" fill="none"/>
    </clipPath>
    <linearGradient id="linear-gradient-2" x1="-1.006" y1="1.769" x2="-1.004" y2="1.769" xlink:href="#linear-gradient"/>
    <clipPath id="clip-path-6">
      <path id="Trazado_177130" data-name="Trazado 177130" d="M1053.756,504.267a70.72,70.72,0,1,0,71.881-69.54c-.4-.007-.794-.01-1.194-.01a70.726,70.726,0,0,0-70.687,69.55" transform="translate(-1053.746 -434.717)" fill="none"/>
    </clipPath>
    <linearGradient id="linear-gradient-3" x1="-2.075" y1="0.935" x2="-2.073" y2="0.935" xlink:href="#linear-gradient"/>
    <clipPath id="clip-path-8">
      <path id="Trazado_177132" data-name="Trazado 177132" d="M1561.025,108.767a70.72,70.72,0,1,0,71.881-69.54c-.4-.007-.795-.01-1.194-.01a70.726,70.726,0,0,0-70.687,69.55" transform="translate(-1561.015 -39.217)" fill="none"/>
    </clipPath>
    <linearGradient id="linear-gradient-4" x1="-3.145" y1="1.769" x2="-3.143" y2="1.769" xlink:href="#linear-gradient"/>
    <clipPath id="clip-path-10">
      <path id="Trazado_177134" data-name="Trazado 177134" d="M2068.293,504.267a70.72,70.72,0,1,0,71.881-69.54c-.4-.007-.8-.01-1.194-.01a70.726,70.726,0,0,0-70.687,69.55" transform="translate(-2068.283 -434.717)" fill="none"/>
    </clipPath>
    <linearGradient id="linear-gradient-5" x1="-4.214" y1="0.935" x2="-4.212" y2="0.935" xlink:href="#linear-gradient"/>
    <clipPath id="clip-path-12">
      <rect id="Rectángulo_37781" data-name="Rectángulo 37781" width="960.065" height="158.57" fill="none"/>
    </clipPath>
    <clipPath id="clip-path-14">
      <rect id="Rectángulo_39530" data-name="Rectángulo 39530" width="436.4" height="39.2" transform="translate(0 0)" fill="none"/>
    </clipPath>
  </defs>
  <g id="Grupo_146833" data-name="Grupo 146833" transform="translate(-285 -8799)">
    <g id="Grupo_145479" data-name="Grupo 145479" transform="translate(0 -327)">
      <g id="Grupo_142751" data-name="Grupo 142751">
        <g id="Grupo_142394" data-name="Grupo 142394">
          <g id="Grupo_112400" data-name="Grupo 112400" transform="translate(285 9182.958)">
            <g id="Grupo_112379" data-name="Grupo 112379">
              <g id="Grupo_112378" data-name="Grupo 112378" clip-path="url(#clip-path)">
                <path id="Trazado_177111" data-name="Trazado 177111" d="M174.062,473.834A87.387,87.387,0,0,0,63.389,398.783q-2.966.844-5.845,1.9A87.266,87.266,0,0,0,87.247,570c.895,0,1.8-.014,2.714-.043.606-.015,1.2-.043,1.789-.073.736-.043,1.472-.086,2.208-.144,2.223-.173,4.416-.419,6.581-.75a87.358,87.358,0,0,0,73.912-82.6,86.224,86.224,0,0,0-.39-12.557" transform="translate(0 -228.747)" fill="#8f52f5"/>
                <path id="Trazado_177112" data-name="Trazado 177112" d="M507.278.014h-.116C506.571,0,505.993,0,505.4,0h-.13c-.592,0-1.169,0-1.761.014H503.4c-45.334,0-85.3,39.746-85.3,85.891-.015.39-.015.765-.015,1.155v.346c0,.376,0,.765.015,1.14,0,.3.014.606.014.909,0,.173,0,.332.014.505v.072c.014.577.043,1.14.072,1.718a4,4,0,0,0,.029.418c.029.39.043.794.072,1.183.029.332.043.664.072,1a.4.4,0,0,0,.014.13c.029.548.072,1.082.145,1.631.029.26.043.534.086.794.029.317.058.635.1.952a1.1,1.1,0,0,0,.014.217,67.536,67.536,0,0,1-3.219,30.266,69.958,69.958,0,0,1-23.122,32.287l-2.7,2.092a67.65,67.65,0,0,1-36.616,14.1,99.152,99.152,0,0,1,28.245,36.126,69.734,69.734,0,0,1,23.093-32.33l2.324-1.818a68.406,68.406,0,0,1,37.078-14.246,72.182,72.182,0,0,1,30.858,4.431,87.854,87.854,0,0,0,29.7,5.513c.318.015.635.015.953.015.361,0,.707,0,1.068-.015,18.892,0,39.333-6.791,56.592-21.751a87.511,87.511,0,0,0,17.479-21.1c.245-.419.476-.823.721-1.241a87.471,87.471,0,0,0,11.4-43V87.06c0-49.281-41.427-87.046-85.314-87.046" transform="translate(-204.213)" fill="#e01650"/>
                <path id="Trazado_177113" data-name="Trazado 177113" d="M1607.134,86.338v-.086c1.6-43.172-37.836-86.238-85.429-86.238C1521.113,0,1520.536,0,1519.944,0h-.058a87.25,87.25,0,0,0-87.262,87.19v.216c0,.159,0,.332.015.491v.736c0,.433.014.866.029,1.313.014.75.058,1.516.1,2.266s.1,1.515.159,2.266.13,1.487.217,2.237a2.379,2.379,0,0,0,.029.332c.029.3.058.592.1.895A68.12,68.12,0,0,1,1430,128.4a69.716,69.716,0,0,1-23.05,32.229l-2.8,2.18a67.474,67.474,0,0,1-36.516,14.029,99.2,99.2,0,0,1,28.274,36.2,69.373,69.373,0,0,1,23.05-32.417l2.309-1.8a68.47,68.47,0,0,1,37.093-14.26A72.039,72.039,0,0,1,1489.23,169a88.177,88.177,0,0,0,28.549,5.485c.246.014.476.014.736.014s.49.014.736.014h1.14c.245,0,.491,0,.722-.014,22.983,0,49.829-10.818,67.59-33.6a86.831,86.831,0,0,0,17.926-44.079,1.04,1.04,0,0,0,.014-.2.4.4,0,0,0,.014-.13.389.389,0,0,0,.015-.13c.014-.13.029-.245.043-.376.058-.548.1-1.082.144-1.631,0-.043.015-.1.015-.144.014-.159.029-.3.043-.462.014-.245.043-.476.043-.722v-.087c.058-.736.087-1.472.115-2.208,0-.1.014-.217.014-.317.015-.332.029-.65.043-.982V89.08c0-.375.014-.75.014-1.126v-.346c0-.433,0-.852-.014-1.27" transform="translate(-791.018 0.001)" fill="#5e8eca"/>
                <path id="Trazado_177114" data-name="Trazado 177114" d="M1996.278,348.043c-22.689,8.6-48.163,5.282-67.3-9.641l-2.7-2.093a68.752,68.752,0,0,1-22.948-32.561,98.426,98.426,0,0,1-12.066,19.932,99.464,99.464,0,0,1-16.266,16.5,71.583,71.583,0,0,1,37.742,14.924l1.53,1.2a69.14,69.14,0,0,1,26.311,62.755,88.237,88.237,0,0,0-.577,14.274c1.848,45.426,39.515,83.451,86.927,83.607.094,0,.186.007.279.007.072,0,.142-.005.214-.005a87.253,87.253,0,0,0,87.046-87.2v-.13c0-59.909-60.5-103.471-118.192-81.561" transform="translate(-1084.47 -175.683)" fill="#8869a3"/>
                <path id="Trazado_177115" data-name="Trazado 177115" d="M1015.425,342.442a87.238,87.238,0,0,0-34.192,5.6c-22.689,8.6-48.163,5.282-67.3-9.641l-2.7-2.093a68.755,68.755,0,0,1-22.948-32.561,98.389,98.389,0,0,1-12.066,19.932,99.467,99.467,0,0,1-16.266,16.5A71.587,71.587,0,0,1,897.695,355.1l1.53,1.2a69.142,69.142,0,0,1,26.311,62.755,88.223,88.223,0,0,0-.577,14.274c.071,1.758.214,3.5.4,5.231,0,.031.006.062.009.094.029.346.069.68.111,1.026l.014.058c.105.964.237,1.921.378,2.875.04.268.082.534.124.8.054.348.1.7.162,1.044.014.058.029.13.043.2.086.505.173,1,.274,1.5.035.23.086.454.133.68.064.324.133.647.2.97.109.527.215,1.055.344,1.583.072.332.145.649.231.967,0,.029.014.043.014.072.05.211.109.422.161.632.066.263.132.525.2.786.005.018.008.035.013.053.025.1.057.189.083.285a87.3,87.3,0,0,0,84.031,64.746c.094,0,.185.007.279.007.072,0,.142-.005.214-.005a87.244,87.244,0,0,0,87.047-87.2v-.13c0-46.861-37.757-85.55-84-87.161" transform="translate(-497.383 -175.683)" fill="#1acec3"/>
                <path id="Trazado_177116" data-name="Trazado 177116" d="M710.358,475.1a1.161,1.161,0,0,0-1.52-.62l-9.662,4.064-9.662-4.064a1.16,1.16,0,0,0-.9,2.139l10.112,4.253a1.16,1.16,0,0,0,.9,0l10.112-4.253a1.16,1.16,0,0,0,.62-1.52" transform="translate(-397.873 -274.378)" fill="#500c75"/>
                <path id="Trazado_177117" data-name="Trazado 177117" d="M707.984,487.758l-9.663,4.064-9.662-4.064a1.16,1.16,0,0,0-.9,2.139l10.112,4.253a1.161,1.161,0,0,0,.9,0l10.112-4.253a1.16,1.16,0,0,0-.9-2.139" transform="translate(-397.379 -282.059)" fill="#500c75"/>
                <path id="Trazado_177118" data-name="Trazado 177118" d="M179.871,325.291a1.161,1.161,0,0,0,1.52.62l9.663-4.064,9.662,4.064a1.16,1.16,0,1,0,.9-2.139L191.5,319.518a1.161,1.161,0,0,0-.9,0l-10.112,4.253a1.16,1.16,0,0,0-.62,1.52" transform="translate(-103.982 -184.752)" fill="#500c75"/>
                <path id="Trazado_177119" data-name="Trazado 177119" d="M182.245,312.631l9.663-4.064,9.662,4.064a1.16,1.16,0,1,0,.9-2.139l-10.112-4.253a1.16,1.16,0,0,0-.9,0l-10.112,4.253a1.16,1.16,0,1,0,.9,2.139" transform="translate(-104.476 -177.071)" fill="#500c75"/>
                <path id="Trazado_177120" data-name="Trazado 177120" d="M1724.9,475.1a1.161,1.161,0,0,0-1.52-.62l-9.663,4.064-9.662-4.064a1.16,1.16,0,1,0-.9,2.139l10.112,4.253a1.16,1.16,0,0,0,.9,0l10.113-4.253a1.161,1.161,0,0,0,.62-1.52" transform="translate(-984.667 -274.378)" fill="#500c75"/>
                <path id="Trazado_177121" data-name="Trazado 177121" d="M1722.522,487.758l-9.663,4.064-9.662-4.064a1.16,1.16,0,1,0-.9,2.139l10.112,4.253a1.16,1.16,0,0,0,.9,0l10.113-4.253a1.16,1.16,0,1,0-.9-2.139" transform="translate(-984.172 -282.059)" fill="#500c75"/>
                <path id="Trazado_177122" data-name="Trazado 177122" d="M1173.616,325.291a1.161,1.161,0,0,0,1.52.62l9.662-4.064,9.662,4.064a1.16,1.16,0,0,0,.9-2.139l-10.112-4.253a1.16,1.16,0,0,0-.9,0l-10.113,4.253a1.16,1.16,0,0,0-.62,1.52" transform="translate(-678.749 -184.752)" fill="#500c75"/>
                <path id="Trazado_177123" data-name="Trazado 177123" d="M1175.99,312.631l9.662-4.064,9.662,4.064a1.16,1.16,0,1,0,.9-2.139l-10.112-4.253a1.16,1.16,0,0,0-.9,0l-10.113,4.253a1.16,1.16,0,1,0,.9,2.139" transform="translate(-679.243 -177.071)" fill="#500c75"/>
                <path id="Trazado_177124" data-name="Trazado 177124" d="M2208.947,325.291a1.161,1.161,0,0,0,1.52.62l9.663-4.064,9.662,4.064a1.16,1.16,0,0,0,.9-2.139l-10.112-4.253a1.161,1.161,0,0,0-.9,0l-10.112,4.253a1.16,1.16,0,0,0-.62,1.52" transform="translate(-1277.569 -184.752)" fill="#500c75"/>
                <path id="Trazado_177125" data-name="Trazado 177125" d="M2211.32,312.631l9.663-4.064,9.662,4.064a1.16,1.16,0,1,0,.9-2.139l-10.112-4.253a1.161,1.161,0,0,0-.9,0l-10.112,4.253a1.16,1.16,0,1,0,.9,2.139" transform="translate(-1278.063 -177.071)" fill="#500c75"/>
              </g>
            </g>
            <g id="Grupo_112381" data-name="Grupo 112381" transform="translate(16.531 183.283)">
              <g id="Grupo_112380" data-name="Grupo 112380" clip-path="url(#clip-path-2)">
                <rect id="Rectángulo_37771" data-name="Rectángulo 37771" width="199.983" height="199.875" transform="matrix(0.787, -0.617, 0.617, 0.787, -69.639, 54.153)" fill="url(#linear-gradient)"/>
              </g>
            </g>
            <g id="Grupo_112383" data-name="Grupo 112383">
              <g id="Grupo_112382" data-name="Grupo 112382" clip-path="url(#clip-path)">
                <path id="Trazado_177127" data-name="Trazado 177127" d="M181.774,509.592A67.693,67.693,0,1,1,114.082,441.9a67.693,67.693,0,0,1,67.692,67.693" transform="translate(-26.831 -255.588)" fill="#fff"/>
              </g>
            </g>
            <g id="Grupo_112385" data-name="Grupo 112385" transform="translate(230.403 16.534)">
              <g id="Grupo_112384" data-name="Grupo 112384" clip-path="url(#clip-path-4)">
                <rect id="Rectángulo_37773" data-name="Rectángulo 37773" width="199.983" height="199.875" transform="translate(-69.639 54.153) rotate(-38.125)" fill="url(#linear-gradient-2)"/>
              </g>
            </g>
            <g id="Grupo_112387" data-name="Grupo 112387">
              <g id="Grupo_112386" data-name="Grupo 112386" clip-path="url(#clip-path)">
                <path id="Trazado_177129" data-name="Trazado 177129" d="M689.042,114.093A67.693,67.693,0,1,1,621.35,46.4a67.693,67.693,0,0,1,67.692,67.693" transform="translate(-320.227 -26.837)" fill="#fff"/>
              </g>
            </g>
            <g id="Grupo_112389" data-name="Grupo 112389" transform="translate(444.275 183.283)">
              <g id="Grupo_112388" data-name="Grupo 112388" clip-path="url(#clip-path-6)">
                <rect id="Rectángulo_37775" data-name="Rectángulo 37775" width="199.983" height="199.875" transform="translate(-69.639 54.153) rotate(-38.125)" fill="url(#linear-gradient-3)"/>
              </g>
            </g>
            <g id="Grupo_112391" data-name="Grupo 112391">
              <g id="Grupo_112390" data-name="Grupo 112390" clip-path="url(#clip-path)">
                <path id="Trazado_177131" data-name="Trazado 177131" d="M1196.311,509.592a67.693,67.693,0,1,1-67.692-67.693,67.693,67.693,0,0,1,67.692,67.693" transform="translate(-613.624 -255.588)" fill="#fff"/>
              </g>
            </g>
            <g id="Grupo_112393" data-name="Grupo 112393" transform="translate(658.147 16.534)">
              <g id="Grupo_112392" data-name="Grupo 112392" clip-path="url(#clip-path-8)">
                <rect id="Rectángulo_37777" data-name="Rectángulo 37777" width="199.982" height="199.875" transform="matrix(0.787, -0.617, 0.617, 0.787, -69.639, 54.153)" fill="url(#linear-gradient-4)"/>
              </g>
            </g>
            <g id="Grupo_112395" data-name="Grupo 112395">
              <g id="Grupo_112394" data-name="Grupo 112394" clip-path="url(#clip-path)">
                <path id="Trazado_177133" data-name="Trazado 177133" d="M1703.581,114.093A67.693,67.693,0,1,1,1635.888,46.4a67.693,67.693,0,0,1,67.693,67.693" transform="translate(-907.021 -26.837)" fill="#fff"/>
              </g>
            </g>
            <g id="Grupo_112397" data-name="Grupo 112397" transform="translate(872.019 183.283)">
              <g id="Grupo_112396" data-name="Grupo 112396" clip-path="url(#clip-path-10)">
                <rect id="Rectángulo_37779" data-name="Rectángulo 37779" width="199.982" height="199.875" transform="translate(-69.639 54.153) rotate(-38.125)" fill="url(#linear-gradient-5)"/>
              </g>
            </g>
            <g id="Grupo_112399" data-name="Grupo 112399">
              <g id="Grupo_112398" data-name="Grupo 112398" clip-path="url(#clip-path)">
                <path id="Trazado_177135" data-name="Trazado 177135" d="M2210.849,509.592a67.693,67.693,0,1,1-67.692-67.693,67.693,67.693,0,0,1,67.692,67.693" transform="translate(-1200.417 -255.588)" fill="#fff"/>
              </g>
            </g>
          </g>
          <g id="Grupo_142390" data-name="Grupo 142390" transform="translate(1600 19108.828) rotate(180)">
            <path id="Trazado_177150" data-name="Trazado 177150" d="M-6501.088-2160.521h-58.629l-17.576,21.221h-418.262l-21.327-21.221h-68.027" transform="translate(7593.097 11700)" fill="none" stroke="#8f52f5" stroke-width="2"/>
            <g id="Elipse_5425" data-name="Elipse 5425" transform="translate(1091 9532)" fill="none" stroke="#8f52f5" stroke-width="2">
              <circle cx="7" cy="7" r="7" stroke="none"/>
              <circle cx="7" cy="7" r="6" fill="none"/>
            </g>
            <g id="Elipse_5426" data-name="Elipse 5426" transform="translate(495 9532)" fill="none" stroke="#8f52f5" stroke-width="2">
              <circle cx="7" cy="7" r="7" stroke="none"/>
              <circle cx="7" cy="7" r="6" fill="none"/>
            </g>
          </g>
        </g>
        <g id="Grupo_142400" data-name="Grupo 142400" transform="translate(337 9278.13)">
          <path id="Trazado_177151" data-name="Trazado 177151" d="M.378.906,0,3.042H3.753L1.907,13.7H4.482L6.328,3.042h3.8L10.5.906Z" fill="#12263f"/>
          <g id="Grupo_142377" data-name="Grupo 142377">
            <g id="Grupo_142376" data-name="Grupo 142376" clip-path="url(#clip-path-12)">
              <path id="Trazado_177152" data-name="Trazado 177152" d="M13.676,13.7a2.561,2.561,0,0,1-.1-.861,3.223,3.223,0,0,1-2.426,1.037,2.92,2.92,0,0,1-2.071-.813A2.462,2.462,0,0,1,8.315,11.1,2.841,2.841,0,0,1,9.62,8.715a5.931,5.931,0,0,1,3.336-.83l1.16.017.123-.571a1.975,1.975,0,0,0,.026-.554.956.956,0,0,0-.312-.646,1.07,1.07,0,0,0-.707-.241,1.509,1.509,0,0,0-.985.286,1.381,1.381,0,0,0-.518.874l-2.488.008a2.764,2.764,0,0,1,1.252-2.21,4.862,4.862,0,0,1,2.941-.831,3.509,3.509,0,0,1,2.531.963,2.819,2.819,0,0,1,.765,2.386l-.73,4.553-.044.562a2.7,2.7,0,0,0,.15,1.055l-.009.167Zm-1.907-1.749a2.269,2.269,0,0,0,1.872-.932l.308-1.643-.862-.009a2.4,2.4,0,0,0-1.977.835,1.457,1.457,0,0,0-.273.712.841.841,0,0,0,.2.751,1,1,0,0,0,.734.286" fill="#12263f"/>
              <path id="Trazado_177153" data-name="Trazado 177153" d="M20.241,13.7h-2.5L19.4,4.193h2.5ZM19.688,1.776A1.232,1.232,0,0,1,20.074.8,1.49,1.49,0,0,1,22.025.756a1.237,1.237,0,0,1,.431.932,1.276,1.276,0,0,1-.366.949,1.366,1.366,0,0,1-1,.422,1.385,1.385,0,0,1-.971-.334,1.221,1.221,0,0,1-.434-.949" fill="#12263f"/>
              <path id="Trazado_177154" data-name="Trazado 177154" d="M24.961,13.7h-2.5L24.812.2H27.3Z" fill="#12263f"/>
              <path id="Trazado_177155" data-name="Trazado 177155" d="M27.536,8.939a6.587,6.587,0,0,1,1.437-3.582,3.652,3.652,0,0,1,2.958-1.349,2.67,2.67,0,0,1,2.268,1.1l.325-.923,2.276.009-1.556,9.185a4.477,4.477,0,0,1-1.617,3,5.028,5.028,0,0,1-3.375,1.073,4.689,4.689,0,0,1-1.881-.427,4.028,4.028,0,0,1-1.476-1.12l1.23-1.512A2.642,2.642,0,0,0,30.2,15.478a2.425,2.425,0,0,0,1.652-.506,2.7,2.7,0,0,0,.932-1.524l.14-.571a3.091,3.091,0,0,1-2.329,1,2.726,2.726,0,0,1-2.206-1.033,4.434,4.434,0,0,1-.9-2.64,9.1,9.1,0,0,1,.044-1.266m2.435,1.043a2.269,2.269,0,0,0,.347,1.325,1.218,1.218,0,0,0,1.007.524,2.218,2.218,0,0,0,1.792-.863l.739-4.032a1.459,1.459,0,0,0-1.4-.862,1.941,1.941,0,0,0-1.608.765,4,4,0,0,0-.826,2.1,9.234,9.234,0,0,0-.053,1.039" fill="#12263f"/>
              <path id="Trazado_177156" data-name="Trazado 177156" d="M42.618,13.7a2.561,2.561,0,0,1-.1-.861A3.223,3.223,0,0,1,40.1,13.879a2.92,2.92,0,0,1-2.071-.813,2.462,2.462,0,0,1-.768-1.965,2.841,2.841,0,0,1,1.305-2.386,5.931,5.931,0,0,1,3.336-.83l1.16.017.123-.571a1.975,1.975,0,0,0,.026-.554.956.956,0,0,0-.312-.646,1.07,1.07,0,0,0-.707-.241,1.509,1.509,0,0,0-.985.286,1.381,1.381,0,0,0-.518.874L38.2,7.058a2.764,2.764,0,0,1,1.252-2.21,4.862,4.862,0,0,1,2.941-.831,3.509,3.509,0,0,1,2.531.963,2.819,2.819,0,0,1,.765,2.386l-.73,4.553-.044.562a2.7,2.7,0,0,0,.15,1.055l-.009.167Zm-1.907-1.749a2.269,2.269,0,0,0,1.872-.932l.308-1.643-.862-.009a2.4,2.4,0,0,0-1.977.835,1.457,1.457,0,0,0-.273.712.841.841,0,0,0,.2.751,1,1,0,0,0,.734.286" fill="#12263f"/>
              <path id="Trazado_177157" data-name="Trazado 177157" d="M51.592,1.855l-.413,2.338h1.582l-.325,1.863H50.854l-.809,4.764a1.211,1.211,0,0,0,.07.685c.082.159.282.244.6.255q.141.009.756-.044l-.176,1.943a4.172,4.172,0,0,1-1.424.2A2.234,2.234,0,0,1,48.05,13.1a2.766,2.766,0,0,1-.492-2.021l.817-5.019H47.03l.326-1.863H48.7l.4-2.338Z" fill="#12263f"/>
              <path id="Trazado_177158" data-name="Trazado 177158" d="M55.169,13.7h-2.5l1.652-9.51h2.5ZM54.615,1.776A1.236,1.236,0,0,1,55,.8,1.49,1.49,0,0,1,56.953.756a1.237,1.237,0,0,1,.431.932,1.276,1.276,0,0,1-.366.949,1.366,1.366,0,0,1-1,.422,1.385,1.385,0,0,1-.971-.334,1.225,1.225,0,0,1-.435-.949" fill="#12263f"/>
              <path id="Trazado_177159" data-name="Trazado 177159" d="M61.189,4.184l-.211,1.125a3.424,3.424,0,0,1,2.769-1.292A2.284,2.284,0,0,1,65.733,5,3.968,3.968,0,0,1,66.2,7.656l-1,6.047H62.718l1.02-6.074a2.832,2.832,0,0,0,.017-.624,1.007,1.007,0,0,0-1.125-.923,2.136,2.136,0,0,0-1.749.906L59.695,13.7H57.216l1.653-9.51Z" fill="#12263f"/>
              <path id="Trazado_177160" data-name="Trazado 177160" d="M67.614,8.939a6.587,6.587,0,0,1,1.437-3.582,3.652,3.652,0,0,1,2.958-1.349,2.67,2.67,0,0,1,2.268,1.1l.325-.923,2.276.009-1.556,9.185a4.477,4.477,0,0,1-1.617,3,5.028,5.028,0,0,1-3.375,1.073,4.689,4.689,0,0,1-1.881-.427,4.028,4.028,0,0,1-1.476-1.12L68.2,14.4a2.642,2.642,0,0,0,2.075,1.081,2.425,2.425,0,0,0,1.652-.506,2.7,2.7,0,0,0,.932-1.524l.14-.571a3.091,3.091,0,0,1-2.329,1,2.726,2.726,0,0,1-2.206-1.033,4.434,4.434,0,0,1-.9-2.64,9.1,9.1,0,0,1,.044-1.266m2.435,1.043a2.269,2.269,0,0,0,.347,1.325,1.217,1.217,0,0,0,1.007.524,2.218,2.218,0,0,0,1.792-.863l.739-4.032a1.459,1.459,0,0,0-1.4-.862,1.941,1.941,0,0,0-1.608.765,4,4,0,0,0-.826,2.1,9.233,9.233,0,0,0-.053,1.039" fill="#12263f"/>
              <path id="Trazado_177161" data-name="Trazado 177161" d="M392.193,13.7l2.224-12.8,3.674.009a5.042,5.042,0,0,1,2.325.585,4.392,4.392,0,0,1,1.674,1.6,5.488,5.488,0,0,1,.773,2.355,7.805,7.805,0,0,1-.017,1.564l-.062.466A7.306,7.306,0,0,1,400.574,12a6.249,6.249,0,0,1-4.426,1.7Zm4.43-10.661-1.485,8.543,1.072.009a3.517,3.517,0,0,0,2.852-1.3A6.725,6.725,0,0,0,400.3,6.364l.017-.281a3.548,3.548,0,0,0-.553-2.224,2.115,2.115,0,0,0-1.732-.808Z" fill="#12263f"/>
              <path id="Trazado_177162" data-name="Trazado 177162" d="M409.358,12.718a3.282,3.282,0,0,1-2.619,1.16,2.444,2.444,0,0,1-2.074-.984,3.6,3.6,0,0,1-.545-2.549l1.028-6.152h2.479l-1.046,6.185a2.4,2.4,0,0,0-.009.546.9.9,0,0,0,.975.906,2.264,2.264,0,0,0,1.908-.888l1.186-6.749h2.5L411.485,13.7h-2.312Z" fill="#12263f"/>
              <path id="Trazado_177163" data-name="Trazado 177163" d="M417.286,4.184l-.2,1.081a3.5,3.5,0,0,1,2.786-1.248,2.677,2.677,0,0,1,1.459.4,1.891,1.891,0,0,1,.782,1.046,3.663,3.663,0,0,1,2.953-1.45,2.394,2.394,0,0,1,1.974.9,3.686,3.686,0,0,1,.558,2.514l-.018.22L426.567,13.7H424.08l1.011-6.081a4.431,4.431,0,0,0,.026-.607.941.941,0,0,0-1.055-.95,2.1,2.1,0,0,0-1.749,1.091l-.026.2L421.18,13.7H418.7l1.011-6.056a4.442,4.442,0,0,0,.026-.607.94.94,0,0,0-1.046-.958,2.1,2.1,0,0,0-1.7.888L415.809,13.7h-2.478l1.643-9.51Z" fill="#12263f"/>
              <path id="Trazado_177164" data-name="Trazado 177164" d="M437.668,8.975a7.858,7.858,0,0,1-.782,2.654,4.312,4.312,0,0,1-1.486,1.723,3.442,3.442,0,0,1-1.968.536,2.745,2.745,0,0,1-2.18-1.029l-.87,4.5H427.9L430.18,4.193l2.285-.008-.167.958a3.032,3.032,0,0,1,2.426-1.125,2.7,2.7,0,0,1,2.17,1.015,4.409,4.409,0,0,1,.827,2.658,10.412,10.412,0,0,1-.053,1.284m-2.461-.181.053-.845a2.351,2.351,0,0,0-.312-1.355,1.121,1.121,0,0,0-.963-.52,2.049,2.049,0,0,0-1.784.915l-.712,3.927a1.388,1.388,0,0,0,1.4.924,1.792,1.792,0,0,0,1.494-.695,4.769,4.769,0,0,0,.826-2.351" fill="#12263f"/>
              <path id="Trazado_177165" data-name="Trazado 177165" d="M443.961,11.022q.141-.7-.976-1.02l-.8-.2q-2.84-.781-2.76-2.759a2.736,2.736,0,0,1,1.191-2.194,4.442,4.442,0,0,1,2.764-.83,3.976,3.976,0,0,1,2.6.853,2.8,2.8,0,0,1,1.011,2.223l-2.461-.009a1.084,1.084,0,0,0-1.213-1.239,1.745,1.745,0,0,0-1.005.29,1.2,1.2,0,0,0-.524.783q-.132.7,1.064.993l.351.079a7.06,7.06,0,0,1,1.855.664,2.8,2.8,0,0,1,.989.927,2.293,2.293,0,0,1,.32,1.327,2.53,2.53,0,0,1-.584,1.582,3.58,3.58,0,0,1-1.529,1.046,5.325,5.325,0,0,1-2.044.342,4,4,0,0,1-2.637-.91,2.93,2.93,0,0,1-1.072-2.306l2.338.017a1.285,1.285,0,0,0,1.459,1.38,2.083,2.083,0,0,0,1.13-.281,1.113,1.113,0,0,0,.531-.756" fill="#12263f"/>
              <path id="Trazado_177166" data-name="Trazado 177166" d="M452.539,1.855l-.413,2.338h1.582l-.325,1.863H451.8l-.809,4.764a1.211,1.211,0,0,0,.07.685c.082.159.282.244.6.255q.141.009.756-.044l-.176,1.943a4.172,4.172,0,0,1-1.424.2A2.234,2.234,0,0,1,449,13.1a2.765,2.765,0,0,1-.492-2.021l.817-5.019h-1.345l.326-1.863h1.344l.4-2.338Z" fill="#12263f"/>
              <path id="Trazado_177167" data-name="Trazado 177167" d="M458.015,13.878a4.124,4.124,0,0,1-2.21-.611,3.686,3.686,0,0,1-1.437-1.652A4.6,4.6,0,0,1,454,9.3l.027-.351a6.149,6.149,0,0,1,.808-2.549,4.894,4.894,0,0,1,1.741-1.788,4.308,4.308,0,0,1,2.355-.594,3.29,3.29,0,0,1,2.782,1.352,4.63,4.63,0,0,1,.716,3.331l-.141,1.083h-5.827a2.038,2.038,0,0,0,.449,1.476,1.711,1.711,0,0,0,1.318.572,3.045,3.045,0,0,0,2.373-1.055l1.134,1.406a3.525,3.525,0,0,1-1.547,1.261,5.053,5.053,0,0,1-2.171.435m.791-7.813a1.759,1.759,0,0,0-1.217.431,3.779,3.779,0,0,0-.954,1.555h3.41l.053-.228a2.347,2.347,0,0,0,.009-.668,1.278,1.278,0,0,0-.431-.8,1.351,1.351,0,0,0-.87-.294" fill="#12263f"/>
              <path id="Trazado_177168" data-name="Trazado 177168" d="M469.537,6.575a5.074,5.074,0,0,0-.835-.088,2.406,2.406,0,0,0-2.1.993L465.5,13.7h-2.479l1.653-9.51,2.329-.009-.229,1.161A2.615,2.615,0,0,1,468.992,4a3.614,3.614,0,0,1,.861.123Z" fill="#12263f"/>
              <path id="Trazado_177169" data-name="Trazado 177169" d="M478.643,4.009a2.7,2.7,0,0,1,2.144,1.063L481.719.2h2.487l-2.338,13.5h-2.214l.14-1.019a3.079,3.079,0,0,1-2.478,1.2,2.736,2.736,0,0,1-1.556-.466,2.928,2.928,0,0,1-1.032-1.315,5.3,5.3,0,0,1-.4-1.911,7.3,7.3,0,0,1,.027-1.072l.052-.4a7.63,7.63,0,0,1,.814-2.566A4.23,4.23,0,0,1,476.7,4.519a3.474,3.474,0,0,1,1.947-.51m-1.8,5.115a7.051,7.051,0,0,0-.044,1.125q.088,1.547,1.248,1.573a2.119,2.119,0,0,0,1.819-.984l.677-3.779a1.4,1.4,0,0,0-1.371-.985,1.807,1.807,0,0,0-1.507.7,4.7,4.7,0,0,0-.822,2.351" fill="#12263f"/>
              <path id="Trazado_177170" data-name="Trazado 177170" d="M486.465,13.7h-2.5l1.652-9.51h2.5Zm-.554-11.927A1.236,1.236,0,0,1,486.3.8a1.49,1.49,0,0,1,1.951-.044,1.237,1.237,0,0,1,.431.932,1.275,1.275,0,0,1-.365.949,1.368,1.368,0,0,1-1,.422,1.382,1.382,0,0,1-.97-.334,1.226,1.226,0,0,1-.436-.949" fill="#12263f"/>
              <path id="Trazado_177171" data-name="Trazado 177171" d="M492.565,10.565l2.707-6.372h2.672l-4.6,9.51h-2.373l-1.626-9.51h2.514Z" fill="#12263f"/>
              <path id="Trazado_177172" data-name="Trazado 177172" d="M500.1,13.7h-2.5l1.652-9.51h2.5Zm-.554-11.927A1.236,1.236,0,0,1,499.93.8a1.49,1.49,0,0,1,1.951-.044,1.237,1.237,0,0,1,.431.932,1.275,1.275,0,0,1-.365.949,1.368,1.368,0,0,1-1,.422,1.382,1.382,0,0,1-.97-.334,1.226,1.226,0,0,1-.436-.949" fill="#12263f"/>
              <path id="Trazado_177173" data-name="Trazado 177173" d="M506.117,4.184l-.211,1.125a3.424,3.424,0,0,1,2.769-1.292A2.284,2.284,0,0,1,510.661,5a3.969,3.969,0,0,1,.466,2.655l-1,6.047h-2.479l1.02-6.074a2.832,2.832,0,0,0,.017-.624,1.007,1.007,0,0,0-1.125-.923,2.136,2.136,0,0,0-1.749.906L504.623,13.7h-2.479l1.653-9.51Z" fill="#12263f"/>
              <path id="Trazado_177174" data-name="Trazado 177174" d="M512.542,8.939a6.588,6.588,0,0,1,1.438-3.582,3.651,3.651,0,0,1,2.957-1.349,2.67,2.67,0,0,1,2.268,1.1l.325-.923,2.276.009-1.556,9.185a4.477,4.477,0,0,1-1.617,3,5.028,5.028,0,0,1-3.375,1.073,4.688,4.688,0,0,1-1.881-.427,4.028,4.028,0,0,1-1.476-1.12l1.23-1.512a2.642,2.642,0,0,0,2.075,1.081,2.425,2.425,0,0,0,1.652-.506,2.7,2.7,0,0,0,.932-1.524l.14-.571a3.091,3.091,0,0,1-2.329,1,2.726,2.726,0,0,1-2.206-1.033,4.434,4.434,0,0,1-.9-2.64,9.1,9.1,0,0,1,.044-1.266m2.435,1.043a2.269,2.269,0,0,0,.348,1.325,1.216,1.216,0,0,0,1.006.524,2.218,2.218,0,0,0,1.792-.863l.739-4.032a1.459,1.459,0,0,0-1.4-.862,1.941,1.941,0,0,0-1.608.765,4,4,0,0,0-.826,2.1,9.236,9.236,0,0,0-.053,1.039" fill="#12263f"/>
              <path id="Trazado_177175" data-name="Trazado 177175" d="M835.462,10.284q.185-1.046-1.028-1.6l-1.7-.676q-2.952-1.319-2.8-3.63a3.333,3.333,0,0,1,.7-1.9,4.236,4.236,0,0,1,1.8-1.3,6.4,6.4,0,0,1,2.5-.453,4.339,4.339,0,0,1,3,1.1,3.678,3.678,0,0,1,1.125,2.86H836.5a1.832,1.832,0,0,0-.382-1.353,1.717,1.717,0,0,0-1.323-.5,2.664,2.664,0,0,0-1.529.4,1.638,1.638,0,0,0-.774,1.147q-.167.957,1.284,1.52l1.16.439.668.308q2.592,1.284,2.425,3.6a3.467,3.467,0,0,1-.725,1.955,4.07,4.07,0,0,1-1.758,1.261,6.269,6.269,0,0,1-2.447.414,5.48,5.48,0,0,1-2.426-.572,3.765,3.765,0,0,1-1.617-1.538,3.982,3.982,0,0,1-.484-2.109l2.576.009q-.123,2.082,2.047,2.118a2.693,2.693,0,0,0,1.547-.413,1.608,1.608,0,0,0,.721-1.1" fill="#12263f"/>
              <path id="Trazado_177176" data-name="Trazado 177176" d="M842.863,5.248a3.313,3.313,0,0,1,2.575-1.23,2.411,2.411,0,0,1,2.079,1.015,3.988,3.988,0,0,1,.5,2.676l-1,5.994h-2.478l1.011-6.027a2.917,2.917,0,0,0,.017-.634,1,1,0,0,0-1.107-.977,2.141,2.141,0,0,0-1.758.863L841.5,13.7h-2.479L841.36.2h2.487Z" fill="#12263f"/>
              <path id="Trazado_177177" data-name="Trazado 177177" d="M854.385,4.018a3.805,3.805,0,0,1,2.166.646,3.636,3.636,0,0,1,1.336,1.73,5.353,5.353,0,0,1,.3,2.449,5.786,5.786,0,0,1-1.578,3.669,4.454,4.454,0,0,1-3.4,1.367,3.816,3.816,0,0,1-2.145-.637,3.637,3.637,0,0,1-1.336-1.719,5.238,5.238,0,0,1-.307-2.425,5.956,5.956,0,0,1,1.6-3.745,4.365,4.365,0,0,1,3.358-1.335M851.88,10a2.192,2.192,0,0,0,.4,1.329,1.312,1.312,0,0,0,1.063.505,1.927,1.927,0,0,0,1.793-1.049,5.219,5.219,0,0,0,.606-2.848,2.38,2.38,0,0,0-.408-1.346,1.293,1.293,0,0,0-1.068-.523,1.931,1.931,0,0,0-1.771,1.04A5.171,5.171,0,0,0,851.88,10" fill="#12263f"/>
              <path id="Trazado_177178" data-name="Trazado 177178" d="M864.792,12.718a3.284,3.284,0,0,1-2.62,1.16,2.444,2.444,0,0,1-2.074-.984,3.6,3.6,0,0,1-.545-2.549l1.028-6.152h2.479l-1.046,6.185a2.4,2.4,0,0,0-.009.546.9.9,0,0,0,.975.906,2.264,2.264,0,0,0,1.908-.888l1.186-6.749h2.5L866.918,13.7h-2.312Z" fill="#12263f"/>
              <path id="Trazado_177179" data-name="Trazado 177179" d="M871.383,13.7h-2.5L871.234.2h2.487Z" fill="#12263f"/>
              <path id="Trazado_177180" data-name="Trazado 177180" d="M878.2,4.009a2.7,2.7,0,0,1,2.144,1.063L881.28.2h2.487l-2.338,13.5h-2.214l.14-1.019a3.079,3.079,0,0,1-2.478,1.2,2.736,2.736,0,0,1-1.556-.466,2.93,2.93,0,0,1-1.033-1.315,5.3,5.3,0,0,1-.4-1.911,7.3,7.3,0,0,1,.027-1.072l.052-.4a7.629,7.629,0,0,1,.813-2.566,4.24,4.24,0,0,1,1.477-1.643,3.474,3.474,0,0,1,1.947-.51m-1.8,5.115a7.058,7.058,0,0,0-.044,1.125q.089,1.547,1.248,1.573a2.119,2.119,0,0,0,1.819-.984l.677-3.779a1.4,1.4,0,0,0-1.371-.985,1.806,1.806,0,0,0-1.507.7,4.686,4.686,0,0,0-.822,2.351" fill="#12263f"/>
              <path id="Trazado_177181" data-name="Trazado 177181" d="M887.924,13.878a4.121,4.121,0,0,1-2.21-.611,3.687,3.687,0,0,1-1.437-1.652,4.6,4.6,0,0,1-.37-2.316l.027-.351a6.148,6.148,0,0,1,.808-2.549,4.894,4.894,0,0,1,1.741-1.788,4.309,4.309,0,0,1,2.355-.594,3.29,3.29,0,0,1,2.782,1.352,4.63,4.63,0,0,1,.716,3.331L892.2,9.783h-5.827a2.038,2.038,0,0,0,.449,1.476,1.711,1.711,0,0,0,1.318.572,3.045,3.045,0,0,0,2.373-1.055l1.134,1.406a3.525,3.525,0,0,1-1.547,1.261,5.053,5.053,0,0,1-2.171.435m.791-7.813A1.758,1.758,0,0,0,887.5,6.5a3.769,3.769,0,0,0-.954,1.555h3.41l.053-.228a2.348,2.348,0,0,0,.009-.668,1.278,1.278,0,0,0-.431-.8,1.351,1.351,0,0,0-.87-.294" fill="#12263f"/>
              <path id="Trazado_177182" data-name="Trazado 177182" d="M899.447,6.575a5.075,5.075,0,0,0-.835-.088,2.406,2.406,0,0,0-2.1.993l-1.1,6.223h-2.479l1.653-9.51,2.329-.009-.229,1.161A2.615,2.615,0,0,1,898.9,4a3.614,3.614,0,0,1,.861.123Z" fill="#12263f"/>
              <path id="Trazado_177183" data-name="Trazado 177183" d="M909.343,11.022q.141-.7-.976-1.02l-.8-.2q-2.84-.781-2.76-2.759A2.733,2.733,0,0,1,906,4.847a4.44,4.44,0,0,1,2.764-.83,3.976,3.976,0,0,1,2.6.853,2.8,2.8,0,0,1,1.011,2.223l-2.461-.009A1.084,1.084,0,0,0,908.7,5.845a1.748,1.748,0,0,0-1.006.29,1.2,1.2,0,0,0-.523.783q-.132.7,1.064.993l.351.079a7.06,7.06,0,0,1,1.855.664,2.79,2.79,0,0,1,.988.927,2.286,2.286,0,0,1,.321,1.327,2.53,2.53,0,0,1-.584,1.582,3.577,3.577,0,0,1-1.53,1.046,5.317,5.317,0,0,1-2.043.342,4,4,0,0,1-2.637-.91,2.93,2.93,0,0,1-1.072-2.306l2.338.017a1.285,1.285,0,0,0,1.459,1.38,2.079,2.079,0,0,0,1.129-.281,1.115,1.115,0,0,0,.532-.756" fill="#12263f"/>
              <path id="Trazado_177184" data-name="Trazado 177184" d="M918.783,12.718a3.282,3.282,0,0,1-2.619,1.16,2.444,2.444,0,0,1-2.074-.984,3.6,3.6,0,0,1-.545-2.549l1.028-6.152h2.479l-1.046,6.185a2.4,2.4,0,0,0-.009.546.9.9,0,0,0,.975.906,2.264,2.264,0,0,0,1.908-.888l1.186-6.749h2.5L920.91,13.7H918.6Z" fill="#12263f"/>
              <path id="Trazado_177185" data-name="Trazado 177185" d="M929.268,6.575a5.074,5.074,0,0,0-.835-.088,2.406,2.406,0,0,0-2.1.993l-1.1,6.223h-2.479l1.653-9.51,2.329-.009-.229,1.161A2.615,2.615,0,0,1,928.723,4a3.614,3.614,0,0,1,.861.123Z" fill="#12263f"/>
              <path id="Trazado_177186" data-name="Trazado 177186" d="M930.059,13.7l1.327-7.655h-1.371l.325-1.855,1.371-.009.123-.949a3.755,3.755,0,0,1,1.24-2.386A3.748,3.748,0,0,1,935.649,0a8.381,8.381,0,0,1,1.345.183l-.22,1.97a3.089,3.089,0,0,0-.73-.105,1.817,1.817,0,0,0-1.129.335,1.526,1.526,0,0,0-.585,1.033l-.131.776h1.837l-.326,1.855h-1.828L932.555,13.7Z" fill="#12263f"/>
              <path id="Trazado_177187" data-name="Trazado 177187" d="M938.356,13.7h-2.5l1.652-9.51h2.5ZM937.8,1.776A1.236,1.236,0,0,1,938.189.8,1.49,1.49,0,0,1,940.14.756a1.237,1.237,0,0,1,.431.932,1.275,1.275,0,0,1-.365.949,1.368,1.368,0,0,1-1,.422,1.385,1.385,0,0,1-.971-.334,1.229,1.229,0,0,1-.435-.949" fill="#12263f"/>
              <path id="Trazado_177188" data-name="Trazado 177188" d="M944.377,4.184l-.212,1.125a3.426,3.426,0,0,1,2.77-1.292A2.282,2.282,0,0,1,948.92,5a3.962,3.962,0,0,1,.466,2.655l-1,6.047h-2.479l1.019-6.074a2.836,2.836,0,0,0,.018-.624,1.007,1.007,0,0,0-1.125-.923,2.136,2.136,0,0,0-1.75.906L942.883,13.7H940.4l1.653-9.51Z" fill="#12263f"/>
              <path id="Trazado_177189" data-name="Trazado 177189" d="M950.8,8.939a6.587,6.587,0,0,1,1.437-3.582A3.654,3.654,0,0,1,955.2,4.008a2.67,2.67,0,0,1,2.268,1.1l.325-.923,2.276.009-1.556,9.185a4.477,4.477,0,0,1-1.617,3,5.028,5.028,0,0,1-3.375,1.073,4.689,4.689,0,0,1-1.881-.427,4.028,4.028,0,0,1-1.476-1.12l1.23-1.512a2.642,2.642,0,0,0,2.075,1.081,2.425,2.425,0,0,0,1.652-.506,2.7,2.7,0,0,0,.932-1.524l.14-.571a3.091,3.091,0,0,1-2.329,1,2.726,2.726,0,0,1-2.206-1.033,4.434,4.434,0,0,1-.9-2.64,9.09,9.09,0,0,1,.044-1.266m2.435,1.043a2.277,2.277,0,0,0,.347,1.325,1.219,1.219,0,0,0,1.007.524,2.218,2.218,0,0,0,1.792-.863l.739-4.032a1.458,1.458,0,0,0-1.4-.862,1.941,1.941,0,0,0-1.608.765,4,4,0,0,0-.826,2.1,9.219,9.219,0,0,0-.053,1.039" fill="#12263f"/>
              <path id="Trazado_177190" data-name="Trazado 177190" d="M201.765,150.194l-.791,4.509H198.4l2.224-12.8,4.482.008a4.483,4.483,0,0,1,3.261,1.152,3.568,3.568,0,0,1,1.037,3.006,4.036,4.036,0,0,1-1.569,3.006,5.707,5.707,0,0,1-3.643,1.125Zm.36-2.136,2.145.018a2.707,2.707,0,0,0,1.722-.537,2.156,2.156,0,0,0,.818-1.45,1.857,1.857,0,0,0-.295-1.459,1.6,1.6,0,0,0-1.261-.58l-2.426-.009Z" fill="#12263f"/>
              <path id="Trazado_177191" data-name="Trazado 177191" d="M212.206,154.7h-2.5l1.652-9.51h2.5Zm-.554-11.927a1.236,1.236,0,0,1,.387-.976,1.49,1.49,0,0,1,1.951-.044,1.237,1.237,0,0,1,.431.932,1.275,1.275,0,0,1-.365.949,1.368,1.368,0,0,1-1,.422,1.385,1.385,0,0,1-.971-.334,1.229,1.229,0,0,1-.435-.949" fill="#12263f"/>
              <path id="Trazado_177192" data-name="Trazado 177192" d="M214.781,149.939a6.587,6.587,0,0,1,1.437-3.582,3.654,3.654,0,0,1,2.958-1.349,2.67,2.67,0,0,1,2.268,1.1l.325-.923,2.276.009-1.556,9.185a4.477,4.477,0,0,1-1.617,3,5.028,5.028,0,0,1-3.375,1.073,4.689,4.689,0,0,1-1.881-.427,4.028,4.028,0,0,1-1.476-1.12l1.23-1.512a2.642,2.642,0,0,0,2.075,1.081,2.425,2.425,0,0,0,1.652-.506,2.7,2.7,0,0,0,.932-1.524l.14-.571a3.091,3.091,0,0,1-2.329,1,2.726,2.726,0,0,1-2.206-1.033,4.434,4.434,0,0,1-.9-2.64,9.1,9.1,0,0,1,.044-1.266m2.435,1.043a2.277,2.277,0,0,0,.347,1.325,1.219,1.219,0,0,0,1.007.524,2.218,2.218,0,0,0,1.792-.863l.739-4.032a1.459,1.459,0,0,0-1.4-.862,1.941,1.941,0,0,0-1.608.765,4,4,0,0,0-.826,2.1,9.235,9.235,0,0,0-.053,1.039" fill="#12263f"/>
              <path id="Trazado_177193" data-name="Trazado 177193" d="M224.835,149.939a6.587,6.587,0,0,1,1.437-3.582,3.654,3.654,0,0,1,2.958-1.349,2.67,2.67,0,0,1,2.268,1.1l.325-.923,2.276.009-1.556,9.185a4.477,4.477,0,0,1-1.617,3,5.028,5.028,0,0,1-3.375,1.073,4.689,4.689,0,0,1-1.881-.427,4.028,4.028,0,0,1-1.476-1.12l1.23-1.512a2.642,2.642,0,0,0,2.075,1.081,2.425,2.425,0,0,0,1.652-.506,2.7,2.7,0,0,0,.932-1.524l.14-.571a3.091,3.091,0,0,1-2.329,1,2.726,2.726,0,0,1-2.206-1.033,4.434,4.434,0,0,1-.9-2.64,9.1,9.1,0,0,1,.044-1.266m2.435,1.043a2.277,2.277,0,0,0,.347,1.325,1.219,1.219,0,0,0,1.007.524,2.218,2.218,0,0,0,1.792-.863l.739-4.032a1.459,1.459,0,0,0-1.4-.862,1.941,1.941,0,0,0-1.608.765,4,4,0,0,0-.826,2.1,9.235,9.235,0,0,0-.053,1.039" fill="#12263f"/>
              <path id="Trazado_177194" data-name="Trazado 177194" d="M238.45,151.082l2.716-5.889h2.76l-5.564,10.943a4.75,4.75,0,0,1-1.4,1.845,3.061,3.061,0,0,1-1.859.589,5.665,5.665,0,0,1-1.195-.184l.185-1.934.342.018a1.86,1.86,0,0,0,1.776-.888l.545-1.011-1.556-9.378h2.566Z" fill="#12263f"/>
              <path id="Trazado_177195" data-name="Trazado 177195" d="M252.407,149.975a6.82,6.82,0,0,1-1.371,3.6,3.414,3.414,0,0,1-2.865,1.31,2.656,2.656,0,0,1-2.286-1.213l-.36,1.028h-2.259l2.338-13.5h2.488l-.959,4.86a2.964,2.964,0,0,1,2.321-1.045,2.68,2.68,0,0,1,2.166.988,4.374,4.374,0,0,1,.84,2.685,10.412,10.412,0,0,1-.053,1.284m-2.461-.186a7.409,7.409,0,0,0,.053-1.163q-.1-1.535-1.266-1.561a2.064,2.064,0,0,0-1.819,1l-.686,3.791a1.416,1.416,0,0,0,1.424.988q1.829.053,2.241-2.662Z" fill="#12263f"/>
              <path id="Trazado_177196" data-name="Trazado 177196" d="M258.682,154.7a2.561,2.561,0,0,1-.1-.861,3.223,3.223,0,0,1-2.426,1.037,2.917,2.917,0,0,1-2.07-.813,2.46,2.46,0,0,1-.769-1.965,2.843,2.843,0,0,1,1.305-2.386,5.931,5.931,0,0,1,3.336-.83l1.16.017.123-.571a1.974,1.974,0,0,0,.026-.554.952.952,0,0,0-.312-.646,1.07,1.07,0,0,0-.707-.241,1.51,1.51,0,0,0-.985.286,1.381,1.381,0,0,0-.518.874l-2.488.008a2.765,2.765,0,0,1,1.253-2.21,4.859,4.859,0,0,1,2.94-.831,3.509,3.509,0,0,1,2.531.963,2.819,2.819,0,0,1,.765,2.386l-.73,4.553-.044.562a2.7,2.7,0,0,0,.15,1.055l-.009.167Zm-1.907-1.749a2.269,2.269,0,0,0,1.872-.932l.308-1.643-.862-.009a2.4,2.4,0,0,0-1.977.835,1.457,1.457,0,0,0-.273.712.841.841,0,0,0,.2.751,1,1,0,0,0,.734.286" fill="#12263f"/>
              <path id="Trazado_177197" data-name="Trazado 177197" d="M266.8,152.84a1.627,1.627,0,0,0,1.143-.373,1.841,1.841,0,0,0,.6-1.042l2.329-.009a3.415,3.415,0,0,1-.628,1.8,3.821,3.821,0,0,1-1.512,1.248,4.332,4.332,0,0,1-1.991.422,3.516,3.516,0,0,1-2.742-1.2,4.46,4.46,0,0,1-.975-3.112l.026-.483.009-.1a5.954,5.954,0,0,1,1.564-3.679,4.237,4.237,0,0,1,3.279-1.3,3.422,3.422,0,0,1,2.553,1.051,3.7,3.7,0,0,1,.927,2.675h-2.311a1.952,1.952,0,0,0-.334-1.2,1.268,1.268,0,0,0-1-.474q-1.776-.054-2.154,2.592a8.7,8.7,0,0,0-.1,1.618q.087,1.537,1.318,1.564" fill="#12263f"/>
              <path id="Trazado_177198" data-name="Trazado 177198" d="M275.935,150.915l-1.151,1L274.3,154.7h-2.478l2.338-13.5h2.487l-1.283,7.33.483-.518,2.821-2.822h3.182l-4.157,4.087,2.645,5.423h-2.716Z" fill="#12263f"/>
              <path id="Trazado_177199" data-name="Trazado 177199" d="M283.855,154.7h-2.5l1.652-9.51h2.5Zm-.554-11.927a1.236,1.236,0,0,1,.387-.976,1.49,1.49,0,0,1,1.951-.044,1.237,1.237,0,0,1,.431.932,1.275,1.275,0,0,1-.365.949,1.368,1.368,0,0,1-1,.422,1.385,1.385,0,0,1-.971-.334,1.229,1.229,0,0,1-.435-.949" fill="#12263f"/>
              <path id="Trazado_177200" data-name="Trazado 177200" d="M289.875,145.184l-.211,1.125a3.424,3.424,0,0,1,2.769-1.292,2.284,2.284,0,0,1,1.986.984,3.968,3.968,0,0,1,.466,2.655l-1,6.047H291.4l1.02-6.074a2.832,2.832,0,0,0,.017-.624,1.007,1.007,0,0,0-1.125-.923,2.136,2.136,0,0,0-1.749.906l-1.186,6.715H285.9l1.653-9.51Z" fill="#12263f"/>
              <path id="Trazado_177201" data-name="Trazado 177201" d="M296.3,149.939a6.587,6.587,0,0,1,1.437-3.582,3.654,3.654,0,0,1,2.958-1.349,2.67,2.67,0,0,1,2.268,1.1l.325-.923,2.276.009-1.556,9.185a4.477,4.477,0,0,1-1.617,3,5.028,5.028,0,0,1-3.375,1.073,4.689,4.689,0,0,1-1.881-.427,4.028,4.028,0,0,1-1.476-1.12l1.23-1.512a2.642,2.642,0,0,0,2.075,1.081,2.425,2.425,0,0,0,1.652-.506,2.7,2.7,0,0,0,.932-1.524l.14-.571a3.091,3.091,0,0,1-2.329,1,2.726,2.726,0,0,1-2.206-1.033,4.434,4.434,0,0,1-.9-2.64,9.1,9.1,0,0,1,.044-1.266m2.435,1.043a2.277,2.277,0,0,0,.347,1.325,1.219,1.219,0,0,0,1.007.524,2.218,2.218,0,0,0,1.792-.863l.739-4.032a1.458,1.458,0,0,0-1.4-.862,1.941,1.941,0,0,0-1.608.765,4,4,0,0,0-.826,2.1,9.234,9.234,0,0,0-.053,1.039" fill="#12263f"/>
            </g>
          </g>
          <path id="Trazado_177202" data-name="Trazado 177202" d="M629.449,149.157h-4.9l-.6,3.428h5.766l-.369,2.118H621l2.223-12.8h8.324l-.378,2.136h-5.74l-.536,3.05h4.922Z" fill="#12263f"/>
          <g id="Grupo_142379" data-name="Grupo 142379">
            <g id="Grupo_142378" data-name="Grupo 142378" clip-path="url(#clip-path-12)">
              <path id="Trazado_177203" data-name="Trazado 177203" d="M636.252,154.7a2.561,2.561,0,0,1-.1-.861,3.223,3.223,0,0,1-2.426,1.037,2.918,2.918,0,0,1-2.07-.813,2.46,2.46,0,0,1-.769-1.965,2.843,2.843,0,0,1,1.3-2.386,5.931,5.931,0,0,1,3.336-.83l1.16.017.123-.571a1.975,1.975,0,0,0,.026-.554.952.952,0,0,0-.312-.646,1.07,1.07,0,0,0-.707-.241,1.51,1.51,0,0,0-.985.286,1.381,1.381,0,0,0-.518.874l-2.488.008a2.765,2.765,0,0,1,1.253-2.21,4.859,4.859,0,0,1,2.94-.831,3.509,3.509,0,0,1,2.531.963,2.819,2.819,0,0,1,.765,2.386l-.73,4.553-.044.562a2.7,2.7,0,0,0,.15,1.055l-.009.167Zm-1.907-1.749a2.269,2.269,0,0,0,1.872-.932l.308-1.643-.862-.009a2.4,2.4,0,0,0-1.977.835,1.457,1.457,0,0,0-.273.712.841.841,0,0,0,.2.751,1,1,0,0,0,.734.286" fill="#12263f"/>
              <path id="Trazado_177204" data-name="Trazado 177204" d="M644.065,151.565l2.707-6.372h2.672l-4.6,9.51h-2.373l-1.626-9.51h2.514Z" fill="#12263f"/>
              <path id="Trazado_177205" data-name="Trazado 177205" d="M653.382,154.878a4.121,4.121,0,0,1-2.21-.611,3.687,3.687,0,0,1-1.437-1.652,4.6,4.6,0,0,1-.37-2.316l.027-.351a6.148,6.148,0,0,1,.808-2.549,4.894,4.894,0,0,1,1.741-1.788,4.309,4.309,0,0,1,2.355-.594,3.29,3.29,0,0,1,2.782,1.352,4.63,4.63,0,0,1,.716,3.331l-.141,1.083h-5.827a2.038,2.038,0,0,0,.449,1.476,1.711,1.711,0,0,0,1.318.572,3.045,3.045,0,0,0,2.373-1.055l1.134,1.406a3.524,3.524,0,0,1-1.547,1.261,5.053,5.053,0,0,1-2.171.435m.791-7.813a1.758,1.758,0,0,0-1.217.431,3.769,3.769,0,0,0-.954,1.555h3.41l.053-.228a2.348,2.348,0,0,0,.009-.668,1.279,1.279,0,0,0-.431-.8,1.351,1.351,0,0,0-.87-.294" fill="#12263f"/>
              <path id="Trazado_177206" data-name="Trazado 177206" d="M663.9,152.022q.141-.7-.976-1.02l-.8-.2q-2.84-.781-2.76-2.759a2.733,2.733,0,0,1,1.191-2.194,4.44,4.44,0,0,1,2.764-.83,3.976,3.976,0,0,1,2.6.853,2.8,2.8,0,0,1,1.011,2.223l-2.461-.009a1.084,1.084,0,0,0-1.213-1.239,1.748,1.748,0,0,0-1.006.29,1.2,1.2,0,0,0-.523.783q-.132.7,1.064.993l.351.079a7.058,7.058,0,0,1,1.855.664,2.791,2.791,0,0,1,.988.927,2.286,2.286,0,0,1,.321,1.327,2.53,2.53,0,0,1-.584,1.582,3.577,3.577,0,0,1-1.53,1.046,5.317,5.317,0,0,1-2.043.342,4,4,0,0,1-2.637-.91,2.93,2.93,0,0,1-1.072-2.306l2.338.017a1.285,1.285,0,0,0,1.459,1.38,2.079,2.079,0,0,0,1.129-.281,1.114,1.114,0,0,0,.532-.756" fill="#12263f"/>
              <path id="Trazado_177207" data-name="Trazado 177207" d="M672.173,145.009a2.7,2.7,0,0,1,2.144,1.063l.932-4.869h2.487L675.4,154.7h-2.214l.14-1.019a3.079,3.079,0,0,1-2.478,1.2,2.736,2.736,0,0,1-1.556-.466,2.93,2.93,0,0,1-1.033-1.315,5.3,5.3,0,0,1-.4-1.911,7.309,7.309,0,0,1,.027-1.072l.052-.4a7.631,7.631,0,0,1,.813-2.566,4.24,4.24,0,0,1,1.477-1.643,3.474,3.474,0,0,1,1.947-.51m-1.8,5.115a7.05,7.05,0,0,0-.044,1.125q.088,1.547,1.248,1.573a2.119,2.119,0,0,0,1.819-.984l.677-3.779a1.4,1.4,0,0,0-1.371-.985,1.806,1.806,0,0,0-1.507.7,4.686,4.686,0,0,0-.822,2.351" fill="#12263f"/>
              <path id="Trazado_177208" data-name="Trazado 177208" d="M683.889,147.575a5.074,5.074,0,0,0-.835-.088,2.406,2.406,0,0,0-2.1.993l-1.1,6.223h-2.479l1.653-9.51,2.329-.009-.229,1.161A2.615,2.615,0,0,1,683.344,145a3.614,3.614,0,0,1,.861.123Z" fill="#12263f"/>
              <path id="Trazado_177209" data-name="Trazado 177209" d="M688.96,145.018a3.805,3.805,0,0,1,2.166.646,3.636,3.636,0,0,1,1.336,1.73,5.353,5.353,0,0,1,.3,2.449,5.787,5.787,0,0,1-1.578,3.669,4.455,4.455,0,0,1-3.4,1.367,3.816,3.816,0,0,1-2.145-.637,3.637,3.637,0,0,1-1.336-1.719A5.238,5.238,0,0,1,684,150.1a5.957,5.957,0,0,1,1.6-3.745,4.365,4.365,0,0,1,3.358-1.335M686.455,151a2.192,2.192,0,0,0,.4,1.329,1.312,1.312,0,0,0,1.063.5,1.927,1.927,0,0,0,1.793-1.049,5.219,5.219,0,0,0,.606-2.848,2.381,2.381,0,0,0-.408-1.346,1.293,1.293,0,0,0-1.068-.523,1.931,1.931,0,0,0-1.771,1.04,5.171,5.171,0,0,0-.611,2.892" fill="#12263f"/>
              <path id="Trazado_177210" data-name="Trazado 177210" d="M702.609,149.975a7.86,7.86,0,0,1-.782,2.654,4.312,4.312,0,0,1-1.486,1.723,3.442,3.442,0,0,1-1.968.536,2.745,2.745,0,0,1-2.18-1.029l-.87,4.5h-2.479l2.277-13.166,2.285-.008-.167.958a3.032,3.032,0,0,1,2.426-1.125,2.7,2.7,0,0,1,2.17,1.015,4.408,4.408,0,0,1,.827,2.658,10.411,10.411,0,0,1-.053,1.284m-2.461-.181.053-.845a2.359,2.359,0,0,0-.312-1.355,1.121,1.121,0,0,0-.963-.52,2.049,2.049,0,0,0-1.784.915l-.712,3.927a1.388,1.388,0,0,0,1.4.924,1.792,1.792,0,0,0,1.494-.695,4.77,4.77,0,0,0,.826-2.351" fill="#12263f"/>
              <path id="Trazado_177211" data-name="Trazado 177211" d="M712.523,149.975a7.86,7.86,0,0,1-.782,2.654,4.312,4.312,0,0,1-1.486,1.723,3.442,3.442,0,0,1-1.968.536,2.745,2.745,0,0,1-2.18-1.029l-.87,4.5h-2.479l2.277-13.166,2.285-.008-.167.958a3.032,3.032,0,0,1,2.426-1.125,2.7,2.7,0,0,1,2.17,1.015,4.408,4.408,0,0,1,.827,2.658,10.411,10.411,0,0,1-.053,1.284m-2.46-.181.052-.845a2.359,2.359,0,0,0-.312-1.355,1.121,1.121,0,0,0-.963-.52,2.049,2.049,0,0,0-1.784.915l-.712,3.927a1.388,1.388,0,0,0,1.4.924,1.792,1.792,0,0,0,1.494-.695,4.779,4.779,0,0,0,.827-2.351" fill="#12263f"/>
              <path id="Trazado_177212" data-name="Trazado 177212" d="M715.925,154.7h-2.5l1.652-9.51h2.5Zm-.554-11.927a1.236,1.236,0,0,1,.387-.976,1.49,1.49,0,0,1,1.951-.044,1.237,1.237,0,0,1,.431.932,1.275,1.275,0,0,1-.365.949,1.368,1.368,0,0,1-1,.422,1.385,1.385,0,0,1-.971-.334,1.229,1.229,0,0,1-.435-.949" fill="#12263f"/>
              <path id="Trazado_177213" data-name="Trazado 177213" d="M721.945,145.184l-.211,1.125a3.424,3.424,0,0,1,2.769-1.292,2.284,2.284,0,0,1,1.986.984,3.968,3.968,0,0,1,.466,2.655l-1,6.047h-2.479l1.02-6.074a2.832,2.832,0,0,0,.017-.624,1.007,1.007,0,0,0-1.125-.923,2.136,2.136,0,0,0-1.749.906l-1.186,6.715h-2.479l1.653-9.51Z" fill="#12263f"/>
              <path id="Trazado_177214" data-name="Trazado 177214" d="M728.37,149.939a6.588,6.588,0,0,1,1.437-3.582,3.654,3.654,0,0,1,2.958-1.349,2.67,2.67,0,0,1,2.268,1.1l.325-.923,2.276.009-1.556,9.185a4.477,4.477,0,0,1-1.617,3,5.028,5.028,0,0,1-3.375,1.073,4.688,4.688,0,0,1-1.881-.427,4.028,4.028,0,0,1-1.476-1.12l1.23-1.512a2.642,2.642,0,0,0,2.075,1.081,2.425,2.425,0,0,0,1.652-.506,2.7,2.7,0,0,0,.932-1.524l.14-.571a3.091,3.091,0,0,1-2.329,1,2.726,2.726,0,0,1-2.206-1.033,4.434,4.434,0,0,1-.9-2.64,9.1,9.1,0,0,1,.044-1.266m2.435,1.043a2.277,2.277,0,0,0,.347,1.325,1.219,1.219,0,0,0,1.007.524,2.218,2.218,0,0,0,1.792-.863l.739-4.032a1.459,1.459,0,0,0-1.4-.862,1.941,1.941,0,0,0-1.608.765,4,4,0,0,0-.826,2.1,9.249,9.249,0,0,0-.053,1.039" fill="#12263f"/>
            </g>
          </g>
        </g>
        <g id="Grupo_142747" data-name="Grupo 142747" transform="translate(9043.32 11698.156)">
          <g id="usuario" transform="translate(-8717 -2308)">
            <g id="Grupo_142687" data-name="Grupo 142687" transform="translate(0 10.818)">
              <path id="Trazado_181736" data-name="Trazado 181736" d="M80.6,140.6H9.015A9.015,9.015,0,0,1,0,131.588V69.023l44.805-7.212L89.61,69.023v62.565A9.015,9.015,0,0,1,80.6,140.6Z" transform="translate(0 -61.811)" fill="#e7e7ef"/>
            </g>
            <g id="Grupo_142689" data-name="Grupo 142689" transform="translate(0 0)">
              <path id="Trazado_181738" data-name="Trazado 181738" d="M89.61,18.03H0V9.015A9.015,9.015,0,0,1,9.015,0H80.6A9.015,9.015,0,0,1,89.61,9.015Z" transform="translate(0 0)" fill="#5e8eca"/>
            </g>
            <g id="Grupo_142690" data-name="Grupo 142690" transform="translate(0 16.155)">
              <path id="Trazado_181739" data-name="Trazado 181739" d="M11.65,156.744V92.3L0,94.179v62.565a9.015,9.015,0,0,0,9.015,9.015h11.65a9.015,9.015,0,0,1-9.015-9.015Z" transform="translate(0 -92.304)" fill="#d8d8db"/>
            </g>
            <g id="Grupo_142691" data-name="Grupo 142691" transform="translate(0 0)">
              <path id="Trazado_181740" data-name="Trazado 181740" d="M20.665,0H9.015A9.015,9.015,0,0,0,0,9.015V18.03H11.65V9.015A9.015,9.015,0,0,1,20.665,0Z" transform="translate(0 0)" fill="#4b75a9"/>
            </g>
            <g id="Grupo_142692" data-name="Grupo 142692" transform="translate(23.169 33.742)">
              <path id="Trazado_181741" data-name="Trazado 181741" d="M168.439,207.211H139.59a7.212,7.212,0,1,1,0-14.424h28.848a7.212,7.212,0,0,1,0,14.424Z" transform="translate(-132.378 -192.787)" fill="#e7e7ef"/>
            </g>
            <g id="Grupo_142695" data-name="Grupo 142695" transform="translate(14.779 7.702)">
              <path id="Trazado_181743" data-name="Trazado 181743" d="M121.547,46.634H85.757a1.313,1.313,0,0,1,0-2.625h35.79a1.313,1.313,0,1,1,0,2.625Z" transform="translate(-84.444 -44.009)" fill="#86b6ef"/>
            </g>
            <g id="Grupo_142696" data-name="Grupo 142696" transform="translate(70.814 7.663)">
              <circle id="Elipse_5454" data-name="Elipse 5454" cx="1.352" cy="1.352" r="1.352" fill="#86b6ef"/>
            </g>
            <g id="Grupo_142697" data-name="Grupo 142697" transform="translate(60.897 7.663)">
              <circle id="Elipse_5455" data-name="Elipse 5455" cx="1.352" cy="1.352" r="1.352" fill="#86b6ef"/>
            </g>
          </g>
          <g id="bloqueado_1_" data-name="bloqueado (1)" transform="translate(-8717 -2276.492)">
            <g id="Grupo_142704" data-name="Grupo 142704" transform="translate(52.783 25.017)">
              <path id="Trazado_181756" data-name="Trazado 181756" d="M315.108,322.962H309.7a8.114,8.114,0,0,0,0,16.227h5.409a8.114,8.114,0,0,0,0-16.227Zm-8.114,8.114a2.7,2.7,0,0,1,2.7-2.7h5.409a2.7,2.7,0,0,1,0,5.409H309.7A2.7,2.7,0,0,1,306.994,331.076Z" transform="translate(-301.585 -322.962)" fill="#b2b0bc"/>
            </g>
            <g id="Grupo_142705" data-name="Grupo 142705" transform="translate(79.829 25.017)">
              <path id="Trazado_181757" data-name="Trazado 181757" d="M464.227,339.189h1.668V333.78h-1.668a2.7,2.7,0,0,1,0-5.409h1.668v-5.409h-1.668a8.114,8.114,0,0,0,0,16.227Z" transform="translate(-456.113 -322.962)" fill="#b2b0bc"/>
            </g>
            <g id="Grupo_142706" data-name="Grupo 142706" transform="translate(69.011 30.426)">
              <path id="Trazado_181758" data-name="Trazado 181758" d="M394.3,356.572a2.7,2.7,0,0,1,2.7-2.7h10.818a2.7,2.7,0,0,1,0,5.409H397.007A2.7,2.7,0,0,1,394.3,356.572Z" transform="translate(-394.302 -353.867)" fill="#b7bcce"/>
            </g>
            <g id="Grupo_142707" data-name="Grupo 142707" transform="translate(63.602 3.381)">
              <path id="Trazado_181759" data-name="Trazado 181759" d="M376.919,199.34H371.51a8.114,8.114,0,1,0,0,16.227h5.409a8.114,8.114,0,1,0,0-16.227Zm-8.114,8.114a2.7,2.7,0,0,1,2.7-2.7h5.409a2.7,2.7,0,1,1,0,5.409H371.51A2.7,2.7,0,0,1,368.805,207.454Z" transform="translate(-363.396 -199.34)" fill="#b2b0bc"/>
            </g>
            <g id="Grupo_142708" data-name="Grupo 142708" transform="translate(79.829 8.79)">
              <path id="Trazado_181760" data-name="Trazado 181760" d="M465.894,230.245h-7.077a2.7,2.7,0,0,0,0,5.409h7.077Z" transform="translate(-456.112 -230.245)" fill="#b7bcce"/>
            </g>
            <g id="Grupo_142709" data-name="Grupo 142709" transform="translate(52.784 8.79)">
              <path id="Trazado_181761" data-name="Trazado 181761" d="M301.586,232.95a2.7,2.7,0,0,1,2.7-2.7h10.818a2.7,2.7,0,0,1,0,5.409H304.291A2.7,2.7,0,0,1,301.586,232.95Z" transform="translate(-301.586 -230.245)" fill="#b7bcce"/>
            </g>
            <g id="Grupo_142710" data-name="Grupo 142710" transform="translate(4.372 3.381)">
              <path id="Trazado_181762" data-name="Trazado 181762" d="M38.5,199.34H33.1a8.114,8.114,0,1,0,0,16.227H38.5a8.114,8.114,0,1,0,0-16.227Zm-8.114,8.114a2.7,2.7,0,0,1,2.7-2.7H38.5a2.7,2.7,0,1,1,0,5.409H33.1A2.7,2.7,0,0,1,30.391,207.454Z" transform="translate(-24.982 -199.34)" fill="#b2b0bc"/>
            </g>
            <g id="Grupo_142711" data-name="Grupo 142711" transform="translate(20.6 8.79)">
              <path id="Trazado_181763" data-name="Trazado 181763" d="M117.7,232.95a2.7,2.7,0,0,1,2.7-2.7h10.818a2.7,2.7,0,0,1,0,5.409H120.4A2.7,2.7,0,0,1,117.7,232.95Z" transform="translate(-117.698 -230.245)" fill="#b7bcce"/>
            </g>
            <g id="Grupo_142712" data-name="Grupo 142712" transform="translate(0 8.79)">
              <path id="Trazado_181764" data-name="Trazado 181764" d="M9.781,232.95a2.7,2.7,0,0,0-2.7-2.7H0v5.409H7.077A2.7,2.7,0,0,0,9.781,232.95Z" transform="translate(0 -230.245)" fill="#b7bcce"/>
            </g>
            <g id="Grupo_142713" data-name="Grupo 142713" transform="translate(0 25.017)">
              <path id="Trazado_181765" data-name="Trazado 181765" d="M9.781,331.076a8.114,8.114,0,0,0-8.114-8.114H0v5.409H1.668a2.7,2.7,0,0,1,0,5.409H0v5.409H1.668A8.114,8.114,0,0,0,9.781,331.076Z" transform="translate(0 -322.962)" fill="#b2b0bc"/>
            </g>
            <g id="Grupo_142714" data-name="Grupo 142714" transform="translate(15.19 25.017)">
              <path id="Trazado_181766" data-name="Trazado 181766" d="M100.315,322.962H94.906a8.114,8.114,0,0,0,0,16.227h5.409a8.114,8.114,0,0,0,0-16.227ZM92.2,331.076a2.7,2.7,0,0,1,2.7-2.7h5.409a2.7,2.7,0,0,1,0,5.409H94.906A2.7,2.7,0,0,1,92.2,331.076Z" transform="translate(-86.792 -322.962)" fill="#b2b0bc"/>
            </g>
            <g id="Grupo_142715" data-name="Grupo 142715" transform="translate(4.372 30.426)">
              <path id="Trazado_181767" data-name="Trazado 181767" d="M24.982,356.572a2.7,2.7,0,0,1,2.7-2.7H38.5a2.7,2.7,0,0,1,0,5.409H27.687A2.7,2.7,0,0,1,24.982,356.572Z" transform="translate(-24.982 -353.867)" fill="#b7bcce"/>
            </g>
            <g id="Grupo_142717" data-name="Grupo 142717" transform="translate(33.987 0)">
              <g id="Grupo_142716" data-name="Grupo 142716">
                <path id="Trazado_181768" data-name="Trazado 181768" d="M213.121,204.365a2.7,2.7,0,0,1-2.7-2.7V190.842a5.409,5.409,0,1,0-10.818,0V201.66a2.7,2.7,0,0,1-5.409,0V190.842a10.818,10.818,0,1,1,21.636,0V201.66A2.7,2.7,0,0,1,213.121,204.365Z" transform="translate(-194.189 -180.024)" fill="#ffce62"/>
              </g>
            </g>
            <g id="Grupo_142718" data-name="Grupo 142718" transform="translate(33.987 0)">
              <path id="Trazado_181769" data-name="Trazado 181769" d="M202.3,182.729a2.7,2.7,0,0,1,2.7-2.7,10.83,10.83,0,0,0-10.818,10.818V201.66a2.7,2.7,0,1,0,5.409,0V190.842a5.415,5.415,0,0,1,5.409-5.409A2.7,2.7,0,0,1,202.3,182.729Z" transform="translate(-194.189 -180.024)" fill="#dab155"/>
            </g>
            <g id="Grupo_142719" data-name="Grupo 142719" transform="translate(28.578 17.58)">
              <path id="Trazado_181770" data-name="Trazado 181770" d="M190.329,307.513H168.693a5.409,5.409,0,0,1-5.409-5.409V285.877a5.409,5.409,0,0,1,5.409-5.409h21.636a5.409,5.409,0,0,1,5.409,5.409V302.1A5.409,5.409,0,0,1,190.329,307.513Z" transform="translate(-163.284 -280.468)" fill="#fc5c70"/>
            </g>
            <g id="Grupo_142720" data-name="Grupo 142720" transform="translate(28.578 17.58)">
              <path id="Trazado_181771" data-name="Trazado 181771" d="M168.693,302.1V285.877a5.409,5.409,0,0,1,5.409-5.409h-5.409a5.409,5.409,0,0,0-5.409,5.409V302.1a5.409,5.409,0,0,0,5.409,5.409H174.1A5.409,5.409,0,0,1,168.693,302.1Z" transform="translate(-163.284 -280.468)" fill="#db4255"/>
            </g>
            <g id="Grupo_142721" data-name="Grupo 142721" transform="translate(40.748 25.572)">
              <circle id="Elipse_5457" data-name="Elipse 5457" cx="4.057" cy="4.057" r="4.057" fill="#636363"/>
            </g>
          </g>
        </g>
        <g id="incognito" transform="translate(540.192 9223.408)">
          <g id="Grupo_142725" data-name="Grupo 142725" transform="translate(0 10.818)">
            <path id="Trazado_181772" data-name="Trazado 181772" d="M80.6,140.6H9.015A9.015,9.015,0,0,1,0,131.588V69.023l44.805-7.212L89.61,69.023v62.565A9.015,9.015,0,0,1,80.6,140.6Z" transform="translate(0 -61.811)" fill="#e7e7ef"/>
          </g>
          <g id="Grupo_142726" data-name="Grupo 142726" transform="translate(0 0)">
            <path id="Trazado_181773" data-name="Trazado 181773" d="M89.61,18.03H0V9.015A9.015,9.015,0,0,1,9.015,0H80.6A9.015,9.015,0,0,1,89.61,9.015Z" transform="translate(0 0)" fill="#5e8eca"/>
          </g>
          <g id="Grupo_142727" data-name="Grupo 142727" transform="translate(0 16.155)">
            <path id="Trazado_181774" data-name="Trazado 181774" d="M11.65,156.744V92.3L0,94.179v62.565a9.015,9.015,0,0,0,9.015,9.015h11.65A9.015,9.015,0,0,1,11.65,156.744Z" transform="translate(0 -92.304)" fill="#d8d8db"/>
          </g>
          <g id="Grupo_142728" data-name="Grupo 142728" transform="translate(0 0)">
            <path id="Trazado_181775" data-name="Trazado 181775" d="M20.665,0H9.015A9.015,9.015,0,0,0,0,9.015V18.03H11.65V9.015A9.015,9.015,0,0,1,20.665,0Z" transform="translate(0 0)" fill="#4b75a9"/>
          </g>
          <g id="Grupo_142729" data-name="Grupo 142729" transform="translate(26.054 25.242)">
            <path id="Trazado_181776" data-name="Trazado 181776" d="M175.368,144.225c-5.125,0-5.626,4.716-7.752,4.716s-2.627-4.716-7.752-4.716c-7.639,0-11,25.116-11,25.116h37.5S183.007,144.225,175.368,144.225Z" transform="translate(-148.865 -144.225)" fill="#868eaf"/>
          </g>
          <g id="Grupo_142730" data-name="Grupo 142730" transform="translate(26.054 26.688)">
            <path id="Trazado_181777" data-name="Trazado 181777" d="M156.8,152.483c-5.479,5.339-7.932,23.671-7.932,23.671h18.751v-8.531C162.756,165.823,155.354,158.515,156.8,152.483Z" transform="translate(-148.865 -152.483)" fill="#677293"/>
          </g>
          <g id="Grupo_142731" data-name="Grupo 142731" transform="translate(11.65 41.827)">
            <path id="Trazado_181778" data-name="Trazado 181778" d="M66.563,246.685c0-1.383,1.925-1.584,3.25-1.977,4.937-1.463,16.394-5.722,29.9-5.722a115,115,0,0,1,30.919,4.708,3.119,3.119,0,0,1-.883,6.11H69.682A3.119,3.119,0,0,1,66.563,246.685Z" transform="translate(-66.563 -238.986)" fill="#b7bcce"/>
          </g>
          <g id="Grupo_142732" data-name="Grupo 142732" transform="translate(11.65 41.828)">
            <path id="Trazado_181779" data-name="Trazado 181779" d="M94.31,244.4a5.409,5.409,0,0,1,5.409-5.409A115,115,0,0,0,68.8,243.7a3.119,3.119,0,0,0,.883,6.11H99.719A5.409,5.409,0,0,1,94.31,244.4Z" transform="translate(-66.564 -238.987)" fill="#868eaf"/>
          </g>
          <g id="Grupo_142739" data-name="Grupo 142739" transform="translate(14.779 7.663)">
            <g id="Grupo_142733" data-name="Grupo 142733" transform="translate(0 0.04)">
              <path id="Trazado_181780" data-name="Trazado 181780" d="M121.547,46.634H85.757a1.313,1.313,0,0,1,0-2.625h35.79a1.313,1.313,0,1,1,0,2.625Z" transform="translate(-84.444 -44.009)" fill="#86b6ef"/>
            </g>
            <g id="Grupo_142734" data-name="Grupo 142734" transform="translate(56.034)">
              <circle id="Elipse_5458" data-name="Elipse 5458" cx="1.352" cy="1.352" r="1.352" fill="#86b6ef"/>
            </g>
            <g id="Grupo_142735" data-name="Grupo 142735" transform="translate(46.118)">
              <circle id="Elipse_5459" data-name="Elipse 5459" cx="1.352" cy="1.352" r="1.352" fill="#86b6ef"/>
            </g>
            <g id="Grupo_142736" data-name="Grupo 142736" transform="translate(23.594 55.124)">
              <path id="Trazado_181781" data-name="Trazado 181781" d="M220.565,362.861a1.313,1.313,0,0,1-.7-2.422,10.839,10.839,0,0,1,11.64,0,1.313,1.313,0,1,1-1.4,2.219,8.214,8.214,0,0,0-8.833,0A1.308,1.308,0,0,1,220.565,362.861Z" transform="translate(-219.251 -358.743)" fill="#677293"/>
            </g>
            <g id="Grupo_142737" data-name="Grupo 142737" transform="translate(5.601 49.079)">
              <path id="Trazado_181782" data-name="Trazado 181782" d="M126.774,344.859A10.328,10.328,0,1,1,137.1,334.531,10.34,10.34,0,0,1,126.774,344.859Zm0-18.03a7.7,7.7,0,1,0,7.7,7.7A7.711,7.711,0,0,0,126.774,326.828Z" transform="translate(-116.446 -324.203)" fill="#b7bcce"/>
            </g>
            <g id="Grupo_142738" data-name="Grupo 142738" transform="translate(33.787 49.079)">
              <path id="Trazado_181783" data-name="Trazado 181783" d="M287.82,344.859a10.328,10.328,0,1,1,10.328-10.328A10.34,10.34,0,0,1,287.82,344.859Zm0-18.03a7.7,7.7,0,1,0,7.7,7.7A7.711,7.711,0,0,0,287.82,326.828Z" transform="translate(-277.492 -324.203)" fill="#b7bcce"/>
            </g>
          </g>
        </g>
        <g id="Grupo_142749" data-name="Grupo 142749" transform="translate(9055.875 11698)">
          <g id="incognito-2" data-name="incognito" transform="translate(-8301.805 -2305.805)">
            <g id="Grupo_142725-2" data-name="Grupo 142725" transform="translate(0 10.818)">
              <path id="Trazado_181772-2" data-name="Trazado 181772" d="M80.6,140.6H9.015A9.015,9.015,0,0,1,0,131.588V69.023l44.805-7.212L89.61,69.023v62.565A9.015,9.015,0,0,1,80.6,140.6Z" transform="translate(0 -61.811)" fill="#e7e7ef"/>
            </g>
            <g id="Grupo_142726-2" data-name="Grupo 142726" transform="translate(0 0)">
              <path id="Trazado_181773-2" data-name="Trazado 181773" d="M89.61,18.03H0V9.015A9.015,9.015,0,0,1,9.015,0H80.6A9.015,9.015,0,0,1,89.61,9.015Z" transform="translate(0 0)" fill="#5e8eca"/>
            </g>
            <g id="Grupo_142727-2" data-name="Grupo 142727" transform="translate(0 16.155)">
              <path id="Trazado_181774-2" data-name="Trazado 181774" d="M11.65,156.744V92.3L0,94.179v62.565a9.015,9.015,0,0,0,9.015,9.015h11.65A9.015,9.015,0,0,1,11.65,156.744Z" transform="translate(0 -92.304)" fill="#d8d8db"/>
            </g>
            <g id="Grupo_142728-2" data-name="Grupo 142728" transform="translate(0 0)">
              <path id="Trazado_181775-2" data-name="Trazado 181775" d="M20.665,0H9.015A9.015,9.015,0,0,0,0,9.015V18.03H11.65V9.015A9.015,9.015,0,0,1,20.665,0Z" transform="translate(0 0)" fill="#4b75a9"/>
            </g>
            <g id="Grupo_142739-2" data-name="Grupo 142739" transform="translate(14.779 7.663)">
              <g id="Grupo_142733-2" data-name="Grupo 142733" transform="translate(0 0.04)">
                <path id="Trazado_181780-2" data-name="Trazado 181780" d="M121.547,46.634H85.757a1.313,1.313,0,0,1,0-2.625h35.79a1.313,1.313,0,1,1,0,2.625Z" transform="translate(-84.444 -44.009)" fill="#86b6ef"/>
              </g>
              <g id="Grupo_142734-2" data-name="Grupo 142734" transform="translate(56.034)">
                <circle id="Elipse_5458-2" data-name="Elipse 5458" cx="1.352" cy="1.352" r="1.352" fill="#86b6ef"/>
              </g>
              <g id="Grupo_142735-2" data-name="Grupo 142735" transform="translate(46.118)">
                <circle id="Elipse_5459-2" data-name="Elipse 5459" cx="1.352" cy="1.352" r="1.352" fill="#86b6ef"/>
              </g>
            </g>
          </g>
          <g id="tijeras" transform="translate(-8292.46 -2282.499)">
            <path id="Trazado_181784" data-name="Trazado 181784" d="M287.746,141.731,304.29,134.6a7.014,7.014,0,0,0,3.665-9.216,2.149,2.149,0,0,0-2.825-1.123l-15.392,6.633q-1.963.846-3.993,1.51l-2.118,4.928Z" transform="translate(-244.96 -109.231)" fill="#b2b0bc"/>
            <path id="Trazado_181785" data-name="Trazado 181785" d="M26.765,156.023a12.094,12.094,0,1,0-4.41,18.769l9.077-3.912,2.591-6.65-2.591-5.714A6.984,6.984,0,0,1,26.765,156.023ZM19.78,169.148a5.891,5.891,0,1,1,3.078-7.741A5.9,5.9,0,0,1,19.78,169.148Z" transform="translate(0 -133.489)" fill="#fc5c70"/>
            <path id="Trazado_181786" data-name="Trazado 181786" d="M223.191,25.028V7.012A7.012,7.012,0,0,1,230.2,0a2.149,2.149,0,0,1,2.15,2.15V18.91q0,2.138.192,4.264l-4.16,3.433Z" transform="translate(-191.76)" fill="#c7c5cb"/>
            <path id="Trazado_181787" data-name="Trazado 181787" d="M193.191,196.95v15.361l3.591-1.548,2.591-6.65-2.591-5.714A6.989,6.989,0,0,1,193.191,196.95Z" transform="translate(-165.351 -173.372)" fill="#f8485e"/>
            <path id="Trazado_181788" data-name="Trazado 181788" d="M290.559,190.793a43.957,43.957,0,0,1-1.237-7.1l-.088-.975q-1.72.718-3.488,1.3l-2.118,4.928,4.12,4.4,3.336-1.438a3.345,3.345,0,0,1-.524-1.116Z" transform="translate(-244.961 -160.847)" fill="#a19dae"/>
            <path id="Trazado_181789" data-name="Trazado 181789" d="M238.682,206.2a7,7,0,0,1-4.8-4.946,47.422,47.422,0,0,1-1.339-7.678,47.288,47.288,0,0,1-7.579,1.811,6.952,6.952,0,0,1-1.774.043v22.247A12.093,12.093,0,1,0,238.682,206.2Zm-3.4,17.5a5.891,5.891,0,1,1,5.891-5.891A5.9,5.9,0,0,1,235.283,223.7Z" transform="translate(-191.76 -170.401)" fill="#ff6f7f"/>
            <circle id="Elipse_5460" data-name="Elipse 5460" cx="2.042" cy="2.042" r="2.042" transform="translate(34.582 27.457)" fill="#c7c5cb"/>
          </g>
        </g>
        <g id="Grupo_142750" data-name="Grupo 142750" transform="translate(9055.875 11698)">
          <g id="incognito-3" data-name="incognito" transform="translate(-8087.928 -2474.592)">
            <g id="Grupo_142725-3" data-name="Grupo 142725" transform="translate(0 10.818)">
              <path id="Trazado_181772-3" data-name="Trazado 181772" d="M80.6,140.6H9.015A9.015,9.015,0,0,1,0,131.588V69.023l44.805-7.212L89.61,69.023v62.565A9.015,9.015,0,0,1,80.6,140.6Z" transform="translate(0 -61.811)" fill="#e7e7ef"/>
            </g>
            <g id="Grupo_142726-3" data-name="Grupo 142726" transform="translate(0 0)">
              <path id="Trazado_181773-3" data-name="Trazado 181773" d="M89.61,18.03H0V9.015A9.015,9.015,0,0,1,9.015,0H80.6A9.015,9.015,0,0,1,89.61,9.015Z" transform="translate(0 0)" fill="#5e8eca"/>
            </g>
            <g id="Grupo_142727-3" data-name="Grupo 142727" transform="translate(0 16.155)">
              <path id="Trazado_181774-3" data-name="Trazado 181774" d="M11.65,156.744V92.3L0,94.179v62.565a9.015,9.015,0,0,0,9.015,9.015h11.65A9.015,9.015,0,0,1,11.65,156.744Z" transform="translate(0 -92.304)" fill="#d8d8db"/>
            </g>
            <g id="Grupo_142728-3" data-name="Grupo 142728" transform="translate(0 0)">
              <path id="Trazado_181775-3" data-name="Trazado 181775" d="M20.665,0H9.015A9.015,9.015,0,0,0,0,9.015V18.03H11.65V9.015A9.015,9.015,0,0,1,20.665,0Z" transform="translate(0 0)" fill="#4b75a9"/>
            </g>
            <g id="Grupo_142739-3" data-name="Grupo 142739" transform="translate(14.779 7.663)">
              <g id="Grupo_142733-3" data-name="Grupo 142733" transform="translate(0 0.04)">
                <path id="Trazado_181780-3" data-name="Trazado 181780" d="M121.547,46.634H85.757a1.313,1.313,0,0,1,0-2.625h35.79a1.313,1.313,0,1,1,0,2.625Z" transform="translate(-84.444 -44.009)" fill="#86b6ef"/>
              </g>
              <g id="Grupo_142734-3" data-name="Grupo 142734" transform="translate(56.034)">
                <circle id="Elipse_5458-3" data-name="Elipse 5458" cx="1.352" cy="1.352" r="1.352" fill="#86b6ef"/>
              </g>
              <g id="Grupo_142735-3" data-name="Grupo 142735" transform="translate(46.118)">
                <circle id="Elipse_5459-3" data-name="Elipse 5459" cx="1.352" cy="1.352" r="1.352" fill="#86b6ef"/>
              </g>
            </g>
          </g>
          <g id="telefono" transform="translate(-8069.123 -2480.703)">
            <path id="Trazado_181790" data-name="Trazado 181790" d="M205.04,31h-13.3a11.626,11.626,0,0,0-1.662,23.149v5.1a1.662,1.662,0,0,0,2.837,1.175l5.473-5.473.688-.688h5.96a11.634,11.634,0,1,0,0-23.267Z" transform="translate(-160.057 0)" fill="#c7c5cb"/>
            <path id="Trazado_181791" data-name="Trazado 181791" d="M352.648,54.267a11.634,11.634,0,1,0,0-23.267H346V54.956l.688-.688Z" transform="translate(-307.664 0)" fill="#b2b0bc"/>
            <path id="Trazado_181792" data-name="Trazado 181792" d="M42.324,130.58v6.648a4.974,4.974,0,0,1-4.963,4.986c-9.574,0-18.914-4.526-25.861-11.445S0,114.537,0,104.963A4.971,4.971,0,0,1,4.986,100h6.648a1.659,1.659,0,0,1,1.576,1.136l3.324,9.948a1.663,1.663,0,0,1-.193,1.448l-2.819,4.229a26.043,26.043,0,0,0,5.141,6.845,27.057,27.057,0,0,0,6.9,5.086l4.229-2.819a1.664,1.664,0,0,1,1.448-.193L41.212,129a1.638,1.638,0,0,1,1.112,1.576Z" transform="translate(0 -61.355)" fill="#fc5c70"/>
            <path id="Trazado_181793" data-name="Trazado 181793" d="M134.624,320.034v6.648a4.974,4.974,0,0,1-4.963,4.986c-9.574,0-18.914-4.526-25.861-11.445l7.162-7.162a27.057,27.057,0,0,0,6.9,5.086l4.229-2.819a1.664,1.664,0,0,1,1.448-.193l9.972,3.324A1.638,1.638,0,0,1,134.624,320.034Z" transform="translate(-92.299 -250.809)" fill="#f8485e"/>
            <circle id="Elipse_5461" data-name="Elipse 5461" cx="1.636" cy="1.636" r="1.636" transform="translate(30.546 40.656)" fill="#613d5c"/>
            <circle id="Elipse_5462" data-name="Elipse 5462" cx="1.636" cy="1.636" r="1.636" transform="translate(37.091 40.656)" fill="#613d5c"/>
            <g id="Grupo_142741" data-name="Grupo 142741" transform="translate(38.336 40.656)">
              <path id="Trazado_181794" data-name="Trazado 181794" d="M347.662,122.66A1.662,1.662,0,0,0,346,121v3.324A1.662,1.662,0,0,0,347.662,122.66Z" transform="translate(-346 -120.683)" fill="#4b2746"/>
              <circle id="Elipse_5463" data-name="Elipse 5463" cx="1.636" cy="1.636" r="1.636" transform="translate(5.301 0)" fill="#4b2746"/>
            </g>
          </g>
        </g>
        <g id="Grupo_142748" data-name="Grupo 142748" transform="translate(9687.07 11843.195)">
          <g id="usuario-2" data-name="usuario" transform="translate(-8503 -2451)">
            <g id="Grupo_142687-2" data-name="Grupo 142687" transform="translate(0 10.818)">
              <path id="Trazado_181736-2" data-name="Trazado 181736" d="M80.6,140.6H9.015A9.015,9.015,0,0,1,0,131.588V69.023l44.805-7.212L89.61,69.023v62.565A9.015,9.015,0,0,1,80.6,140.6Z" transform="translate(0 -61.811)" fill="#e7e7ef"/>
            </g>
            <g id="Grupo_142688" data-name="Grupo 142688" transform="translate(11.65 60.762)">
              <path id="Trazado_181737" data-name="Trazado 181737" d="M66.563,357.989a10.818,10.818,0,0,1,10.818-10.818h44.674a10.818,10.818,0,0,1,0,21.636H77.381A10.818,10.818,0,0,1,66.563,357.989Z" transform="translate(-66.563 -347.171)" fill="#ff6f7f"/>
            </g>
            <g id="Grupo_142689-2" data-name="Grupo 142689" transform="translate(0 0)">
              <path id="Trazado_181738-2" data-name="Trazado 181738" d="M89.61,18.03H0V9.015A9.015,9.015,0,0,1,9.015,0H80.6A9.015,9.015,0,0,1,89.61,9.015Z" transform="translate(0 0)" fill="#5e8eca"/>
            </g>
            <g id="Grupo_142690-2" data-name="Grupo 142690" transform="translate(0 16.155)">
              <path id="Trazado_181739-2" data-name="Trazado 181739" d="M11.65,156.744V92.3L0,94.179v62.565a9.015,9.015,0,0,0,9.015,9.015h11.65a9.015,9.015,0,0,1-9.015-9.015Z" transform="translate(0 -92.304)" fill="#d8d8db"/>
            </g>
            <g id="Grupo_142691-2" data-name="Grupo 142691" transform="translate(0 0)">
              <path id="Trazado_181740-2" data-name="Trazado 181740" d="M20.665,0H9.015A9.015,9.015,0,0,0,0,9.015V18.03H11.65V9.015A9.015,9.015,0,0,1,20.665,0Z" transform="translate(0 0)" fill="#4b75a9"/>
            </g>
            <g id="Grupo_142692-2" data-name="Grupo 142692" transform="translate(23.169 33.742)">
              <path id="Trazado_181741-2" data-name="Trazado 181741" d="M168.439,207.211H139.59a7.212,7.212,0,1,1,0-14.424h28.848a7.212,7.212,0,0,1,0,14.424Z" transform="translate(-132.378 -192.787)" fill="#e7e7ef"/>
            </g>
            <g id="Grupo_142693" data-name="Grupo 142693" transform="translate(34.303 49.967)">
              <path id="Trazado_181742" data-name="Trazado 181742" d="M210.46,267.6a2.256,2.256,0,0,1-2.192-2.826,10.8,10.8,0,0,1,20.843,0,2.256,2.256,0,0,1-2.192,2.826Z" transform="translate(-208.19 -256.807)" fill="#86b6ef"/>
            </g>
            <g id="Grupo_142694" data-name="Grupo 142694" transform="translate(31.874 25.242)">
              <ellipse id="Elipse_5453" data-name="Elipse 5453" cx="12.928" cy="12.929" rx="12.928" ry="12.929" transform="translate(0 0)" fill="#a0c8ff"/>
            </g>
            <g id="Grupo_142695-2" data-name="Grupo 142695" transform="translate(14.779 7.702)">
              <path id="Trazado_181743-2" data-name="Trazado 181743" d="M121.547,46.634H85.757a1.313,1.313,0,0,1,0-2.625h35.79a1.313,1.313,0,1,1,0,2.625Z" transform="translate(-84.444 -44.009)" fill="#86b6ef"/>
            </g>
            <g id="Grupo_142696-2" data-name="Grupo 142696" transform="translate(70.814 7.663)">
              <circle id="Elipse_5454-2" data-name="Elipse 5454" cx="1.352" cy="1.352" r="1.352" fill="#86b6ef"/>
            </g>
            <g id="Grupo_142697-2" data-name="Grupo 142697" transform="translate(60.897 7.663)">
              <circle id="Elipse_5455-2" data-name="Elipse 5455" cx="1.352" cy="1.352" r="1.352" fill="#86b6ef"/>
            </g>
            <g id="Grupo_142698" data-name="Grupo 142698" transform="translate(20.183 66.662)">
              <path id="Trazado_181744" data-name="Trazado 181744" d="M124.011,383.338a1.312,1.312,0,0,0-1.793-.48l-1.154.666v-1.332a1.313,1.313,0,1,0-2.625,0v1.332l-1.154-.666a1.313,1.313,0,1,0-1.313,2.274l1.154.666-1.154.666a1.313,1.313,0,1,0,1.313,2.273l1.154-.666V389.4a1.313,1.313,0,0,0,2.625,0v-1.332l1.154.666a1.313,1.313,0,0,0,1.313-2.273l-1.154-.666,1.154-.666A1.313,1.313,0,0,0,124.011,383.338Z" transform="translate(-115.316 -380.879)" fill="#cd394b"/>
              <path id="Trazado_181745" data-name="Trazado 181745" d="M200.905,383.338a1.312,1.312,0,0,0-1.793-.48l-1.154.666v-1.332a1.313,1.313,0,1,0-2.625,0v1.332l-1.154-.666a1.313,1.313,0,0,0-1.313,2.274l1.154.666-1.154.666a1.313,1.313,0,1,0,1.313,2.273l1.154-.666V389.4a1.313,1.313,0,0,0,2.625,0v-1.332l1.154.666a1.313,1.313,0,0,0,1.313-2.273l-1.154-.666,1.154-.666A1.313,1.313,0,0,0,200.905,383.338Z" transform="translate(-178.752 -380.879)" fill="#cd394b"/>
              <path id="Trazado_181746" data-name="Trazado 181746" d="M277.8,383.338a1.312,1.312,0,0,0-1.793-.48l-1.154.666v-1.332a1.313,1.313,0,1,0-2.625,0v1.332l-1.154-.666a1.313,1.313,0,0,0-1.313,2.274l1.154.666-1.154.666a1.313,1.313,0,1,0,1.313,2.273l1.154-.666V389.4a1.313,1.313,0,0,0,2.625,0v-1.332l1.154.666a1.313,1.313,0,0,0,1.313-2.273l-1.154-.666,1.154-.666A1.313,1.313,0,0,0,277.8,383.338Z" transform="translate(-242.187 -380.879)" fill="#cd394b"/>
              <path id="Trazado_181747" data-name="Trazado 181747" d="M354.212,386.464l-1.154-.666,1.154-.666a1.313,1.313,0,0,0-1.313-2.274l-1.154.666v-1.332a1.313,1.313,0,1,0-2.625,0v1.332l-1.154-.666a1.313,1.313,0,1,0-1.313,2.274l1.154.666-1.154.666a1.313,1.313,0,1,0,1.313,2.273l1.154-.666V389.4a1.313,1.313,0,0,0,2.625,0v-1.332l1.154.666a1.313,1.313,0,1,0,1.313-2.273Z" transform="translate(-305.623 -380.879)" fill="#cd394b"/>
            </g>
          </g>
        </g>
        <g id="Grupo_145477" data-name="Grupo 145477" transform="translate(569 9126)">
          <path id="Trazado_192659" data-name="Trazado 192659" d="M.5.5,18,38.7H417.051L435.9.5Z" fill="#500c75"/>
          <g id="Grupo_145478" data-name="Grupo 145478">
            <g id="Grupo_145477-2" data-name="Grupo 145477" clip-path="url(#clip-path-14)">
              <path id="Trazado_192660" data-name="Trazado 192660" d="M.5.5,18,38.7H417.051L435.9.5" fill="none" stroke="#8f52f5" stroke-linecap="round" stroke-linejoin="round" stroke-width="1"/>
              <path id="Trazado_192661" data-name="Trazado 192661" d="M108.676,22.683A7.734,7.734,0,0,1,108.008,26a5.033,5.033,0,0,1-1.912,2.2,5.652,5.652,0,0,1-5.691.009,5.078,5.078,0,0,1-1.933-2.185,7.5,7.5,0,0,1-.695-3.265v-.632a7.68,7.68,0,0,1,.682-3.328,5.074,5.074,0,0,1,1.924-2.2,5.642,5.642,0,0,1,5.687,0,5.076,5.076,0,0,1,1.925,2.2,7.672,7.672,0,0,1,.681,3.319ZM106,22.1a5.383,5.383,0,0,0-.721-3.059,2.546,2.546,0,0,0-4.1-.012,5.316,5.316,0,0,0-.73,3.027v.624a5.456,5.456,0,0,0,.721,3.041,2.524,2.524,0,0,0,4.113.04A5.422,5.422,0,0,0,106,22.727Z" fill="#fff"/>
              <path id="Trazado_192662" data-name="Trazado 192662" d="M120.378,18.131h-3.92V28.792H113.82V18.131h-3.867V15.995h10.424Z" fill="#fff"/>
              <path id="Trazado_192663" data-name="Trazado 192663" d="M127.518,24.107h-2.1v4.684H122.78v-12.8h4.755a5.373,5.373,0,0,1,3.5,1.011,3.487,3.487,0,0,1,1.231,2.857,3.931,3.931,0,0,1-.567,2.183,3.866,3.866,0,0,1-1.718,1.394l2.768,5.229v.123h-2.83Zm-2.1-2.136h2.127a2.172,2.172,0,0,0,1.538-.506,1.8,1.8,0,0,0,.545-1.392,1.931,1.931,0,0,0-.514-1.424,2.137,2.137,0,0,0-1.578-.519h-2.118Z" fill="#fff"/>
              <path id="Trazado_192664" data-name="Trazado 192664" d="M145.68,22.683A7.734,7.734,0,0,1,145.012,26a5.032,5.032,0,0,1-1.912,2.2,5.652,5.652,0,0,1-5.691.009,5.078,5.078,0,0,1-1.933-2.185,7.5,7.5,0,0,1-.695-3.265v-.632a7.68,7.68,0,0,1,.682-3.328,5.074,5.074,0,0,1,1.924-2.2,5.642,5.642,0,0,1,5.687,0,5.076,5.076,0,0,1,1.925,2.2,7.672,7.672,0,0,1,.681,3.319Zm-2.672-.58a5.383,5.383,0,0,0-.721-3.059,2.546,2.546,0,0,0-4.1-.012,5.316,5.316,0,0,0-.73,3.027v.624a5.456,5.456,0,0,0,.721,3.041,2.524,2.524,0,0,0,4.113.04,5.422,5.422,0,0,0,.721-3.037Z" fill="#fff"/>
              <path id="Trazado_192665" data-name="Trazado 192665" d="M155.131,25.434a1.352,1.352,0,0,0-.527-1.146,6.919,6.919,0,0,0-1.9-.844,13.507,13.507,0,0,1-2.171-.875,3.547,3.547,0,0,1-2.179-3.173,3.093,3.093,0,0,1,.584-1.851,3.813,3.813,0,0,1,1.679-1.269,6.309,6.309,0,0,1,2.456-.457,5.771,5.771,0,0,1,2.444.5,3.9,3.9,0,0,1,1.665,1.4,3.666,3.666,0,0,1,.594,2.057H155.14a1.728,1.728,0,0,0-.554-1.367,2.278,2.278,0,0,0-1.556-.488,2.424,2.424,0,0,0-1.5.41,1.286,1.286,0,0,0-.536,1.076,1.236,1.236,0,0,0,.629,1.046,7.1,7.1,0,0,0,1.85.791,7.986,7.986,0,0,1,3.278,1.678,3.342,3.342,0,0,1,1.029,2.5,3.078,3.078,0,0,1-1.257,2.606,5.5,5.5,0,0,1-3.384.945,6.513,6.513,0,0,1-2.69-.541,4.249,4.249,0,0,1-1.85-1.48,3.8,3.8,0,0,1-.637-2.18H150.6q0,2.118,2.531,2.118A2.47,2.47,0,0,0,154.6,26.5a1.247,1.247,0,0,0,.527-1.068" fill="#fff"/>
              <path id="Trazado_192666" data-name="Trazado 192666" d="M174.949,18.131h-3.92V28.792h-2.637V18.131h-3.867V15.995h10.424Z" fill="#fff"/>
              <rect id="Rectángulo_39529" data-name="Rectángulo 39529" width="2.637" height="12.797" transform="translate(177.518 15.995)" fill="#fff"/>
              <path id="Trazado_192667" data-name="Trazado 192667" d="M186.136,24.283v4.509H183.5v-12.8h4.992a5.769,5.769,0,0,1,2.536.527,3.89,3.89,0,0,1,1.683,1.5,4.178,4.178,0,0,1,.589,2.211,3.675,3.675,0,0,1-1.288,2.967,5.364,5.364,0,0,1-3.563,1.085Zm0-2.136h2.355a2.319,2.319,0,0,0,1.6-.492,1.79,1.79,0,0,0,.549-1.406,2.113,2.113,0,0,0-.554-1.521,2.068,2.068,0,0,0-1.529-.6h-2.417Z" fill="#fff"/>
              <path id="Trazado_192668" data-name="Trazado 192668" d="M206.521,22.683A7.734,7.734,0,0,1,205.853,26a5.032,5.032,0,0,1-1.912,2.2,5.652,5.652,0,0,1-5.691.009,5.078,5.078,0,0,1-1.933-2.185,7.5,7.5,0,0,1-.7-3.265v-.632a7.68,7.68,0,0,1,.682-3.328,5.074,5.074,0,0,1,1.924-2.2,5.642,5.642,0,0,1,5.687,0,5.076,5.076,0,0,1,1.925,2.2,7.672,7.672,0,0,1,.681,3.319Zm-2.672-.58a5.383,5.383,0,0,0-.721-3.059,2.546,2.546,0,0,0-4.1-.012,5.316,5.316,0,0,0-.73,3.027v.624a5.456,5.456,0,0,0,.721,3.041,2.524,2.524,0,0,0,4.113.04,5.422,5.422,0,0,0,.721-3.037Z" fill="#fff"/>
              <path id="Trazado_192669" data-name="Trazado 192669" d="M215.973,25.434a1.352,1.352,0,0,0-.527-1.146,6.919,6.919,0,0,0-1.9-.844,13.507,13.507,0,0,1-2.171-.875A3.547,3.547,0,0,1,209.2,19.4a3.093,3.093,0,0,1,.584-1.851,3.813,3.813,0,0,1,1.679-1.269,6.309,6.309,0,0,1,2.456-.457,5.771,5.771,0,0,1,2.444.5,3.9,3.9,0,0,1,1.665,1.4,3.666,3.666,0,0,1,.594,2.057h-2.637a1.728,1.728,0,0,0-.554-1.367,2.278,2.278,0,0,0-1.556-.488,2.424,2.424,0,0,0-1.5.41,1.286,1.286,0,0,0-.536,1.076,1.236,1.236,0,0,0,.629,1.046,7.1,7.1,0,0,0,1.85.791,7.986,7.986,0,0,1,3.278,1.678,3.342,3.342,0,0,1,1.029,2.5,3.078,3.078,0,0,1-1.257,2.606,5.5,5.5,0,0,1-3.384.945,6.513,6.513,0,0,1-2.69-.541,4.248,4.248,0,0,1-1.85-1.48,3.8,3.8,0,0,1-.637-2.18h2.646q0,2.118,2.531,2.118a2.47,2.47,0,0,0,1.468-.382,1.247,1.247,0,0,0,.527-1.068" fill="#fff"/>
              <path id="Trazado_192670" data-name="Trazado 192670" d="M226.684,28.792v-12.8h3.938a5.989,5.989,0,0,1,3.019.76,5.314,5.314,0,0,1,2.078,2.162,6.676,6.676,0,0,1,.748,3.187v.589a6.686,6.686,0,0,1-.734,3.172,5.267,5.267,0,0,1-2.07,2.154,6.036,6.036,0,0,1-3.015.773Zm2.637-10.661v8.543H230.6a2.864,2.864,0,0,0,2.365-1.011,4.567,4.567,0,0,0,.835-2.891v-.677a4.638,4.638,0,0,0-.809-2.957,2.853,2.853,0,0,0-2.364-1.007Z" fill="#fff"/>
              <path id="Trazado_192671" data-name="Trazado 192671" d="M246.982,23.228H241.92v3.445h5.941v2.118h-8.578V16h8.56V18.13H241.92v3.05h5.062Z" fill="#fff"/>
              <path id="Trazado_192672" data-name="Trazado 192672" d="M262.915,26.155h-4.623l-.879,2.636h-2.8l4.764-12.8h2.444l4.79,12.8h-2.8ZM259,24.019h3.2l-1.608-4.79Z" fill="#fff"/>
              <path id="Trazado_192673" data-name="Trazado 192673" d="M277.28,18.131h-3.92V28.792h-2.637V18.131h-3.867V15.995H277.28Z" fill="#fff"/>
              <path id="Trazado_192674" data-name="Trazado 192674" d="M285.852,26.155h-4.623l-.879,2.636h-2.8l4.764-12.8h2.444l4.79,12.8h-2.8Zm-3.911-2.136h3.2l-1.608-4.79Z" fill="#fff"/>
              <path id="Trazado_192675" data-name="Trazado 192675" d="M301.949,22.683a7.708,7.708,0,0,1-.58,3.116,5.344,5.344,0,0,1-1.609,2.122l2.127,1.67-1.678,1.486-2.725-2.189a5.746,5.746,0,0,1-.967.079,5.332,5.332,0,0,1-2.839-.764,5.078,5.078,0,0,1-1.933-2.185,7.5,7.5,0,0,1-.7-3.265v-.632a7.68,7.68,0,0,1,.682-3.328,5.074,5.074,0,0,1,1.924-2.2,5.642,5.642,0,0,1,5.687,0,5.076,5.076,0,0,1,1.925,2.2,7.672,7.672,0,0,1,.681,3.319Zm-2.672-.58a5.383,5.383,0,0,0-.721-3.059,2.546,2.546,0,0,0-4.1-.012,5.316,5.316,0,0,0-.73,3.027v.624a5.456,5.456,0,0,0,.721,3.041,2.524,2.524,0,0,0,4.113.04,5.422,5.422,0,0,0,.721-3.037Z" fill="#fff"/>
              <path id="Trazado_192676" data-name="Trazado 192676" d="M314.468,15.995v8.429a4.315,4.315,0,0,1-1.314,3.322,5.068,5.068,0,0,1-3.59,1.222A5.125,5.125,0,0,1,306,27.781a4.243,4.243,0,0,1-1.345-3.261V15.995H307.3v8.446a2.44,2.44,0,0,0,.6,1.833,2.312,2.312,0,0,0,1.666.575q2.223,0,2.258-2.337V15.995Z" fill="#fff"/>
              <path id="Trazado_192677" data-name="Trazado 192677" d="M325.23,23.228h-5.062v3.445h5.941v2.118h-8.578V16h8.56V18.13h-5.923v3.05h5.062Z" fill="#fff"/>
              <path id="Trazado_192678" data-name="Trazado 192678" d="M335.191,25.434a1.352,1.352,0,0,0-.527-1.146,6.919,6.919,0,0,0-1.9-.844,13.507,13.507,0,0,1-2.171-.875,3.547,3.547,0,0,1-2.179-3.173A3.093,3.093,0,0,1,329,17.545a3.813,3.813,0,0,1,1.679-1.269,6.309,6.309,0,0,1,2.456-.457,5.771,5.771,0,0,1,2.444.5,3.9,3.9,0,0,1,1.665,1.4,3.666,3.666,0,0,1,.594,2.057H335.2a1.728,1.728,0,0,0-.554-1.367,2.278,2.278,0,0,0-1.556-.488,2.424,2.424,0,0,0-1.5.41,1.286,1.286,0,0,0-.536,1.076,1.236,1.236,0,0,0,.629,1.046,7.1,7.1,0,0,0,1.85.791,7.986,7.986,0,0,1,3.278,1.678,3.342,3.342,0,0,1,1.029,2.5,3.078,3.078,0,0,1-1.257,2.606,5.5,5.5,0,0,1-3.384.945,6.513,6.513,0,0,1-2.69-.541,4.248,4.248,0,0,1-1.85-1.48,3.8,3.8,0,0,1-.637-2.18h2.646q0,2.118,2.531,2.118a2.47,2.47,0,0,0,1.468-.382,1.247,1.247,0,0,0,.527-1.068" fill="#fff"/>
            </g>
          </g>
        </g>
      </g>
    </g>
    <g id="Grupo_142753" data-name="Grupo 142753" transform="translate(9055 11379)">
      <g id="Grupo_142373" data-name="Grupo 142373" transform="translate(-9243 -4452)">
        <circle id="Elipse_5423" data-name="Elipse 5423" cx="15.5" cy="15.5" r="15.5" transform="translate(549 1986)" fill="#483c8c" opacity="0.17"/>
        <circle id="Elipse_5424" data-name="Elipse 5424" cx="9.5" cy="9.5" r="9.5" transform="translate(555 1992)" fill="#483c8c" opacity="0.69"/>
        <text id="_" data-name="+" transform="translate(559 2008)" fill="#fff" font-size="20" font-family="Roboto-Regular, Roboto"><tspan x="0" y="0">+</tspan></text>
      </g>
      <g id="Grupo_142372" data-name="Grupo 142372" transform="translate(-8821 -4452)">
        <circle id="Elipse_5423-2" data-name="Elipse 5423" cx="15.5" cy="15.5" r="15.5" transform="translate(549 1986)" fill="#483c8c" opacity="0.17"/>
        <circle id="Elipse_5424-2" data-name="Elipse 5424" cx="9.5" cy="9.5" r="9.5" transform="translate(555 1992)" fill="#483c8c" opacity="0.69"/>
        <text id="_2" data-name="+" transform="translate(559 2008)" fill="#fff" font-size="20" font-family="Roboto-Regular, Roboto"><tspan x="0" y="0">+</tspan></text>
      </g>
      <g id="Grupo_142371" data-name="Grupo 142371" transform="translate(-8396 -4452)">
        <circle id="Elipse_5423-3" data-name="Elipse 5423" cx="15.5" cy="15.5" r="15.5" transform="translate(549 1986)" fill="#483c8c" opacity="0.17"/>
        <circle id="Elipse_5424-3" data-name="Elipse 5424" cx="9.5" cy="9.5" r="9.5" transform="translate(555 1992)" fill="#483c8c" opacity="0.69"/>
        <text id="_3" data-name="+" transform="translate(559 2008)" fill="#fff" font-size="20" font-family="Roboto-Regular, Roboto"><tspan x="0" y="0">+</tspan></text>
      </g>
      <g id="Grupo_142374" data-name="Grupo 142374" transform="translate(-9037 -4240)">
        <circle id="Elipse_5423-4" data-name="Elipse 5423" cx="15.5" cy="15.5" r="15.5" transform="translate(549 1986)" fill="#483c8c" opacity="0.17"/>
        <circle id="Elipse_5424-4" data-name="Elipse 5424" cx="9.5" cy="9.5" r="9.5" transform="translate(555 1992)" fill="#483c8c" opacity="0.69"/>
        <text id="_4" data-name="+" transform="translate(559 2008)" fill="#fff" font-size="20" font-family="Roboto-Regular, Roboto"><tspan x="0" y="0">+</tspan></text>
      </g>
      <g id="Grupo_142375" data-name="Grupo 142375" transform="translate(-8606 -4240)">
        <circle id="Elipse_5423-5" data-name="Elipse 5423" cx="15.5" cy="15.5" r="15.5" transform="translate(549 1986)" fill="#483c8c" opacity="0.17"/>
        <circle id="Elipse_5424-5" data-name="Elipse 5424" cx="9.5" cy="9.5" r="9.5" transform="translate(555 1992)" fill="#483c8c" opacity="0.69"/>
        <text id="_5" data-name="+" transform="translate(559 2008)" fill="#fff" font-size="20" font-family="Roboto-Regular, Roboto"><tspan x="0" y="0">+</tspan></text>
      </g>
    </g>
  </g>
</svg>
