<svg xmlns="http://www.w3.org/2000/svg" xmlns:xlink="http://www.w3.org/1999/xlink" width="1030" height="428.795" viewBox="0 0 1030 428.795">
  <defs>
    <linearGradient id="linear-gradient" x1="0.5" x2="0.5" y2="1" gradientUnits="objectBoundingBox">
      <stop offset="0" stop-color="#e9dcfd"/>
      <stop offset="1" stop-color="#e4fdfc"/>
    </linearGradient>
    <clipPath id="clip-path">
      <rect id="Rectángulo_38276" data-name="Rectángulo 38276" width="183.26" height="179.031" fill="none"/>
    </clipPath>
    <clipPath id="clip-path-5">
      <rect id="Rectángulo_38283" data-name="Rectángulo 38283" width="899.072" height="128.286" fill="none"/>
    </clipPath>
  </defs>
  <g id="Grupo_142821" data-name="Grupo 142821" transform="translate(-285 -18785.561)">
    <path id="scared-young-african-woman-sitting-while-man-s-hand-holding-mobile-phone-at-her-ear-isolated-on-white" d="M0,0H980.865L1030,65.3V428.8H50.036L0,362.242Z" transform="translate(285 18785.561)" opacity="0.6" fill="url(#linear-gradient)"/>
    <g id="Grupo_142820" data-name="Grupo 142820" transform="translate(0 15)">
      <g id="Grupo_142814" data-name="Grupo 142814" transform="translate(3 5)">
        <path id="scared-young-african-woman-sitting-while-man-s-hand-holding-mobile-phone-at-her-ear-isolated-on-white-2" data-name="scared-young-african-woman-sitting-while-man-s-hand-holding-mobile-phone-at-her-ear-isolated-on-white" d="M0,0H280.927L295,14.648V96.18H14.331L0,81.252Z" transform="translate(915 19061.777)" fill="#e9dcfd"/>
        <g id="Grupo_142798" data-name="Grupo 142798" transform="translate(326.5 18811)">
          <g id="Grupo_142797" data-name="Grupo 142797" clip-path="url(#clip-path)">
            <path id="Trazado_182701" data-name="Trazado 182701" d="M93.392,7.807A85.679,85.679,0,0,0,7.809,93.39H18.942a74.45,74.45,0,1,1,74.45,74.451v11.133a85.583,85.583,0,0,0,0-171.166" transform="translate(-3.359 -3.358)" fill="#dccee3"/>
            <path id="Trazado_182702" data-name="Trazado 182702" d="M121.235,190.668a89.056,89.056,0,0,1-21.138-2.536l.981-4.011a84.842,84.842,0,0,0,78.739-143.8l2.853-2.986a88.959,88.959,0,0,1-61.435,153.337" transform="translate(-31.203 -11.637)" fill="#500c75"/>
            <path id="Trazado_182703" data-name="Trazado 182703" d="M29.851,194.648A87.535,87.535,0,0,1,2.5,130.807H5.253a84.806,84.806,0,0,0,26.5,61.85Z" transform="translate(-0.779 -40.776)" fill="#500c75"/>
            <path id="Trazado_182704" data-name="Trazado 182704" d="M6.194,90.031H0A90.008,90.008,0,0,1,90.032,0V6.193A83.813,83.813,0,0,0,6.194,90.031" transform="translate(0 0)" fill="#8f52f5"/>
            <path id="Trazado_182705" data-name="Trazado 182705" d="M188.338,214.4l-4.818-9.9a81.871,81.871,0,0,0,33.162-29.536,81.039,81.039,0,0,0,12.774-43.742h11.012a92.549,92.549,0,0,1-52.13,83.181" transform="translate(-57.208 -40.906)" fill="#8f52f5"/>
            <path id="Trazado_182706" data-name="Trazado 182706" d="M181.609,103.141a78.468,78.468,0,1,0-78.468,78.468,78.468,78.468,0,0,0,78.468-78.468" transform="translate(193.174 193.173) rotate(180)" fill="url(#linear-gradient)"/>
          </g>
        </g>
        <g id="Grupo_142799" data-name="Grupo 142799" transform="translate(580 18811)">
          <g id="Grupo_142797-2" data-name="Grupo 142797" clip-path="url(#clip-path)">
            <path id="Trazado_182701-2" data-name="Trazado 182701" d="M93.392,7.807A85.679,85.679,0,0,0,7.809,93.39H18.942a74.45,74.45,0,1,1,74.45,74.451v11.133a85.583,85.583,0,0,0,0-171.166" transform="translate(-3.359 -3.358)" fill="#dccee3"/>
            <path id="Trazado_182702-2" data-name="Trazado 182702" d="M121.235,190.668a89.056,89.056,0,0,1-21.138-2.536l.981-4.011a84.842,84.842,0,0,0,78.739-143.8l2.853-2.986a88.959,88.959,0,0,1-61.435,153.337" transform="translate(-31.203 -11.637)" fill="#500c75"/>
            <path id="Trazado_182703-2" data-name="Trazado 182703" d="M29.851,194.648A87.535,87.535,0,0,1,2.5,130.807H5.253a84.806,84.806,0,0,0,26.5,61.85Z" transform="translate(-0.779 -40.776)" fill="#500c75"/>
            <path id="Trazado_182704-2" data-name="Trazado 182704" d="M6.194,90.031H0A90.008,90.008,0,0,1,90.032,0V6.193A83.813,83.813,0,0,0,6.194,90.031" transform="translate(0 0)" fill="#8f52f5"/>
            <path id="Trazado_182705-2" data-name="Trazado 182705" d="M188.338,214.4l-4.818-9.9a81.871,81.871,0,0,0,33.162-29.536,81.039,81.039,0,0,0,12.774-43.742h11.012a92.549,92.549,0,0,1-52.13,83.181" transform="translate(-57.208 -40.906)" fill="#8f52f5"/>
            <path id="Trazado_182706-2" data-name="Trazado 182706" d="M181.609,103.141a78.468,78.468,0,1,0-78.468,78.468,78.468,78.468,0,0,0,78.468-78.468" transform="translate(193.174 193.173) rotate(180)" fill="url(#linear-gradient)"/>
          </g>
        </g>
        <g id="Grupo_142800" data-name="Grupo 142800" transform="translate(837 18811)">
          <g id="Grupo_142797-3" data-name="Grupo 142797" clip-path="url(#clip-path)">
            <path id="Trazado_182701-3" data-name="Trazado 182701" d="M93.392,7.807A85.679,85.679,0,0,0,7.809,93.39H18.942a74.45,74.45,0,1,1,74.45,74.451v11.133a85.583,85.583,0,0,0,0-171.166" transform="translate(-3.359 -3.358)" fill="#dccee3"/>
            <path id="Trazado_182702-3" data-name="Trazado 182702" d="M121.235,190.668a89.056,89.056,0,0,1-21.138-2.536l.981-4.011a84.842,84.842,0,0,0,78.739-143.8l2.853-2.986a88.959,88.959,0,0,1-61.435,153.337" transform="translate(-31.203 -11.637)" fill="#500c75"/>
            <path id="Trazado_182703-3" data-name="Trazado 182703" d="M29.851,194.648A87.535,87.535,0,0,1,2.5,130.807H5.253a84.806,84.806,0,0,0,26.5,61.85Z" transform="translate(-0.779 -40.776)" fill="#500c75"/>
            <path id="Trazado_182704-3" data-name="Trazado 182704" d="M6.194,90.031H0A90.008,90.008,0,0,1,90.032,0V6.193A83.813,83.813,0,0,0,6.194,90.031" transform="translate(0 0)" fill="#8f52f5"/>
            <path id="Trazado_182705-3" data-name="Trazado 182705" d="M188.338,214.4l-4.818-9.9a81.871,81.871,0,0,0,33.162-29.536,81.039,81.039,0,0,0,12.774-43.742h11.012a92.549,92.549,0,0,1-52.13,83.181" transform="translate(-57.208 -40.906)" fill="#8f52f5"/>
            <path id="Trazado_182706-3" data-name="Trazado 182706" d="M181.609,103.141a78.468,78.468,0,1,0-78.468,78.468,78.468,78.468,0,0,0,78.468-78.468" transform="translate(193.174 193.173) rotate(180)" fill="url(#linear-gradient)"/>
          </g>
        </g>
        <g id="Grupo_142801" data-name="Grupo 142801" transform="translate(1091 18811)">
          <g id="Grupo_142797-4" data-name="Grupo 142797" clip-path="url(#clip-path)">
            <path id="Trazado_182701-4" data-name="Trazado 182701" d="M93.392,7.807A85.679,85.679,0,0,0,7.809,93.39H18.942a74.45,74.45,0,1,1,74.45,74.451v11.133a85.583,85.583,0,0,0,0-171.166" transform="translate(-3.359 -3.358)" fill="#dccee3"/>
            <path id="Trazado_182702-4" data-name="Trazado 182702" d="M121.235,190.668a89.056,89.056,0,0,1-21.138-2.536l.981-4.011a84.842,84.842,0,0,0,78.739-143.8l2.853-2.986a88.959,88.959,0,0,1-61.435,153.337" transform="translate(-31.203 -11.637)" fill="#500c75"/>
            <path id="Trazado_182703-4" data-name="Trazado 182703" d="M29.851,194.648A87.535,87.535,0,0,1,2.5,130.807H5.253a84.806,84.806,0,0,0,26.5,61.85Z" transform="translate(-0.779 -40.776)" fill="#500c75"/>
            <path id="Trazado_182704-4" data-name="Trazado 182704" d="M6.194,90.031H0A90.008,90.008,0,0,1,90.032,0V6.193A83.813,83.813,0,0,0,6.194,90.031" transform="translate(0 0)" fill="#8f52f5"/>
            <path id="Trazado_182705-4" data-name="Trazado 182705" d="M188.338,214.4l-4.818-9.9a81.871,81.871,0,0,0,33.162-29.536,81.039,81.039,0,0,0,12.774-43.742h11.012a92.549,92.549,0,0,1-52.13,83.181" transform="translate(-57.208 -40.906)" fill="#8f52f5"/>
            <path id="Trazado_182706-4" data-name="Trazado 182706" d="M181.609,103.141a78.468,78.468,0,1,0-78.468,78.468,78.468,78.468,0,0,0,78.468-78.468" transform="translate(193.174 193.173) rotate(180)" fill="url(#linear-gradient)"/>
          </g>
        </g>
        <g id="Grupo_142802" data-name="Grupo 142802" transform="translate(1 -22.543)">
          <path id="Trazado_182707" data-name="Trazado 182707" d="M204.431,51.862l10.164,11.58L204.4,74.955l16-11.371Zm-18.682,1.453h6.215l15.051,10.127L192.964,73.569h-7.215l14.382-10.127Z" transform="translate(346.305 18865.838)" fill="#500c75" fill-rule="evenodd"/>
          <path id="Trazado_182708" data-name="Trazado 182708" d="M180.456,53.559,195.035,62.9l-14.579,9.338Z" transform="translate(344.586 18866.389)" fill="#e01650" fill-rule="evenodd"/>
        </g>
        <g id="Grupo_142803" data-name="Grupo 142803" transform="translate(254.5 -22.543)">
          <path id="Trazado_182707-2" data-name="Trazado 182707" d="M204.431,51.862l10.164,11.58L204.4,74.955l16-11.371Zm-18.682,1.453h6.215l15.051,10.127L192.964,73.569h-7.215l14.382-10.127Z" transform="translate(346.305 18865.838)" fill="#500c75" fill-rule="evenodd"/>
          <path id="Trazado_182708-2" data-name="Trazado 182708" d="M180.456,53.559,195.035,62.9l-14.579,9.338Z" transform="translate(344.586 18866.389)" fill="#e01650" fill-rule="evenodd"/>
        </g>
        <g id="Grupo_142804" data-name="Grupo 142804" transform="translate(511.01 -22.543)">
          <path id="Trazado_182707-3" data-name="Trazado 182707" d="M204.431,51.862l10.164,11.58L204.4,74.955l16-11.371Zm-18.682,1.453h6.215l15.051,10.127L192.964,73.569h-7.215l14.382-10.127Z" transform="translate(346.305 18865.838)" fill="#500c75" fill-rule="evenodd"/>
          <path id="Trazado_182708-3" data-name="Trazado 182708" d="M180.456,53.559,195.035,62.9l-14.579,9.338Z" transform="translate(344.586 18866.389)" fill="#e01650" fill-rule="evenodd"/>
        </g>
        <path id="Trazado_182709" data-name="Trazado 182709" d="M-6434.115,7252.737v124.295" transform="translate(7491 11677.457)" fill="none" stroke="#500c75" stroke-width="2"/>
        <circle id="Elipse_5466" data-name="Elipse 5466" cx="4" cy="4" r="4" transform="translate(1053 18928.457)" fill="#500c75"/>
        <circle id="Elipse_5467" data-name="Elipse 5467" cx="4" cy="4" r="4" transform="translate(1053 19047.457)" fill="#500c75"/>
        <g id="empleado" transform="translate(313.917 18824.271)">
          <g id="icon_40_" transform="translate(47.083 0.001)">
            <path id="Trazado_182710" data-name="Trazado 182710" d="M165.331,360.091l-.414,3.31-.552,4.4-3.449,27.764H66.084L62.635,367.8l-.552-4.4-.414-3.31Z" transform="translate(-57.468 -256.38)" fill="#f6b863"/>
            <g id="Grupo_142805" data-name="Grupo 142805" transform="translate(36.14 25.773)">
              <path id="Trazado_182711" data-name="Trazado 182711" d="M210.276,149.6h18.06V163.01h-18.06Z" transform="translate(-199.414 -132.286)" fill="#f4bb87"/>
              <path id="Trazado_182712" data-name="Trazado 182712" d="M176.439,89.487a3.875,3.875,0,0,0-3.875,3.875v.429a3.875,3.875,0,0,0,3.875,3.87,1.509,1.509,0,0,0,1.509-1.509v-5.16A1.509,1.509,0,0,0,176.439,89.487Z" transform="translate(-172.564 -89.487)" fill="#f4bb87"/>
              <path id="Trazado_182713" data-name="Trazado 182713" d="M293.555,89.487a3.875,3.875,0,0,1,3.875,3.875v.429a3.875,3.875,0,0,1-3.875,3.87,1.509,1.509,0,0,1-1.509-1.509v-5.16A1.509,1.509,0,0,1,293.555,89.487Z" transform="translate(-257.633 -89.487)" fill="#f4bb87"/>
            </g>
            <path id="Trazado_182714" data-name="Trazado 182714" d="M216.881,44.3V59.716c0,.489-2.23,10.211-8.076,15.458-1.236,1.108-2.037,2.651-3.834,3.547a11.425,11.425,0,0,1-9.789,0c-1.794-.9-2.6-2.439-3.834-3.547-5.846-5.246-8.117-14.969-8.117-15.458V44.3c10.687-3.631,21.944-3.3,33.65,0Z" transform="translate(-144.018 -29.688)" fill="#fed19a"/>
            <path id="Trazado_182715" data-name="Trazado 182715" d="M179.2,26.022s5.092-3,5.99-10.962c0,0,4.074,1.976,15.422,3.76s12.236,7.138,12.236,7.138a23.651,23.651,0,0,0,.363-15.635C208.607-.634,194.3-2.083,189.589,2.315,171.426,4.253,179.2,26.022,179.2,26.022Z" transform="translate(-139.97 -0.001)" fill="#414451"/>
            <path id="Trazado_182716" data-name="Trazado 182716" d="M180.411,203.141c-7.682,7.146-22.321,8.39-22.321,8.39H126.859s-14.638-1.244-22.32-8.39c-5.36-4.985.4-17.992,4.364-25.4a20.513,20.513,0,0,1,10.828-9.573,106.48,106.48,0,0,1,11.372-3.352c.107-.022.214-.042.3-.065.923-.236,1.631-.387,2.1-.494.34,5.579,3.734,9.055,8.969,9.1,5.235-.042,8.626-3.519,8.969-9.1.472.107,1.188.258,2.1.494.087.022.194.042.3.065a106.51,106.51,0,0,1,11.372,3.349,20.514,20.514,0,0,1,10.821,9.572C180.016,185.147,185.772,198.156,180.411,203.141Z" transform="translate(-86.443 -116.948)" fill="#e01650"/>
            <path id="Trazado_182717" data-name="Trazado 182717" d="M225.33,164.767c-.558,6.481-4.849,10.693-11.05,10.75-6.223-.065-10.536-4.271-11.094-10.75.923-.236,1.631-.387,2.1-.494.34,5.579,3.734,9.055,8.969,9.1,5.235-.042,8.626-3.519,8.969-9.1C223.7,164.38,224.407,164.531,225.33,164.767Z" transform="translate(-158.226 -116.96)" fill="#a3153e"/>
            <path id="Trazado_182718" data-name="Trazado 182718" d="M190.2,212.923H134.619a4.254,4.254,0,0,0-4.223,4.77l3.354,27.431a4.253,4.253,0,0,0,4.218,3.734h48.884a4.254,4.254,0,0,0,4.223-3.734l3.354-27.433a4.254,4.254,0,0,0-3.708-4.737A4.162,4.162,0,0,0,190.2,212.923Z" transform="translate(-106.378 -151.598)" fill="#eeefee"/>
            <path id="Trazado_182719" data-name="Trazado 182719" d="M48.463,337.709h109.3a1.38,1.38,0,0,1,1.38,1.38v7a1.38,1.38,0,0,1-1.38,1.38H48.463a1.38,1.38,0,0,1-1.38-1.38v-7A1.38,1.38,0,0,1,48.463,337.709Z" transform="translate(-47.083 -240.444)" fill="#f6b863"/>
            <path id="Trazado_182720" data-name="Trazado 182720" d="M231.119,265.631c0,2.376-3.183,4.281-7.149,4.281s-7.129-1.9-7.129-4.281,3.183-4.259,7.129-4.259S231.119,263.276,231.119,265.631Z" transform="translate(-167.948 -186.093)" fill="#dbd8dd"/>
            <path id="Trazado_182721" data-name="Trazado 182721" d="M165.94,371.583l-.552,4.4H63.659l-.552-4.4Z" transform="translate(-58.492 -264.562)" fill="#eaa14e"/>
          </g>
        </g>
        <g id="carpeta" transform="translate(614.869 18824.111)">
          <g id="Grupo_142806" data-name="Grupo 142806" transform="translate(3.205 39.282)">
            <path id="Trazado_182722" data-name="Trazado 182722" d="M356.6,141.882V133.7a1.939,1.939,0,0,0-1.939-1.939H335.84v10.118H356.6Z" transform="translate(-260.017 -123.877)" fill="#dbb207"/>
            <path id="Trazado_182723" data-name="Trazado 182723" d="M13.619,108.127v-7.942a1.939,1.939,0,0,1,1.939-1.939H34.413v9.881Z" transform="translate(-13.619 -98.246)" fill="#dbb207"/>
          </g>
          <path id="Trazado_182724" data-name="Trazado 182724" d="M151.4,23.076v44.99H91.439V23.076a1.939,1.939,0,0,1,1.939-1.939h56.078A1.939,1.939,0,0,1,151.4,23.076Z" transform="translate(-69.922 0)" fill="#fff"/>
          <path id="Trazado_182725" data-name="Trazado 182725" d="M151.4,26.608H104.82L151.4,52.925V56.83a1.814,1.814,0,0,1-.894-.235L97.429,26.608h-5.99V23.076a1.939,1.939,0,0,1,1.939-1.939h56.078a1.939,1.939,0,0,1,1.939,1.939v3.532Z" transform="translate(-69.922 0)" fill="#fff"/>
          <path id="Trazado_182726" data-name="Trazado 182726" d="M151.4,107.539v20.571H91.44V99.658h3.549a1.94,1.94,0,0,1,1.371.568l6.747,6.745a1.939,1.939,0,0,0,1.371.568Z" transform="translate(-69.923 -60.044)" fill="#fff"/>
          <path id="Trazado_182727" data-name="Trazado 182727" d="M102.989,141.4v61.407H1.939A1.939,1.939,0,0,1,0,200.867V133.518a1.939,1.939,0,0,1,1.939-1.939H21.86a1.94,1.94,0,0,1,1.371.568l6.748,6.746a1.939,1.939,0,0,0,1.371.568h69.7A1.939,1.939,0,0,1,102.989,141.4Z" transform="translate(0 -84.454)" fill="#ffda2d"/>
          <g id="Grupo_142807" data-name="Grupo 142807" transform="translate(0.001 73.602)">
            <path id="Trazado_182728" data-name="Trazado 182728" d="M394.666,244.246v3.818c-7.794,0-8.627,6.8-8.627,6.8v11.348h-4.607V255.492a11.4,11.4,0,0,1,11.4-11.4A11.145,11.145,0,0,1,394.666,244.246Z" transform="translate(-291.678 -244.097)" fill="#ffce00"/>
            <path id="Trazado_182729" data-name="Trazado 182729" d="M349.765,314.833v28.106H322.714V322.1a7.318,7.318,0,0,1,7.32-7.265h19.73Z" transform="translate(-246.777 -298.188)" fill="#ffce00"/>
            <path id="Trazado_182730" data-name="Trazado 182730" d="M102.995,397.54H1.945A1.939,1.939,0,0,1,.006,395.6v-9.362H102.995v11.3Z" transform="translate(-0.006 -352.791)" fill="#ffce00"/>
          </g>
          <g id="Grupo_142808" data-name="Grupo 142808" transform="translate(6.464 53.491)">
            <path id="Trazado_182732" data-name="Trazado 182732" d="M38.442,162.266H29.286a1.818,1.818,0,1,1,0-3.636h9.156a1.818,1.818,0,1,1,0,3.636Z" transform="translate(-27.468 -158.63)" fill="#6b7f9e"/>
            <path id="Trazado_182733" data-name="Trazado 182733" d="M38.442,180.59H29.286a1.818,1.818,0,1,1,0-3.636h9.156a1.818,1.818,0,1,1,0,3.636Z" transform="translate(-27.468 -172.642)" fill="#6b7f9e"/>
          </g>
          <path id="Trazado_182734" data-name="Trazado 182734" d="M159.412,215.819,141.6,245.784a2.1,2.1,0,0,0,1.809,3.179h35.626a2.1,2.1,0,0,0,1.809-3.179L163.03,215.819A2.1,2.1,0,0,0,159.412,215.819Z" transform="translate(-108.051 -148.084)" fill="#e01650"/>
          <g id="Grupo_142809" data-name="Grupo 142809" transform="translate(51.352 77.967)">
            <path id="Trazado_182735" data-name="Trazado 182735" d="M220.047,319.907a1.818,1.818,0,0,1-1.818-1.818v-.458a1.818,1.818,0,1,1,3.636,0v.458A1.818,1.818,0,0,1,220.047,319.907Z" transform="translate(-218.229 -303.302)" fill="#eaeaea"/>
            <path id="Trazado_182736" data-name="Trazado 182736" d="M220.047,274.011a1.818,1.818,0,0,1-1.818-1.818v-7.731a1.818,1.818,0,1,1,3.636,0v7.731A1.818,1.818,0,0,1,220.047,274.011Z" transform="translate(-218.229 -262.644)" fill="#eaeaea"/>
          </g>
          <path id="Trazado_182737" data-name="Trazado 182737" d="M398.315,262.118A1.818,1.818,0,0,1,396.5,260.3V249.583a9.577,9.577,0,1,0-19.154,0V260.3a1.818,1.818,0,0,1-3.636,0V249.583A13.228,13.228,0,0,1,386.92,236.37a13.211,13.211,0,0,1,13.214,13.213V260.3A1.819,1.819,0,0,1,398.315,262.118Z" transform="translate(-285.769 -164.586)" fill="#586c89"/>
          <path id="Trazado_182738" data-name="Trazado 182738" d="M386.376,343.637v24.734a5.61,5.61,0,0,1-5.611,5.612H353.33a5.61,5.61,0,0,1-5.612-5.612V343.637a5.611,5.611,0,0,1,5.612-5.569h27.435A5.611,5.611,0,0,1,386.376,343.637Z" transform="translate(-265.895 -242.353)" fill="#e0e0e3"/>
          <path id="Trazado_182739" data-name="Trazado 182739" d="M386.376,343.637H347.718a5.611,5.611,0,0,1,5.612-5.569h27.435A5.611,5.611,0,0,1,386.376,343.637Z" transform="translate(-265.895 -242.353)" fill="#eaeaea"/>
          <path id="Trazado_182740" data-name="Trazado 182740" d="M347.718,467.2h38.658a5.611,5.611,0,0,1-5.612,5.569H353.33A5.611,5.611,0,0,1,347.718,467.2Z" transform="translate(-265.895 -341.096)" fill="#d1d1d1"/>
          <path id="Trazado_182741" data-name="Trazado 182741" d="M414.585,380.187a6.79,6.79,0,1,0-9.349,6.29v4.268a1.939,1.939,0,0,0,1.939,1.939h1.238a1.939,1.939,0,0,0,1.939-1.939v-4.268A6.791,6.791,0,0,0,414.585,380.187Z" transform="translate(-306.643 -269.369)" fill="#586c89"/>
        </g>
        <g id="podio" transform="translate(1128.353 18839.137)">
          <path id="Trazado_182755" data-name="Trazado 182755" d="M167.475,58.969h-13.9a16.344,16.344,0,0,1-15.083-9.737l-3.4-7.856a5.763,5.763,0,0,1,.475-5.468,6.031,6.031,0,0,1,5.072-2.708h39.776a6.031,6.031,0,0,1,5.072,2.708,5.764,5.764,0,0,1,.475,5.468l-3.4,7.856A16.344,16.344,0,0,1,167.475,58.969ZM140.637,36.083a3.16,3.16,0,0,0-2.661,1.407,2.842,2.842,0,0,0-.239,2.739l3.4,7.855a13.471,13.471,0,0,0,12.439,8h13.9a13.474,13.474,0,0,0,12.439-8l3.4-7.855a2.85,2.85,0,0,0-.239-2.739,3.164,3.164,0,0,0-2.661-1.407Z" transform="translate(-105.878 -26.113)" fill="#fdbc4b"/>
          <path id="Trazado_182756" data-name="Trazado 182756" d="M197.337,48.537a11.07,11.07,0,0,0-.137,8.8H184.549a11.157,11.157,0,0,0-.137-8.8C177.93,37.113,174.057,29.093,173.2,17.648h35.346C207.692,29.09,203.819,37.109,197.337,48.537Z" transform="translate(-136.228 -13.881)" fill="#ffdb70"/>
          <path id="Trazado_182757" data-name="Trazado 182757" d="M225.066,203.52h-17.7a1.946,1.946,0,0,0-1.947,1.947v1.51h21.589v-1.51A1.946,1.946,0,0,0,225.066,203.52Z" transform="translate(-161.573 -160.076)" fill="#fdbc4b"/>
          <path id="Trazado_182758" data-name="Trazado 182758" d="M212.556,219.712H185.547a1.946,1.946,0,0,0-1.947,1.947v8.47h30.9v-8.47A1.941,1.941,0,0,0,212.556,219.712Z" transform="translate(-144.408 -172.811)" fill="#464646"/>
          <path id="Trazado_182759" data-name="Trazado 182759" d="M201.269,0H164.423a1.431,1.431,0,0,0-1.431,1.431V2.34a1.431,1.431,0,0,0,1.431,1.431h36.842A1.431,1.431,0,0,0,202.7,2.34V1.431A1.428,1.428,0,0,0,201.269,0Z" transform="translate(-128.199)" fill="#fdbc4b"/>
          <path id="Trazado_182760" data-name="Trazado 182760" d="M192.329,46.219a2.319,2.319,0,0,0-2.309-2.309h-3.685a1.935,1.935,0,0,1-1.947-1.947v-.181a1.837,1.837,0,0,1,1.834-1.947h7.715a2.424,2.424,0,0,0,2.466-2.172,2.342,2.342,0,0,0-2.329-2.445H187.1a1.961,1.961,0,0,1-1.947-1.947l.024-.137v-.017a2.033,2.033,0,0,1,2.036-2.06h2.715a2.425,2.425,0,0,0,2.466-2.2,2.342,2.342,0,0,0-2.329-2.445h-3.282a1.975,1.975,0,0,1-1.947-2.06v-.048a1.987,1.987,0,0,1,1.947-2.06h5.861a2.383,2.383,0,0,0,2.422-2.172,2.31,2.31,0,0,0-2.309-2.445H173.216c.857,11.431,4.73,19.461,11.206,30.893h5.666A2.287,2.287,0,0,0,192.329,46.219Z" transform="translate(-136.24 -13.868)" fill="#ffcc5b"/>
          <path id="Trazado_182761" data-name="Trazado 182761" d="M208.453,18.577c.027-.314.079-.608.1-.929h-35.34c.024.321.075.615.1.929Z" transform="translate(-136.24 -13.881)" fill="#010101" opacity="0.1"/>
          <rect id="Rectángulo_38277" data-name="Rectángulo 38277" width="36.432" height="35.643" transform="translate(0 73.65)" fill="#e01650"/>
          <path id="Trazado_182768" data-name="Trazado 182768" d="M0,0H36.432V52.174H0Z" transform="translate(36.432 57.12)" fill="#8f52f5"/>
          <rect id="Rectángulo_38279" data-name="Rectángulo 38279" width="36.432" height="28.956" transform="translate(72.861 80.338)" fill="#79f5ed"/>
          <path id="Trazado_182762" data-name="Trazado 182762" d="M247.73,267.584h-20.2a3.1,3.1,0,0,0-3.176,2.825,3.017,3.017,0,0,0,3,3.176h2.107a3.023,3.023,0,0,1,3.029,3.176,3.145,3.145,0,0,1-3.176,2.852H226.09a2.974,2.974,0,0,0-2.91,3,3.012,3.012,0,0,0,3,3h6.11a2.515,2.515,0,0,1,2.531,2.531v.236a2.388,2.388,0,0,1-2.384,2.527h-6.9a3.154,3.154,0,0,0-3.207,2.825,3.042,3.042,0,0,0,3.03,3.176h5.929a2.55,2.55,0,0,1,2.531,2.531l-.031.178v.031a2.641,2.641,0,0,1-2.647,2.678h-5.55a3.156,3.156,0,0,0-3.207,2.852,3.042,3.042,0,0,0,3.029,3.176H231.7a2.564,2.564,0,0,1,2.531,2.678v.061a2.583,2.583,0,0,1-2.531,2.678h-3.726a3.09,3.09,0,0,0-3.146,2.825,2.993,2.993,0,0,0,3,3.166h19.905V267.584Z" transform="translate(-174.868 -210.464)" fill="#8f52f5"/>
          <path id="Trazado_182763" data-name="Trazado 182763" d="M399.642,376.352a3.06,3.06,0,0,0-3.135,2.787,2.979,2.979,0,0,0,2.961,3.139h2.083a2.987,2.987,0,0,1,2.992,3.135,3.113,3.113,0,0,1-3.139,2.818h-3.187a2.939,2.939,0,0,0-2.876,2.961,2.974,2.974,0,0,0,2.961,2.961h6.035a2.478,2.478,0,0,1,2.5,2.5v.232a2.357,2.357,0,0,1-2.353,2.5h-6.81a3.113,3.113,0,0,0-3.166,2.787,3,3,0,0,0,2.992,3.142h22.088V376.352Z" transform="translate(-310.291 -296.014)" fill="#79f5ed"/>
          <path id="Trazado_182764" data-name="Trazado 182764" d="M32.349,345.024a3.769,3.769,0,0,0-3.859,3.432,3.666,3.666,0,0,0,3.644,3.863H34.7a3.672,3.672,0,0,1,3.682,3.859,3.823,3.823,0,0,1-3.859,3.467H30.594a3.618,3.618,0,0,0-3.538,3.648,3.662,3.662,0,0,0,3.648,3.648h7.429a3.05,3.05,0,0,1,3.074,3.074v.287a2.905,2.905,0,0,1-2.9,3.074H29.921a3.831,3.831,0,0,0-3.9,3.432,3.7,3.7,0,0,0,3.685,3.859H56.9V345.024Z" transform="translate(-20.467 -271.374)" fill="#e01650"/>
          <g id="Grupo_142810" data-name="Grupo 142810" transform="translate(12.945 75.327)">
            <path id="Trazado_182765" data-name="Trazado 182765" d="M245.575,352.883a5.537,5.537,0,0,1-1.9,2.51,10.265,10.265,0,0,1-1.616,1.031v2.732A10.217,10.217,0,0,0,245,357.3v11.332h3.009V352.88h-2.439Z" transform="translate(-203.336 -352.88)" fill="#fff"/>
            <path id="Trazado_182766" data-name="Trazado 182766" d="M71.183,404.59v2.794H60.64a7.254,7.254,0,0,1,1.028-3,19.881,19.881,0,0,1,3.381-3.76,21.25,21.25,0,0,0,2.493-2.568,3.313,3.313,0,0,0,.622-1.841,2.106,2.106,0,0,0-.54-1.547,2.3,2.3,0,0,0-2.992.027,2.916,2.916,0,0,0-.642,1.882l-3-.3a4.9,4.9,0,0,1,1.68-3.562,5.639,5.639,0,0,1,3.532-1.079,5.108,5.108,0,0,1,3.651,1.253A4.105,4.105,0,0,1,71.187,396a5.435,5.435,0,0,1-.379,2.018,8.2,8.2,0,0,1-1.206,2.008,19.4,19.4,0,0,1-1.971,2q-1.424,1.306-1.8,1.735a5.349,5.349,0,0,0-.615.833h5.97Z" transform="translate(-60.64 -383.36)" fill="#fff"/>
            <path id="Trazado_182767" data-name="Trazado 182767" d="M402.256,418.219l2.91-.352a2.754,2.754,0,0,0,.748,1.7,2.117,2.117,0,0,0,3.043-.12,2.745,2.745,0,0,0,.635-1.906,2.551,2.551,0,0,0-.611-1.8,1.938,1.938,0,0,0-1.489-.663,5.209,5.209,0,0,0-1.38.225l.331-2.452a2.631,2.631,0,0,0,1.861-.529,1.889,1.889,0,0,0,.642-1.492,1.622,1.622,0,0,0-1.725-1.735,1.8,1.8,0,0,0-1.315.536,2.5,2.5,0,0,0-.663,1.561l-2.773-.471a6.22,6.22,0,0,1,.871-2.275,3.955,3.955,0,0,1,1.626-1.339,5.473,5.473,0,0,1,2.34-.488,4.661,4.661,0,0,1,3.552,1.414,3.577,3.577,0,0,1-1.154,5.909,3.643,3.643,0,0,1,2.155,1.294,3.766,3.766,0,0,1,.809,2.428,4.708,4.708,0,0,1-1.51,3.521,5.635,5.635,0,0,1-7.289.229A4.812,4.812,0,0,1,402.256,418.219Z" transform="translate(-329.333 -395.152)" fill="#fff"/>
          </g>
        </g>
        <g id="sensible" transform="translate(870.576 18824.172)">
          <rect id="Rectángulo_38280" data-name="Rectángulo 38280" width="17.809" height="9.329" transform="translate(42.022 99.325)" fill="#afafaf"/>
          <path id="Trazado_182769" data-name="Trazado 182769" d="M166.444,398.763H123.613a1.158,1.158,0,0,0-1.154,1.154V405.7a1.158,1.158,0,0,0,1.154,1.154h42.831v-8.095Z" transform="translate(-94.751 -290.335)" fill="#939598"/>
          <path id="Trazado_182771" data-name="Trazado 182771" d="M100.7,58.964H1.154A1.158,1.158,0,0,0,0,60.118v65.7a1.158,1.158,0,0,0,1.154,1.154H71.693V92.407a1.586,1.586,0,0,1,1.584-1.584h28.577v-30.7A1.158,1.158,0,0,0,100.7,58.964Z" transform="translate(0 -27.42)" fill="#939598"/>
          <path id="Trazado_182772" data-name="Trazado 182772" d="M22.4,154.141a.694.694,0,0,0,.693.692H89.022V131.12a1.586,1.586,0,0,1,1.584-1.584h23.51V109H22.4Z" transform="translate(-17.329 -66.133)" fill="#fff"/>
          <path id="Trazado_182773" data-name="Trazado 182773" d="M26.886,154.141V109H22.4v45.143a.694.694,0,0,0,.693.692h4.49A.694.694,0,0,1,26.886,154.141Z" transform="translate(-17.329 -66.133)" fill="#d9eafc"/>
          <circle id="Elipse_5470" data-name="Elipse 5470" cx="3.117" cy="3.117" r="3.117" transform="translate(47.811 90.989)" fill="#e8e8e8"/>
          <path id="Trazado_182774" data-name="Trazado 182774" d="M273.2,223.146H261.111a.681.681,0,0,0-.679.679v13.494a.681.681,0,0,0,.679.679H273.2Z" transform="translate(-201.505 -154.453)" fill="#c3ddf4"/>
          <path id="Trazado_182775" data-name="Trazado 182775" d="M264.922,237.319V223.825a.681.681,0,0,1,.679-.679h-4.49a.681.681,0,0,0-.679.679v13.494a.681.681,0,0,0,.679.679h4.49A.681.681,0,0,1,264.922,237.319Z" transform="translate(-201.505 -154.453)" fill="#aec1ed"/>
          <path id="Trazado_182776" data-name="Trazado 182776" d="M134.93,145.311h10.548V130.517a1.135,1.135,0,0,0-1.131-1.131H80.813a1.135,1.135,0,0,0-1.131,1.131V145.57a1.135,1.135,0,0,0,1.131,1.131h52.546A1.585,1.585,0,0,1,134.93,145.311Z" transform="translate(-61.653 -81.908)" fill="#c3ddf4"/>
          <path id="Trazado_182777" data-name="Trazado 182777" d="M84.172,145.569V130.516a1.135,1.135,0,0,1,1.131-1.131h-4.49a1.135,1.135,0,0,0-1.131,1.131v15.052a1.135,1.135,0,0,0,1.131,1.131H85.3A1.135,1.135,0,0,1,84.172,145.569Z" transform="translate(-61.653 -81.907)" fill="#aec1ed"/>
          <path id="Trazado_182778" data-name="Trazado 182778" d="M113.423,84.983H23.089a.7.7,0,0,0-.693.693v4.967h91.72V85.676A.7.7,0,0,0,113.423,84.983Z" transform="translate(-17.329 -47.552)" fill="#8f52f5"/>
          <path id="Trazado_182779" data-name="Trazado 182779" d="M27.578,84.983h-4.49a.7.7,0,0,0-.693.693v4.967h4.49V85.676A.7.7,0,0,1,27.578,84.983Z" transform="translate(-17.329 -47.552)" fill="#8f52f5"/>
          <g id="Grupo_142811" data-name="Grupo 142811" transform="translate(18.064 68.881)">
            <path id="Trazado_182780" data-name="Trazado 182780" d="M100.576,227.373H81.531a1.7,1.7,0,0,1,0-3.394h19.045a1.7,1.7,0,1,1,0,3.394Z" transform="translate(-79.834 -223.979)" fill="#5dc1d8"/>
            <path id="Trazado_182781" data-name="Trazado 182781" d="M100.576,251.86H81.531a1.7,1.7,0,0,1,0-3.394h19.045a1.7,1.7,0,0,1,0,3.394Z" transform="translate(-79.834 -242.925)" fill="#5dc1d8"/>
            <path id="Trazado_182782" data-name="Trazado 182782" d="M100.576,276.347H81.531a1.7,1.7,0,1,1,0-3.394h19.045a1.7,1.7,0,1,1,0,3.394Z" transform="translate(-79.834 -261.872)" fill="#5dc1d8"/>
            <path id="Trazado_182783" data-name="Trazado 182783" d="M198.234,227.373h-9.8a1.7,1.7,0,1,1,0-3.394h9.8a1.7,1.7,0,1,1,0,3.394Z" transform="translate(-162.546 -223.979)" fill="#5dc1d8"/>
            <path id="Trazado_182784" data-name="Trazado 182784" d="M198.234,251.86h-9.8a1.7,1.7,0,0,1,0-3.394h9.8a1.7,1.7,0,1,1,0,3.394Z" transform="translate(-162.546 -242.925)" fill="#5dc1d8"/>
            <path id="Trazado_182785" data-name="Trazado 182785" d="M198.234,276.347h-9.8a1.7,1.7,0,1,1,0-3.394h9.8a1.7,1.7,0,1,1,0,3.394Z" transform="translate(-162.546 -261.872)" fill="#5dc1d8"/>
          </g>
          <path id="Trazado_182786" data-name="Trazado 182786" d="M358.426,198.768a1.815,1.815,0,0,1,1.81,1.81v54.7a1.815,1.815,0,0,1-1.81,1.81h-40.76a1.815,1.815,0,0,1-1.81-1.81v-54.7a1.815,1.815,0,0,1,1.81-1.81Z" transform="translate(-244.389 -135.591)" fill="#445ea0"/>
          <path id="Trazado_182787" data-name="Trazado 182787" d="M333.7,261.909a1.135,1.135,0,0,1-1.131-1.131V215.311a1.135,1.135,0,0,1,1.131-1.131h34.556a1.135,1.135,0,0,1,1.131,1.131v45.467a1.135,1.135,0,0,1-1.131,1.131Z" transform="translate(-257.319 -147.516)" fill="#fff"/>
          <path id="Trazado_182788" data-name="Trazado 182788" d="M337.056,260.778V215.311a1.135,1.135,0,0,1,1.131-1.131H333.7a1.135,1.135,0,0,0-1.131,1.131v45.467a1.135,1.135,0,0,0,1.131,1.131h4.49A1.135,1.135,0,0,1,337.056,260.778Z" transform="translate(-257.319 -147.516)" fill="#d9eafc"/>
          <path id="Trazado_182789" data-name="Trazado 182789" d="M400.7,435.883a1.135,1.135,0,0,1-1.131-1.131v-.44a1.135,1.135,0,0,1,1.131-1.131h4.236a1.135,1.135,0,0,1,1.131,1.131v.44a1.135,1.135,0,0,1-1.131,1.131Z" transform="translate(-309.159 -316.964)" fill="#445ea0"/>
          <path id="Trazado_182790" data-name="Trazado 182790" d="M369.385,218.545v-3.234a1.135,1.135,0,0,0-1.131-1.131H333.7a1.135,1.135,0,0,0-1.131,1.131v3.234Z" transform="translate(-257.319 -147.516)" fill="#e01650"/>
          <path id="Trazado_182791" data-name="Trazado 182791" d="M338.188,214.18H333.7a1.135,1.135,0,0,0-1.131,1.131v3.234h4.49v-3.234A1.135,1.135,0,0,1,338.188,214.18Z" transform="translate(-257.319 -147.516)" fill="#e01650"/>
          <g id="Grupo_142812" data-name="Grupo 142812" transform="translate(84.248 88.329)">
            <path id="Trazado_182792" data-name="Trazado 182792" d="M389.465,313.327H374.041a1.7,1.7,0,0,1,0-3.394h15.424a1.7,1.7,0,0,1,0,3.394Z" transform="translate(-372.344 -309.933)" fill="#5dc1d8"/>
            <path id="Trazado_182793" data-name="Trazado 182793" d="M389.465,336.454H374.041a1.7,1.7,0,1,1,0-3.394h15.424a1.7,1.7,0,0,1,0,3.394Z" transform="translate(-372.344 -327.827)" fill="#5dc1d8"/>
            <path id="Trazado_182794" data-name="Trazado 182794" d="M389.465,359.579H374.041a1.7,1.7,0,1,1,0-3.394h15.424a1.7,1.7,0,0,1,0,3.394Z" transform="translate(-372.344 -345.72)" fill="#5dc1d8"/>
          </g>
          <path id="Trazado_182795" data-name="Trazado 182795" d="M377.89,256.476a1.135,1.135,0,0,1-1.131,1.131H349.232a1.135,1.135,0,0,1-1.131-1.131v-9.332a1.135,1.135,0,0,1,1.131-1.131h27.526a1.135,1.135,0,0,1,1.131,1.131Z" transform="translate(-269.338 -172.146)" fill="#c3ddf4"/>
          <path id="Trazado_182796" data-name="Trazado 182796" d="M352.59,256.476v-9.332a1.135,1.135,0,0,1,1.131-1.131h-4.49a1.135,1.135,0,0,0-1.131,1.131v9.332a1.135,1.135,0,0,0,1.131,1.131h4.49A1.135,1.135,0,0,1,352.59,256.476Z" transform="translate(-269.338 -172.146)" fill="#aec1ed"/>
          <path id="Trazado_182797" data-name="Trazado 182797" d="M387.744,392.463a1.135,1.135,0,0,1-1.131,1.131H367.231a1.135,1.135,0,0,1-1.131-1.131v-3.826a1.135,1.135,0,0,1,1.131-1.131h19.381a1.135,1.135,0,0,1,1.131,1.131v3.826Z" transform="translate(-283.264 -281.624)" fill="#c3ddf4"/>
          <path id="Trazado_182798" data-name="Trazado 182798" d="M370.59,392.463v-3.826a1.135,1.135,0,0,1,1.131-1.131h-4.49a1.135,1.135,0,0,0-1.131,1.131v3.826a1.135,1.135,0,0,0,1.131,1.131h4.49A1.135,1.135,0,0,1,370.59,392.463Z" transform="translate(-283.264 -281.624)" fill="#aec1ed"/>
        </g>
        <g id="Grupo_142819" data-name="Grupo 142819" transform="translate(339.928 19017)">
          <path id="Trazado_182799" data-name="Trazado 182799" d="M0,.664V12.75H8.1v-2H2.49V7.5H7.271V5.561H2.49V2.681h5.6V.664Z" fill="#500c75"/>
          <g id="Grupo_142816" data-name="Grupo 142816">
            <g id="Grupo_142815" data-name="Grupo 142815" clip-path="url(#clip-path-5)">
              <path id="Trazado_182800" data-name="Trazado 182800" d="M11.654,3.768l.075,1A3.154,3.154,0,0,1,14.31,3.6a2.4,2.4,0,0,1,2.383,1.37,3.081,3.081,0,0,1,2.7-1.37,2.677,2.677,0,0,1,2.175.851,3.907,3.907,0,0,1,.714,2.56v5.736H19.872V7.008a1.714,1.714,0,0,0-.3-1.118,1.322,1.322,0,0,0-1.054-.353,1.5,1.5,0,0,0-1.494,1.031l.008,6.181h-2.4V7.017a1.7,1.7,0,0,0-.307-1.132,1.339,1.339,0,0,0-1.046-.348,1.555,1.555,0,0,0-1.478.847v6.365H9.4V3.768Z" fill="#500c75"/>
              <path id="Trazado_182801" data-name="Trazado 182801" d="M32.207,8.342a5.39,5.39,0,0,1-.942,3.325,3.021,3.021,0,0,1-2.544,1.249,2.8,2.8,0,0,1-2.2-.946V16.2h-2.4V3.768h2.225l.083.88A2.82,2.82,0,0,1,28.7,3.6a3.043,3.043,0,0,1,2.582,1.229,5.535,5.535,0,0,1,.921,3.387Zm-2.4-.183a3.551,3.551,0,0,0-.444-1.939,1.443,1.443,0,0,0-1.291-.683,1.57,1.57,0,0,0-1.552.865v3.689a1.6,1.6,0,0,0,1.569.891q1.718,0,1.718-2.823" fill="#500c75"/>
              <rect id="Rectángulo_38281" data-name="Rectángulo 38281" width="2.407" height="12.75" transform="translate(33.818 0)" fill="#500c75"/>
              <path id="Trazado_182802" data-name="Trazado 182802" d="M42.334,12.916A4.407,4.407,0,0,1,39.118,11.7a4.306,4.306,0,0,1-1.242-3.229V8.242A5.434,5.434,0,0,1,38.4,5.823,3.838,3.838,0,0,1,39.881,4.18,4.154,4.154,0,0,1,42.068,3.6a3.725,3.725,0,0,1,2.9,1.163,4.718,4.718,0,0,1,1.059,3.3v.979H40.309a2.227,2.227,0,0,0,.7,1.412,2.121,2.121,0,0,0,1.482.531,2.588,2.588,0,0,0,2.166-1.005l1.179,1.32a3.6,3.6,0,0,1-1.461,1.191,4.793,4.793,0,0,1-2.042.428M42.06,5.537A1.5,1.5,0,0,0,40.9,6.02,2.507,2.507,0,0,0,40.333,7.4H43.67V7.213a1.786,1.786,0,0,0-.431-1.239,1.551,1.551,0,0,0-1.179-.437" fill="#500c75"/>
              <path id="Trazado_182803" data-name="Trazado 182803" d="M52.594,12.75a2.66,2.66,0,0,1-.241-.805,2.9,2.9,0,0,1-2.266.971,3.188,3.188,0,0,1-2.187-.764,2.452,2.452,0,0,1-.868-1.925,2.537,2.537,0,0,1,1.059-2.192,5.218,5.218,0,0,1,3.059-.771h1.1V6.748a1.484,1.484,0,0,0-.32-1,1.26,1.26,0,0,0-1.009-.373,1.429,1.429,0,0,0-.95.291.984.984,0,0,0-.344.8h-2.4a2.415,2.415,0,0,1,.481-1.446A3.191,3.191,0,0,1,49.074,3.98,4.959,4.959,0,0,1,51.05,3.6a3.928,3.928,0,0,1,2.636.833,2.92,2.92,0,0,1,.975,2.345v3.894a4.278,4.278,0,0,0,.357,1.934v.141ZM50.61,11.082a2.059,2.059,0,0,0,.979-.237,1.555,1.555,0,0,0,.665-.635V8.666h-.9q-1.8,0-1.917,1.245l-.009.142a.956.956,0,0,0,.316.738,1.228,1.228,0,0,0,.863.291" fill="#500c75"/>
              <path id="Trazado_182804" data-name="Trazado 182804" d="M56.13,8.193a5.416,5.416,0,0,1,.942-3.346A3.057,3.057,0,0,1,59.65,3.6a2.748,2.748,0,0,1,2.166.98V0h2.407V12.75H62.057l-.116-.955a2.822,2.822,0,0,1-2.308,1.121,3.048,3.048,0,0,1-2.544-1.249,5.584,5.584,0,0,1-.959-3.474m2.4.17a3.556,3.556,0,0,0,.44,1.943,1.43,1.43,0,0,0,1.278.676,1.6,1.6,0,0,0,1.569-.942V6.478a1.581,1.581,0,0,0-1.552-.941q-1.736,0-1.735,2.826" fill="#500c75"/>
              <path id="Trazado_182805" data-name="Trazado 182805" d="M65.709,8.175a5.314,5.314,0,0,1,.515-2.381,3.767,3.767,0,0,1,1.481-1.619A4.325,4.325,0,0,1,69.951,3.6a4.09,4.09,0,0,1,2.967,1.112A4.462,4.462,0,0,1,74.2,7.737l.016.614a4.7,4.7,0,0,1-1.153,3.316,4.476,4.476,0,0,1-6.2,0,4.778,4.778,0,0,1-1.158-3.386Zm2.4.171a3.361,3.361,0,0,0,.481,1.958,1.73,1.73,0,0,0,2.74.009,3.677,3.677,0,0,0,.489-2.141,3.326,3.326,0,0,0-.489-1.945,1.594,1.594,0,0,0-1.378-.691,1.568,1.568,0,0,0-1.362.687,3.737,3.737,0,0,0-.481,2.123" fill="#500c75"/>
              <path id="Trazado_182806" data-name="Trazado 182806" d="M79.555,8.193A5.416,5.416,0,0,1,80.5,4.847,3.057,3.057,0,0,1,83.075,3.6a2.748,2.748,0,0,1,2.166.98V0h2.407V12.75H85.482l-.116-.955a2.822,2.822,0,0,1-2.308,1.121,3.048,3.048,0,0,1-2.544-1.249,5.584,5.584,0,0,1-.959-3.474m2.4.17a3.556,3.556,0,0,0,.44,1.943,1.43,1.43,0,0,0,1.278.676,1.6,1.6,0,0,0,1.569-.942V6.478a1.581,1.581,0,0,0-1.552-.941q-1.736,0-1.735,2.826" fill="#500c75"/>
              <path id="Trazado_182807" data-name="Trazado 182807" d="M89.491,1.444a1.178,1.178,0,0,1,.361-.887,1.551,1.551,0,0,1,1.963,0,1.17,1.17,0,0,1,.365.887,1.181,1.181,0,0,1-.369.9,1.541,1.541,0,0,1-1.951,0,1.181,1.181,0,0,1-.369-.9M92.039,12.75H89.632V3.769h2.407Z" fill="#500c75"/>
              <path id="Trazado_182808" data-name="Trazado 182808" d="M98.879,10.267a.771.771,0,0,0-.436-.692,4.933,4.933,0,0,0-1.4-.453Q93.839,8.449,93.84,6.4a2.468,2.468,0,0,1,.993-2,4,4,0,0,1,2.593-.8,4.307,4.307,0,0,1,2.736.806A2.536,2.536,0,0,1,101.187,6.5h-2.4a1.162,1.162,0,0,0-.332-.851,1.408,1.408,0,0,0-1.038-.336,1.444,1.444,0,0,0-.938.273.869.869,0,0,0-.332.7.739.739,0,0,0,.378.643A3.878,3.878,0,0,0,97.8,7.35a10.48,10.48,0,0,1,1.511.4,2.483,2.483,0,0,1,1.9,2.415,2.343,2.343,0,0,1-1.055,1.989,4.54,4.54,0,0,1-2.722.759,4.741,4.741,0,0,1-2-.4,3.365,3.365,0,0,1-1.374-1.1,2.567,2.567,0,0,1-.5-1.515h2.275a1.248,1.248,0,0,0,.473.979,1.874,1.874,0,0,0,1.178.341,1.746,1.746,0,0,0,1.042-.261.816.816,0,0,0,.353-.686" fill="#500c75"/>
              <path id="Trazado_182809" data-name="Trazado 182809" d="M102.407,8.193a5.261,5.261,0,0,1,.984-3.329A3.187,3.187,0,0,1,106.043,3.6a2.8,2.8,0,0,1,2.3,1.013l.1-.847h2.175v8.683a3.843,3.843,0,0,1-.536,2.051,3.45,3.45,0,0,1-1.506,1.328,5.306,5.306,0,0,1-2.275.456,4.925,4.925,0,0,1-1.926-.395,3.41,3.41,0,0,1-1.419-1.016l1.062-1.461a2.81,2.81,0,0,0,2.175,1,2.059,2.059,0,0,0,1.486-.51,1.916,1.916,0,0,0,.531-1.449v-.481a2.775,2.775,0,0,1-2.183.938,3.176,3.176,0,0,1-2.618-1.266,5.261,5.261,0,0,1-1-3.357Zm2.4.17a3.3,3.3,0,0,0,.49,1.923,1.556,1.556,0,0,0,1.344.7,1.663,1.663,0,0,0,1.569-.826V6.362a1.658,1.658,0,0,0-1.552-.825,1.563,1.563,0,0,0-1.357.708,3.716,3.716,0,0,0-.494,2.118" fill="#500c75"/>
              <path id="Trazado_182810" data-name="Trazado 182810" d="M117.838,11.837a3.006,3.006,0,0,1-2.457,1.079,2.835,2.835,0,0,1-2.2-.83,3.546,3.546,0,0,1-.776-2.432V3.769h2.4V9.577q0,1.406,1.278,1.406a1.733,1.733,0,0,0,1.677-.849V3.769h2.407V12.75H117.9Z" fill="#500c75"/>
              <path id="Trazado_182811" data-name="Trazado 182811" d="M126.836,10.267a.771.771,0,0,0-.436-.692,4.933,4.933,0,0,0-1.4-.453Q121.8,8.449,121.8,6.4a2.468,2.468,0,0,1,.993-2,4,4,0,0,1,2.593-.8,4.307,4.307,0,0,1,2.736.806A2.536,2.536,0,0,1,129.144,6.5h-2.4a1.162,1.162,0,0,0-.332-.851,1.408,1.408,0,0,0-1.038-.336,1.444,1.444,0,0,0-.938.273.869.869,0,0,0-.332.7.739.739,0,0,0,.378.643,3.878,3.878,0,0,0,1.274.424,10.48,10.48,0,0,1,1.511.4,2.483,2.483,0,0,1,1.9,2.415,2.343,2.343,0,0,1-1.055,1.989,4.54,4.54,0,0,1-2.722.759,4.741,4.741,0,0,1-2-.4,3.365,3.365,0,0,1-1.374-1.1,2.567,2.567,0,0,1-.5-1.515h2.275a1.247,1.247,0,0,0,.473.979,1.874,1.874,0,0,0,1.178.341,1.746,1.746,0,0,0,1.042-.261.816.816,0,0,0,.353-.686" fill="#500c75"/>
              <path id="Trazado_182812" data-name="Trazado 182812" d="M133.585,1.56V3.768h1.535v1.76h-1.535V10.01a1.066,1.066,0,0,0,.19.714.958.958,0,0,0,.73.216,3.907,3.907,0,0,0,.707-.058V12.7a4.97,4.97,0,0,1-1.454.215,2.289,2.289,0,0,1-2.572-2.548V5.528h-1.312V3.768h1.312V1.56Z" fill="#500c75"/>
              <path id="Trazado_182813" data-name="Trazado 182813" d="M141.661,12.75a2.66,2.66,0,0,1-.241-.805,2.9,2.9,0,0,1-2.266.971,3.188,3.188,0,0,1-2.187-.764,2.452,2.452,0,0,1-.868-1.925,2.537,2.537,0,0,1,1.059-2.192,5.218,5.218,0,0,1,3.059-.771h1.1V6.748a1.484,1.484,0,0,0-.32-1,1.26,1.26,0,0,0-1.009-.373,1.429,1.429,0,0,0-.95.291.984.984,0,0,0-.344.8h-2.4a2.415,2.415,0,0,1,.481-1.446,3.191,3.191,0,0,1,1.361-1.041,4.959,4.959,0,0,1,1.976-.377,3.928,3.928,0,0,1,2.636.833,2.92,2.92,0,0,1,.975,2.345v3.894a4.278,4.278,0,0,0,.357,1.934v.141Zm-1.984-1.668a2.059,2.059,0,0,0,.979-.237,1.555,1.555,0,0,0,.665-.635V8.666h-.9q-1.8,0-1.917,1.245l-.009.142a.956.956,0,0,0,.316.738,1.228,1.228,0,0,0,.863.291" fill="#500c75"/>
              <path id="Trazado_182814" data-name="Trazado 182814" d="M145.2,8.193a5.416,5.416,0,0,1,.942-3.346A3.057,3.057,0,0,1,148.717,3.6a2.748,2.748,0,0,1,2.166.98V0h2.407V12.75h-2.166l-.116-.955a2.822,2.822,0,0,1-2.308,1.121,3.047,3.047,0,0,1-2.544-1.249,5.584,5.584,0,0,1-.959-3.474m2.4.17a3.556,3.556,0,0,0,.44,1.943,1.43,1.43,0,0,0,1.278.676,1.6,1.6,0,0,0,1.569-.942V6.478a1.581,1.581,0,0,0-1.552-.941q-1.735,0-1.735,2.826" fill="#500c75"/>
              <path id="Trazado_182815" data-name="Trazado 182815" d="M154.776,8.175a5.314,5.314,0,0,1,.515-2.381,3.767,3.767,0,0,1,1.481-1.619,4.325,4.325,0,0,1,2.246-.572,4.09,4.09,0,0,1,2.967,1.112,4.462,4.462,0,0,1,1.283,3.022l.016.614a4.7,4.7,0,0,1-1.153,3.316,4.476,4.476,0,0,1-6.2,0,4.778,4.778,0,0,1-1.158-3.386Zm2.4.171a3.361,3.361,0,0,0,.481,1.958,1.73,1.73,0,0,0,2.74.009,3.676,3.676,0,0,0,.489-2.141,3.326,3.326,0,0,0-.489-1.945,1.594,1.594,0,0,0-1.378-.691,1.568,1.568,0,0,0-1.362.687,3.736,3.736,0,0,0-.481,2.123" fill="#500c75"/>
              <path id="Trazado_182816" data-name="Trazado 182816" d="M258.319,9.579a1.277,1.277,0,0,0-.5-1.083,6.516,6.516,0,0,0-1.793-.8,12.665,12.665,0,0,1-2.05-.826,3.348,3.348,0,0,1-2.059-3,2.921,2.921,0,0,1,.552-1.748,3.6,3.6,0,0,1,1.586-1.2A5.94,5.94,0,0,1,256.377.5a5.424,5.424,0,0,1,2.307.469,3.662,3.662,0,0,1,1.573,1.324,3.462,3.462,0,0,1,.561,1.942h-2.491a1.631,1.631,0,0,0-.523-1.291,2.153,2.153,0,0,0-1.469-.46,2.289,2.289,0,0,0-1.419.386,1.216,1.216,0,0,0-.507,1.017,1.168,1.168,0,0,0,.594.988,6.687,6.687,0,0,0,1.747.746,7.553,7.553,0,0,1,3.1,1.586,3.157,3.157,0,0,1,.972,2.357,2.908,2.908,0,0,1-1.187,2.461,5.2,5.2,0,0,1-3.2.893,6.157,6.157,0,0,1-2.54-.511,4.007,4.007,0,0,1-1.747-1.4,3.578,3.578,0,0,1-.6-2.059h2.5q0,2,2.391,2a2.33,2.33,0,0,0,1.386-.361,1.175,1.175,0,0,0,.5-1.009" fill="#500c75"/>
              <path id="Trazado_182817" data-name="Trazado 182817" d="M266.479,12.916a4.407,4.407,0,0,1-3.216-1.212,4.306,4.306,0,0,1-1.242-3.229V8.242a5.434,5.434,0,0,1,.523-2.419,3.837,3.837,0,0,1,1.482-1.643,4.155,4.155,0,0,1,2.187-.578,3.725,3.725,0,0,1,2.9,1.163,4.718,4.718,0,0,1,1.059,3.3v.979h-5.719a2.227,2.227,0,0,0,.7,1.412,2.121,2.121,0,0,0,1.482.531A2.588,2.588,0,0,0,268.8,9.977l1.179,1.32a3.6,3.6,0,0,1-1.461,1.191,4.793,4.793,0,0,1-2.042.428M266.2,5.537a1.5,1.5,0,0,0-1.158.483,2.507,2.507,0,0,0-.569,1.384h3.337V7.213a1.786,1.786,0,0,0-.431-1.239,1.551,1.551,0,0,0-1.179-.437" fill="#500c75"/>
              <path id="Trazado_182818" data-name="Trazado 182818" d="M275.269,10.982a1.575,1.575,0,0,0,1.079-.365,1.281,1.281,0,0,0,.432-.972h2.249a3.073,3.073,0,0,1-.5,1.673A3.287,3.287,0,0,1,277.19,12.5a4.2,4.2,0,0,1-1.879.419,3.9,3.9,0,0,1-3.039-1.225,4.846,4.846,0,0,1-1.112-3.383V8.151a4.79,4.79,0,0,1,1.1-3.312,3.853,3.853,0,0,1,3.03-1.237,3.775,3.775,0,0,1,2.7.959,3.391,3.391,0,0,1,1.033,2.552H276.78a1.647,1.647,0,0,0-.432-1.139,1.607,1.607,0,0,0-2.362.173,3.548,3.548,0,0,0-.427,1.982v.25a3.591,3.591,0,0,0,.423,2,1.465,1.465,0,0,0,1.287.607" fill="#500c75"/>
              <path id="Trazado_182819" data-name="Trazado 182819" d="M285.446,6.017a6.56,6.56,0,0,0-.863-.066,1.757,1.757,0,0,0-1.785.921v5.877h-2.4V3.768h2.266l.067,1.071a2.221,2.221,0,0,1,2-1.237,2.508,2.508,0,0,1,.747.108Z" fill="#500c75"/>
              <path id="Trazado_182820" data-name="Trazado 182820" d="M290.576,12.916A4.407,4.407,0,0,1,287.36,11.7a4.306,4.306,0,0,1-1.242-3.229V8.242a5.434,5.434,0,0,1,.523-2.419,3.838,3.838,0,0,1,1.482-1.643A4.155,4.155,0,0,1,290.31,3.6a3.725,3.725,0,0,1,2.9,1.163,4.718,4.718,0,0,1,1.059,3.3v.979h-5.719a2.227,2.227,0,0,0,.7,1.412,2.121,2.121,0,0,0,1.482.531A2.588,2.588,0,0,0,292.9,9.977l1.179,1.32a3.6,3.6,0,0,1-1.461,1.191,4.793,4.793,0,0,1-2.042.428M290.3,5.537a1.5,1.5,0,0,0-1.158.483,2.507,2.507,0,0,0-.569,1.384h3.337V7.213a1.786,1.786,0,0,0-.431-1.239,1.55,1.55,0,0,0-1.179-.437" fill="#500c75"/>
              <path id="Trazado_182821" data-name="Trazado 182821" d="M298.5,1.56V3.768h1.536v1.76H298.5V10.01a1.065,1.065,0,0,0,.191.714.958.958,0,0,0,.73.216,3.9,3.9,0,0,0,.706-.058V12.7a4.968,4.968,0,0,1-1.453.215,2.29,2.29,0,0,1-2.573-2.548V5.528h-1.311V3.768H296.1V1.56Z" fill="#500c75"/>
              <path id="Trazado_182822" data-name="Trazado 182822" d="M300.752,8.175a5.314,5.314,0,0,1,.515-2.381,3.767,3.767,0,0,1,1.481-1.619,4.325,4.325,0,0,1,2.246-.572,4.09,4.09,0,0,1,2.967,1.112,4.462,4.462,0,0,1,1.283,3.022l.016.614a4.7,4.7,0,0,1-1.153,3.316,4.476,4.476,0,0,1-6.2,0,4.778,4.778,0,0,1-1.158-3.386Zm2.4.171a3.361,3.361,0,0,0,.481,1.958,1.73,1.73,0,0,0,2.74.009,3.677,3.677,0,0,0,.489-2.141,3.326,3.326,0,0,0-.489-1.945,1.594,1.594,0,0,0-1.378-.691,1.568,1.568,0,0,0-1.362.687,3.737,3.737,0,0,0-.481,2.123" fill="#500c75"/>
              <path id="Trazado_182823" data-name="Trazado 182823" d="M315.6,10.267a.773.773,0,0,0-.436-.692,4.953,4.953,0,0,0-1.4-.453q-3.2-.673-3.2-2.722a2.47,2.47,0,0,1,.992-2,4,4,0,0,1,2.594-.8,4.3,4.3,0,0,1,2.735.806A2.536,2.536,0,0,1,317.91,6.5h-2.4a1.166,1.166,0,0,0-.332-.851,1.412,1.412,0,0,0-1.039-.336,1.444,1.444,0,0,0-.938.273.869.869,0,0,0-.332.7.739.739,0,0,0,.378.643,3.887,3.887,0,0,0,1.274.424,10.48,10.48,0,0,1,1.511.4,2.483,2.483,0,0,1,1.9,2.415,2.343,2.343,0,0,1-1.055,1.989,4.537,4.537,0,0,1-2.721.759,4.735,4.735,0,0,1-2.005-.4,3.361,3.361,0,0,1-1.375-1.1,2.567,2.567,0,0,1-.5-1.515h2.275a1.251,1.251,0,0,0,.473.979,1.874,1.874,0,0,0,1.178.341,1.746,1.746,0,0,0,1.042-.261.817.817,0,0,0,.354-.686" fill="#500c75"/>
              <path id="Trazado_182824" data-name="Trazado 182824" d="M327.448,10.982a1.575,1.575,0,0,0,1.079-.365,1.281,1.281,0,0,0,.432-.972h2.249a3.073,3.073,0,0,1-.5,1.673,3.286,3.286,0,0,1-1.341,1.179,4.2,4.2,0,0,1-1.879.419,3.9,3.9,0,0,1-3.039-1.225,4.846,4.846,0,0,1-1.112-3.383V8.151a4.79,4.79,0,0,1,1.1-3.312,3.853,3.853,0,0,1,3.03-1.237,3.775,3.775,0,0,1,2.7.959,3.392,3.392,0,0,1,1.033,2.552h-2.249a1.647,1.647,0,0,0-.432-1.139,1.607,1.607,0,0,0-2.362.173,3.548,3.548,0,0,0-.427,1.982v.25a3.591,3.591,0,0,0,.423,2,1.465,1.465,0,0,0,1.287.607" fill="#500c75"/>
              <path id="Trazado_182825" data-name="Trazado 182825" d="M332.2,8.175a5.314,5.314,0,0,1,.515-2.381A3.767,3.767,0,0,1,334.2,4.175a4.324,4.324,0,0,1,2.246-.572,4.09,4.09,0,0,1,2.967,1.112A4.462,4.462,0,0,1,340.7,7.737l.016.614a4.7,4.7,0,0,1-1.153,3.316,4.476,4.476,0,0,1-6.2,0A4.778,4.778,0,0,1,332.2,8.285Zm2.4.171a3.361,3.361,0,0,0,.481,1.958,1.73,1.73,0,0,0,2.74.009,3.677,3.677,0,0,0,.489-2.141,3.326,3.326,0,0,0-.489-1.945,1.594,1.594,0,0,0-1.378-.691,1.568,1.568,0,0,0-1.362.687,3.736,3.736,0,0,0-.481,2.123" fill="#500c75"/>
              <path id="Trazado_182826" data-name="Trazado 182826" d="M347.237,6.017a6.559,6.559,0,0,0-.863-.066,1.757,1.757,0,0,0-1.785.921v5.877h-2.4V3.768h2.266l.067,1.071a2.221,2.221,0,0,1,2-1.237,2.507,2.507,0,0,1,.747.108Z" fill="#500c75"/>
              <path id="Trazado_182827" data-name="Trazado 182827" d="M356.476,8.342a5.39,5.39,0,0,1-.942,3.325,3.021,3.021,0,0,1-2.544,1.249,2.8,2.8,0,0,1-2.2-.946V16.2h-2.4V3.768h2.225l.083.88A2.82,2.82,0,0,1,352.973,3.6a3.043,3.043,0,0,1,2.582,1.229,5.535,5.535,0,0,1,.921,3.387Zm-2.4-.183a3.551,3.551,0,0,0-.444-1.939,1.443,1.443,0,0,0-1.291-.683,1.57,1.57,0,0,0-1.552.865v3.689a1.6,1.6,0,0,0,1.569.891q1.717,0,1.718-2.823" fill="#500c75"/>
              <path id="Trazado_182828" data-name="Trazado 182828" d="M357.588,8.175a5.314,5.314,0,0,1,.515-2.381,3.767,3.767,0,0,1,1.481-1.619A4.324,4.324,0,0,1,361.83,3.6,4.09,4.09,0,0,1,364.8,4.715a4.462,4.462,0,0,1,1.283,3.022l.016.614a4.7,4.7,0,0,1-1.153,3.316,4.476,4.476,0,0,1-6.2,0,4.778,4.778,0,0,1-1.158-3.386Zm2.4.171a3.361,3.361,0,0,0,.481,1.958,1.73,1.73,0,0,0,2.74.009,3.677,3.677,0,0,0,.489-2.141,3.326,3.326,0,0,0-.489-1.945,1.594,1.594,0,0,0-1.378-.691,1.568,1.568,0,0,0-1.362.687,3.737,3.737,0,0,0-.481,2.123" fill="#500c75"/>
              <path id="Trazado_182829" data-name="Trazado 182829" d="M372.621,6.017a6.559,6.559,0,0,0-.863-.066,1.757,1.757,0,0,0-1.785.921v5.877h-2.4V3.768h2.266l.067,1.071a2.221,2.221,0,0,1,2-1.237,2.507,2.507,0,0,1,.747.108Z" fill="#500c75"/>
              <path id="Trazado_182830" data-name="Trazado 182830" d="M378.73,12.75a2.659,2.659,0,0,1-.241-.805,2.9,2.9,0,0,1-2.266.971,3.188,3.188,0,0,1-2.187-.764,2.452,2.452,0,0,1-.868-1.925,2.537,2.537,0,0,1,1.059-2.192,5.218,5.218,0,0,1,3.059-.771h1.1V6.748a1.484,1.484,0,0,0-.32-1,1.26,1.26,0,0,0-1.009-.373,1.429,1.429,0,0,0-.95.291.984.984,0,0,0-.344.8h-2.4a2.415,2.415,0,0,1,.481-1.446A3.191,3.191,0,0,1,375.21,3.98a4.959,4.959,0,0,1,1.976-.377,3.928,3.928,0,0,1,2.636.833,2.92,2.92,0,0,1,.975,2.345v3.894a4.278,4.278,0,0,0,.357,1.934v.141Zm-1.984-1.668a2.059,2.059,0,0,0,.979-.237,1.556,1.556,0,0,0,.665-.635V8.666h-.9q-1.8,0-1.917,1.245l-.009.142a.956.956,0,0,0,.316.738,1.228,1.228,0,0,0,.863.291" fill="#500c75"/>
              <path id="Trazado_182831" data-name="Trazado 182831" d="M385.512,1.56V3.768h1.536v1.76h-1.536V10.01a1.065,1.065,0,0,0,.191.714.958.958,0,0,0,.73.216,3.9,3.9,0,0,0,.706-.058V12.7a4.968,4.968,0,0,1-1.453.215,2.29,2.29,0,0,1-2.573-2.548V5.528H381.8V3.768h1.311V1.56Z" fill="#500c75"/>
              <path id="Trazado_182832" data-name="Trazado 182832" d="M388.367,1.444a1.182,1.182,0,0,1,.361-.887,1.551,1.551,0,0,1,1.963,0,1.171,1.171,0,0,1,.366.887,1.178,1.178,0,0,1-.37.9,1.54,1.54,0,0,1-1.95,0,1.178,1.178,0,0,1-.37-.9m2.549,11.306h-2.407V3.769h2.407Z" fill="#500c75"/>
              <path id="Trazado_182833" data-name="Trazado 182833" d="M396.253,9.82l1.668-6.052h2.507L397.4,12.75h-2.292l-3.029-8.982h2.507Z" fill="#500c75"/>
              <path id="Trazado_182834" data-name="Trazado 182834" d="M400.984,8.175a5.314,5.314,0,0,1,.515-2.381,3.767,3.767,0,0,1,1.481-1.619,4.324,4.324,0,0,1,2.246-.572,4.09,4.09,0,0,1,2.967,1.112,4.462,4.462,0,0,1,1.283,3.022l.016.614a4.7,4.7,0,0,1-1.153,3.316,4.476,4.476,0,0,1-6.2,0,4.778,4.778,0,0,1-1.158-3.386Zm2.4.171a3.361,3.361,0,0,0,.481,1.958,1.73,1.73,0,0,0,2.74.009,3.677,3.677,0,0,0,.489-2.141,3.326,3.326,0,0,0-.489-1.945,1.594,1.594,0,0,0-1.378-.691,1.568,1.568,0,0,0-1.362.687,3.736,3.736,0,0,0-.481,2.123" fill="#500c75"/>
              <path id="Trazado_182835" data-name="Trazado 182835" d="M415.835,10.267a.772.772,0,0,0-.437-.692,4.934,4.934,0,0,0-1.4-.453q-3.205-.673-3.2-2.722a2.467,2.467,0,0,1,.992-2,4,4,0,0,1,2.594-.8,4.3,4.3,0,0,1,2.735.806A2.536,2.536,0,0,1,418.142,6.5h-2.4a1.163,1.163,0,0,0-.332-.851,1.408,1.408,0,0,0-1.038-.336,1.444,1.444,0,0,0-.938.273.869.869,0,0,0-.332.7.739.739,0,0,0,.378.643,3.887,3.887,0,0,0,1.274.424,10.48,10.48,0,0,1,1.511.4,2.483,2.483,0,0,1,1.9,2.415,2.343,2.343,0,0,1-1.055,1.989,4.537,4.537,0,0,1-2.721.759,4.743,4.743,0,0,1-2.006-.4,3.365,3.365,0,0,1-1.374-1.1,2.567,2.567,0,0,1-.5-1.515h2.275a1.248,1.248,0,0,0,.473.979,1.874,1.874,0,0,0,1.178.341,1.746,1.746,0,0,0,1.042-.261.817.817,0,0,0,.354-.686" fill="#500c75"/>
              <path id="Trazado_182836" data-name="Trazado 182836" d="M526.8,8.326h-1.984v4.423h-2.49V.663h4.49a5.074,5.074,0,0,1,3.3.956,3.292,3.292,0,0,1,1.162,2.7,3.72,3.72,0,0,1-.535,2.063A3.66,3.66,0,0,1,529.123,7.7l2.615,4.938v.116h-2.673Zm-1.984-2.018h2.009a2.052,2.052,0,0,0,1.452-.478,1.7,1.7,0,0,0,.515-1.315,1.821,1.821,0,0,0-.486-1.344,2.014,2.014,0,0,0-1.49-.49h-2Z" fill="#500c75"/>
              <path id="Trazado_182837" data-name="Trazado 182837" d="M537.15,12.916a4.407,4.407,0,0,1-3.216-1.212,4.306,4.306,0,0,1-1.242-3.229V8.242a5.434,5.434,0,0,1,.523-2.419A3.837,3.837,0,0,1,534.7,4.18a4.154,4.154,0,0,1,2.187-.578,3.725,3.725,0,0,1,2.9,1.163,4.718,4.718,0,0,1,1.059,3.3v.979h-5.719a2.227,2.227,0,0,0,.7,1.412,2.121,2.121,0,0,0,1.482.531,2.588,2.588,0,0,0,2.166-1.005l1.179,1.32a3.6,3.6,0,0,1-1.461,1.191,4.793,4.793,0,0,1-2.042.428m-.274-7.379a1.5,1.5,0,0,0-1.158.483,2.507,2.507,0,0,0-.569,1.384h3.337V7.213a1.786,1.786,0,0,0-.431-1.239,1.551,1.551,0,0,0-1.179-.437" fill="#500c75"/>
              <path id="Trazado_182838" data-name="Trazado 182838" d="M541.831,8.193a5.422,5.422,0,0,1,.942-3.346A3.058,3.058,0,0,1,545.352,3.6a2.748,2.748,0,0,1,2.166.98V0h2.406V12.75h-2.166l-.115-.955a2.824,2.824,0,0,1-2.309,1.121,3.047,3.047,0,0,1-2.543-1.249,5.584,5.584,0,0,1-.96-3.474m2.4.17a3.566,3.566,0,0,0,.439,1.943,1.432,1.432,0,0,0,1.278.676,1.606,1.606,0,0,0,1.57-.942V6.478a1.582,1.582,0,0,0-1.552-.941q-1.737,0-1.735,2.826" fill="#500c75"/>
              <path id="Trazado_182839" data-name="Trazado 182839" d="M555.644,8.193a5.416,5.416,0,0,1,.942-3.346A3.057,3.057,0,0,1,559.164,3.6a2.748,2.748,0,0,1,2.166.98V0h2.407V12.75h-2.166l-.116-.955a2.822,2.822,0,0,1-2.308,1.121,3.047,3.047,0,0,1-2.544-1.249,5.584,5.584,0,0,1-.959-3.474m2.4.17a3.556,3.556,0,0,0,.44,1.943,1.43,1.43,0,0,0,1.278.676,1.6,1.6,0,0,0,1.569-.942V6.478a1.581,1.581,0,0,0-1.552-.941q-1.736,0-1.735,2.826" fill="#500c75"/>
              <path id="Trazado_182840" data-name="Trazado 182840" d="M569.73,12.916a4.407,4.407,0,0,1-3.216-1.212,4.306,4.306,0,0,1-1.242-3.229V8.242a5.435,5.435,0,0,1,.523-2.419,3.838,3.838,0,0,1,1.482-1.643,4.156,4.156,0,0,1,2.188-.578,3.725,3.725,0,0,1,2.9,1.163,4.718,4.718,0,0,1,1.059,3.3v.979h-5.719a2.227,2.227,0,0,0,.7,1.412,2.121,2.121,0,0,0,1.482.531,2.591,2.591,0,0,0,2.167-1.005l1.177,1.32a3.578,3.578,0,0,1-1.461,1.191,4.785,4.785,0,0,1-2.041.428m-.274-7.379a1.5,1.5,0,0,0-1.158.483,2.508,2.508,0,0,0-.569,1.384h3.337V7.213a1.786,1.786,0,0,0-.431-1.239,1.552,1.552,0,0,0-1.179-.437" fill="#500c75"/>
              <rect id="Rectángulo_38282" data-name="Rectángulo 38282" width="2.408" height="12.75" transform="translate(579.143 0)" fill="#500c75"/>
              <path id="Trazado_182841" data-name="Trazado 182841" d="M588.731,12.75a2.631,2.631,0,0,1-.24-.805,2.906,2.906,0,0,1-2.266.971,3.193,3.193,0,0,1-2.188-.764,2.454,2.454,0,0,1-.867-1.925,2.536,2.536,0,0,1,1.058-2.192,5.222,5.222,0,0,1,3.059-.771h1.105V6.748a1.484,1.484,0,0,0-.321-1,1.26,1.26,0,0,0-1.008-.373,1.432,1.432,0,0,0-.951.291.987.987,0,0,0-.344.8h-2.4a2.416,2.416,0,0,1,.482-1.446,3.185,3.185,0,0,1,1.361-1.041,4.954,4.954,0,0,1,1.975-.377,3.926,3.926,0,0,1,2.636.833,2.917,2.917,0,0,1,.975,2.345v3.894a4.305,4.305,0,0,0,.357,1.934v.141Zm-1.984-1.668a2.063,2.063,0,0,0,.98-.237,1.561,1.561,0,0,0,.665-.635V8.666h-.9q-1.8,0-1.918,1.245l-.008.142a.958.958,0,0,0,.315.738,1.23,1.23,0,0,0,.863.291" fill="#500c75"/>
              <path id="Trazado_182842" data-name="Trazado 182842" d="M601.008,12.916a4.407,4.407,0,0,1-3.216-1.212,4.3,4.3,0,0,1-1.242-3.229V8.242a5.434,5.434,0,0,1,.523-2.419,3.838,3.838,0,0,1,1.482-1.643,4.155,4.155,0,0,1,2.188-.578,3.725,3.725,0,0,1,2.9,1.163,4.718,4.718,0,0,1,1.059,3.3v.979h-5.719a2.227,2.227,0,0,0,.7,1.412,2.121,2.121,0,0,0,1.482.531,2.591,2.591,0,0,0,2.167-1.005l1.177,1.32a3.578,3.578,0,0,1-1.461,1.191,4.785,4.785,0,0,1-2.041.428m-.274-7.379a1.5,1.5,0,0,0-1.158.483,2.508,2.508,0,0,0-.569,1.384h3.337V7.213a1.786,1.786,0,0,0-.431-1.239,1.552,1.552,0,0,0-1.179-.437" fill="#500c75"/>
              <path id="Trazado_182843" data-name="Trazado 182843" d="M608.313,3.768l.074,1A3.156,3.156,0,0,1,610.969,3.6a2.394,2.394,0,0,1,2.382,1.37,3.082,3.082,0,0,1,2.7-1.37,2.674,2.674,0,0,1,2.174.851,3.9,3.9,0,0,1,.715,2.56v5.736H616.53V7.008a1.714,1.714,0,0,0-.3-1.118,1.322,1.322,0,0,0-1.054-.353,1.5,1.5,0,0,0-1.494,1.031l.009,6.181h-2.4V7.017a1.7,1.7,0,0,0-.307-1.132,1.336,1.336,0,0,0-1.045-.348,1.555,1.555,0,0,0-1.479.847v6.365h-2.4V3.768Z" fill="#500c75"/>
              <path id="Trazado_182844" data-name="Trazado 182844" d="M628.865,8.342a5.39,5.39,0,0,1-.942,3.325,3.021,3.021,0,0,1-2.544,1.249,2.8,2.8,0,0,1-2.2-.946V16.2h-2.4V3.768H623l.084.88A2.818,2.818,0,0,1,625.362,3.6a3.043,3.043,0,0,1,2.582,1.229,5.535,5.535,0,0,1,.921,3.387Zm-2.4-.183a3.542,3.542,0,0,0-.444-1.939,1.445,1.445,0,0,0-1.291-.683,1.57,1.57,0,0,0-1.552.865v3.689a1.6,1.6,0,0,0,1.569.891q1.718,0,1.718-2.823" fill="#500c75"/>
              <path id="Trazado_182845" data-name="Trazado 182845" d="M635.4,6.017a6.56,6.56,0,0,0-.863-.066,1.755,1.755,0,0,0-1.784.921v5.877h-2.4V3.768h2.267l.066,1.071a2.222,2.222,0,0,1,2-1.237,2.508,2.508,0,0,1,.747.108Z" fill="#500c75"/>
              <path id="Trazado_182846" data-name="Trazado 182846" d="M640.527,12.916a4.41,4.41,0,0,1-3.216-1.212,4.3,4.3,0,0,1-1.241-3.229V8.242a5.42,5.42,0,0,1,.523-2.419,3.835,3.835,0,0,1,1.481-1.643,4.158,4.158,0,0,1,2.188-.578,3.725,3.725,0,0,1,2.9,1.163,4.713,4.713,0,0,1,1.059,3.3v.979H638.5a2.232,2.232,0,0,0,.7,1.412,2.125,2.125,0,0,0,1.483.531,2.589,2.589,0,0,0,2.166-1.005l1.178,1.32a3.591,3.591,0,0,1-1.461,1.191,4.789,4.789,0,0,1-2.042.428m-.273-7.379a1.5,1.5,0,0,0-1.158.483,2.493,2.493,0,0,0-.569,1.384h3.336V7.213a1.781,1.781,0,0,0-.431-1.239,1.548,1.548,0,0,0-1.178-.437" fill="#500c75"/>
              <path id="Trazado_182847" data-name="Trazado 182847" d="M650.448,10.267a.772.772,0,0,0-.437-.692,4.933,4.933,0,0,0-1.4-.453q-3.2-.673-3.2-2.722a2.467,2.467,0,0,1,.992-2,4,4,0,0,1,2.594-.8,4.3,4.3,0,0,1,2.735.806A2.536,2.536,0,0,1,652.755,6.5h-2.4a1.162,1.162,0,0,0-.332-.851,1.4,1.4,0,0,0-1.037-.336,1.444,1.444,0,0,0-.938.273.866.866,0,0,0-.332.7.74.74,0,0,0,.377.643,3.887,3.887,0,0,0,1.274.424,10.532,10.532,0,0,1,1.512.4,2.483,2.483,0,0,1,1.9,2.415,2.343,2.343,0,0,1-1.055,1.989,4.537,4.537,0,0,1-2.722.759,4.74,4.74,0,0,1-2-.4,3.364,3.364,0,0,1-1.374-1.1,2.567,2.567,0,0,1-.5-1.515H647.4a1.25,1.25,0,0,0,.473.979,1.877,1.877,0,0,0,1.179.341,1.742,1.742,0,0,0,1.041-.261.815.815,0,0,0,.354-.686" fill="#500c75"/>
              <path id="Trazado_182848" data-name="Trazado 182848" d="M659.527,12.75a2.69,2.69,0,0,1-.24-.805,2.9,2.9,0,0,1-2.265.971,3.189,3.189,0,0,1-2.188-.764,2.454,2.454,0,0,1-.867-1.925,2.534,2.534,0,0,1,1.058-2.192,5.22,5.22,0,0,1,3.059-.771h1.1V6.748a1.479,1.479,0,0,0-.321-1,1.26,1.26,0,0,0-1.008-.373,1.432,1.432,0,0,0-.951.291.99.99,0,0,0-.343.8h-2.4a2.415,2.415,0,0,1,.481-1.446,3.191,3.191,0,0,1,1.361-1.041,4.963,4.963,0,0,1,1.976-.377,3.923,3.923,0,0,1,2.635.833,2.918,2.918,0,0,1,.976,2.345v3.894a4.294,4.294,0,0,0,.356,1.934v.141Zm-1.983-1.668a2.059,2.059,0,0,0,.979-.237,1.561,1.561,0,0,0,.665-.635V8.666h-.9q-1.8,0-1.918,1.245l-.008.142a.959.959,0,0,0,.316.738,1.228,1.228,0,0,0,.863.291" fill="#500c75"/>
              <path id="Trazado_182849" data-name="Trazado 182849" d="M802.633,8.724a4.277,4.277,0,0,1-1.439,3.071,5.062,5.062,0,0,1-3.425,1.12,4.55,4.55,0,0,1-3.657-1.563,6.427,6.427,0,0,1-1.332-4.3V6.316a7.238,7.238,0,0,1,.615-3.071,4.6,4.6,0,0,1,1.756-2.038,5.481,5.481,0,0,1,6.021.412,4.59,4.59,0,0,1,1.478,3.145h-2.491a2.516,2.516,0,0,0-.651-1.7,2.409,2.409,0,0,0-1.706-.528,2.117,2.117,0,0,0-1.863.893A5.007,5.007,0,0,0,795.3,6.2v.913a5.344,5.344,0,0,0,.594,2.864,2.077,2.077,0,0,0,1.871.9,2.46,2.46,0,0,0,1.722-.527,2.381,2.381,0,0,0,.652-1.631Z" fill="#500c75"/>
              <path id="Trazado_182850" data-name="Trazado 182850" d="M803.738,8.175a5.314,5.314,0,0,1,.514-2.381,3.763,3.763,0,0,1,1.482-1.619,4.318,4.318,0,0,1,2.245-.572,4.094,4.094,0,0,1,2.968,1.112,4.461,4.461,0,0,1,1.282,3.022l.016.614a4.694,4.694,0,0,1-1.153,3.316,4.474,4.474,0,0,1-6.2,0,4.773,4.773,0,0,1-1.158-3.386Zm2.4.171a3.361,3.361,0,0,0,.481,1.958,1.73,1.73,0,0,0,2.74.009,3.668,3.668,0,0,0,.49-2.141,3.318,3.318,0,0,0-.49-1.945,1.591,1.591,0,0,0-1.378-.691,1.571,1.571,0,0,0-1.362.687,3.736,3.736,0,0,0-.481,2.123" fill="#500c75"/>
              <path id="Trazado_182851" data-name="Trazado 182851" d="M815.973,3.768l.074,1A3.156,3.156,0,0,1,818.629,3.6a2.394,2.394,0,0,1,2.382,1.37,3.082,3.082,0,0,1,2.7-1.37,2.677,2.677,0,0,1,2.175.851,3.907,3.907,0,0,1,.714,2.56v5.736h-2.407V7.008a1.714,1.714,0,0,0-.3-1.118,1.323,1.323,0,0,0-1.055-.353,1.5,1.5,0,0,0-1.494,1.031l.009,6.181h-2.4V7.017a1.7,1.7,0,0,0-.306-1.132,1.34,1.34,0,0,0-1.046-.348,1.554,1.554,0,0,0-1.478.847v6.365h-2.4V3.768Z" fill="#500c75"/>
              <path id="Trazado_182852" data-name="Trazado 182852" d="M836.526,8.342a5.39,5.39,0,0,1-.943,3.325,3.018,3.018,0,0,1-2.544,1.249,2.8,2.8,0,0,1-2.2-.946V16.2h-2.4V3.768h2.225l.083.88A2.822,2.822,0,0,1,833.023,3.6,3.04,3.04,0,0,1,835.6,4.831a5.528,5.528,0,0,1,.922,3.387Zm-2.4-.183a3.542,3.542,0,0,0-.445-1.939,1.442,1.442,0,0,0-1.289-.683,1.572,1.572,0,0,0-1.554.865v3.689a1.6,1.6,0,0,0,1.57.891q1.719,0,1.718-2.823" fill="#500c75"/>
              <path id="Trazado_182853" data-name="Trazado 182853" d="M842.145,12.916A4.406,4.406,0,0,1,838.93,11.7a4.3,4.3,0,0,1-1.242-3.229V8.242a5.42,5.42,0,0,1,.523-2.419,3.832,3.832,0,0,1,1.482-1.643A4.154,4.154,0,0,1,841.88,3.6a3.727,3.727,0,0,1,2.9,1.163,4.718,4.718,0,0,1,1.059,3.3v.979h-5.72a2.233,2.233,0,0,0,.7,1.412,2.121,2.121,0,0,0,1.482.531,2.589,2.589,0,0,0,2.166-1.005l1.178,1.32a3.585,3.585,0,0,1-1.461,1.191,4.79,4.79,0,0,1-2.042.428m-.273-7.379a1.5,1.5,0,0,0-1.158.483,2.508,2.508,0,0,0-.569,1.384h3.337V7.213a1.79,1.79,0,0,0-.431-1.239,1.552,1.552,0,0,0-1.179-.437" fill="#500c75"/>
              <path id="Trazado_182854" data-name="Trazado 182854" d="M850.073,1.56V3.768h1.535v1.76h-1.535V10.01a1.071,1.071,0,0,0,.19.714.962.962,0,0,0,.731.216,3.9,3.9,0,0,0,.706-.058V12.7a4.973,4.973,0,0,1-1.453.215,2.29,2.29,0,0,1-2.573-2.548V5.528h-1.312V3.768h1.312V1.56Z" fill="#500c75"/>
              <path id="Trazado_182855" data-name="Trazado 182855" d="M852.928,1.444a1.178,1.178,0,0,1,.361-.887,1.551,1.551,0,0,1,1.963,0,1.171,1.171,0,0,1,.366.887,1.178,1.178,0,0,1-.37.9,1.541,1.541,0,0,1-1.951,0,1.181,1.181,0,0,1-.369-.9m2.548,11.306h-2.407V3.769h2.407Z" fill="#500c75"/>
              <path id="Trazado_182856" data-name="Trazado 182856" d="M857.079,8.193a5.409,5.409,0,0,1,.942-3.346A3.055,3.055,0,0,1,860.6,3.6a2.746,2.746,0,0,1,2.166.98V0h2.407V12.75h-2.166l-.116-.955a2.822,2.822,0,0,1-2.308,1.121,3.044,3.044,0,0,1-2.543-1.249,5.584,5.584,0,0,1-.959-3.474m2.4.17a3.556,3.556,0,0,0,.44,1.943,1.431,1.431,0,0,0,1.279.676,1.6,1.6,0,0,0,1.568-.942V6.478a1.581,1.581,0,0,0-1.552-.941q-1.735,0-1.735,2.826" fill="#500c75"/>
              <path id="Trazado_182857" data-name="Trazado 182857" d="M866.658,8.175a5.314,5.314,0,0,1,.514-2.381,3.763,3.763,0,0,1,1.482-1.619A4.318,4.318,0,0,1,870.9,3.6a4.094,4.094,0,0,1,2.968,1.112,4.461,4.461,0,0,1,1.282,3.022l.016.614a4.7,4.7,0,0,1-1.153,3.316,4.474,4.474,0,0,1-6.2,0,4.773,4.773,0,0,1-1.158-3.386Zm2.4.171a3.361,3.361,0,0,0,.481,1.958,1.73,1.73,0,0,0,2.74.009,3.668,3.668,0,0,0,.49-2.141,3.318,3.318,0,0,0-.49-1.945,1.591,1.591,0,0,0-1.378-.691,1.571,1.571,0,0,0-1.362.687,3.737,3.737,0,0,0-.481,2.123" fill="#500c75"/>
              <path id="Trazado_182858" data-name="Trazado 182858" d="M881.69,6.017a6.547,6.547,0,0,0-.863-.066,1.756,1.756,0,0,0-1.784.921v5.877h-2.4V3.768h2.267l.066,1.071a2.223,2.223,0,0,1,2-1.237,2.508,2.508,0,0,1,.747.108Z" fill="#500c75"/>
              <path id="Trazado_182859" data-name="Trazado 182859" d="M886.819,12.916A4.406,4.406,0,0,1,883.6,11.7a4.3,4.3,0,0,1-1.242-3.229V8.242a5.42,5.42,0,0,1,.523-2.419,3.831,3.831,0,0,1,1.482-1.643,4.154,4.154,0,0,1,2.187-.578,3.727,3.727,0,0,1,2.9,1.163,4.718,4.718,0,0,1,1.059,3.3v.979h-5.72a2.233,2.233,0,0,0,.7,1.412,2.121,2.121,0,0,0,1.482.531,2.589,2.589,0,0,0,2.166-1.005l1.178,1.32a3.585,3.585,0,0,1-1.461,1.191,4.79,4.79,0,0,1-2.042.428m-.273-7.379a1.5,1.5,0,0,0-1.158.483,2.507,2.507,0,0,0-.569,1.384h3.337V7.213a1.791,1.791,0,0,0-.431-1.239,1.552,1.552,0,0,0-1.179-.437" fill="#500c75"/>
              <path id="Trazado_182860" data-name="Trazado 182860" d="M896.74,10.267a.772.772,0,0,0-.437-.692,4.922,4.922,0,0,0-1.4-.453q-3.2-.673-3.2-2.722a2.47,2.47,0,0,1,.992-2,4,4,0,0,1,2.594-.8,4.3,4.3,0,0,1,2.735.806A2.534,2.534,0,0,1,899.048,6.5h-2.4a1.158,1.158,0,0,0-.332-.851,1.4,1.4,0,0,0-1.037-.336,1.444,1.444,0,0,0-.938.273.869.869,0,0,0-.332.7.74.74,0,0,0,.377.643,3.9,3.9,0,0,0,1.275.424,10.517,10.517,0,0,1,1.511.4,2.483,2.483,0,0,1,1.9,2.415,2.345,2.345,0,0,1-1.054,1.989,4.542,4.542,0,0,1-2.722.759,4.741,4.741,0,0,1-2.005-.4,3.365,3.365,0,0,1-1.374-1.1,2.567,2.567,0,0,1-.5-1.515h2.274a1.251,1.251,0,0,0,.474.979,1.872,1.872,0,0,0,1.178.341,1.742,1.742,0,0,0,1.041-.261.815.815,0,0,0,.354-.686" fill="#500c75"/>
            </g>
          </g>
          <path id="Trazado_182861" data-name="Trazado 182861" d="M651.465,71.164h-5.238v4.283h6.085v1.3h-7.679V64.664h7.6v1.3h-6V69.86h5.238Z" fill="#12263f"/>
          <g id="Grupo_142818" data-name="Grupo 142818">
            <g id="Grupo_142817" data-name="Grupo 142817" clip-path="url(#clip-path-5)">
              <path id="Trazado_182862" data-name="Trazado 182862" d="M655.507,67.768l.05,1.129a3.274,3.274,0,0,1,2.689-1.3q2.849,0,2.872,3.212v5.935h-1.535V70.806a2.064,2.064,0,0,0-.444-1.435,1.776,1.776,0,0,0-1.358-.465,2.221,2.221,0,0,0-1.311.4,2.712,2.712,0,0,0-.88,1.045v6.4h-1.535V67.768Z" fill="#12263f"/>
              <path id="Trazado_182863" data-name="Trazado 182863" d="M666.4,74.666l2.225-6.9h1.569l-3.221,8.981H665.8l-3.254-8.981h1.57Z" fill="#12263f"/>
              <path id="Trazado_182864" data-name="Trazado 182864" d="M673.354,64.025h1.859l-2.224,2.44-1.237,0Zm-.017,12.725h-1.544V67.769h1.544Z" fill="#12263f"/>
              <path id="Trazado_182865" data-name="Trazado 182865" d="M681.415,76.75a3.2,3.2,0,0,1-.216-.946,3.428,3.428,0,0,1-2.557,1.112,3.166,3.166,0,0,1-2.178-.751,2.43,2.43,0,0,1-.852-1.9,2.539,2.539,0,0,1,1.067-2.179,5.023,5.023,0,0,1,3-.776h1.495V70.6a1.728,1.728,0,0,0-.482-1.284,1.933,1.933,0,0,0-1.419-.476,2.235,2.235,0,0,0-1.378.414,1.223,1.223,0,0,0-.556,1.005h-1.544a2.119,2.119,0,0,1,.477-1.3,3.258,3.258,0,0,1,1.3-.992,4.367,4.367,0,0,1,1.8-.366,3.551,3.551,0,0,1,2.433.777,2.8,2.8,0,0,1,.913,2.137V74.65a5.038,5.038,0,0,0,.315,1.967v.133Zm-2.549-1.17a2.7,2.7,0,0,0,1.37-.374,2.258,2.258,0,0,0,.938-.972V72.392h-1.2q-2.821,0-2.822,1.652a1.4,1.4,0,0,0,.482,1.129,1.848,1.848,0,0,0,1.236.407" fill="#12263f"/>
              <path id="Trazado_182866" data-name="Trazado 182866" d="M686.569,67.768l.05,1.129a3.274,3.274,0,0,1,2.689-1.3q2.848,0,2.872,3.212v5.935h-1.535V70.806a2.064,2.064,0,0,0-.444-1.435,1.776,1.776,0,0,0-1.358-.465,2.22,2.22,0,0,0-1.311.4,2.712,2.712,0,0,0-.88,1.045v6.4h-1.535V67.768Z" fill="#12263f"/>
              <rect id="Rectángulo_38284" data-name="Rectángulo 38284" width="1.536" height="12.75" transform="translate(698.838 64)" fill="#12263f"/>
              <path id="Trazado_182867" data-name="Trazado 182867" d="M702.423,72.175a5.292,5.292,0,0,1,.52-2.373,3.858,3.858,0,0,1,1.444-1.627A3.924,3.924,0,0,1,706.5,67.6a3.786,3.786,0,0,1,2.968,1.271,4.883,4.883,0,0,1,1.133,3.378v.108a5.364,5.364,0,0,1-.5,2.353,3.821,3.821,0,0,1-1.437,1.623,3.978,3.978,0,0,1-2.145.581,3.779,3.779,0,0,1-2.959-1.27,4.863,4.863,0,0,1-1.134-3.362Zm1.544.184a3.84,3.84,0,0,0,.693,2.4,2.349,2.349,0,0,0,3.715-.012,4.206,4.206,0,0,0,.689-2.57,3.838,3.838,0,0,0-.7-2.394,2.232,2.232,0,0,0-1.864-.917,2.206,2.206,0,0,0-1.835.9,4.168,4.168,0,0,0-.7,2.59" fill="#12263f"/>
              <path id="Trazado_182868" data-name="Trazado 182868" d="M717.755,74.367a1.131,1.131,0,0,0-.469-.967,4.53,4.53,0,0,0-1.635-.594,7.736,7.736,0,0,1-1.851-.6,2.632,2.632,0,0,1-1.013-.83,1.98,1.98,0,0,1-.328-1.145,2.332,2.332,0,0,1,.934-1.868,3.648,3.648,0,0,1,2.386-.764,3.758,3.758,0,0,1,2.478.788,2.507,2.507,0,0,1,.95,2.018h-1.544a1.387,1.387,0,0,0-.535-1.088,2.007,2.007,0,0,0-1.349-.456,2.1,2.1,0,0,0-1.311.365,1.148,1.148,0,0,0-.474.954.931.931,0,0,0,.441.839,5.393,5.393,0,0,0,1.59.54,8.293,8.293,0,0,1,1.863.614,2.725,2.725,0,0,1,1.058.859,2.111,2.111,0,0,1,.344,1.225,2.3,2.3,0,0,1-.963,1.929,4.03,4.03,0,0,1-2.5.727,4.512,4.512,0,0,1-1.909-.382,3.11,3.11,0,0,1-1.3-1.066,2.572,2.572,0,0,1-.47-1.482h1.537a1.587,1.587,0,0,0,.618,1.224,2.4,2.4,0,0,0,1.523.452,2.473,2.473,0,0,0,1.4-.353,1.083,1.083,0,0,0,.527-.942" fill="#12263f"/>
              <path id="Trazado_182869" data-name="Trazado 182869" d="M725.127,72.184a5.259,5.259,0,0,1,.979-3.324,3.333,3.333,0,0,1,5.064-.179V64h1.535V76.75h-1.411l-.074-.963a3.129,3.129,0,0,1-2.566,1.129,3.067,3.067,0,0,1-2.544-1.279,5.32,5.32,0,0,1-.983-3.337Zm1.535.175a3.992,3.992,0,0,0,.631,2.391,2.041,2.041,0,0,0,1.743.863A2.24,2.24,0,0,0,731.17,74.3V70.175a2.259,2.259,0,0,0-2.117-1.269,2.05,2.05,0,0,0-1.76.871,4.389,4.389,0,0,0-.631,2.582" fill="#12263f"/>
              <path id="Trazado_182870" data-name="Trazado 182870" d="M740.632,76.75a3.194,3.194,0,0,1-.216-.946,3.428,3.428,0,0,1-2.557,1.112,3.165,3.165,0,0,1-2.178-.751,2.429,2.429,0,0,1-.852-1.9,2.539,2.539,0,0,1,1.067-2.179,5.023,5.023,0,0,1,3-.776h1.495V70.6a1.728,1.728,0,0,0-.482-1.284,1.933,1.933,0,0,0-1.419-.476,2.235,2.235,0,0,0-1.378.414,1.224,1.224,0,0,0-.556,1.005h-1.544a2.119,2.119,0,0,1,.477-1.3,3.258,3.258,0,0,1,1.295-.992,4.367,4.367,0,0,1,1.8-.366,3.551,3.551,0,0,1,2.433.777,2.8,2.8,0,0,1,.913,2.137V74.65a5.038,5.038,0,0,0,.315,1.967v.133Zm-2.549-1.17a2.7,2.7,0,0,0,1.37-.374,2.258,2.258,0,0,0,.938-.972V72.392h-1.2q-2.821,0-2.822,1.652a1.4,1.4,0,0,0,.482,1.129,1.849,1.849,0,0,0,1.236.407" fill="#12263f"/>
              <path id="Trazado_182871" data-name="Trazado 182871" d="M746.417,65.594v2.175h1.677v1.186h-1.677v5.577a1.243,1.243,0,0,0,.225.811.941.941,0,0,0,.763.271,3.771,3.771,0,0,0,.731-.1v1.237a4.443,4.443,0,0,1-1.179.165,1.912,1.912,0,0,1-1.553-.623,2.674,2.674,0,0,1-.522-1.767V68.955h-1.636V67.769h1.636V65.594Z" fill="#12263f"/>
              <path id="Trazado_182872" data-name="Trazado 182872" d="M749.315,72.175a5.3,5.3,0,0,1,.519-2.373,3.858,3.858,0,0,1,1.444-1.627,3.929,3.929,0,0,1,2.112-.573,3.784,3.784,0,0,1,2.968,1.271,4.883,4.883,0,0,1,1.133,3.378v.108a5.35,5.35,0,0,1-.5,2.353,3.821,3.821,0,0,1-1.437,1.623,3.976,3.976,0,0,1-2.145.581,3.78,3.78,0,0,1-2.959-1.27,4.862,4.862,0,0,1-1.133-3.362Zm1.544.184a3.839,3.839,0,0,0,.692,2.4,2.349,2.349,0,0,0,3.715-.012,4.2,4.2,0,0,0,.69-2.57,3.838,3.838,0,0,0-.7-2.394,2.229,2.229,0,0,0-1.864-.917,2.205,2.205,0,0,0-1.834.9,4.168,4.168,0,0,0-.7,2.59" fill="#12263f"/>
              <path id="Trazado_182873" data-name="Trazado 182873" d="M764.646,74.367a1.131,1.131,0,0,0-.469-.967,4.515,4.515,0,0,0-1.635-.594,7.736,7.736,0,0,1-1.851-.6,2.639,2.639,0,0,1-1.013-.83,1.98,1.98,0,0,1-.328-1.145,2.332,2.332,0,0,1,.934-1.868,3.65,3.65,0,0,1,2.386-.764,3.754,3.754,0,0,1,2.478.788,2.508,2.508,0,0,1,.951,2.018h-1.544a1.388,1.388,0,0,0-.536-1.088,2,2,0,0,0-1.349-.456,2.1,2.1,0,0,0-1.311.365,1.148,1.148,0,0,0-.473.954.933.933,0,0,0,.44.839,5.4,5.4,0,0,0,1.59.54,8.258,8.258,0,0,1,1.863.614,2.71,2.71,0,0,1,1.058.859,2.111,2.111,0,0,1,.345,1.225,2.3,2.3,0,0,1-.963,1.929,4.033,4.033,0,0,1-2.5.727,4.518,4.518,0,0,1-1.909-.382,3.115,3.115,0,0,1-1.3-1.066,2.578,2.578,0,0,1-.469-1.482h1.536a1.593,1.593,0,0,0,.618,1.224,2.4,2.4,0,0,0,1.523.452,2.47,2.47,0,0,0,1.4-.353,1.083,1.083,0,0,0,.527-.942" fill="#12263f"/>
              <path id="Trazado_182874" data-name="Trazado 182874" d="M777.936,76.75a3.2,3.2,0,0,1-.216-.946,3.428,3.428,0,0,1-2.557,1.112,3.166,3.166,0,0,1-2.178-.751,2.43,2.43,0,0,1-.852-1.9,2.539,2.539,0,0,1,1.067-2.179,5.023,5.023,0,0,1,3-.776H777.7V70.6a1.728,1.728,0,0,0-.482-1.284,1.933,1.933,0,0,0-1.419-.476,2.235,2.235,0,0,0-1.378.414,1.223,1.223,0,0,0-.556,1.005h-1.544a2.118,2.118,0,0,1,.477-1.3,3.258,3.258,0,0,1,1.295-.992,4.367,4.367,0,0,1,1.8-.366,3.551,3.551,0,0,1,2.433.777,2.8,2.8,0,0,1,.913,2.137V74.65a5.038,5.038,0,0,0,.315,1.967v.133Zm-2.549-1.17a2.7,2.7,0,0,0,1.37-.374,2.258,2.258,0,0,0,.938-.972V72.392h-1.2q-2.822,0-2.822,1.652a1.4,1.4,0,0,0,.482,1.129,1.848,1.848,0,0,0,1.236.407" fill="#12263f"/>
              <rect id="Rectángulo_38285" data-name="Rectángulo 38285" width="1.536" height="12.75" transform="translate(785.979 64)" fill="#12263f"/>
              <path id="Trazado_182875" data-name="Trazado 182875" d="M789.565,72.175a5.291,5.291,0,0,1,.52-2.373,3.858,3.858,0,0,1,1.444-1.627,3.924,3.924,0,0,1,2.112-.573,3.786,3.786,0,0,1,2.968,1.271,4.883,4.883,0,0,1,1.133,3.378v.108a5.364,5.364,0,0,1-.5,2.353,3.82,3.82,0,0,1-1.437,1.623,3.978,3.978,0,0,1-2.145.581,3.779,3.779,0,0,1-2.959-1.27,4.863,4.863,0,0,1-1.134-3.362Zm1.544.184a3.84,3.84,0,0,0,.693,2.4,2.349,2.349,0,0,0,3.715-.012,4.206,4.206,0,0,0,.689-2.57,3.838,3.838,0,0,0-.7-2.394,2.232,2.232,0,0,0-1.864-.917,2.206,2.206,0,0,0-1.835.9,4.168,4.168,0,0,0-.7,2.59" fill="#12263f"/>
              <path id="Trazado_182876" data-name="Trazado 182876" d="M804.9,74.367a1.131,1.131,0,0,0-.469-.967,4.529,4.529,0,0,0-1.635-.594,7.736,7.736,0,0,1-1.851-.6,2.631,2.631,0,0,1-1.013-.83,1.98,1.98,0,0,1-.328-1.145,2.332,2.332,0,0,1,.934-1.868,3.648,3.648,0,0,1,2.386-.764,3.758,3.758,0,0,1,2.478.788,2.507,2.507,0,0,1,.95,2.018H804.8a1.387,1.387,0,0,0-.535-1.088,2.007,2.007,0,0,0-1.349-.456,2.1,2.1,0,0,0-1.311.365,1.148,1.148,0,0,0-.474.954.932.932,0,0,0,.441.839,5.392,5.392,0,0,0,1.59.54,8.293,8.293,0,0,1,1.863.614,2.725,2.725,0,0,1,1.058.859,2.111,2.111,0,0,1,.344,1.225,2.3,2.3,0,0,1-.963,1.929,4.03,4.03,0,0,1-2.5.727,4.512,4.512,0,0,1-1.909-.382,3.109,3.109,0,0,1-1.3-1.066,2.572,2.572,0,0,1-.47-1.482h1.537a1.587,1.587,0,0,0,.618,1.224,2.4,2.4,0,0,0,1.523.452,2.472,2.472,0,0,0,1.4-.353,1.083,1.083,0,0,0,.527-.942" fill="#12263f"/>
              <path id="Trazado_182877" data-name="Trazado 182877" d="M638.911,99.662a2.213,2.213,0,0,0,1.436-.5,1.746,1.746,0,0,0,.68-1.244h1.453a2.8,2.8,0,0,1-.531,1.469,3.515,3.515,0,0,1-1.308,1.112,3.777,3.777,0,0,1-1.73.415,3.7,3.7,0,0,1-2.918-1.225,4.875,4.875,0,0,1-1.083-3.349v-.257a5.411,5.411,0,0,1,.481-2.333,3.67,3.67,0,0,1,1.382-1.585A3.932,3.932,0,0,1,638.9,91.6a3.6,3.6,0,0,1,2.512.906,3.234,3.234,0,0,1,1.066,2.348h-1.453a2.11,2.11,0,0,0-.659-1.431,2.054,2.054,0,0,0-1.466-.561,2.147,2.147,0,0,0-1.813.843,3.951,3.951,0,0,0-.644,2.435v.291a3.869,3.869,0,0,0,.64,2.391,2.158,2.158,0,0,0,1.826.838" fill="#12263f"/>
              <path id="Trazado_182878" data-name="Trazado 182878" d="M643.8,96.175a5.292,5.292,0,0,1,.52-2.373,3.858,3.858,0,0,1,1.444-1.627,3.924,3.924,0,0,1,2.112-.573,3.786,3.786,0,0,1,2.968,1.271,4.883,4.883,0,0,1,1.133,3.378v.108a5.364,5.364,0,0,1-.5,2.353,3.821,3.821,0,0,1-1.437,1.623,3.978,3.978,0,0,1-2.145.581,3.779,3.779,0,0,1-2.959-1.27,4.863,4.863,0,0,1-1.134-3.362Zm1.544.184a3.84,3.84,0,0,0,.693,2.4,2.349,2.349,0,0,0,3.715-.012,4.206,4.206,0,0,0,.689-2.57,3.838,3.838,0,0,0-.7-2.394,2.232,2.232,0,0,0-1.864-.917,2.206,2.206,0,0,0-1.835.9,4.169,4.169,0,0,0-.7,2.59" fill="#12263f"/>
              <path id="Trazado_182879" data-name="Trazado 182879" d="M655.346,91.768l.041,1a3.32,3.32,0,0,1,2.665-1.162,2.568,2.568,0,0,1,2.565,1.444A3.4,3.4,0,0,1,661.783,92a3.451,3.451,0,0,1,1.7-.4q2.953,0,3.005,3.13v6.017H664.95V94.823a2.067,2.067,0,0,0-.44-1.441,1.939,1.939,0,0,0-1.477-.476,2.042,2.042,0,0,0-1.42.509,2.077,2.077,0,0,0-.656,1.374v5.96h-1.544V94.865a1.713,1.713,0,0,0-1.918-1.959,2.053,2.053,0,0,0-2.066,1.286v6.557h-1.536V91.768Z" fill="#12263f"/>
              <path id="Trazado_182880" data-name="Trazado 182880" d="M676.388,96.359a5.378,5.378,0,0,1-.937,3.3,3.009,3.009,0,0,1-2.54,1.253,3.293,3.293,0,0,1-2.574-1.037V104.2H668.8V91.768h1.4l.074,1a3.166,3.166,0,0,1,2.606-1.162,3.064,3.064,0,0,1,2.561,1.22,5.431,5.431,0,0,1,.942,3.4Zm-1.535-.175a3.973,3.973,0,0,0-.647-2.4,2.089,2.089,0,0,0-1.777-.879,2.258,2.258,0,0,0-2.092,1.236v4.291a2.262,2.262,0,0,0,2.109,1.229,2.074,2.074,0,0,0,1.755-.875,4.337,4.337,0,0,0,.652-2.6" fill="#12263f"/>
              <path id="Trazado_182881" data-name="Trazado 182881" d="M682.065,100.916a3.926,3.926,0,0,1-2.971-1.2,4.454,4.454,0,0,1-1.146-3.209v-.282a5.392,5.392,0,0,1,.511-2.386,3.981,3.981,0,0,1,1.428-1.644,3.594,3.594,0,0,1,1.988-.594,3.367,3.367,0,0,1,2.723,1.154,5,5,0,0,1,.97,3.3V96.7h-6.084a3.184,3.184,0,0,0,.777,2.145,2.438,2.438,0,0,0,1.887.818,2.676,2.676,0,0,0,1.378-.332,3.463,3.463,0,0,0,.989-.879l.937.73a3.77,3.77,0,0,1-3.387,1.735m-.19-8.052a2.048,2.048,0,0,0-1.561.677,3.293,3.293,0,0,0-.78,1.9h4.5v-.116a2.928,2.928,0,0,0-.631-1.813,1.929,1.929,0,0,0-1.527-.644" fill="#12263f"/>
              <path id="Trazado_182882" data-name="Trazado 182882" d="M689.429,89.594v2.175h1.677v1.186h-1.677v5.577a1.243,1.243,0,0,0,.224.811.942.942,0,0,0,.763.271,3.752,3.752,0,0,0,.731-.1v1.237a4.438,4.438,0,0,1-1.179.165,1.911,1.911,0,0,1-1.552-.623,2.674,2.674,0,0,1-.523-1.767V92.955h-1.635V91.769h1.635V89.594Z" fill="#12263f"/>
              <path id="Trazado_182883" data-name="Trazado 182883" d="M692.907,89.387a.915.915,0,0,1,.228-.631.858.858,0,0,1,.677-.258.871.871,0,0,1,.681.258.909.909,0,0,1,.232.631.909.909,0,1,1-1.818,0m1.66,11.363h-1.535V91.769h1.535Z" fill="#12263f"/>
              <path id="Trazado_182884" data-name="Trazado 182884" d="M696.651,96.184a5.259,5.259,0,0,1,.979-3.324,3.333,3.333,0,0,1,5.064-.179V88h1.535v12.75h-1.411l-.074-.963a3.129,3.129,0,0,1-2.566,1.129,3.067,3.067,0,0,1-2.544-1.279,5.32,5.32,0,0,1-.983-3.337Zm1.535.175a3.992,3.992,0,0,0,.631,2.391,2.041,2.041,0,0,0,1.743.863,2.24,2.24,0,0,0,2.134-1.313V94.175a2.259,2.259,0,0,0-2.117-1.269,2.05,2.05,0,0,0-1.76.871,4.389,4.389,0,0,0-.631,2.582" fill="#12263f"/>
              <path id="Trazado_182885" data-name="Trazado 182885" d="M706.2,96.175a5.292,5.292,0,0,1,.52-2.373,3.858,3.858,0,0,1,1.444-1.627,3.924,3.924,0,0,1,2.112-.573,3.786,3.786,0,0,1,2.968,1.271,4.883,4.883,0,0,1,1.133,3.378v.108a5.364,5.364,0,0,1-.5,2.353,3.821,3.821,0,0,1-1.437,1.623,3.978,3.978,0,0,1-2.145.581,3.779,3.779,0,0,1-2.959-1.27,4.862,4.862,0,0,1-1.134-3.362Zm1.544.184a3.84,3.84,0,0,0,.693,2.4,2.349,2.349,0,0,0,3.715-.012,4.206,4.206,0,0,0,.689-2.57,3.838,3.838,0,0,0-.7-2.394,2.232,2.232,0,0,0-1.864-.917,2.206,2.206,0,0,0-1.835.9,4.168,4.168,0,0,0-.7,2.59" fill="#12263f"/>
              <path id="Trazado_182886" data-name="Trazado 182886" d="M720.648,93.146a4.562,4.562,0,0,0-.755-.059,2.026,2.026,0,0,0-2.051,1.288v6.375h-1.535V91.768H717.8l.025,1.038a2.391,2.391,0,0,1,2.141-1.2,1.575,1.575,0,0,1,.681.116Z" fill="#12263f"/>
              <path id="Trazado_182887" data-name="Trazado 182887" d="M725.628,100.916a3.926,3.926,0,0,1-2.971-1.2,4.454,4.454,0,0,1-1.146-3.209v-.282a5.392,5.392,0,0,1,.511-2.386A3.981,3.981,0,0,1,723.45,92.2a3.594,3.594,0,0,1,1.988-.594,3.367,3.367,0,0,1,2.723,1.154,5,5,0,0,1,.97,3.3V96.7h-6.084a3.184,3.184,0,0,0,.777,2.145,2.438,2.438,0,0,0,1.887.818,2.676,2.676,0,0,0,1.378-.332,3.463,3.463,0,0,0,.989-.879l.937.73a3.77,3.77,0,0,1-3.387,1.735m-.19-8.052a2.048,2.048,0,0,0-1.561.677,3.293,3.293,0,0,0-.78,1.9h4.5v-.116a2.928,2.928,0,0,0-.631-1.813,1.929,1.929,0,0,0-1.527-.644" fill="#12263f"/>
              <path id="Trazado_182888" data-name="Trazado 182888" d="M736.137,98.367a1.131,1.131,0,0,0-.469-.967,4.515,4.515,0,0,0-1.635-.594,7.736,7.736,0,0,1-1.851-.6,2.639,2.639,0,0,1-1.013-.83,1.98,1.98,0,0,1-.328-1.145,2.332,2.332,0,0,1,.934-1.868,3.65,3.65,0,0,1,2.386-.764,3.754,3.754,0,0,1,2.478.788,2.508,2.508,0,0,1,.951,2.018h-1.544a1.388,1.388,0,0,0-.536-1.088,2.005,2.005,0,0,0-1.349-.456,2.1,2.1,0,0,0-1.311.365,1.148,1.148,0,0,0-.473.954.933.933,0,0,0,.44.839,5.4,5.4,0,0,0,1.59.54,8.258,8.258,0,0,1,1.863.614,2.71,2.71,0,0,1,1.058.859,2.111,2.111,0,0,1,.345,1.225,2.3,2.3,0,0,1-.963,1.929,4.033,4.033,0,0,1-2.5.727,4.518,4.518,0,0,1-1.909-.382,3.115,3.115,0,0,1-1.3-1.066,2.578,2.578,0,0,1-.469-1.482h1.536a1.593,1.593,0,0,0,.618,1.224,2.4,2.4,0,0,0,1.523.452,2.47,2.47,0,0,0,1.4-.353,1.083,1.083,0,0,0,.527-.942" fill="#12263f"/>
              <path id="Trazado_182889" data-name="Trazado 182889" d="M749.427,99.861a3.263,3.263,0,0,1-2.632,1.055,2.792,2.792,0,0,1-2.186-.834,3.61,3.61,0,0,1-.76-2.47V91.768h1.535v5.8q0,2.042,1.66,2.043a2.3,2.3,0,0,0,2.341-1.313V91.768h1.536v8.982H749.46Z" fill="#12263f"/>
              <path id="Trazado_182890" data-name="Trazado 182890" d="M755.337,89.594v2.175h1.677v1.186h-1.677v5.577a1.244,1.244,0,0,0,.224.811.943.943,0,0,0,.763.271,3.752,3.752,0,0,0,.731-.1v1.237a4.438,4.438,0,0,1-1.179.165,1.911,1.911,0,0,1-1.552-.623,2.674,2.674,0,0,1-.523-1.767V92.955h-1.635V91.769H753.8V89.594Z" fill="#12263f"/>
              <path id="Trazado_182891" data-name="Trazado 182891" d="M758.815,89.387a.915.915,0,0,1,.228-.631.858.858,0,0,1,.677-.258.87.87,0,0,1,.681.258.909.909,0,0,1,.232.631.909.909,0,1,1-1.818,0m1.66,11.363H758.94V91.769h1.535Z" fill="#12263f"/>
              <rect id="Rectángulo_38286" data-name="Rectángulo 38286" width="1.536" height="12.75" transform="translate(763.065 88)" fill="#12263f"/>
              <path id="Trazado_182892" data-name="Trazado 182892" d="M767.066,89.387a.915.915,0,0,1,.228-.631.858.858,0,0,1,.677-.258.87.87,0,0,1,.681.258.908.908,0,0,1,.232.631.909.909,0,1,1-1.818,0m1.66,11.363h-1.535V91.769h1.535Z" fill="#12263f"/>
              <path id="Trazado_182893" data-name="Trazado 182893" d="M772.627,99.5h5.255v1.254h-7.131V99.621l4.956-6.582h-4.881V91.768h6.807v1.087Z" fill="#12263f"/>
              <path id="Trazado_182894" data-name="Trazado 182894" d="M785.154,100.75a3.194,3.194,0,0,1-.216-.946,3.428,3.428,0,0,1-2.557,1.112,3.165,3.165,0,0,1-2.178-.751,2.43,2.43,0,0,1-.852-1.9,2.539,2.539,0,0,1,1.067-2.179,5.023,5.023,0,0,1,3-.776h1.495V94.6a1.728,1.728,0,0,0-.482-1.284,1.933,1.933,0,0,0-1.419-.476,2.235,2.235,0,0,0-1.378.414,1.224,1.224,0,0,0-.556,1.005h-1.544a2.119,2.119,0,0,1,.477-1.3,3.258,3.258,0,0,1,1.3-.992,4.367,4.367,0,0,1,1.8-.366,3.551,3.551,0,0,1,2.433.777,2.8,2.8,0,0,1,.913,2.137V98.65a5.038,5.038,0,0,0,.315,1.967v.133ZM782.6,99.58a2.7,2.7,0,0,0,1.37-.374,2.258,2.258,0,0,0,.938-.972V96.392h-1.2q-2.821,0-2.822,1.652a1.4,1.4,0,0,0,.482,1.129,1.848,1.848,0,0,0,1.236.407" fill="#12263f"/>
              <path id="Trazado_182895" data-name="Trazado 182895" d="M790.308,91.768l.05,1.129a3.274,3.274,0,0,1,2.689-1.3q2.848,0,2.872,3.212v5.935h-1.535V94.806a2.064,2.064,0,0,0-.444-1.435,1.776,1.776,0,0,0-1.358-.465,2.22,2.22,0,0,0-1.311.4,2.712,2.712,0,0,0-.88,1.045v6.4h-1.535V91.768Z" fill="#12263f"/>
              <path id="Trazado_182896" data-name="Trazado 182896" d="M797.862,96.184a5.265,5.265,0,0,1,.979-3.324,3.333,3.333,0,0,1,5.064-.179V88h1.536v12.75H804.03l-.075-.963a3.127,3.127,0,0,1-2.565,1.129,3.065,3.065,0,0,1-2.544-1.279,5.32,5.32,0,0,1-.984-3.337Zm1.536.175a3.985,3.985,0,0,0,.631,2.391,2.039,2.039,0,0,0,1.743.863,2.24,2.24,0,0,0,2.133-1.313V94.175a2.257,2.257,0,0,0-2.116-1.269,2.048,2.048,0,0,0-1.76.871,4.382,4.382,0,0,0-.631,2.582" fill="#12263f"/>
              <path id="Trazado_182897" data-name="Trazado 182897" d="M807.416,96.175a5.3,5.3,0,0,1,.519-2.373,3.858,3.858,0,0,1,1.444-1.627,3.929,3.929,0,0,1,2.112-.573,3.784,3.784,0,0,1,2.968,1.271,4.883,4.883,0,0,1,1.133,3.378v.108a5.35,5.35,0,0,1-.5,2.353,3.821,3.821,0,0,1-1.437,1.623,3.976,3.976,0,0,1-2.145.581,3.78,3.78,0,0,1-2.959-1.27,4.862,4.862,0,0,1-1.133-3.362Zm1.544.184a3.84,3.84,0,0,0,.692,2.4,2.349,2.349,0,0,0,3.715-.012,4.2,4.2,0,0,0,.69-2.57,3.838,3.838,0,0,0-.7-2.394,2.229,2.229,0,0,0-1.864-.917,2.205,2.205,0,0,0-1.834.9,4.169,4.169,0,0,0-.7,2.59" fill="#12263f"/>
              <path id="Trazado_182898" data-name="Trazado 182898" d="M671.029,124.916a3.926,3.926,0,0,1-2.971-1.2,4.454,4.454,0,0,1-1.146-3.209v-.282a5.392,5.392,0,0,1,.511-2.386,3.981,3.981,0,0,1,1.428-1.644,3.594,3.594,0,0,1,1.988-.594,3.367,3.367,0,0,1,2.723,1.154,5,5,0,0,1,.97,3.3v.639h-6.084a3.184,3.184,0,0,0,.777,2.145,2.438,2.438,0,0,0,1.887.818,2.676,2.676,0,0,0,1.378-.332,3.463,3.463,0,0,0,.989-.879l.937.73a3.77,3.77,0,0,1-3.387,1.735m-.19-8.052a2.048,2.048,0,0,0-1.561.677,3.293,3.293,0,0,0-.78,1.9H673v-.116a2.928,2.928,0,0,0-.631-1.813,1.929,1.929,0,0,0-1.527-.644" fill="#12263f"/>
              <path id="Trazado_182899" data-name="Trazado 182899" d="M681.539,122.367a1.131,1.131,0,0,0-.469-.967,4.515,4.515,0,0,0-1.635-.594,7.736,7.736,0,0,1-1.851-.6,2.639,2.639,0,0,1-1.013-.83,1.98,1.98,0,0,1-.328-1.145,2.332,2.332,0,0,1,.934-1.868,3.65,3.65,0,0,1,2.386-.764,3.755,3.755,0,0,1,2.478.788,2.508,2.508,0,0,1,.951,2.018h-1.544a1.388,1.388,0,0,0-.536-1.088,2,2,0,0,0-1.349-.456,2.1,2.1,0,0,0-1.311.365,1.147,1.147,0,0,0-.473.954.933.933,0,0,0,.44.839,5.4,5.4,0,0,0,1.59.54,8.258,8.258,0,0,1,1.863.614,2.71,2.71,0,0,1,1.058.859,2.111,2.111,0,0,1,.345,1.225,2.3,2.3,0,0,1-.963,1.929,4.033,4.033,0,0,1-2.5.727,4.518,4.518,0,0,1-1.909-.382,3.115,3.115,0,0,1-1.3-1.066,2.578,2.578,0,0,1-.469-1.482h1.536a1.593,1.593,0,0,0,.618,1.224,2.4,2.4,0,0,0,1.523.452,2.471,2.471,0,0,0,1.4-.353,1.083,1.083,0,0,0,.527-.942" fill="#12263f"/>
              <path id="Trazado_182900" data-name="Trazado 182900" d="M687.159,113.594v2.175h1.677v1.186h-1.677v5.577a1.243,1.243,0,0,0,.224.811.942.942,0,0,0,.763.271,3.752,3.752,0,0,0,.731-.1v1.237a4.438,4.438,0,0,1-1.179.165,1.911,1.911,0,0,1-1.552-.623,2.674,2.674,0,0,1-.523-1.767v-5.571h-1.635v-1.186h1.635v-2.175Z" fill="#12263f"/>
              <path id="Trazado_182901" data-name="Trazado 182901" d="M694.355,124.916a3.926,3.926,0,0,1-2.971-1.2,4.454,4.454,0,0,1-1.146-3.209v-.282a5.392,5.392,0,0,1,.511-2.386,3.981,3.981,0,0,1,1.428-1.644,3.594,3.594,0,0,1,1.988-.594,3.367,3.367,0,0,1,2.723,1.154,5,5,0,0,1,.97,3.3v.639h-6.084a3.184,3.184,0,0,0,.777,2.145,2.438,2.438,0,0,0,1.887.818,2.676,2.676,0,0,0,1.378-.332,3.463,3.463,0,0,0,.989-.879l.937.73a3.77,3.77,0,0,1-3.387,1.735m-.19-8.052a2.048,2.048,0,0,0-1.561.677,3.294,3.294,0,0,0-.78,1.9h4.5v-.116a2.928,2.928,0,0,0-.631-1.813,1.929,1.929,0,0,0-1.527-.644" fill="#12263f"/>
              <path id="Trazado_182902" data-name="Trazado 182902" d="M699.269,120.184a5.277,5.277,0,0,1,.972-3.341,3.347,3.347,0,0,1,5.137-.079l.076-1h1.4v8.766a3.655,3.655,0,0,1-1.033,2.747,3.814,3.814,0,0,1-2.777,1,4.633,4.633,0,0,1-1.9-.415,3.285,3.285,0,0,1-1.419-1.137l.8-.922a3,3,0,0,0,2.415,1.221,2.353,2.353,0,0,0,1.747-.631,2.414,2.414,0,0,0,.627-1.777v-.772a3.156,3.156,0,0,1-2.515,1.063,3.069,3.069,0,0,1-2.552-1.27,5.55,5.55,0,0,1-.976-3.462m1.544.175a4.027,4.027,0,0,0,.623,2.386,2.024,2.024,0,0,0,1.743.868,2.25,2.25,0,0,0,2.133-1.32v-4.1a2.276,2.276,0,0,0-2.116-1.286,2.042,2.042,0,0,0-1.752.871,4.39,4.39,0,0,0-.631,2.582" fill="#12263f"/>
              <path id="Trazado_182903" data-name="Trazado 182903" d="M714.717,124.75a3.2,3.2,0,0,1-.216-.946,3.428,3.428,0,0,1-2.557,1.112,3.167,3.167,0,0,1-2.178-.751,2.43,2.43,0,0,1-.852-1.9,2.54,2.54,0,0,1,1.068-2.179,5.023,5.023,0,0,1,3-.776h1.495V118.6a1.732,1.732,0,0,0-.482-1.284,1.935,1.935,0,0,0-1.419-.476,2.233,2.233,0,0,0-1.378.414,1.222,1.222,0,0,0-.557,1.005H709.1a2.119,2.119,0,0,1,.477-1.3,3.255,3.255,0,0,1,1.3-.992,4.36,4.36,0,0,1,1.8-.366,3.548,3.548,0,0,1,2.432.777,2.8,2.8,0,0,1,.914,2.137v4.134a5.038,5.038,0,0,0,.315,1.967v.133Zm-2.548-1.17a2.706,2.706,0,0,0,1.37-.374,2.269,2.269,0,0,0,.938-.972v-1.842h-1.205q-2.821,0-2.821,1.652a1.4,1.4,0,0,0,.481,1.129,1.851,1.851,0,0,0,1.237.407" fill="#12263f"/>
              <path id="Trazado_182904" data-name="Trazado 182904" d="M719.872,115.768l.05,1.129a3.274,3.274,0,0,1,2.689-1.3q2.848,0,2.872,3.212v5.935h-1.535v-5.943a2.064,2.064,0,0,0-.444-1.435,1.776,1.776,0,0,0-1.358-.465,2.22,2.22,0,0,0-1.311.4,2.712,2.712,0,0,0-.88,1.045v6.4H718.42v-8.981Z" fill="#12263f"/>
              <path id="Trazado_182905" data-name="Trazado 182905" d="M727.392,120.175a5.292,5.292,0,0,1,.52-2.373,3.858,3.858,0,0,1,1.444-1.627,3.924,3.924,0,0,1,2.112-.573,3.786,3.786,0,0,1,2.968,1.271,4.883,4.883,0,0,1,1.133,3.378v.108a5.364,5.364,0,0,1-.5,2.353,3.821,3.821,0,0,1-1.437,1.623,3.978,3.978,0,0,1-2.145.581,3.779,3.779,0,0,1-2.959-1.27,4.863,4.863,0,0,1-1.134-3.362Zm1.544.184a3.84,3.84,0,0,0,.693,2.4,2.349,2.349,0,0,0,3.715-.012,4.206,4.206,0,0,0,.689-2.57,3.838,3.838,0,0,0-.7-2.394,2.232,2.232,0,0,0-1.864-.917,2.206,2.206,0,0,0-1.835.9,4.169,4.169,0,0,0-.7,2.59" fill="#12263f"/>
              <path id="Trazado_182906" data-name="Trazado 182906" d="M737.129,120.184a5.277,5.277,0,0,1,.971-3.341,3.348,3.348,0,0,1,5.138-.079l.075-1h1.4v8.766a3.655,3.655,0,0,1-1.033,2.747,3.816,3.816,0,0,1-2.778,1,4.625,4.625,0,0,1-1.9-.415,3.288,3.288,0,0,1-1.42-1.137l.8-.922a3,3,0,0,0,2.416,1.221,2.355,2.355,0,0,0,1.747-.631,2.414,2.414,0,0,0,.627-1.777v-.772a3.158,3.158,0,0,1-2.516,1.063,3.067,3.067,0,0,1-2.551-1.27,5.55,5.55,0,0,1-.976-3.462m1.544.175a4.027,4.027,0,0,0,.622,2.386,2.024,2.024,0,0,0,1.743.868,2.252,2.252,0,0,0,2.134-1.32v-4.1a2.277,2.277,0,0,0-2.117-1.286,2.039,2.039,0,0,0-1.751.871,4.382,4.382,0,0,0-.631,2.582" fill="#12263f"/>
              <path id="Trazado_182907" data-name="Trazado 182907" d="M751.373,117.146a4.566,4.566,0,0,0-.756-.059,2.024,2.024,0,0,0-2.05,1.288v6.375h-1.536v-8.982h1.494l.026,1.038a2.389,2.389,0,0,1,2.141-1.2,1.577,1.577,0,0,1,.681.116Z" fill="#12263f"/>
              <path id="Trazado_182908" data-name="Trazado 182908" d="M758,124.75a3.194,3.194,0,0,1-.216-.946,3.428,3.428,0,0,1-2.557,1.112,3.165,3.165,0,0,1-2.178-.751,2.43,2.43,0,0,1-.852-1.9,2.539,2.539,0,0,1,1.067-2.179,5.023,5.023,0,0,1,3-.776h1.495V118.6a1.728,1.728,0,0,0-.482-1.284,1.933,1.933,0,0,0-1.419-.476,2.235,2.235,0,0,0-1.378.414,1.223,1.223,0,0,0-.556,1.005h-1.544a2.119,2.119,0,0,1,.477-1.3,3.258,3.258,0,0,1,1.3-.992,4.367,4.367,0,0,1,1.8-.366,3.551,3.551,0,0,1,2.433.777,2.8,2.8,0,0,1,.913,2.137v4.134a5.039,5.039,0,0,0,.315,1.967v.133Zm-2.549-1.17a2.7,2.7,0,0,0,1.37-.374,2.258,2.258,0,0,0,.938-.972v-1.842h-1.2q-2.821,0-2.822,1.652a1.4,1.4,0,0,0,.482,1.129,1.848,1.848,0,0,0,1.236.407" fill="#12263f"/>
              <path id="Trazado_182909" data-name="Trazado 182909" d="M762.455,124.75v-7.795h-1.419v-1.186h1.419v-.921a3.064,3.064,0,0,1,.772-2.234,2.92,2.92,0,0,1,2.183-.788,4.035,4.035,0,0,1,1.055.14l-.083,1.237a4.489,4.489,0,0,0-.83-.074,1.5,1.5,0,0,0-1.155.437,1.777,1.777,0,0,0-.406,1.253v.95h1.917v1.186h-1.917v7.795Z" fill="#12263f"/>
              <path id="Trazado_182910" data-name="Trazado 182910" d="M769.287,112.025h1.859l-2.225,2.44-1.237,0Zm-.017,12.725h-1.544v-8.981h1.544Z" fill="#12263f"/>
              <path id="Trazado_182911" data-name="Trazado 182911" d="M777.346,124.75a3.258,3.258,0,0,1-.216-.946,3.427,3.427,0,0,1-2.557,1.112,3.169,3.169,0,0,1-2.178-.751,2.429,2.429,0,0,1-.851-1.9,2.541,2.541,0,0,1,1.066-2.179,5.024,5.024,0,0,1,3-.776h1.495V118.6a1.732,1.732,0,0,0-.482-1.284,1.936,1.936,0,0,0-1.42-.476,2.237,2.237,0,0,0-1.378.414,1.225,1.225,0,0,0-.555,1.005h-1.544a2.123,2.123,0,0,1,.476-1.3,3.258,3.258,0,0,1,1.295-.992,4.372,4.372,0,0,1,1.8-.366,3.548,3.548,0,0,1,2.432.777,2.8,2.8,0,0,1,.913,2.137v4.134a5.057,5.057,0,0,0,.315,1.967v.133Zm-2.548-1.17a2.7,2.7,0,0,0,1.369-.374,2.266,2.266,0,0,0,.939-.972v-1.842h-1.2q-2.821,0-2.823,1.652a1.4,1.4,0,0,0,.482,1.129,1.851,1.851,0,0,0,1.237.407" fill="#12263f"/>
              <path id="Trazado_182912" data-name="Trazado 182912" d="M781.081,123.945a.963.963,0,0,1,.236-.664.9.9,0,0,1,.71-.266.924.924,0,0,1,.718.266.938.938,0,0,1,.245.664.889.889,0,0,1-.245.639.942.942,0,0,1-.718.257.853.853,0,0,1-.946-.9" fill="#12263f"/>
            </g>
          </g>
        </g>
      </g>
      <rect id="Rectángulo_38288" data-name="Rectángulo 38288" width="1030" height="384" transform="translate(285 18797)" fill="none"/>
    </g>
  </g>
</svg>
