<svg xmlns="http://www.w3.org/2000/svg" xmlns:xlink="http://www.w3.org/1999/xlink" width="505" height="169" viewBox="0 0 505 169">
  <defs>
    <clipPath id="clip-path">
      <rect id="Rect치ngulo_39045" data-name="Rect치ngulo 39045" width="119.757" height="150.255" fill="none"/>
    </clipPath>
  </defs>
  <g id="Grupo_146850" data-name="Grupo 146850" transform="translate(-810 -11888)">
    <g id="Grupo_146848" data-name="Grupo 146848">
      <path id="Trazado_187238" data-name="Trazado 187238" d="M1958.728,443v71.123h62.037V443Z" transform="translate(-1130 11445)" fill="#c2e2e0"/>
      <path id="Trazado_187239" data-name="Trazado 187239" d="M1958.728,443v65.077h62.037V443Z" transform="translate(-1125 11445)" fill="#8f52f5"/>
      <g id="Grupo_145042" data-name="Grupo 145042" transform="translate(20.351 -265)">
        <path id="Trazado_187463" data-name="Trazado 187463" d="M1236.223,532.082l-53.574,39.406,97.859,49.586,67.319-47.287-80.783-44.332Z" transform="translate(-223 11691.415)" fill="#c3f7f5"/>
        <g id="Grupo_145040" data-name="Grupo 145040" transform="translate(997.244 12153)">
          <g id="Grupo_145039" data-name="Grupo 145039" transform="translate(0 0)" clip-path="url(#clip-path)">
            <path id="Trazado_187374" data-name="Trazado 187374" d="M89.945,84.423c-2.849-1.928-5.866-3.673-8.73-5.485-1.665-1.053-3.442-2.618-5.31-3.253a1.688,1.688,0,0,0-2.124.527c-.547.927.094,1.452.84,1.88,2.041,1.169,4.112,2.284,6.15,3.458,3.055,1.759,6.066,3.592,9.055,5.457Z" transform="translate(22.94 7.356)" fill="#a1c5e5"/>
            <path id="Trazado_187375" data-name="Trazado 187375" d="M76.474,77.764a1.686,1.686,0,0,0-2.086-.66c-1.9.517-3.777,1.966-5.5,2.912-3.753,2.057-7.758,3.977-11.363,6.343l-.041,2.407c3.853-2.116,7.742-4.165,11.683-6.114,2.108-1.043,4.245-2.027,6.354-3.064.771-.38,1.444-.864.956-1.823" transform="translate(17.922 7.813)" fill="#a1c5e5"/>
            <path id="Trazado_187376" data-name="Trazado 187376" d="M74.975,71.555c0-3.182.64-16.5,1.124-19.893.453-3.192,1.052-6.312,1.61-9.453.34-1.913,2.77-11.771-.278-10.257-1.165.578-1.876,2.521-2.338,4.329a69.37,69.37,0,0,0-1.486,8.525c-.777,6.293-1.325,19.839-.748,26.223-.02.569,2.116.564,2.116.526" transform="translate(22.642 -6.282)" fill="#bbd9f9"/>
            <path id="Trazado_187377" data-name="Trazado 187377" d="M91.842,61.236c.327-2.408.9-4.774,1.383-7.154a42.376,42.376,0,0,1,2.338-8.133c.159-.379.344-.76.533-1.141-1.038-.718-9.312-5.807-12.911-7.671-4.683-2.427-5.782-2.99-6.175-2.223-2.149,4.2-3.356,11.225-3.433,15.928-.008.5,0,1.272,2.645,2.58,5.287,2.612,14.553,8.634,15.495,9.013.034-.241.1-.975.126-1.2" transform="translate(22.94 -5.41)" fill="#d9eafe"/>
            <path id="Trazado_187378" data-name="Trazado 187378" d="M95.232,45.854C95.06,44.33,77.26,34.566,75.833,34.81c-2.353.4-4.953,11.961-2.6,14.422,2.206,2.3,15.265,9.869,18.641,11.119a.5.5,0,0,0,.61-.346c.649-2.558,1.236-5.129,1.739-7.719.379-1.944,1.23-4.446,1.007-6.432" transform="translate(22.545 -5.343)" fill="#ea4242"/>
            <path id="Trazado_187379" data-name="Trazado 187379" d="M89.317,42.118c-1.684-1.628-3.31,4.312-3.5,5.134-.626,2.764-2.182,8.7,1.017,10.62a.947.947,0,0,0,1.5-.308c.522-.824.462-2.244.615-3.192q.313-1.934.626-3.868c.341-2.113,1.087-4.5,1.031-6.647a1.612,1.612,0,0,0-1.291-1.739" transform="translate(26.467 -3.151)" fill="#db3131"/>
            <path id="Trazado_187380" data-name="Trazado 187380" d="M86.051,79.614h2.1c.031-.034.268-1.027.269-1.065.024-2.8,1.2-15.5,1.687-18.9.454-3.192,1.053-6.314,1.611-9.453.34-1.913,2.77-11.771-.278-10.257-1.165.58-1.876,2.521-2.338,4.329a69.622,69.622,0,0,0-1.488,8.525C86.842,59.086,85.51,71,86.086,77.386c-.018.569-.046,1.826-.035,2.229" transform="translate(26.797 -3.792)" fill="#bbd9f9"/>
            <path id="Trazado_187381" data-name="Trazado 187381" d="M89.451,87.063Q89.113,77.741,88,68.608c-.031-.254-.21-.348-.353-.244q-.726.523-1.45,1.048a.331.331,0,0,0-.117.184c-.063-.233-.3-.223-.324.087-.445,6.471-.537,13.016-.754,19.5-.1,2.957-1.236,7.774,2.637,7.736,2.9-.029,1.915-7,1.812-9.855" transform="translate(26.431 5.107)" fill="#bbd9f9"/>
            <path id="Trazado_187382" data-name="Trazado 187382" d="M55.849,88.563q.338-9.323,1.451-18.456c.031-.254.21-.348.353-.244l1.45,1.048a.331.331,0,0,1,.117.184c.063-.232.3-.223.324.087.445,6.471.537,13.016.754,19.5.1,2.957,1.236,7.774-2.637,7.736-2.9-.028-1.915-7-1.812-9.855" transform="translate(17.337 5.575)" fill="#bbd9f9"/>
            <path id="Trazado_187383" data-name="Trazado 187383" d="M91.036,84.868a1.686,1.686,0,0,0-2.086-.66c-1.9.517-3.777,1.966-5.5,2.912-3.753,2.057-7.758,3.977-11.363,6.342l-.041,2.407c3.853-2.116,7.742-4.165,11.683-6.114,2.108-1.043,4.245-2.027,6.354-3.064.771-.38,1.444-.863.956-1.823" transform="translate(22.462 10.028)" fill="#a1c5e5"/>
            <path id="Trazado_187384" data-name="Trazado 187384" d="M74,93.107c-2.849-1.928-5.866-3.673-8.73-5.485C63.6,86.569,61.825,85,59.957,84.369a1.688,1.688,0,0,0-2.124.527c-.547.927.094,1.452.84,1.88,2.041,1.169,4.111,2.284,6.15,3.458,3.055,1.759,6.066,3.592,9.055,5.457Z" transform="translate(17.968 10.063)" fill="#a1c5e5"/>
            <path id="Trazado_187385" data-name="Trazado 187385" d="M73.025,78.724l-2.462-2.058c-.442,6.459-1.065,15.28-1.283,21.753-.1,2.957-1.236,7.774,2.637,7.736,2.9-.028,1.914-7,1.812-9.855-.211-5.837-.029-11.852-.7-17.575" transform="translate(21.529 7.708)" fill="#bbd9f9"/>
            <path id="Trazado_187386" data-name="Trazado 187386" d="M97.8,70.186H95.678L82.2,62.4a7.862,7.862,0,0,0-7.046.293l-15.71,9.019L56.48,72l.022,2.5a1.585,1.585,0,0,0,0,.3v.258h.009A2.226,2.226,0,0,0,57.693,76.5l14.39,8.308a7.862,7.862,0,0,0,7.046-.293l16.955-9.733a2.748,2.748,0,0,0,1.692-2.46l.028-.005s-.067-1.864,0-2.13" transform="translate(17.61 3.044)" fill="#a1c5e5"/>
            <path id="Trazado_187387" data-name="Trazado 187387" d="M72.082,82.713,57.693,74.405c-1.8-1.039-1.572-2.869.505-4.067l16.956-9.667a7.854,7.854,0,0,1,7.046-.291l14.389,8.308c1.8,1.039,1.572,2.869-.505,4.067L79.128,82.42a7.85,7.85,0,0,1-7.046.293" transform="translate(17.61 2.412)" fill="#d9eafe"/>
            <path id="Trazado_187388" data-name="Trazado 187388" d="M66.441,75.536c3.34,1.806,7.148,4.739,11.117,3.464,3.467-1.112,6.782-3.575,9.853-5.478a24.37,24.37,0,0,0,5.76-4.494,17.783,17.783,0,0,0-4.2-3.652c-3.3-2.352-12.007-6.7-13.18-6.6a9.794,9.794,0,0,0-1.6.282,41.318,41.318,0,0,0-6.27,2.586A33.475,33.475,0,0,0,60.2,66.312,9.884,9.884,0,0,0,57.968,68.5c.139,3.6,5.8,5.588,8.473,7.034" transform="translate(18.074 2.131)" fill="#ea4242"/>
            <path id="Trazado_187389" data-name="Trazado 187389" d="M58.2,71.112c2.091,1.536,5.881,3.122,7.778,4.272,2,1.213,6,4.038,8.191,4.548,1.381.321,3.876-.328,5.546-1.183,2.506-1.284,4.914-2.793,7.354-4.2,1.986-1.143,4.835-2.17,6.307-4a2.926,2.926,0,0,0-.054-3.829,24.439,24.439,0,0,1-5.76,4.494c-3.071,1.9-6.384,4.364-9.853,5.478-3.969,1.274-7.776-1.659-11.117-3.466-2.672-1.444-8.334-3.436-8.473-7.032a3.031,3.031,0,0,0-.164.3c-.506,1.1-.838,3.824.245,4.62" transform="translate(17.922 4.442)" fill="#db3131"/>
            <path id="Trazado_187390" data-name="Trazado 187390" d="M74.416,69.358c-.5-1.979.308-3.55.567-5.443.781-5.733-9.408-.7-10.48.157-1.2.956-4.036,2.831-3.946,4.653.1,1.92,3.371,3.362,4.774,4.091,2.125,1.106,5.206,2.789,7.637,2.761a2.9,2.9,0,0,0,2.7-3.058c-.029-1.149-.981-2.073-1.255-3.163" transform="translate(18.88 2.89)" fill="#f95555"/>
            <path id="Trazado_187391" data-name="Trazado 187391" d="M80.36,37.6c-1.871-1.1-4.743-2.763-5.734-2.1-.813.546.916,1.316,1.711,1.851a49.918,49.918,0,0,0,4.742,2.789,70.421,70.421,0,0,0,8.44,3.922c.944.355,1.592-.355.736-.885-2.3-1.425-6.912-3.815-9.895-5.578" transform="translate(23.202 -5.175)" fill="#f95555"/>
            <path id="Trazado_187392" data-name="Trazado 187392" d="M52.8,86.88c-1.035,1.141-2.195,2.419-3.258,3.542-1.436,1.518-3.129,3.126-4.684,4.515-1.9,1.7-2.05,3.761,1.074,3.586,5.052-.283,6.234-2.4,8.569-4.192.325-.251.866.35,2.145-.165,1.623-.655,1.821-.913,1.821-2.525a13.369,13.369,0,0,0-.636-4.208c.016-.017.033-.033.049-.051.248-.281-3.7-2.023-5.078-.5" transform="translate(13.561 10.701)" fill="#7f64c1"/>
            <path id="Trazado_187393" data-name="Trazado 187393" d="M60.231,95.2c-1.035,1.141-2.195,2.419-3.258,3.542-1.436,1.518-3.129,3.126-4.684,4.515-1.9,1.7-2.052,3.761,1.074,3.586,5.052-.283,6.234-2.4,8.569-4.192.325-.251.866.35,2.145-.165,1.623-.655,1.821-.913,1.821-2.525a13.363,13.363,0,0,0-.636-4.208c.016-.017.033-.033.049-.051.248-.281-3.7-2.023-5.078-.5" transform="translate(15.877 13.295)" fill="#7f64c1"/>
            <path id="Trazado_187394" data-name="Trazado 187394" d="M82.723,58.8c-.42-.884-10.111-4.112-9.853-3.994-7.755,2.927-17.178,6.168-23.694,11.777-1.2.2-2.416.6-2.356,2.809.046,1.717,1.051,4.679,1.335,6.413C49.142,81.83,50.4,91.6,50.867,97.679c1.023,1.823,4.051,1.823,5.978.451.586-4.36.8-10.223,1.549-13.713.984-4.614-.628-6.855-2.044-9.324,3.815.148,12.075-4.139,15.778-5.175,4.486-1.254,5.721-1.289,9.054-4.705,2.285-2.343,3.092-3.143,1.54-6.413" transform="translate(14.597 0.891)" fill="#301333"/>
            <path id="Trazado_187395" data-name="Trazado 187395" d="M78.872,58.707c-2.4.058-5.061.23-7.413-.477a8.43,8.43,0,0,0-.665,1.064c-.858,1.745-1.653,3.059-.99,5.046-1.166,1.65-6.421,8.106-7.363,10.081-1.212,1.2-1.863,1.892-1.711,4.656a42.905,42.905,0,0,1-.4,8.074c-.685,6.716-1.88,12.391-2.365,19.125,1.564,2.406,3.66,2.506,5.733.613,2.015-6.249,5.953-10.611,6.363-16.077.273-3.621.331-6.35-1.279-8.647,6.643-3.649,15.155-5.7,18.806-12.634,2.368-4.5,1.223-7.834-1.208-12.444-2.22,1.356-4.788,1.556-7.51,1.621" transform="translate(18.073 1.604)" fill="#3f1b44"/>
            <path id="Trazado_187396" data-name="Trazado 187396" d="M65.426,34.293c2.714-3.441,1.582-2.448,4.868-.567,4.026,2.3,7.275,3.758,9.038,5.222,2.988,2.485,4.722,7.606,5.23,14.047a36.653,36.653,0,0,0,1.014,5.293c1.237,3.518.634,4.1-.247,4.918a1.478,1.478,0,0,1,.956,2.533c-6.15,4.33-17.949,4.391-19.624-2.807a4.49,4.49,0,0,1,.643-2.212c-.75-.424-1.119-1.9-1.119-2.869-1.38-.746-1.68-1.9-2-3.855-2.767-.623-5.662-3.715-4.345-6.911,1.072-2.6,1.776-3.8,2.553-5.582,1.792-4.12,2.252-6.228,3.028-7.211" transform="translate(18.557 -6.214)" fill="#7f64c1"/>
            <path id="Trazado_187397" data-name="Trazado 187397" d="M64.129,44.417a7.5,7.5,0,0,1-1.986-3.333c-.958-3.619,2.133-10.521,4.241-11.507s6.908.308,8.355,1.6-.457,6.135-2.133,7.562-6.668,6.423-8.477,5.675" transform="translate(19.319 -7.082)" fill="#5442a0"/>
            <path id="Trazado_187398" data-name="Trazado 187398" d="M65.1,37.212c.758-.125,2.736-1.135,2.145-4.806-.165-1.027,4.456-3.79,4.454-3.645-.049,3.328.763,6.933,2.288,8.659-2.2,2.3-4.261,7.522-8.049,5.655-1.893-.933-2.332-1.627-.837-5.862" transform="translate(20.019 -7.23)" fill="#ffb9a4"/>
            <path id="Trazado_187399" data-name="Trazado 187399" d="M66.383,42.871c2.1-.971,2.8-4.555,4.06-5.635s3.4-2.486,3.4-4.3c0-1.457-2.31-2.4-3.71-3-.016-.135-.1-.746-.129-.878a12.676,12.676,0,0,1,5.62,1.983,9.244,9.244,0,0,1,3.551,5.91,4.439,4.439,0,0,1-1.122,2.917l-1.741-1.2s-1.16-.4-2.907,2.238a9.382,9.382,0,0,1-6.442,4.375,4.749,4.749,0,0,1-3.35-.813,11.7,11.7,0,0,1,2.769-1.6" transform="translate(19.834 -7.135)" fill="#644dad"/>
            <path id="Trazado_187400" data-name="Trazado 187400" d="M62.792,25.464c3.133-.7,4.77-.833,7.552.294A15.522,15.522,0,0,1,74.791,27.8a.391.391,0,0,1,.173.354c-.716,4.126-2.1,8.5-6.731,10.332-3.808,1.506-5.945-2.672-6.607-5.473-.771-3.264-1-7.065,1.166-7.552" transform="translate(19.043 -8.424)" fill="#ffc9b6"/>
            <path id="Trazado_187401" data-name="Trazado 187401" d="M62.743,23.458a8.8,8.8,0,0,1,1.783-2.86c1.827-1.94,3.514-.407,4.254,1.411,1.1-1.318,2.669-2.574,4.52-1.732,1.935.88,1.842,2.836,1.128,4.406,2.021-.773,4.759-1.894,6,.338.812,1.46-.176,2.55-1.431,3.262,2.407.405,5.46,1.705,4.725,3.985-.441,1.368-2.444,2.155-3.733,2.25a11.843,11.843,0,0,0-6.2,2.524,14.021,14.021,0,0,1-4.674-8.277,23.533,23.533,0,0,1-6.584.366,5.743,5.743,0,0,1-2.258-3.27c-.374-.914-.795-2.466-.227-3.371.816-1.3,1.977-.3,2.7.967" transform="translate(18.635 -10.054)" fill="#301333"/>
            <path id="Trazado_187402" data-name="Trazado 187402" d="M67.968,30.663s.748-2.533,2.4-1.233-.686,3.868-.686,3.868Z" transform="translate(21.192 -7.135)" fill="#ffc9b6"/>
            <path id="Trazado_187403" data-name="Trazado 187403" d="M70.6,54.538s3.735-1.209,5.751-.968a15.86,15.86,0,0,1,3.752.968s-2.847.4-4.751.484a25.5,25.5,0,0,1-4.751-.484" transform="translate(22.014 0.497)" fill="#644dad"/>
            <path id="Trazado_187404" data-name="Trazado 187404" d="M69.865,56.669c.243,0,4.436-.121,6.7-.282s3.146-.272,3.146-.272a8.07,8.07,0,0,1-4.477,1.4,21.061,21.061,0,0,1-5.364-.847" transform="translate(21.783 1.301)" fill="#644dad"/>
            <path id="Trazado_187405" data-name="Trazado 187405" d="M48.642,78.708v62.149c0,.582-.887,1.053-1.982,1.053s-1.981-.471-1.981-1.053V78.708Z" transform="translate(13.93 8.345)" fill="#cdcdcd"/>
            <path id="Trazado_187406" data-name="Trazado 187406" d="M82.009,68.1v51.119c0,.582-.887,1.055-1.982,1.055s-1.981-.472-1.981-1.055V68.1Z" transform="translate(24.334 5.037)" fill="#cdcdcd"/>
            <path id="Trazado_187407" data-name="Trazado 187407" d="M6.1,64.806v48.852c0,.544-.829.985-1.851.985S2.4,114.2,2.4,113.658V64.806Z" transform="translate(0.748 4.011)" fill="#cdcdcd"/>
            <path id="Trazado_187408" data-name="Trazado 187408" d="M60.471,103.441,109.041,75.2,48.57,40.292,0,68.528Z" transform="translate(0 -3.633)" fill="#ffb037"/>
            <path id="Trazado_187409" data-name="Trazado 187409" d="M37.2,74.4l13.2-7.671-16.43-9.486-13.2,7.671Z" transform="translate(6.478 1.654)" fill="#f99d23"/>
            <path id="Trazado_187410" data-name="Trazado 187410" d="M63.251,76.215l12.657-7.359L53.131,55.6,40.473,62.962Z" transform="translate(12.619 1.141)" fill="#f99d23"/>
            <path id="Trazado_187411" data-name="Trazado 187411" d="M91.97,70.374v3.5L46.1,100.543v-3.5Z" transform="translate(14.373 5.747)" fill="#f28d16"/>
            <path id="Trazado_187412" data-name="Trazado 187412" d="M2.216,65.368,59.78,98.6v3.5L2.216,68.869Z" transform="translate(0.691 4.186)" fill="#e5790e"/>
            <path id="Trazado_187413" data-name="Trazado 187413" d="M94.669,66.906v3.5L46.1,98.645v-3.5Z" transform="translate(14.373 4.665)" fill="#f99d23"/>
            <path id="Trazado_187414" data-name="Trazado 187414" d="M0,61.817v3.5l60.471,34.912v-3.5Z" transform="translate(0 3.079)" fill="#f28d16"/>
            <path id="Trazado_187415" data-name="Trazado 187415" d="M76.174,64.862A4.431,4.431,0,0,1,77.927,66.4c.148.268-.172.661-.454.453a14.1,14.1,0,0,1-1.6-1.6.252.252,0,0,1,.3-.395" transform="translate(23.633 4.018)" fill="#f28d16"/>
            <path id="Trazado_187416" data-name="Trazado 187416" d="M73.47,67.973a21.028,21.028,0,0,0,2.721-.632c.337-.121.573.428.245.582a5.7,5.7,0,0,1-2.882.67c-.331-.029-.456-.54-.084-.62" transform="translate(22.836 4.796)" fill="#f28d16"/>
            <path id="Trazado_187417" data-name="Trazado 187417" d="M75.681,69.617A3.172,3.172,0,0,0,77.33,67.5a.3.3,0,0,1,.6.081,2.741,2.741,0,0,1-1.972,2.684.357.357,0,0,1-.273-.649" transform="translate(23.543 4.784)" fill="#f28d16"/>
            <path id="Trazado_187418" data-name="Trazado 187418" d="M6.853,62.651A3.174,3.174,0,0,0,8.5,60.533a.3.3,0,0,1,.6.081A2.743,2.743,0,0,1,7.126,63.3a.356.356,0,0,1-.273-.648" transform="translate(2.083 2.611)" fill="#f28d16"/>
            <path id="Trazado_187419" data-name="Trazado 187419" d="M46.666,84.958a3.752,3.752,0,0,1,3.114-.689c.306.076.2.477-.07.51a9.227,9.227,0,0,0-2.639.7c-.311.132-.736-.269-.405-.526" transform="translate(14.512 10.049)" fill="#f28d16"/>
            <path id="Trazado_187420" data-name="Trazado 187420" d="M44.432,85.11a28.276,28.276,0,0,0,3.188,1.061.3.3,0,0,1-.079.576A5.588,5.588,0,0,1,44.2,85.67c-.251-.186-.113-.7.236-.56" transform="translate(13.74 10.333)" fill="#f28d16"/>
            <path id="Trazado_187421" data-name="Trazado 187421" d="M34.828,70.8A28.585,28.585,0,0,0,38.092,70a.294.294,0,0,1,.24.529,5.588,5.588,0,0,1-3.407.866c-.311-.024-.47-.537-.1-.6" transform="translate(10.792 5.627)" fill="#f28d16"/>
            <path id="Trazado_187422" data-name="Trazado 187422" d="M42.513,84.408a2.865,2.865,0,0,1,2.893-.712c.4.1.226.676-.169.611a3.405,3.405,0,0,0-2.3.648.35.35,0,0,1-.422-.547" transform="translate(13.228 9.866)" fill="#f28d16"/>
            <path id="Trazado_187423" data-name="Trazado 187423" d="M10.675,58.368a4.34,4.34,0,0,1,3.411-.522.3.3,0,0,1-.079.579,7.937,7.937,0,0,0-3.055.6c-.412.139-.584-.433-.277-.656" transform="translate(3.28 1.8)" fill="#f28d16"/>
            <path id="Trazado_187424" data-name="Trazado 187424" d="M8.993,58.707a7.663,7.663,0,0,0,.837.937,6.22,6.22,0,0,0,1.141.7c.35.189.1.694-.261.618a3.088,3.088,0,0,1-2.175-1.985c-.076-.251.279-.48.458-.266" transform="translate(2.658 2.083)" fill="#f28d16"/>
            <path id="Trazado_187425" data-name="Trazado 187425" d="M62.717,74.192,41.984,62.221l10.74-6.2,20.734,11.97Z" transform="translate(13.09 1.271)" fill="#653e6d"/>
            <path id="Trazado_187426" data-name="Trazado 187426" d="M62.386,73.44,42.846,62.076l9.684-5.591L72.07,67.849Z" transform="translate(13.359 1.416)" fill="#7f5489"/>
            <path id="Trazado_187427" data-name="Trazado 187427" d="M68.529,66.011v-.866l-10.741,6.2v.866Z" transform="translate(18.018 4.117)" fill="#562e60"/>
            <path id="Trazado_187428" data-name="Trazado 187428" d="M41.984,61.613v-.866l20.733,11.97v.866Z" transform="translate(13.09 2.745)" fill="#512859"/>
            <path id="Trazado_187429" data-name="Trazado 187429" d="M56.345,70.307l10.228-5.915-.346-.2L56,70.106Z" transform="translate(17.46 3.819)" fill="#653e6d"/>
            <path id="Trazado_187430" data-name="Trazado 187430" d="M54.974,69.424,65.2,63.51l-.346-.2L54.628,69.224Z" transform="translate(17.032 3.544)" fill="#653e6d"/>
            <path id="Trazado_187431" data-name="Trazado 187431" d="M53.6,68.562l10.228-5.915-.346-.2L53.256,68.361Z" transform="translate(16.605 3.275)" fill="#653e6d"/>
            <path id="Trazado_187432" data-name="Trazado 187432" d="M52.125,67.754l10.228-5.915-.346-.2L51.779,67.553Z" transform="translate(16.144 3.023)" fill="#653e6d"/>
            <path id="Trazado_187433" data-name="Trazado 187433" d="M50.754,66.891l10.228-5.915-.346-.2L50.408,66.691Z" transform="translate(15.717 2.754)" fill="#653e6d"/>
            <path id="Trazado_187434" data-name="Trazado 187434" d="M50.754,66.891l10.228-5.915-.346-.2L50.408,66.691Z" transform="translate(15.717 2.754)" fill="#653e6d"/>
            <path id="Trazado_187435" data-name="Trazado 187435" d="M49.383,66.009l10.228-5.915-.346-.2L49.035,65.808Z" transform="translate(15.289 2.479)" fill="#653e6d"/>
            <path id="Trazado_187436" data-name="Trazado 187436" d="M47.842,65.251l10.231-5.916-.321-.215L47.472,65.064Z" transform="translate(14.801 2.238)" fill="#653e6d"/>
            <path id="Trazado_187437" data-name="Trazado 187437" d="M46.534,64.338l10.228-5.915-.346-.2L46.187,64.137Z" transform="translate(14.401 1.958)" fill="#653e6d"/>
            <path id="Trazado_187438" data-name="Trazado 187438" d="M44.952,63.6l10.207-5.9-.306-.226L44.64,63.375Z" transform="translate(13.918 1.723)" fill="#653e6d"/>
            <path id="Trazado_187439" data-name="Trazado 187439" d="M68.784,68.96,48.46,57.208l.422-.157L69.1,68.74Z" transform="translate(15.109 1.592)" fill="#653e6d"/>
            <path id="Trazado_187440" data-name="Trazado 187440" d="M65.82,70.679,45.5,58.927l.422-.157L66.134,70.459Z" transform="translate(14.185 2.129)" fill="#653e6d"/>
            <path id="Trazado_187441" data-name="Trazado 187441" d="M64.3,71.562,43.974,59.81l.422-.157L64.611,71.342Z" transform="translate(13.71 2.404)" fill="#653e6d"/>
            <path id="Trazado_187442" data-name="Trazado 187442" d="M67.19,69.817,46.866,58.065l.422-.157L67.5,69.6Z" transform="translate(14.612 1.86)" fill="#653e6d"/>
            <path id="Trazado_187443" data-name="Trazado 187443" d="M35.79,71.4,24.048,64.524l7.919-4.572,11.742,6.874Z" transform="translate(7.498 2.497)" fill="#44214c"/>
            <path id="Trazado_187444" data-name="Trazado 187444" d="M35.79,70.961,24.048,64.088l7.919-4.572,11.742,6.872Z" transform="translate(7.498 2.361)" fill="#512859"/>
            <path id="Trazado_187445" data-name="Trazado 187445" d="M48.988,52.907l4.671,23.288L22.417,58.158,17.746,34.87Z" transform="translate(5.533 -5.323)" fill="#3f1b44"/>
            <path id="Trazado_187446" data-name="Trazado 187446" d="M46.233,72.126l1.489-.917L43.051,47.921l-1.489.917Z" transform="translate(12.959 -1.254)" fill="#512859"/>
            <path id="Trazado_187447" data-name="Trazado 187447" d="M17.746,35.088l1.489-.917L50.477,52.208l-1.489.917Z" transform="translate(5.533 -5.541)" fill="#653e6d"/>
            <path id="Trazado_187448" data-name="Trazado 187448" d="M37.635,55.4,39.4,64.2,27.6,57.386l-1.764-8.8Z" transform="translate(8.056 -1.045)" fill="#512859"/>
            <path id="Trazado_187449" data-name="Trazado 187449" d="M36.595,62.66l.563-.346L35.393,53.52l-.563.346Z" transform="translate(10.86 0.492)" fill="#44214c"/>
            <path id="Trazado_187450" data-name="Trazado 187450" d="M25.837,48.673l.563-.346,11.8,6.812-.563.346Z" transform="translate(8.056 -1.127)" fill="#653e6d"/>
            <path id="Trazado_187451" data-name="Trazado 187451" d="M29.1,55.947l10.256,4.965.126.99s-3.555,5.641-3.555,10.364c-.146-.084-.433.018-.6-.079-3.109-1.8-9.731-5.97-9.731-5.97s-.443-4.734,3.506-10.271" transform="translate(7.975 1.249)" fill="#44214c"/>
            <path id="Trazado_187452" data-name="Trazado 187452" d="M28.036,54.539l11.8,6.812s-4.04,6.367-4.04,11.734c-3.215-1.856-11.743-6.872-11.743-6.872s-.5-5.381,3.985-11.674" transform="translate(7.494 0.81)" fill="#653e6d"/>
            <path id="Trazado_187453" data-name="Trazado 187453" d="M40.82,64.756v.573l-7.5,4.333.213-.7Z" transform="translate(10.387 3.995)" fill="#44214c"/>
            <path id="Trazado_187454" data-name="Trazado 187454" d="M62.553,47.3c.354-1.959,2.436-5.217,3.247-7-.644-2.467.32-4.4.912-5.944-.315-.42-.51-.729-.54-.771-.718.319-2.814.567-3.589,4.332-3.121,1.2-6.289,5.916-7.4,10.054a18.489,18.489,0,0,0-4.442,10.649c1.313-.753,4.076.573,4.246,1.768,2.928-2.008,4.094-4.5,5.889-7.08a6.848,6.848,0,0,0,2.429-2.183,4.854,4.854,0,0,1-.754-3.824" transform="translate(15.821 -5.724)" fill="#644dad"/>
            <path id="Trazado_187455" data-name="Trazado 187455" d="M68.354,58.32a5.877,5.877,0,0,0-1.345-2c-3.7,2.028-7.391,1.717-8.983,2.078-1.078.244-4.783,4.919-4.5,5.523.967,2.1,5.861.442,6.743-1.186,2.983.038,5.584-2.225,7.809-2.225.22,0,.453-1.755.281-2.192" transform="translate(16.683 1.365)" fill="#ffb9a4"/>
            <path id="Trazado_187456" data-name="Trazado 187456" d="M83.616,50.23c1.476-4.579.833-11.587-5.058-12.612-3.042.168-3.952,5.328-4.551,7.7-.674,2.677-.172,3.189,2.246,4.98-.975,1.829-1.443,6.037-.31,8.2a22.544,22.544,0,0,0-3.994.628c-4.057.766-6.375,1.1-8.626,3.152,1.69.829,1.69,2.561,1.376,4.063,3.419.689,9.234,1.471,12.551.5,3.453-1.015,3.9-2.727,5.714-3.684,1.085-.573,1.456-1.554.8-3,.777-1.031,1.805-7.541-.147-9.93" transform="translate(19.743 -4.466)" fill="#644dad"/>
            <path id="Trazado_187457" data-name="Trazado 187457" d="M51.257,52.841s-1.581,4.224-2.04,5.8a6.487,6.487,0,0,0,1.6,5.414c1.154.943,2.949-.055,3.489-1.6a8.3,8.3,0,0,0,.388-3.69c-.388-2.551.277-3.29.809-4.154.025-1.308-2.807-3.7-4.246-1.768" transform="translate(15.307 0.053)" fill="#ffb9a4"/>
            <path id="Trazado_187458" data-name="Trazado 187458" d="M42.415,28a3.243,3.243,0,0,0-.93-1.079c.444-.362.3-1.428-.335-2.171a.917.917,0,0,0-.732-.411l-.01-.013a2.2,2.2,0,0,0-1.754.995c-.267.4.108.7.606.794-.57.719-2,.06-2.944-.149-1.114-.247-2.237-.547-3.351-.79-.12-.027-.243-.051-.364-.077-.121-.114-.244-.231-.364-.343-1.113-1.043-2.236-2.039-3.351-3.079-1.076-1-2.792-2.16-3.132-3.865a7.623,7.623,0,0,0-.624-1.986c-.3-.544-.651-.954-1.079-.946a2,2,0,0,0-1.7.958l1.3.659c.024.055.043.111.07.167a.953.953,0,0,0-.93.005c-.263.177-.254.845-.064,1.384.447,1.269,1.729,2.052,2.438,1.888a29.144,29.144,0,0,0,4.287,4.751,5.9,5.9,0,0,0-2.256.376c-.164-.167-.367-.4-.528-.541a3.09,3.09,0,0,0-.75-.508,1.033,1.033,0,0,0-.36-.079v-.007l-.087,0c-.022,0-.045,0-.067.006a1.943,1.943,0,0,0-1.669,1.011c-.319.775.91.912,1.51.933a4.785,4.785,0,0,0,.452.691,1.966,1.966,0,0,0,.005.289,3.549,3.549,0,0,0,.321,1.148c-.276.062-.466.116-.466.116l.494,1.706A2.081,2.081,0,0,0,27.99,28.7a1.268,1.268,0,0,0,.074-.161c.007-.018.018-.032.024-.051a.619.619,0,0,0,.017-.091,2.6,2.6,0,0,0,.043-1.053,12.522,12.522,0,0,1,4.452.279,40.129,40.129,0,0,1,4.452,4.863,3.544,3.544,0,0,0,.633,2.482l-.39-.1s-.649,1.581.267,1.6A1.789,1.789,0,0,0,39.345,35.4h0a1.686,1.686,0,0,0,.16-.57,1.827,1.827,0,0,0,.005-.282c.58-.062,1.085-.577.657-1.657a2.722,2.722,0,0,0-.878-1.157,2.4,2.4,0,0,0-.75-.359,3.536,3.536,0,0,0-.528-.068,25.5,25.5,0,0,0-2.257-2.981,8.883,8.883,0,0,0,4.288.2,3.745,3.745,0,0,0,.756.769l-.206,1.184a1.857,1.857,0,0,0,1.889-1.025A1.665,1.665,0,0,0,42.415,28" transform="translate(21.244 0.945)" fill="#adadad"/>
            <path id="Trazado_187459" data-name="Trazado 187459" d="M23.935,26.049a.693.693,0,0,1,.877-.145,3.077,3.077,0,0,1,.751.508c.161.137.364.376.527.542,1.68-.682,3.789-.326,5.773.107,1.114.244,2.237.543,3.352.791,1.076.238,2.792,1.064,3.132-.249a2.412,2.412,0,0,1,.623-1.267c.3-.2.651-.2,1.079.3.634.744.78,1.809.335,2.171a3.246,3.246,0,0,1,.93,1.08,1.663,1.663,0,0,1,.064,1.458c-.448.753-1.729.056-2.438-.928-1.687.508-3.844-.1-5.759-.538a16.6,16.6,0,0,0-6.135-.646c.2,1.316-.422,2.309-1.5,1.481a2.851,2.851,0,0,1-.949-1.963,1.957,1.957,0,0,1-.005-.288c-.58-.732-1.086-1.831-.657-2.417" transform="translate(21.09 -0.237)" fill="#cdcdcd"/>
            <path id="Trazado_187460" data-name="Trazado 187460" d="M38.789,33.689a2.722,2.722,0,0,0-.878-1.157,2.392,2.392,0,0,0-.751-.359,3.511,3.511,0,0,0-.526-.068,34.855,34.855,0,0,0-5.773-6.558c-1.113-1.043-2.237-2.039-3.351-3.079-1.076-1-2.792-2.16-3.132-3.865a7.655,7.655,0,0,0-.623-1.986c-.3-.544-.651-.954-1.079-.946-.634.011-.78.909-.335,1.783a.954.954,0,0,0-.93.006c-.263.177-.254.845-.064,1.384.448,1.269,1.729,2.052,2.438,1.888a37.355,37.355,0,0,0,5.758,6.111,49.321,49.321,0,0,1,6.135,6.438,3.182,3.182,0,0,0,1.5,3.214c.59.228.876-.242.95-.867a1.833,1.833,0,0,0,0-.282c.58-.063,1.087-.577.658-1.657" transform="translate(21.367 0.857)" fill="#cdcdcd"/>
            <path id="Trazado_187461" data-name="Trazado 187461" d="M39.472,9.613c-.333-3.289-2.761-6.364-6.2-8.3C31.4.2,29.826-.214,28.728.1c-.01,0-.018,0-.028,0A3.941,3.941,0,0,0,26.59,1.324s.3.12.679.268a4.242,4.242,0,0,0-.191.865c-.373,3.253-.6,6.308.214,8.377a7.741,7.741,0,0,0,2.49,3.229,5.414,5.414,0,0,0-.282,2.281,1.969,1.969,0,0,0,1.648,1.669c.319,1.1,1.919,2.108,2.268,1.709a2.28,2.28,0,0,0,1.939,1.01V21.86a2.134,2.134,0,0,0,1.55-.865.478.478,0,0,0,.032-.05c0-.008.012-.015.016-.024a.067.067,0,0,0,0-.014.743.743,0,0,0,.093-.32,7.6,7.6,0,0,0-.282-2.49A3.967,3.967,0,0,0,38.6,16.652c.814-1.128,1.25-3.355.877-7.039m-9.253,1.8a4.183,4.183,0,0,1-1.311-1.836,3.37,3.37,0,0,1,.008-1.955c.457-1.129,1.8-.306,2.655.907a3.362,3.362,0,0,1,.812,2.107c-.042,1.335-1.266,1.467-2.163.776m3.055,6.327c-.7-.446-1.393-1.109-1.362-1.482a9.423,9.423,0,0,1,.521-2.5c.2-.45,1.121,1.014,1.925,2a19.864,19.864,0,0,1,.278,2.077c.031.409-.657.277-1.362-.091m4.367-3.12a1.008,1.008,0,0,1-1.311.322,4.214,4.214,0,0,1-2.163-3.274c-.022-.725.237-1.017.812-1.17.855-.227,2.2.5,2.656,2.158a3.42,3.42,0,0,1,.007,1.963" transform="translate(20.786 2.549)" fill="#adadad"/>
            <path id="Trazado_187462" data-name="Trazado 187462" d="M25.715,3.252c.333-2.9,2.761-3.176,6.2-1.143,3.436,1.935,5.864,5.01,6.2,8.3.373,3.684-.063,5.911-.877,7.039a3.967,3.967,0,0,1-1.827,1.444,7.6,7.6,0,0,1,.282,2.49c-.041.661-.67.862-1.484-.043-.145.539-1.546.047-2.151-.822-.349.4-1.948-.611-2.268-1.709a1.969,1.969,0,0,1-1.648-1.669,5.414,5.414,0,0,1,.282-2.281A19.924,19.924,0,0,1,26.592,11.3a16.817,16.817,0,0,1-.877-8.053m9.253,12.481a1.01,1.01,0,0,0,1.311-.322,3.414,3.414,0,0,0-.008-1.963c-.457-1.657-1.8-2.384-2.655-2.159-.575.153-.834.445-.812,1.17a4.212,4.212,0,0,0,2.163,3.274m-3.055,2.8c.7.368,1.393.5,1.362.091-.064-.829-.4-4.018-1.332-4.555-.011-.006-.021-.008-.03-.013s-.02-.016-.03-.021c-.93-.537-1.269,2.261-1.332,3.017-.031.373.657,1.035,1.362,1.482m-4.367-8.162a4.176,4.176,0,0,0,1.311,1.836c.9.69,2.12.558,2.163-.776a3.36,3.36,0,0,0-.812-2.107c-.855-1.213-2.2-2.037-2.656-.907a3.378,3.378,0,0,0-.007,1.955" transform="translate(20.895 2.464)" fill="#cdcdcd"/>
          </g>
        </g>
      </g>
      <path id="Trazado_187468" data-name="Trazado 187468" d="M536.621,18.285a5.6,5.6,0,0,1-4.407-1.824,7.821,7.821,0,0,1-1.623-5.353V7.19a7.869,7.869,0,0,1,1.617-5.353,6.159,6.159,0,0,1,8.776,0,7.825,7.825,0,0,1,1.63,5.353v3.918A7.841,7.841,0,0,1,541,16.461a5.55,5.55,0,0,1-4.376,1.824m0-2.734a2.022,2.022,0,0,0,1.818-.977,6,6,0,0,0,.623-3.125V6.823a5.854,5.854,0,0,0-.634-3.1,2.056,2.056,0,0,0-1.831-.977,2.035,2.035,0,0,0-1.831.977,5.925,5.925,0,0,0-.624,3.1v4.626a5.948,5.948,0,0,0,.629,3.125,2.059,2.059,0,0,0,1.85.977" transform="translate(321 11925)" fill="#f6f6f6"/>
      <path id="Trazado_187469" data-name="Trazado 187469" d="M544.628,18.029V15.7l5.762-6.189a17.9,17.9,0,0,0,1.379-1.721,5.873,5.873,0,0,0,.713-1.336,3.578,3.578,0,0,0,.214-1.2A2.68,2.68,0,0,0,552.1,3.49a2.123,2.123,0,0,0-1.74-.72,2.242,2.242,0,0,0-1.868.8,3.456,3.456,0,0,0-.635,2.2H544.4l-.025-.073a5.547,5.547,0,0,1,.69-2.9,5.265,5.265,0,0,1,2.1-2.044A6.62,6.62,0,0,1,550.4,0a7,7,0,0,1,3.144.652,4.8,4.8,0,0,1,2.021,1.825,5.147,5.147,0,0,1,.708,2.71,5.272,5.272,0,0,1-.379,2,8.443,8.443,0,0,1-1.184,1.971q-.805,1.038-2.075,2.381l-3.455,3.711.024.06h4.6l.182-1.7h2.759v4.419Z" transform="translate(321 11925)" fill="#f6f6f6"/>
    </g>
    <rect id="Rect치ngulo_40348" data-name="Rect치ngulo 40348" width="505" height="169" transform="translate(810 11888)" fill="none"/>
  </g>
</svg>
