<svg xmlns="http://www.w3.org/2000/svg" width="295" height="147" viewBox="0 0 295 147">
  <g id="Grupo_146831" data-name="Grupo 146831" transform="translate(-285 -2080)">
    <g id="tripwire-logo-footer" transform="translate(321.155 2103.262)">
      <path id="Trazado_189654" data-name="Trazado 189654" d="M270.548,163.093a10.765,10.765,0,0,1-10.767,10.728H70.267a10.763,10.763,0,0,1-10.78-10.71l-.006-66.983A10.784,10.784,0,0,1,70.267,85.4H259.781a10.756,10.756,0,0,1,10.767,10.712Z" transform="translate(-47.112 -85.403)" fill="#fff"/>
      <path id="Trazado_189655" data-name="Trazado 189655" d="M142.467,160.656c-2.19,0-4.341.035-6.463.1v6.092h-7.584v-5.724a180.2,180.2,0,0,0-55.981,12.7H260.575a9.974,9.974,0,0,0,9.973-9.976v-6.364C248.78,159.09,209.77,160.81,142.467,160.656Zm-2.667-16.2c2.9,0,3.716-2.08,3.716-4.458V126.162c0-3.046-1.117-5.13-3.716-5.13-2.306,0-3.8,1.936-3.8,4.687v14.649a3.836,3.836,0,0,0,3.8,4.091Zm104.334-23.426c-2.3,0-3.711,1.487-3.711,4.312v4.318h7.432v-4.317c0-2.825-1.412-4.312-3.723-4.312Zm-3.722,14.582v5.129c0,3.495,1.34,3.715,4.682,3.715h25.455V95.385a9.976,9.976,0,0,0-9.973-9.982H69.455a9.976,9.976,0,0,0-9.973,9.982v18.507H75.174V98.649h7.58v15.243H87.44v7.141H82.754v19.71c0,3.495,1.339,3.715,4.686,3.715V151.6H84.314a8.419,8.419,0,0,1-9.14-8.852V121.033H59.481v42.81a9.975,9.975,0,0,0,8.674,9.885c23.119-11.327,41.626-13.674,60.264-16.372V113.892H136v3.42a8.552,8.552,0,0,1,7.218-3.863,6.892,6.892,0,0,1,6.615,3.572,17.021,17.021,0,0,1,1.264,8.1v14.355c0,5.429-.221,7.584-1.191,9.144a7.13,7.13,0,0,1-6.763,3.422,8.126,8.126,0,0,1-6.989-3.865H136v8.127c44.536-5.571,89.651.209,134.545-.4v-4.3H241.971a8.423,8.423,0,0,1-9.144-8.852v-8.617h.007v-7.6a16.61,16.61,0,0,1,1.412-7.659,10.8,10.8,0,0,1,9.887-5.43A11.009,11.009,0,0,1,255.441,125.2v10.411H240.422ZM110.349,121.479a6.123,6.123,0,0,0-2.309-.446,7.568,7.568,0,0,0-7.733,8.182V151.6H92.723v-37.71h7.584v4.016a13.879,13.879,0,0,1,10.043-4.459ZM122.768,151.6h-7.586v-37.71h7.586Zm0-44.774h-7.586V98.648h7.586ZM185.09,151.6H178.4l-4.165-22.388h-.151L169.918,151.6h-6.7L154.3,113.891h8.033l4.606,23.431h.149l4.242-23.431h5.946l4.016,23.431h.152l4.535-23.431h8.033Zm21.491,0H199v-37.71h7.584Zm0-44.774H199V98.648h7.584Zm23.278,14.651a6.085,6.085,0,0,0-2.3-.446,7.57,7.57,0,0,0-7.739,8.182V151.6h-7.584v-37.71h7.584v4.016a13.887,13.887,0,0,1,10.041-4.459Z" transform="translate(-47.112 -85.403)" fill="#f58025"/>
      <path id="Trazado_189656" data-name="Trazado 189656" d="M75.044,133.663a189.833,189.833,0,0,0-20.972,12.057A12.383,12.383,0,0,0,54,147.314a117.894,117.894,0,0,1,25.326-13.558,180.2,180.2,0,0,1,55.981-12.7v-3.764C116.67,119.992,98.163,122.338,75.044,133.663Z" transform="translate(-54 -45.339)" fill="#e31937"/>
      <path id="Trazado_189657" data-name="Trazado 189657" d="M227.939,117.784c-44.894.613-90.009-5.167-134.545.4v4.447c2.121-.062,4.273-.1,6.463-.1,67.3.152,106.314-1.567,128.082-3.177,9.51-.7,15.735-1.382,19.592-1.875l.663-.476C241.451,117.455,234.7,117.69,227.939,117.784Z" transform="translate(-4.504 -47.283)" fill="#e31937"/>
      <path id="Trazado_189658" data-name="Trazado 189658" d="M150.866,102.44a2.685,2.685,0,1,1,2.684-2.685,2.685,2.685,0,0,1-2.684,2.685Zm0-4.874a2.189,2.189,0,1,0,2.142,2.187,2.152,2.152,0,0,0-2.142-2.186Zm.562,3.633-.593-1.149h-.37V101.2h-.535V98.3h1.091a.9.9,0,0,1,.934.89.809.809,0,0,1-.571.787l.646,1.223Zm-.474-2.447h-.489v.875h.489a.439.439,0,1,0,0-.875Z" transform="translate(64.327 -70.744)" fill="#fff"/>
    </g>
    <rect id="Rectángulo_40328" data-name="Rectángulo 40328" width="295" height="147" transform="translate(285 2080)" fill="none"/>
  </g>
</svg>
