<svg xmlns="http://www.w3.org/2000/svg" xmlns:xlink="http://www.w3.org/1999/xlink" width="505" height="169" viewBox="0 0 505 169">
  <defs>
    <clipPath id="clip-path">
      <rect id="Rect치ngulo_39044" data-name="Rect치ngulo 39044" width="120.989" height="155.534" fill="none"/>
    </clipPath>
  </defs>
  <g id="Grupo_146849" data-name="Grupo 146849" transform="translate(-285 -11888)">
    <g id="Grupo_146847" data-name="Grupo 146847">
      <path id="Trazado_187237" data-name="Trazado 187237" d="M1958.728,443v71.123h62.037V443Z" transform="translate(-1655 11445)" fill="#c2e2e0"/>
      <path id="Trazado_187236" data-name="Trazado 187236" d="M1958.728,443v65.077h62.037V443Z" transform="translate(-1650 11445)" fill="#8f52f5"/>
      <path id="Trazado_187466" data-name="Trazado 187466" d="M6.03,18.285a5.6,5.6,0,0,1-4.407-1.824A7.821,7.821,0,0,1,0,11.108V7.19A7.869,7.869,0,0,1,1.617,1.837,5.552,5.552,0,0,1,6.006,0a5.574,5.574,0,0,1,4.388,1.837,7.825,7.825,0,0,1,1.63,5.353v3.918a7.836,7.836,0,0,1-1.618,5.353A5.55,5.55,0,0,1,6.03,18.285m0-2.734a2.023,2.023,0,0,0,1.819-.977,6,6,0,0,0,.622-3.125V6.823a5.854,5.854,0,0,0-.634-3.1,2.055,2.055,0,0,0-1.831-.977,2.035,2.035,0,0,0-1.831.977,5.927,5.927,0,0,0-.623,3.1v4.626a5.938,5.938,0,0,0,.629,3.125,2.058,2.058,0,0,0,1.849.977" transform="translate(328 11925)" fill="#f6f6f6"/>
      <path id="Trazado_187467" data-name="Trazado 187467" d="M13.892,18.029V15.892l3-.365V3.49h-3.04V1.452l6.592-1.2V15.527l3,.365v2.137Z" transform="translate(328 11925)" fill="#f6f6f6"/>
      <g id="Grupo_145041" data-name="Grupo 145041" transform="translate(13.479 -260)">
        <path id="Trazado_187464" data-name="Trazado 187464" d="M1235.047,532.024l-52.4,38.541,95.71,48.5,65.841-46.249-79.009-43.359Z" transform="translate(-739.128 11689.558)" fill="#c3f7f5"/>
        <g id="Grupo_145038" data-name="Grupo 145038" transform="translate(464.774 12148)">
          <g id="Grupo_145037" data-name="Grupo 145037" transform="translate(0 0)" clip-path="url(#clip-path)">
            <path id="Trazado_187241" data-name="Trazado 187241" d="M38.106,65.36v64.9c0,.608.926,1.1,2.07,1.1s2.068-.492,2.068-1.1V65.36Z" transform="translate(14.094 24.174)" fill="#cdcdcd"/>
            <path id="Trazado_187242" data-name="Trazado 187242" d="M4.739,54.749v53.383c0,.607.926,1.1,2.07,1.1s2.068-.493,2.068-1.1V54.749Z" transform="translate(1.753 20.249)" fill="#cdcdcd"/>
            <path id="Trazado_187243" data-name="Trazado 187243" d="M80.583,51.458v51.015c0,.568.866,1.029,1.933,1.029s1.934-.46,1.934-1.029V51.458Z" transform="translate(29.804 19.032)" fill="#cdcdcd"/>
            <path id="Trazado_187244" data-name="Trazado 187244" d="M53.4,92.889,2.681,63.4,65.829,26.944,116.55,56.43Z" transform="translate(0.992 9.965)" fill="#ffb037"/>
            <path id="Trazado_187245" data-name="Trazado 187245" d="M4.739,57.026v3.658l47.9,27.848V84.873Z" transform="translate(1.753 21.091)" fill="#f28d16"/>
            <path id="Trazado_187246" data-name="Trazado 187246" d="M99.82,52.02,39.708,86.725v3.658L99.82,55.676Z" transform="translate(14.686 19.24)" fill="#e5790e"/>
            <path id="Trazado_187247" data-name="Trazado 187247" d="M2.681,53.558v3.656L53.4,86.7V83.046Z" transform="translate(0.992 19.809)" fill="#f99d23"/>
            <path id="Trazado_187248" data-name="Trazado 187248" d="M102.855,48.469v3.656L39.708,88.584V84.928Z" transform="translate(14.686 17.927)" fill="#f28d16"/>
            <path id="Trazado_187249" data-name="Trazado 187249" d="M9.94,51.146a4.614,4.614,0,0,0-1.83,1.61c-.156.279.178.69.473.473a14.845,14.845,0,0,0,1.677-1.67.264.264,0,0,0-.319-.412" transform="translate(2.985 18.904)" fill="#f28d16"/>
            <path id="Trazado_187250" data-name="Trazado 187250" d="M12.984,54.283a21.962,21.962,0,0,1-2.841-.66c-.352-.126-.6.447-.256.608a5.951,5.951,0,0,0,3.01.7c.345-.03.477-.564.088-.648" transform="translate(3.596 19.826)" fill="#f28d16"/>
            <path id="Trazado_187251" data-name="Trazado 187251" d="M10.513,56a3.314,3.314,0,0,1-1.722-2.211.318.318,0,0,0-.622.085,2.863,2.863,0,0,0,2.059,2.8A.372.372,0,0,0,10.513,56" transform="translate(3.02 19.812)" fill="#f28d16"/>
            <path id="Trazado_187252" data-name="Trazado 187252" d="M79.341,49.036a3.315,3.315,0,0,1-1.722-2.211A.318.318,0,0,0,77,46.91a2.862,2.862,0,0,0,2.059,2.8.372.372,0,0,0,.285-.677" transform="translate(28.477 17.235)" fill="#f28d16"/>
            <path id="Trazado_187253" data-name="Trazado 187253" d="M39.813,71.275a3.913,3.913,0,0,0-3.252-.719c-.319.079-.211.5.073.533a9.591,9.591,0,0,1,2.756.736c.325.138.768-.281.423-.549" transform="translate(13.45 26.059)" fill="#f28d16"/>
            <path id="Trazado_187254" data-name="Trazado 187254" d="M42.131,71.393A29.534,29.534,0,0,1,38.8,72.5a.308.308,0,0,0,.082.6,5.835,5.835,0,0,0,3.493-1.125c.262-.195.118-.736-.247-.585" transform="translate(14.271 26.396)" fill="#f28d16"/>
            <path id="Trazado_187255" data-name="Trazado 187255" d="M43.906,70.727a2.991,2.991,0,0,0-3.021-.744c-.421.105-.236.705.177.638a3.556,3.556,0,0,1,2.4.677.366.366,0,0,0,.441-.571" transform="translate(15.034 25.841)" fill="#f28d16"/>
            <path id="Trazado_187256" data-name="Trazado 187256" d="M75.9,44.679a4.533,4.533,0,0,0-3.562-.545.309.309,0,0,0,.082.6,8.3,8.3,0,0,1,3.19.626c.43.145.61-.452.289-.685" transform="translate(26.675 16.273)" fill="#f28d16"/>
            <path id="Trazado_187257" data-name="Trazado 187257" d="M77.242,44.993a8,8,0,0,1-.874.978,6.5,6.5,0,0,1-1.192.727c-.366.2-.107.725.273.645a3.224,3.224,0,0,0,2.271-2.073c.079-.262-.292-.5-.478-.278" transform="translate(27.739 16.608)" fill="#f28d16"/>
            <path id="Trazado_187258" data-name="Trazado 187258" d="M53.257,68.946l20.075-11.59c2.466-1.423,2.153-3.931-.693-5.575L60.048,44.51c-2.847-1.644-7.192-1.823-9.657-.4L30.315,55.7c-2.464,1.423-2.152,3.931.693,5.575L43.6,68.546c2.847,1.642,7.193,1.823,9.657.4" transform="translate(10.597 15.959)" fill="#f99d23"/>
            <path id="Trazado_187259" data-name="Trazado 187259" d="M71.432,51.382l-.758.86a5.732,5.732,0,0,0-1.042-.777l-11.326-6.54c-2.56-1.478-6.47-1.641-8.686-.36L31.561,54.991a3.483,3.483,0,0,0-.349.256l-.827-.941A4.7,4.7,0,0,0,30.2,57.9c.011.027.026.047.038.073a4.253,4.253,0,0,0,1.945,2.034l11.327,6.54c2.56,1.478,6.468,1.64,8.686.36L70.256,56.48a3.005,3.005,0,0,0,1.282-1.33,1.6,1.6,0,0,0,.107-.205,4.545,4.545,0,0,0-.214-3.563" transform="translate(11.065 16.163)" fill="#4f2556"/>
            <path id="Trazado_187260" data-name="Trazado 187260" d="M52.158,65.613,70.217,55.187c2.216-1.281,1.936-3.537-.625-5.015l-11.326-6.54c-2.56-1.478-6.47-1.64-8.686-.36L31.521,53.7c-2.218,1.281-1.937,3.537.623,5.015l11.327,6.54c2.56,1.478,6.468,1.64,8.686.36" transform="translate(11.105 15.685)" fill="#5d3066"/>
            <path id="Trazado_187261" data-name="Trazado 187261" d="M46.83,44.446l1.462-.844a.629.629,0,0,1,.56.023l.807.466c.166.1.184.241.04.325l-1.46.844a.632.632,0,0,1-.562-.023l-.807-.466c-.164-.1-.182-.242-.04-.325" transform="translate(17.285 16.106)" fill="#774a82"/>
            <path id="Trazado_187262" data-name="Trazado 187262" d="M42.644,47.316l4.377-2.526a.62.62,0,0,1,.56.023l.807.466c.166.095.184.241.041.323l-4.377,2.526a.623.623,0,0,1-.562-.023l-.807-.466c-.164-.095-.182-.241-.04-.323" transform="translate(15.737 16.545)" fill="#774a82"/>
            <path id="Trazado_187263" data-name="Trazado 187263" d="M40.587,48.05l1.46-.844a.632.632,0,0,1,.562.023l.807.466c.166.1.184.241.04.325L42,48.862a.627.627,0,0,1-.562-.022l-.807-.467c-.164-.095-.184-.241-.04-.323" transform="translate(14.976 17.439)" fill="#774a82"/>
            <path id="Trazado_187264" data-name="Trazado 187264" d="M49.978,46.263l1.46-.844a.627.627,0,0,1,.562.023l.807.466c.166.1.184.241.04.325l-1.46.842a.623.623,0,0,1-.562-.023l-.807-.466c-.164-.095-.184-.241-.04-.323" transform="translate(18.449 16.778)" fill="#774a82"/>
            <path id="Trazado_187265" data-name="Trazado 187265" d="M47.921,47.451l1.459-.844a.632.632,0,0,1,.562.023l.807.466c.166.1.184.241.04.325l-1.459.842a.626.626,0,0,1-.563-.023l-.805-.466c-.166-.095-.185-.241-.04-.323" transform="translate(17.688 17.217)" fill="#774a82"/>
            <path id="Trazado_187266" data-name="Trazado 187266" d="M45.792,48.68l1.46-.844a.632.632,0,0,1,.562.023l.807.466c.166.1.184.241.04.325l-1.46.842a.623.623,0,0,1-.562-.023L45.832,49c-.164-.095-.184-.241-.04-.323" transform="translate(16.901 17.672)" fill="#774a82"/>
            <path id="Trazado_187267" data-name="Trazado 187267" d="M43.735,49.868l1.46-.844a.632.632,0,0,1,.562.023l.807.466c.166.1.184.242.04.325l-1.46.844a.632.632,0,0,1-.562-.023l-.807-.467c-.164-.095-.184-.241-.04-.323" transform="translate(16.14 18.111)" fill="#774a82"/>
            <path id="Trazado_187268" data-name="Trazado 187268" d="M51.552,47.172l1.46-.844a.627.627,0,0,1,.562.023l.807.466c.166.1.184.241.04.325l-1.46.842a.623.623,0,0,1-.562-.023l-.807-.466c-.164-.095-.184-.241-.04-.323" transform="translate(19.031 17.114)" fill="#774a82"/>
            <path id="Trazado_187269" data-name="Trazado 187269" d="M49.5,48.36l1.46-.844a.632.632,0,0,1,.562.023l.807.466c.166.1.184.241.04.325l-1.46.844a.628.628,0,0,1-.562-.025l-.807-.466c-.164-.095-.184-.241-.04-.323" transform="translate(18.27 17.554)" fill="#774a82"/>
            <path id="Trazado_187270" data-name="Trazado 187270" d="M47.366,49.589l1.46-.844a.627.627,0,0,1,.562.023l.807.466c.166.1.184.241.04.325l-1.46.844a.632.632,0,0,1-.562-.023l-.807-.467c-.164-.095-.184-.241-.04-.323" transform="translate(17.483 18.008)" fill="#774a82"/>
            <path id="Trazado_187271" data-name="Trazado 187271" d="M45.309,50.776l1.46-.844a.632.632,0,0,1,.562.023l.807.466c.166.1.184.241.04.325l-1.46.844a.632.632,0,0,1-.562-.023l-.807-.466c-.164-.1-.184-.242-.04-.325" transform="translate(16.722 18.447)" fill="#774a82"/>
            <path id="Trazado_187272" data-name="Trazado 187272" d="M53.549,48.325l1.46-.844a.632.632,0,0,1,.562.023l.807.466c.166.1.184.241.04.325l-1.46.844a.632.632,0,0,1-.562-.023l-.807-.466c-.164-.1-.184-.242-.04-.325" transform="translate(19.77 17.541)" fill="#774a82"/>
            <path id="Trazado_187273" data-name="Trazado 187273" d="M51.491,49.513l1.46-.844a.627.627,0,0,1,.562.023l.807.466c.166.1.184.241.04.325l-1.46.842a.627.627,0,0,1-.562-.022l-.807-.467c-.164-.095-.182-.241-.04-.323" transform="translate(19.009 17.98)" fill="#774a82"/>
            <path id="Trazado_187274" data-name="Trazado 187274" d="M49.363,50.741l1.46-.844a.632.632,0,0,1,.562.023l.807.466c.166.1.184.241.04.325l-1.46.844a.628.628,0,0,1-.562-.025l-.807-.466c-.164-.095-.184-.241-.04-.323" transform="translate(18.222 18.434)" fill="#774a82"/>
            <path id="Trazado_187275" data-name="Trazado 187275" d="M47.3,51.929l1.46-.844a.627.627,0,0,1,.562.023l.807.466c.166.1.184.241.04.325l-1.46.842a.623.623,0,0,1-.562-.023l-.807-.466c-.164-.095-.182-.241-.04-.323" transform="translate(17.461 18.874)" fill="#774a82"/>
            <path id="Trazado_187276" data-name="Trazado 187276" d="M48.4,45.354l1.46-.844a.632.632,0,0,1,.562.023l.807.466c.166.1.184.241.04.325l-1.46.844a.632.632,0,0,1-.562-.023l-.807-.466c-.164-.1-.184-.242-.04-.325" transform="translate(17.867 16.442)" fill="#774a82"/>
            <path id="Trazado_187277" data-name="Trazado 187277" d="M46.346,46.542l1.46-.844a.632.632,0,0,1,.562.023l.807.466c.166.1.184.241.04.325l-1.46.842a.623.623,0,0,1-.562-.023l-.807-.466c-.164-.095-.184-.241-.04-.323" transform="translate(17.106 16.881)" fill="#774a82"/>
            <path id="Trazado_187278" data-name="Trazado 187278" d="M44.218,47.771l1.46-.844a.632.632,0,0,1,.562.023l.807.466c.166.1.184.241.04.325l-1.46.842a.623.623,0,0,1-.562-.023l-.807-.466c-.164-.095-.184-.241-.04-.323" transform="translate(16.319 17.336)" fill="#774a82"/>
            <path id="Trazado_187279" data-name="Trazado 187279" d="M42.161,48.959l1.46-.844a.632.632,0,0,1,.562.023l.807.466c.166.1.184.241.04.325l-1.46.844a.632.632,0,0,1-.562-.023l-.807-.467c-.164-.095-.184-.241-.04-.323" transform="translate(15.558 17.775)" fill="#774a82"/>
            <path id="Trazado_187280" data-name="Trazado 187280" d="M38.5,49.256l1.46-.844a.632.632,0,0,1,.562.023l.807.466c.166.1.184.241.04.325l-1.46.842a.623.623,0,0,1-.562-.023l-.807-.466c-.164-.095-.184-.241-.04-.323" transform="translate(14.203 17.885)" fill="#774a82"/>
            <path id="Trazado_187281" data-name="Trazado 187281" d="M41.646,51.074l1.462-.844a.625.625,0,0,1,.56.023l2.963,1.711c.166.1.184.241.041.325l-1.462.842a.623.623,0,0,1-.562-.023L41.686,51.4c-.164-.095-.182-.241-.04-.323" transform="translate(15.368 18.557)" fill="#774a82"/>
            <path id="Trazado_187282" data-name="Trazado 187282" d="M45.217,53.135l1.46-.844a.632.632,0,0,1,.562.023l.807.466c.166.1.184.241.04.325l-1.46.844a.628.628,0,0,1-.562-.025l-.807-.466c-.164-.095-.184-.241-.04-.323" transform="translate(16.688 19.32)" fill="#774a82"/>
            <path id="Trazado_187283" data-name="Trazado 187283" d="M55.266,49.284l1.462-.844a.625.625,0,0,1,.56.023l.807.466c.166.1.184.241.04.325l-1.46.844a.632.632,0,0,1-.562-.023l-.807-.467c-.164-.095-.182-.241-.04-.323" transform="translate(20.405 17.895)" fill="#774a82"/>
            <path id="Trazado_187284" data-name="Trazado 187284" d="M53.209,50.472l1.46-.844a.632.632,0,0,1,.562.023l.807.466c.166.1.184.241.04.325l-1.46.844a.632.632,0,0,1-.562-.023l-.807-.466c-.164-.1-.184-.242-.04-.325" transform="translate(19.644 18.335)" fill="#774a82"/>
            <path id="Trazado_187285" data-name="Trazado 187285" d="M51.081,51.7l1.459-.844a.632.632,0,0,1,.562.023l.807.466c.166.1.184.241.04.325l-1.459.844a.635.635,0,0,1-.563-.023l-.807-.466c-.164-.1-.184-.242-.038-.325" transform="translate(18.857 18.789)" fill="#774a82"/>
            <path id="Trazado_187286" data-name="Trazado 187286" d="M49.023,52.889l1.46-.844a.632.632,0,0,1,.562.023l.807.466c.166.1.184.241.04.325l-1.46.842a.627.627,0,0,1-.562-.022l-.807-.467c-.164-.095-.184-.241-.04-.323" transform="translate(18.096 19.229)" fill="#774a82"/>
            <path id="Trazado_187287" data-name="Trazado 187287" d="M46.934,54.095l1.46-.844a.632.632,0,0,1,.562.023l.807.466c.166.1.184.241.04.325l-1.46.844a.632.632,0,0,1-.562-.023l-.807-.466c-.164-.1-.184-.242-.04-.325" transform="translate(17.323 19.675)" fill="#774a82"/>
            <path id="Trazado_187288" data-name="Trazado 187288" d="M40.072,50.165l1.46-.844a.627.627,0,0,1,.562.023l.807.466c.166.1.184.241.04.325l-1.46.844a.628.628,0,0,1-.562-.025l-.807-.466c-.164-.095-.184-.241-.04-.323" transform="translate(14.785 18.221)" fill="#774a82"/>
            <path id="Trazado_187289" data-name="Trazado 187289" d="M36.441,50.444,37.9,49.6a.632.632,0,0,1,.562.023l.807.466c.166.1.184.241.04.325l-1.459.844a.635.635,0,0,1-.563-.023l-.805-.467c-.166-.095-.185-.241-.04-.323" transform="translate(13.442 18.324)" fill="#774a82"/>
            <path id="Trazado_187290" data-name="Trazado 187290" d="M32.921,50.746l1.46-.844a.632.632,0,0,1,.562.023l.807.466c.166.1.184.241.04.325l-1.46.844a.632.632,0,0,1-.562-.023l-.807-.467c-.164-.095-.184-.241-.04-.323" transform="translate(12.14 18.436)" fill="#774a82"/>
            <path id="Trazado_187291" data-name="Trazado 187291" d="M43.278,44.709l1.46-.844a.627.627,0,0,1,.562.023l.807.466c.166.1.184.241.04.325l-1.46.842a.627.627,0,0,1-.562-.022l-.807-.467c-.164-.095-.184-.241-.04-.323" transform="translate(15.971 16.203)" fill="#774a82"/>
            <path id="Trazado_187292" data-name="Trazado 187292" d="M32.255,53.315l4.377-2.526a.62.62,0,0,1,.56.023l.807.466c.166.095.184.241.04.323l-4.375,2.526A.623.623,0,0,1,33.1,54.1l-.807-.466c-.164-.095-.184-.241-.04-.323" transform="translate(11.894 18.764)" fill="#774a82"/>
            <path id="Trazado_187293" data-name="Trazado 187293" d="M39.589,52.261l1.46-.844a.632.632,0,0,1,.562.023l.807.466c.166.1.184.241.04.325L41,53.074a.632.632,0,0,1-.562-.023l-.807-.466c-.164-.1-.184-.242-.04-.325" transform="translate(14.607 18.997)" fill="#774a82"/>
            <path id="Trazado_187294" data-name="Trazado 187294" d="M37.531,53.449l1.46-.844a.627.627,0,0,1,.562.023l.807.466c.166.1.184.241.04.325l-1.46.844a.632.632,0,0,1-.562-.023l-.807-.467c-.164-.095-.184-.241-.04-.323" transform="translate(13.845 19.436)" fill="#774a82"/>
            <path id="Trazado_187295" data-name="Trazado 187295" d="M35.4,54.678l1.46-.844a.632.632,0,0,1,.562.023l.807.466c.166.1.184.241.04.325l-1.46.842a.623.623,0,0,1-.562-.023L35.443,55c-.164-.095-.184-.241-.04-.323" transform="translate(13.058 19.89)" fill="#774a82"/>
            <path id="Trazado_187296" data-name="Trazado 187296" d="M41.163,53.17l1.46-.844a.632.632,0,0,1,.562.023l.807.466c.166.1.184.241.04.325l-1.46.844a.632.632,0,0,1-.562-.023l-.807-.466c-.164-.1-.184-.242-.04-.325" transform="translate(15.189 19.333)" fill="#774a82"/>
            <path id="Trazado_187297" data-name="Trazado 187297" d="M39.105,54.358l1.46-.844a.632.632,0,0,1,.562.023l.807.466c.166.1.184.241.04.325l-1.46.842a.627.627,0,0,1-.562-.022l-.807-.467c-.164-.095-.184-.241-.04-.323" transform="translate(14.428 19.772)" fill="#774a82"/>
            <path id="Trazado_187298" data-name="Trazado 187298" d="M36.977,55.587l1.46-.844a.632.632,0,0,1,.562.023l.807.466c.166.1.184.241.04.325l-1.46.842a.623.623,0,0,1-.562-.023l-.807-.466c-.164-.095-.184-.241-.04-.323" transform="translate(13.64 20.227)" fill="#774a82"/>
            <path id="Trazado_187299" data-name="Trazado 187299" d="M43.159,54.323l1.46-.844a.627.627,0,0,1,.562.023l.807.466c.166.1.184.241.04.325l-1.46.842a.623.623,0,0,1-.562-.023l-.807-.466c-.164-.095-.184-.241-.04-.323" transform="translate(15.927 19.759)" fill="#774a82"/>
            <path id="Trazado_187300" data-name="Trazado 187300" d="M41.1,55.511l1.46-.844a.632.632,0,0,1,.562.023l.807.466c.166.1.184.241.04.325l-1.46.844a.628.628,0,0,1-.562-.025l-.807-.466c-.164-.095-.184-.241-.04-.323" transform="translate(15.166 20.199)" fill="#774a82"/>
            <path id="Trazado_187301" data-name="Trazado 187301" d="M38.973,56.74l1.46-.844a.627.627,0,0,1,.562.023l.807.466c.166.1.184.241.04.325l-1.46.844a.632.632,0,0,1-.562-.023l-.807-.467c-.164-.095-.184-.241-.04-.323" transform="translate(14.379 20.653)" fill="#774a82"/>
            <path id="Trazado_187302" data-name="Trazado 187302" d="M44.877,55.283l1.46-.844a.632.632,0,0,1,.562.023l.807.466c.166.1.184.241.04.325l-1.46.842a.623.623,0,0,1-.562-.023l-.807-.466c-.164-.095-.184-.241-.04-.323" transform="translate(16.562 20.114)" fill="#774a82"/>
            <path id="Trazado_187303" data-name="Trazado 187303" d="M42.819,56.471l1.462-.844a.629.629,0,0,1,.56.023l.807.466c.166.1.184.241.04.325l-1.46.844a.632.632,0,0,1-.562-.023l-.807-.466c-.164-.1-.182-.242-.04-.325" transform="translate(15.801 20.554)" fill="#774a82"/>
            <path id="Trazado_187304" data-name="Trazado 187304" d="M40.691,57.7l1.46-.844a.632.632,0,0,1,.562.023l.807.466c.166.1.184.241.04.325l-1.46.844a.632.632,0,0,1-.562-.023l-.807-.467c-.164-.095-.184-.241-.04-.323" transform="translate(15.014 21.008)" fill="#774a82"/>
            <path id="Trazado_187305" data-name="Trazado 187305" d="M38.015,51.353l1.46-.844a.632.632,0,0,1,.562.023l.807.466c.166.1.184.241.04.325l-1.46.844a.632.632,0,0,1-.562-.023l-.807-.467c-.164-.095-.184-.241-.04-.323" transform="translate(14.024 18.661)" fill="#774a82"/>
            <path id="Trazado_187306" data-name="Trazado 187306" d="M35.957,52.541l1.46-.844a.627.627,0,0,1,.562.023l.807.466c.166.1.184.241.04.325l-1.46.844a.628.628,0,0,1-.562-.025L36,52.864c-.164-.095-.184-.241-.04-.323" transform="translate(13.263 19.1)" fill="#774a82"/>
            <path id="Trazado_187307" data-name="Trazado 187307" d="M33.829,53.769l1.46-.844a.632.632,0,0,1,.562.023l.807.466c.166.1.184.242.04.325l-1.46.844a.632.632,0,0,1-.562-.023l-.807-.466c-.164-.1-.184-.242-.04-.325" transform="translate(12.476 19.554)" fill="#774a82"/>
            <path id="Trazado_187308" data-name="Trazado 187308" d="M56.981,50.2l1.46-.844a.632.632,0,0,1,.562.023l.807.466c.166.1.184.241.04.325l-1.46.844a.632.632,0,0,1-.562-.023l-.807-.466c-.164-.1-.184-.242-.04-.325" transform="translate(21.039 18.236)" fill="#774a82"/>
            <path id="Trazado_187309" data-name="Trazado 187309" d="M52.8,53.074l4.377-2.526a.62.62,0,0,1,.56.023l.805.466c.166.095.185.241.042.323L54.2,53.887a.626.626,0,0,1-.563-.023l-.805-.466c-.166-.095-.185-.241-.04-.323" transform="translate(19.491 18.675)" fill="#774a82"/>
            <path id="Trazado_187310" data-name="Trazado 187310" d="M50.738,53.808l1.46-.844a.632.632,0,0,1,.562.023l.807.466c.166.1.184.241.04.325l-1.46.844a.632.632,0,0,1-.562-.023l-.807-.466c-.164-.1-.184-.242-.04-.325" transform="translate(18.73 19.569)" fill="#774a82"/>
            <path id="Trazado_187311" data-name="Trazado 187311" d="M48.649,55.014l1.46-.844a.632.632,0,0,1,.562.023l.807.466c.166.1.184.241.04.325l-1.46.842A.623.623,0,0,1,49.5,55.8l-.807-.466c-.164-.095-.184-.241-.04-.323" transform="translate(17.957 20.015)" fill="#774a82"/>
            <path id="Trazado_187312" data-name="Trazado 187312" d="M46.592,56.2l1.46-.844a.632.632,0,0,1,.562.023l.807.466c.166.1.184.241.04.325L48,57.015a.632.632,0,0,1-.562-.023l-.807-.467c-.164-.095-.184-.241-.04-.323" transform="translate(17.197 20.454)" fill="#774a82"/>
            <path id="Trazado_187313" data-name="Trazado 187313" d="M42.406,59.073l4.377-2.526a.62.62,0,0,1,.56.023l.807.466c.166.095.184.241.041.323l-4.377,2.526a.623.623,0,0,1-.562-.023l-.807-.466c-.164-.095-.184-.241-.04-.323" transform="translate(15.648 20.894)" fill="#774a82"/>
            <path id="Trazado_187314" data-name="Trazado 187314" d="M53.51,24.757a3.657,3.657,0,0,0-2.881-1.764,5.15,5.15,0,0,0-2.416.547L31.7,33.074c-2.681,1.548-4.862,5.715-4.862,9.289V56.474a5.345,5.345,0,0,0,.805,3.064,4.92,4.92,0,0,0,2.567,1.749c1.166.352,1.6-.632,1.763-1.3l16.24-9.377c2.681-1.548,4.862-5.715,4.862-9.29V27.215c0-.211-.032-.392-.047-.588a1.262,1.262,0,0,0,.482-1.87" transform="translate(9.926 8.504)" fill="#3f1c47"/>
            <path id="Trazado_187315" data-name="Trazado 187315" d="M32.632,60.667c-2.681,1.548-4.862-.1-4.862-3.675V42.881c0-3.574,2.181-7.741,4.862-9.289l16.514-9.534c2.681-1.548,4.862.1,4.862,3.675V41.844c0,3.574-2.181,7.741-4.862,9.289Z" transform="translate(10.271 8.683)" fill="#4f2556"/>
            <path id="Trazado_187316" data-name="Trazado 187316" d="M48.851,49.252,32.338,58.786c-2.075,1.2-3.773-.085-3.773-2.852V41.825c0-2.767,1.7-6.011,3.773-7.208l16.514-9.534c2.075-1.2,3.773.085,3.773,2.852v14.11c0,2.767-1.7,6.01-3.773,7.208" transform="translate(10.565 9.111)" fill="#774a82"/>
            <path id="Trazado_187317" data-name="Trazado 187317" d="M48.818,41.759,31.084,52V38.323L48.818,28.085Z" transform="translate(11.497 10.387)" fill="#fad000"/>
            <path id="Trazado_187318" data-name="Trazado 187318" d="M49.54,42.127,31.806,52.367V38.691L49.54,28.453Z" transform="translate(11.764 10.524)" fill="#fad000"/>
            <path id="Trazado_187319" data-name="Trazado 187319" d="M40.673,40.41l-8.867-1.718L49.54,28.452Z" transform="translate(11.764 10.523)" fill="#ffdc48"/>
            <path id="Trazado_187320" data-name="Trazado 187320" d="M31.806,36.819l7.3,1.395-7.3,9.874V49.6l8.867-11.957-8.867-1.718Z" transform="translate(11.764 13.288)" fill="#ffb037"/>
            <path id="Trazado_187321" data-name="Trazado 187321" d="M47.146,29.751,39.69,39.791l7.456,1.478v.859L38.279,40.41l8.867-11.957Z" transform="translate(14.158 10.523)" fill="#ffb037"/>
            <path id="Trazado_187322" data-name="Trazado 187322" d="M31.084,35.559l.989.5V49.739l-.989-.5Z" transform="translate(11.497 13.152)" fill="#f99d23"/>
            <path id="Trazado_187323" data-name="Trazado 187323" d="M49.808,28.589c-.279.047-.989-.5-.989-.5L31.083,38.323l.99.505Z" transform="translate(11.496 10.387)" fill="#ffb037"/>
            <path id="Trazado_187324" data-name="Trazado 187324" d="M75.779,92.349a26.042,26.042,0,0,0,1.934,4.158c1.164,1.97-.19,3.048-1.668,3.958s-3.953.189-7.8-1.858-5.529-4.075-5.664-5.395,1.8-3.234,5.119-2.2a45.008,45.008,0,0,1,5.005,1.822Z" transform="translate(23.144 33.553)" fill="#f95555"/>
            <path id="Trazado_187325" data-name="Trazado 187325" d="M69.449,91.749a10.467,10.467,0,0,0-2.875,2.121c-.948,1.2-1.986.216-1.3-1a4.6,4.6,0,0,1,2.444-1.719,5.029,5.029,0,0,1,1.736.6" transform="translate(24.059 33.714)" fill="#301333"/>
            <path id="Trazado_187326" data-name="Trazado 187326" d="M79.324,69.665s-10.473-2.882-14.6-1.279c-2.427-1.137-3.432,1.279-2.438,2.367-.344,1.144-.389,5.273,1.941,9.248,2.44,4.162,5.288,20.045,6.008,21.382.878,1.631,4.968,2.478,6.119.253.575-4.186,1.448-12.279.6-17.707a10.811,10.811,0,0,0-2.841-5.482Z" transform="translate(22.895 25.114)" fill="#473b93"/>
            <path id="Trazado_187327" data-name="Trazado 187327" d="M68.747,84.484H66.276c-.486,4.285-1.4,17.8-1.555,22.17-.081,2.238-.156,6.771,2.005,7.481,2.908.955,2.962-3.819,2.884-6.14-.164-4.867-.552-18.649-.863-23.511" transform="translate(23.926 31.247)" fill="#bbd9f9"/>
            <path id="Trazado_187328" data-name="Trazado 187328" d="M88.236,84.484H85.765c-.486,4.285-1.4,17.8-1.555,22.17-.081,2.238-.156,6.771,2.005,7.481,2.908.955,2.962-3.819,2.884-6.14-.164-4.867-.552-18.649-.863-23.511" transform="translate(31.135 31.247)" fill="#bbd9f9"/>
            <path id="Trazado_187329" data-name="Trazado 187329" d="M78.549,90.1H76.078c-.486,4.285-1.4,17.8-1.555,22.17-.081,2.238-.156,6.773,2.005,7.481,2.908.955,2.962-3.819,2.884-6.14-.164-4.867-.552-18.649-.863-23.511" transform="translate(27.552 33.324)" fill="#bbd9f9"/>
            <path id="Trazado_187330" data-name="Trazado 187330" d="M97.053,88.485l0-3.493L95.594,85c-2.549-2.973-8.173-5.042-14.716-5.042-6.7,0-12.453,2.167-14.911,5.256l-1.273.01v3.342c0,4.753,7.245,8.608,16.184,8.608s16.183-3.855,16.183-8.608c0-.029-.008-.055-.008-.084" transform="translate(23.928 29.574)" fill="#a1c5e5"/>
            <path id="Trazado_187331" data-name="Trazado 187331" d="M96.894,85.079l.015-.008s-.511-4.564-6.844-7.581c-1.436-.682-2.214-.186-2.588.908a29.251,29.251,0,0,0-13.222.007c-.373-1.1-1.151-1.6-2.589-.915-6.333,3.016-6.775,7.423-6.775,7.423l.016.008a4.736,4.736,0,0,0-.212,1.332c0,4.755,7.245,8.608,16.184,8.608s16.183-3.853,16.183-8.608a4.727,4.727,0,0,0-.168-1.174" transform="translate(23.928 28.545)" fill="#e01650"/>
            <path id="Trazado_187332" data-name="Trazado 187332" d="M80.236,76.031c-7.626,0-13.807,3.288-13.807,7.345S72.61,90.72,80.236,90.72s13.808-3.289,13.808-7.344-6.182-7.345-13.808-7.345" transform="translate(24.569 28.121)" fill="#ef4335"/>
            <path id="Trazado_187333" data-name="Trazado 187333" d="M65.558,97.541a27.839,27.839,0,0,0,2.07,4.449c1.247,2.11-.2,3.263-1.785,4.237s-4.233.2-8.347-1.989-5.918-4.362-6.063-5.773S53.359,95,56.912,96.114a48.472,48.472,0,0,1,5.358,1.948Z" transform="translate(19.02 35.431)" fill="#f95555"/>
            <path id="Trazado_187334" data-name="Trazado 187334" d="M58.782,96.9a11.177,11.177,0,0,0-3.077,2.27c-1.015,1.284-2.127.232-1.4-1.067a4.932,4.932,0,0,1,2.615-1.841,5.367,5.367,0,0,1,1.858.638" transform="translate(20 35.603)" fill="#301333"/>
            <path id="Trazado_187335" data-name="Trazado 187335" d="M98.286,71.09c-.018-.038-17.344,1.677-20.792,2.27-4.355-1.6-16.211-1.1-21.238,2.974-3-1.311-4.115,2.238-3.122,3.059-.907,1.673-.236,4.075.959,8.879.841,3.379,4.619,15.336,5.627,18.931,1.747,1.029,3.416,1.03,5.581.064.984-2.621,1.316-13.757-.442-17.782a19.183,19.183,0,0,0-2.185-3.907c4.277.951,12.4,1.615,15.127.764,8.4,4.477,14.531,1.77,18.016-1.14,2.8-2.337,4.647-9.414,2.468-14.114" transform="translate(19.497 26.293)" fill="#5442a0"/>
            <path id="Trazado_187336" data-name="Trazado 187336" d="M60.052,48.76s-3.763-2.9-8.037-1.814a3.985,3.985,0,0,0-3.078,2.395c-.482.931.578,1.395,2.093,1.2s3.023-.452,3.281,0-1.186.352-1.978.855-.89,1.247,1.405,1.011c.933-.1,4.182.895,5.359-.244s.955-3.4.955-3.4" transform="translate(18.056 17.274)" fill="#ffc9b6"/>
            <path id="Trazado_187337" data-name="Trazado 187337" d="M69.7,44.91s-3.663,2.9-5.153,3.853-5.829-1.667-8.451-.473a3.085,3.085,0,0,0-.8,5.34c1.644,1.185,7.584,2.736,10.96,3s10.511-1.858,10.511-1.858-1.9-10.485-7.07-9.863" transform="translate(20.004 16.601)" fill="#5442a0"/>
            <path id="Trazado_187338" data-name="Trazado 187338" d="M70.643,44.357s5.356-4.911,9.64-.638,4.526,9.37,2.105,12.631S70.643,44.357,70.643,44.357" transform="translate(26.128 15.524)" fill="#5442a0"/>
            <path id="Trazado_187339" data-name="Trazado 187339" d="M66.313,51.539l4.268,3.5c2.3-.819,4.055-3.538,5.042-6.142-.842-.675-3.829-2.382-4.038-3.285.888-2.484-.456-4.574-2.76-6.8-2.415-2.337-6.771-2.314-9.386-.251a4.113,4.113,0,0,0-2.07,3.921c.292,2.642,1.8,8.989,4.045,10.131,1.564.8,3.39-.5,4.9-1.071" transform="translate(21.21 13.697)" fill="#ffc9b6"/>
            <path id="Trazado_187340" data-name="Trazado 187340" d="M73.339,39.815A5.822,5.822,0,0,0,69.856,35c-2.436-1.116-6.782-1.275-8.744.921a1.486,1.486,0,0,0-.1-.211A1.6,1.6,0,0,0,58.7,35.6a4.029,4.029,0,0,0-1.259,1.738,1.9,1.9,0,0,0-1.295.022c-1.416.586-1.362,2.593-.863,3.763,1.037,2.43,4.873,5.086,7.7,4.423-.141,1.415.549,2.182,1.682,3.108a5.925,5.925,0,0,0,6.322.532c2.27-1.125,4.334-3.725,4.173-6.371a3.775,3.775,0,0,0-1.818-3" transform="translate(20.328 12.651)" fill="#301333"/>
            <path id="Trazado_187341" data-name="Trazado 187341" d="M60.085,43.206a1.25,1.25,0,0,1,2.073-.619c1.56,1.037-.305,4.123-.305,4.123Z" transform="translate(22.223 15.625)" fill="#ffc9b6"/>
            <path id="Trazado_187342" data-name="Trazado 187342" d="M77.726,44.258c-2.616,1.132-3.9,3.56-9.342,7.747s-6.586,5.885-6.09,8.479.871,3.925,2.989,8.981c.873,2.085,2.392,3.414,3.281,4.863a34.347,34.347,0,0,1,2.825,5.748s-2.277.642-.379,2.833a17.074,17.074,0,0,0,11.685,5.923c3.533.2,9.484-2.459,12.484-5.463.974-1.222,1.036-1.615-.393-2.258C96.018,77.525,92.578,72.4,91.7,69c-1.2-4.612-2.507-12.053-3.137-14.851-2.13-9.448-8.537-10.886-10.833-9.893" transform="translate(23.001 16.27)" fill="#7362bc"/>
            <path id="Trazado_187343" data-name="Trazado 187343" d="M69.4,70.97a34.868,34.868,0,0,0,6.518,2.673,53.692,53.692,0,0,0,5.757,1.151c-.87,0-5.733.484-7.733-.714S69.4,70.97,69.4,70.97" transform="translate(25.669 26.249)" fill="#644dad"/>
            <path id="Trazado_187344" data-name="Trazado 187344" d="M79.55,69.891a6.525,6.525,0,0,1-4.486,1.227c-2.684-.26-4.378-.586-4.378-.586a15.477,15.477,0,0,1,4.378-.641,34.075,34.075,0,0,0,4.486,0" transform="translate(26.144 25.84)" fill="#644dad"/>
            <path id="Trazado_187345" data-name="Trazado 187345" d="M64.936,56.349s-1.526-5.253.371-9.271a22.629,22.629,0,0,1,6.366-8.1c2.26-1.941,7.866,1.274,9.038,3.107,1.9,2.966,2.586,7.107,2.941,9.785.164,1.24.778,3.06-2.941,3.242a24.013,24.013,0,0,1-9.444-1.756,17.666,17.666,0,0,1-6.331,3" transform="translate(23.802 14.193)" fill="#644dad"/>
            <path id="Trazado_187346" data-name="Trazado 187346" d="M51.372,58.618s-.663-3.377-.785-5.251-.856-2.234-1.448-1.108-.063,2.427-.547,2.552-2.136-3.771-4.485-3.631-3.021,2.634-1.938,5.236,5.268,6.151,6.468,5.945,2.734-3.742,2.734-3.742" transform="translate(15.411 18.928)" fill="#ffc9b6"/>
            <path id="Trazado_187347" data-name="Trazado 187347" d="M76.44,61.02c-.449-2.595-.936-5.553-2.711-7.589-.971-1.115-3.156-1.485-4.545-1.281-3.611.527-4.727,2.722-6.136,5.988-1.893.527-5.59,2.386-6.885,4.833-1.853-2.222-4.218-5.7-6.821-6.647a3.732,3.732,0,0,0-4.593,2.348c-.526,2.052,1.4,4.834,2.5,6.341A22.885,22.885,0,0,0,54.943,71.8c1.979-.321,5.073-.422,7.429-.748a34.069,34.069,0,0,0,7.389-2.168c2.078,0,3.844.067,5.112-.477,2.212-.949,1.941-5.23,1.567-7.388" transform="translate(16.518 19.268)" fill="#644dad"/>
            <path id="Trazado_187348" data-name="Trazado 187348" d="M56.374,0,0,32.548v29.4L56.374,29.4Z" transform="translate(0 0)" fill="#bbd9f9"/>
            <path id="Trazado_187349" data-name="Trazado 187349" d="M23.288,11.828,4.012,22.957V57.381L23.288,46.252Z" transform="translate(1.484 4.375)" fill="#e01650"/>
            <path id="Trazado_187350" data-name="Trazado 187350" d="M16.957,37.952a43.8,43.8,0,0,1,0-5.241l-4.025,2.325-.416.24L8.491,37.6a43.617,43.617,0,0,1,0,5.24C8.285,44.012,5.78,48.26,5.78,48.26l6.736-3.889.416-.24,6.734-3.889s-2.5-1.355-2.71-2.29" transform="translate(2.138 12.098)" fill="#ffb9a4"/>
            <path id="Trazado_187351" data-name="Trazado 187351" d="M16.491,19.981c-1.681-.759-4.571,1.342-6.585,2.927a8.492,8.492,0,0,0-2.914,6.142,41.5,41.5,0,0,0,.279,9.742c.419,2.6,2.033,4.111,4.129,3.9,1.942-.193,3.54-2.47,4.719-5.163a22.172,22.172,0,0,0,1.693-4.767c.381-2.2.442-5.1.6-7.116.256-3.337-.21-4.9-1.919-5.667" transform="translate(2.528 7.331)" fill="#ffc9b6"/>
            <path id="Trazado_187352" data-name="Trazado 187352" d="M8.13,29.006v-.379c-.253.222-2.016.178-2.359,3.107S6.364,35.3,7.364,35.29s.766-6.284.766-6.284" transform="translate(2.108 10.588)" fill="#ffc9b6"/>
            <path id="Trazado_187353" data-name="Trazado 187353" d="M14.629,25.113v-.379c.253-.07,2.016-2.151,2.359.384a6.507,6.507,0,0,1-1.593,5.4c-1,1.147-.766-5.4-.766-5.4" transform="translate(5.402 8.826)" fill="#ffc9b6"/>
            <path id="Trazado_187354" data-name="Trazado 187354" d="M18.061,27.776c-1.067,1.43-2.553,3.611-2.747,5.475a1.846,1.846,0,0,0-2.448-1.06c-1.462.553-2.688,2.289-3.464,4.263a5.791,5.791,0,0,0-2.448-2.641c0,2.314-.162,6.516.579,8.448.641,1.667,3.36,1.8,4.736.982a14.866,14.866,0,0,0,4.737-6.2,50.379,50.379,0,0,0,1.055-9.266" transform="translate(2.566 10.273)" fill="#301333"/>
            <path id="Trazado_187355" data-name="Trazado 187355" d="M11.495,32.5A17.133,17.133,0,0,1,9.147,36.11c1.452.984,3.671-.525,4.245-2.336a3.4,3.4,0,0,1-1.9-1.271" transform="translate(3.383 12.021)" fill="#ffc9b6"/>
            <path id="Trazado_187356" data-name="Trazado 187356" d="M7.226,34.555s2.527-5.859,3.167-7.063,1.21-2.166,1.21-2.166,2.275.852,3.585,1.218,3.47.8,3.47.8,2.39-7.829-.789-9.786c-2.578-1.588-6.381,3.26-6.381,3.26S8.124,20.3,6.026,26.6c-.96,2.879,1.2,7.956,1.2,7.956" transform="translate(2.138 6.377)" fill="#301333"/>
            <path id="Trazado_187357" data-name="Trazado 187357" d="M2.882,19.273l1.549.929V54.627L2.882,53.7Z" transform="translate(1.066 7.128)" fill="#dd3128"/>
            <path id="Trazado_187358" data-name="Trazado 187358" d="M23.706,12.079l-1.549-.929L2.881,22.277l1.549.93Z" transform="translate(1.066 4.124)" fill="#fc544c"/>
            <path id="Trazado_187359" data-name="Trazado 187359" d="M51.4,10.817,25.638,25.693V23.739L51.4,8.864Z" transform="translate(9.483 3.278)" fill="#5d3066"/>
            <path id="Trazado_187360" data-name="Trazado 187360" d="M26,21.881l-1.341-.76V19.169L26,19.928Z" transform="translate(9.12 7.09)" fill="#4f2556"/>
            <path id="Trazado_187361" data-name="Trazado 187361" d="M51.765,9.07l-1.341-.76L24.659,23.185l1.341.76Z" transform="translate(9.12 3.073)" fill="#774a82"/>
            <path id="Trazado_187362" data-name="Trazado 187362" d="M51.4,13.867,25.638,28.742V26.789L51.4,11.914Z" transform="translate(9.483 4.406)" fill="#5d3066"/>
            <path id="Trazado_187363" data-name="Trazado 187363" d="M26,24.931l-1.341-.76V22.218l1.341.76Z" transform="translate(9.12 8.217)" fill="#4f2556"/>
            <path id="Trazado_187364" data-name="Trazado 187364" d="M51.765,12.119l-1.341-.76L24.659,26.234l1.341.76Z" transform="translate(9.12 4.201)" fill="#774a82"/>
            <path id="Trazado_187365" data-name="Trazado 187365" d="M51.4,16.875,25.638,31.75V29.8L51.4,14.921Z" transform="translate(9.483 5.519)" fill="#5d3066"/>
            <path id="Trazado_187366" data-name="Trazado 187366" d="M26,27.938l-1.341-.76V25.226L26,25.985Z" transform="translate(9.12 9.33)" fill="#4f2556"/>
            <path id="Trazado_187367" data-name="Trazado 187367" d="M51.765,15.127l-1.341-.76L24.659,29.242,26,30Z" transform="translate(9.12 5.314)" fill="#774a82"/>
            <path id="Trazado_187368" data-name="Trazado 187368" d="M53.033,4.83l-31.8,18.362v-1.76L53.033,3.07Z" transform="translate(7.852 1.136)" fill="#ef4335"/>
            <path id="Trazado_187369" data-name="Trazado 187369" d="M21.591,18.44l-1.341-.76V15.92l1.341.76Z" transform="translate(7.49 5.888)" fill="#dd3128"/>
            <path id="Trazado_187370" data-name="Trazado 187370" d="M53.4,3.275l-1.341-.76L20.25,20.878l1.341.759Z" transform="translate(7.49 0.93)" fill="#fc544c"/>
            <path id="Trazado_187371" data-name="Trazado 187371" d="M53.033,7.646l-31.8,18.362v-1.76l31.8-18.362Z" transform="translate(7.852 2.177)" fill="#ef4335"/>
            <path id="Trazado_187372" data-name="Trazado 187372" d="M21.591,21.255l-1.341-.76v-1.76l1.341.76Z" transform="translate(7.49 6.929)" fill="#dd3128"/>
            <path id="Trazado_187373" data-name="Trazado 187373" d="M53.4,6.091l-1.341-.76L20.25,23.693l1.341.759Z" transform="translate(7.49 1.971)" fill="#fc544c"/>
          </g>
        </g>
      </g>
    </g>
    <rect id="Rect치ngulo_40347" data-name="Rect치ngulo 40347" width="505" height="169" transform="translate(285 11888)" fill="none"/>
  </g>
</svg>
