<svg xmlns="http://www.w3.org/2000/svg" xmlns:xlink="http://www.w3.org/1999/xlink" width="1030" height="296" viewBox="0 0 1030 296">
  <defs>
    <clipPath id="clip-path">
      <rect id="Rectángulo_39245" data-name="Rectángulo 39245" width="186.794" height="40.708" transform="translate(0 0)" fill="none"/>
    </clipPath>
  </defs>
  <g id="Grupo_146861" data-name="Grupo 146861" transform="translate(-285 -11895)">
    <g id="Grupo_145315" data-name="Grupo 145315" transform="translate(0 -437)">
      <g id="Grupo_145295" data-name="Grupo 145295">
        <path id="Trazado_189908" data-name="Trazado 189908" d="M113.138,251.7a139.354,139.354,0,0,1,278.7,0H504.979C504.548,112.619,391.675,0,252.489,0S.43,112.619,0,251.7Z" transform="translate(548 12370.297)" fill="#8f52f5"/>
        <path id="Trazado_189909" data-name="Trazado 189909" d="M34.514,125.012A251.315,251.315,0,0,0,0,251.7H113.138a138.7,138.7,0,0,1,18.492-68.617Z" transform="translate(548 12370.297)" fill="#79f5ed"/>
        <path id="Trazado_189910" data-name="Trazado 189910" d="M334.167,13.513l-31.608,45.88-18.9,57.246a139.607,139.607,0,0,1,93.186,72.913l97.073-58.477A253.26,253.26,0,0,0,334.167,13.513" transform="translate(548 12370.297)" fill="#e01650"/>
        <path id="Trazado_189911" data-name="Trazado 189911" d="M391.841,251.7H504.98a251.3,251.3,0,0,0-35.166-127.787L371.88,180.6a138.692,138.692,0,0,1,19.961,71.1" transform="translate(548 12370.297)" fill="#afafaf"/>
        <path id="Trazado_189912" data-name="Trazado 189912" d="M252.49,0A251.517,251.517,0,0,0,147.2,22.953L193.27,126.321a139.667,139.667,0,0,1,112.381-2.674L350.395,19.686A251.7,251.7,0,0,0,252.49,0" transform="translate(548 12370.297)" fill="#500c75"/>
        <rect id="Rectángulo_39241" data-name="Rectángulo 39241" width="504.98" height="251.703" transform="translate(548 12370.297)" fill="none"/>
        <circle id="Elipse_5550" data-name="Elipse 5550" cx="41" cy="41" r="41" transform="translate(759 12332)" fill="#500c75"/>
        <circle id="Elipse_5552" data-name="Elipse 5552" cx="41" cy="41" r="41" transform="translate(921 12400)" fill="#e01650"/>
        <circle id="Elipse_5558" data-name="Elipse 5558" cx="41" cy="41" r="41" transform="translate(600 12400)" fill="#8f52f5"/>
        <circle id="Elipse_5554" data-name="Elipse 5554" cx="41" cy="41" r="41" transform="translate(990 12519)" fill="#afafaf"/>
        <circle id="Elipse_5556" data-name="Elipse 5556" cx="41" cy="41" r="41" transform="translate(529 12519)" fill="#79f5ed"/>
        <circle id="Elipse_5549" data-name="Elipse 5549" cx="33" cy="33" r="33" transform="translate(767 12340)" fill="#fff"/>
        <circle id="Elipse_5551" data-name="Elipse 5551" cx="33" cy="33" r="33" transform="translate(929 12408)" fill="#fff"/>
        <circle id="Elipse_5557" data-name="Elipse 5557" cx="33" cy="33" r="33" transform="translate(608 12408)" fill="#fff"/>
        <circle id="Elipse_5553" data-name="Elipse 5553" cx="33" cy="33" r="33" transform="translate(998 12527)" fill="#fff"/>
        <circle id="Elipse_5555" data-name="Elipse 5555" cx="33" cy="33" r="33" transform="translate(537 12527)" fill="#fff"/>
        <path id="Trazado_189913" data-name="Trazado 189913" d="M8560.365,922h270.376" transform="translate(-7620.741 11700)" fill="none" stroke="#707070" stroke-width="2"/>
        <path id="Trazado_189914" data-name="Trazado 189914" d="M8560.365,922h270.376" transform="translate(-8170.365 11700)" fill="none" stroke="#707070" stroke-width="2"/>
        <g id="candado_1_" data-name="candado (1)" transform="translate(554.5 12540)">
          <path id="Trazado_189915" data-name="Trazado 189915" d="M166.765,0l-1.578,2.549,1.578,2.475a6.191,6.191,0,0,1,6.184,6.184v7.685l2.409,2.523,2.615-2.523V11.208A11.221,11.221,0,0,0,166.765,0Zm0,0" transform="translate(-151.705)" fill="#b4d2d7"/>
          <path id="Trazado_189916" data-name="Trazado 189916" d="M43.023,11.209v7.685l2.405,2.523,2.619-2.523V11.209a6.191,6.191,0,0,1,6.184-6.184V0A11.221,11.221,0,0,0,43.023,11.209Zm0,0" transform="translate(-39.171 -0.001)" fill="#e1ebf0"/>
          <path id="Trazado_189917" data-name="Trazado 189917" d="M.5,239.664H15.06v21.469H.5Zm0,0" transform="translate(0 -220.771)" fill="#ffd422"/>
          <path id="Trazado_189918" data-name="Trazado 189918" d="M185.2,239.664h14.56v21.469H185.2Zm0,0" transform="translate(-170.143 -220.771)" fill="#ff9100"/>
          <path id="Trazado_189919" data-name="Trazado 189919" d="M170.2,382.551h2.365v4.609H170.2Zm0,0" transform="translate(-156.325 -352.394)" fill="#04303e"/>
          <path id="Trazado_189920" data-name="Trazado 189920" d="M170.29,314.169a3.528,3.528,0,0,0-3.524-3.524l-1.578,3.483,1.578,3.566a3.528,3.528,0,0,0,3.524-3.524Zm0,0" transform="translate(-151.705 -286.157)" fill="#04303e"/>
          <path id="Trazado_189921" data-name="Trazado 189921" d="M140.492,314.169a3.529,3.529,0,0,0,3.525,3.524v-7.049a3.529,3.529,0,0,0-3.525,3.524Zm0,0" transform="translate(-128.956 -286.157)" fill="#09607d"/>
        </g>
        <g id="computadora" transform="translate(619.699 12423.65)">
          <path id="Trazado_189922" data-name="Trazado 189922" d="M258.95,0h-21.3l-1.665,24.733,22.966-1.665Zm0,0" transform="translate(-216.349 0)" fill="#04303e"/>
          <path id="Trazado_189923" data-name="Trazado 189923" d="M0,0V23.067l21.3,1.665V0ZM0,0" fill="#09607d"/>
          <path id="Trazado_189924" data-name="Trazado 189924" d="M244.726,349.242v-5.307l-8.742-1.665,1.665,6.973Zm0,0" transform="translate(-216.349 -313.791)" fill="#87a0af"/>
          <path id="Trazado_189925" data-name="Trazado 189925" d="M170.953,349.242h7.076v-6.973l-7.076,1.665Zm0,0" transform="translate(-156.729 -313.791)" fill="#b4d2d7"/>
          <path id="Trazado_189926" data-name="Trazado 189926" d="M258.95,277.238h-21.3l-1.665,3.538,1.665,3.538h21.3Zm0,0" transform="translate(-216.349 -254.171)" fill="#b4d2d7"/>
          <path id="Trazado_189927" data-name="Trazado 189927" d="M0,277.238H21.3v7.076H0Zm0,0" transform="translate(0 -254.171)" fill="#e1ebf0"/>
          <path id="Trazado_189928" data-name="Trazado 189928" d="M257.882,413.566v-2.5H246.825l-.833,1.248.833,1.248Zm0,0" transform="translate(-225.524 -376.867)" fill="#b4d2d7"/>
          <path id="Trazado_189929" data-name="Trazado 189929" d="M123.113,411.07H134.17v2.5H123.113Zm0,0" transform="translate(-112.869 -376.867)" fill="#e1ebf0"/>
          <path id="Trazado_189930" data-name="Trazado 189930" d="M114.167,62.485a3.475,3.475,0,1,0-4.3,0,4.9,4.9,0,0,0-2.748,4.4v3.1h9.8v-3.1a4.9,4.9,0,0,0-2.748-4.4Zm0,0" transform="translate(-98.204 -51.603)" fill="#00ff94"/>
          <g id="Grupo_145292" data-name="Grupo 145292" transform="translate(23.799 5.273)">
            <path id="Trazado_189931" data-name="Trazado 189931" d="M286.023,190.949h13.056v2.5H286.023Zm0,0" transform="translate(-286.023 -180.335)" fill="#8f52f5"/>
            <path id="Trazado_189932" data-name="Trazado 189932" d="M286.023,127.164h13.056v2.5H286.023Zm0,0" transform="translate(-286.023 -121.857)" fill="#8f52f5"/>
            <path id="Trazado_189933" data-name="Trazado 189933" d="M286.023,63.383h13.056v2.5H286.023Zm0,0" transform="translate(-286.023 -63.383)" fill="#8f52f5"/>
          </g>
        </g>
        <g id="computadora-2" data-name="computadora" transform="translate(1011 12541.5)">
          <path id="Trazado_189922-2" data-name="Trazado 189922" d="M258.95,0h-21.3l-1.665,24.733,22.966-1.665Zm0,0" transform="translate(-216.349 0)" fill="#04303e"/>
          <path id="Trazado_189923-2" data-name="Trazado 189923" d="M0,0V23.067l21.3,1.665V0ZM0,0" fill="#09607d"/>
          <path id="Trazado_189924-2" data-name="Trazado 189924" d="M244.726,349.242v-5.307l-8.742-1.665,1.665,6.973Zm0,0" transform="translate(-216.349 -313.791)" fill="#87a0af"/>
          <path id="Trazado_189925-2" data-name="Trazado 189925" d="M170.953,349.242h7.076v-6.973l-7.076,1.665Zm0,0" transform="translate(-156.729 -313.791)" fill="#b4d2d7"/>
          <path id="Trazado_189926-2" data-name="Trazado 189926" d="M258.95,277.238h-21.3l-1.665,3.538,1.665,3.538h21.3Zm0,0" transform="translate(-216.349 -254.171)" fill="#b4d2d7"/>
          <path id="Trazado_189927-2" data-name="Trazado 189927" d="M0,277.238H21.3v7.076H0Zm0,0" transform="translate(0 -254.171)" fill="#e1ebf0"/>
          <path id="Trazado_189928-2" data-name="Trazado 189928" d="M257.882,413.566v-2.5H246.825l-.833,1.248.833,1.248Zm0,0" transform="translate(-225.524 -376.867)" fill="#b4d2d7"/>
          <path id="Trazado_189929-2" data-name="Trazado 189929" d="M123.113,411.07H134.17v2.5H123.113Zm0,0" transform="translate(-112.869 -376.867)" fill="#e1ebf0"/>
        </g>
        <g id="carpeta_1_" data-name="carpeta (1)" transform="translate(780 12356)">
          <path id="Trazado_189934" data-name="Trazado 189934" d="M257.119,0h-19.6l-1.533,9.672L257.119,8.14Zm0,0" transform="translate(-217.915)" fill="#bd914f"/>
          <path id="Trazado_189935" data-name="Trazado 189935" d="M31.895,0V8.14L49.054,9.673V0Zm0,0" transform="translate(-29.452)" fill="#edc472"/>
          <path id="Trazado_189936" data-name="Trazado 189936" d="M257.119,106.309h-19.6L235.984,119.7l1.533,13.388h19.6Zm0,0" transform="translate(-217.915 -98.169)" fill="#ff9100"/>
          <path id="Trazado_189937" data-name="Trazado 189937" d="M16.346,67.042l-1.628-3.256H0V93.818H19.6V67.042Zm0,0" transform="translate(0 -58.902)" fill="#f5d54f"/>
          <path id="Trazado_189938" data-name="Trazado 189938" d="M246.758,175.672l-.766,1.28.766,1.017a2.131,2.131,0,0,1,2.129,2.129v6.717h2.3V180.1A4.431,4.431,0,0,0,246.758,175.672Zm0,0" transform="translate(-227.157 -162.221)" fill="#87a0af"/>
          <path id="Trazado_189939" data-name="Trazado 189939" d="M198.2,180.1v6.717h2.3V180.1a2.131,2.131,0,0,1,2.129-2.129v-2.3A4.431,4.431,0,0,0,198.2,180.1Zm0,0" transform="translate(-183.023 -162.221)" fill="#b4d2d7"/>
          <path id="Trazado_189940" data-name="Trazado 189940" d="M243.236,271.156h-5.719l-1.533,3.975,1.533,3.72h5.719Zm0,0" transform="translate(-217.915 -250.394)" fill="#945e16"/>
          <path id="Trazado_189941" data-name="Trazado 189941" d="M181.3,271.156h5.719v7.695H181.3Zm0,0" transform="translate(-167.422 -250.394)" fill="#bba034"/>
        </g>
        <g id="disco-duro" transform="translate(943 12420)">
          <path id="Trazado_189942" data-name="Trazado 189942" d="M38.172,4.477C38.172,2,35.85,0,32.986,0H5.186C2.322,0,0,2,0,4.477v31.41c0,2.473,2.322,4.477,5.186,4.477h27.8c2.864,0,5.186-2,5.186-4.477Zm0,0" transform="translate(0)" fill="#96adb5"/>
          <path id="Trazado_189943" data-name="Trazado 189943" d="M228.086,4.477C228.086,2,225.764,0,222.9,0H209V40.364h13.9c2.864,0,5.186-2,5.186-4.477Zm0,0" transform="translate(-189.914)" fill="#455b69"/>
          <path id="Trazado_189944" data-name="Trazado 189944" d="M64.634,56.34A14.51,14.51,0,1,0,79.142,70.85,14.526,14.526,0,0,0,64.634,56.34Zm0,0" transform="translate(-45.548 -51.195)" fill="#f5f5f5"/>
          <path id="Trazado_189945" data-name="Trazado 189945" d="M209,56.339v29.02a14.51,14.51,0,0,0,0-29.02Zm0,0" transform="translate(-189.914 -51.194)" fill="#afc3c9"/>
          <path id="Trazado_189946" data-name="Trazado 189946" d="M60.629,291.744a1.371,1.371,0,0,0-1.641-.225l-12.115,6.82a1.37,1.37,0,0,0-.3,2.163l5.295,5.295a1.37,1.37,0,0,0,2.162-.3l6.819-12.114a1.37,1.37,0,0,0-.225-1.641Zm0,0" transform="translate(-41.959 -264.737)" fill="#79f5ed"/>
          <path id="Trazado_189947" data-name="Trazado 189947" d="M208.429,427H195.37a1.37,1.37,0,0,0,0,2.74h13.059a1.37,1.37,0,1,0,0-2.74Zm0,0" transform="translate(-176.284 -391.404)" fill="#455b69"/>
          <path id="Trazado_189948" data-name="Trazado 189948" d="M222.059,427H209v2.74h13.059a1.37,1.37,0,1,0,0-2.74Zm0,0" transform="translate(-189.914 -391.404)" fill="#262f36"/>
          <path id="Trazado_189949" data-name="Trazado 189949" d="M339.483,49.125a1.358,1.358,0,1,0,1.358,1.358A1.36,1.36,0,0,0,339.483,49.125Zm0,0" transform="translate(-307.247 -44.639)" fill="#96adb5"/>
          <path id="Trazado_189950" data-name="Trazado 189950" d="M169.685,171.961a3.951,3.951,0,1,0,3.951,3.951A3.956,3.956,0,0,0,169.685,171.961Zm0,0" transform="translate(-150.6 -156.257)" fill="#96adb5"/>
          <path id="Trazado_189951" data-name="Trazado 189951" d="M209,171.961v7.9a3.951,3.951,0,0,0,0-7.9Zm0,0" transform="translate(-189.914 -156.257)" fill="#455b69"/>
          <path id="Trazado_189952" data-name="Trazado 189952" d="M51.483,49.125a1.358,1.358,0,1,0,1.358,1.358A1.36,1.36,0,0,0,51.483,49.125Zm0,0" transform="translate(-45.548 -44.639)" fill="#f5f5f5"/>
        </g>
        <g id="proceso" transform="translate(1022.3 12543.2)">
          <path id="Trazado_189953" data-name="Trazado 189953" d="M44.744,14.1H44.2A8.077,8.077,0,0,0,39.855,6.94v.019a1.631,1.631,0,0,1-.568,1.235l-.4.341A6.216,6.216,0,0,1,42.338,14.1h-.545a.384.384,0,0,0-.293.634l1.475,1.715a.387.387,0,0,0,.586,0l1.476-1.715a.384.384,0,0,0-.293-.634Z" transform="translate(-26.131 -4.096)" fill="#79f5ed"/>
          <path id="Trazado_189954" data-name="Trazado 189954" d="M8.194,6.841l.344.4A6.207,6.207,0,0,1,14.1,3.794v.545a.384.384,0,0,0,.634.293l1.715-1.475a.387.387,0,0,0,0-.586L14.73,1.094a.384.384,0,0,0-.634.293v.545A8.077,8.077,0,0,0,6.94,6.276h.019a1.628,1.628,0,0,1,1.235.565Z" transform="translate(-4.096)" fill="#79f5ed"/>
          <path id="Trazado_189955" data-name="Trazado 189955" d="M30.385,39.287l-.341-.4a6.216,6.216,0,0,1-5.561,3.448v-.545a.384.384,0,0,0-.634-.293l-1.715,1.475a.387.387,0,0,0,0,.586l1.715,1.476a.384.384,0,0,0,.634-.293V44.2a8.077,8.077,0,0,0,7.156-4.345H31.62A1.631,1.631,0,0,1,30.385,39.287Z" transform="translate(-14.482 -26.131)" fill="#79f5ed"/>
          <path id="Trazado_189956" data-name="Trazado 189956" d="M3.794,24.482h.545a.384.384,0,0,0,.293-.634L3.156,22.134a.387.387,0,0,0-.586,0L1.094,23.848a.384.384,0,0,0,.293.634h.545a8.077,8.077,0,0,0,4.345,7.156V31.62a1.616,1.616,0,0,1,.565-1.232l.4-.344a6.216,6.216,0,0,1-3.448-5.561Z" transform="translate(0 -14.482)" fill="#79f5ed"/>
        </g>
        <g id="Grupo_145294" data-name="Grupo 145294" transform="translate(707 12559)">
          <g id="Grupo_145293" data-name="Grupo 145293" clip-path="url(#clip-path)">
            <path id="Trazado_189964" data-name="Trazado 189964" d="M9.809.7V9.132a4.315,4.315,0,0,1-1.314,3.322,5.068,5.068,0,0,1-3.59,1.222,5.124,5.124,0,0,1-3.56-1.187A4.243,4.243,0,0,1,0,9.228V.7H2.637V9.149a2.44,2.44,0,0,0,.6,1.833,2.312,2.312,0,0,0,1.666.575q2.223,0,2.258-2.337V.7Z" fill="#500c75"/>
            <path id="Trazado_189965" data-name="Trazado 189965" d="M16.954,10.872a.817.817,0,0,0-.461-.733,5.252,5.252,0,0,0-1.481-.48q-3.393-.711-3.393-2.883a2.615,2.615,0,0,1,1.05-2.114,4.247,4.247,0,0,1,2.747-.848,4.563,4.563,0,0,1,2.9.853A2.685,2.685,0,0,1,19.4,6.882h-2.54a1.234,1.234,0,0,0-.351-.9,1.5,1.5,0,0,0-1.1-.355,1.521,1.521,0,0,0-.993.29.916.916,0,0,0-.352.738.783.783,0,0,0,.4.681,4.094,4.094,0,0,0,1.349.449,11.066,11.066,0,0,1,1.6.426,2.628,2.628,0,0,1,2.013,2.558,2.478,2.478,0,0,1-1.116,2.1,4.813,4.813,0,0,1-2.883.8A5.048,5.048,0,0,1,13.3,13.25a3.55,3.55,0,0,1-1.454-1.17,2.71,2.71,0,0,1-.528-1.6h2.408a1.331,1.331,0,0,0,.5,1.038,1.99,1.99,0,0,0,1.248.36,1.849,1.849,0,0,0,1.1-.276.865.865,0,0,0,.374-.726" fill="#500c75"/>
            <path id="Trazado_189966" data-name="Trazado 189966" d="M26.57,13.5a2.783,2.783,0,0,1-.255-.853,3.073,3.073,0,0,1-2.4,1.028,3.379,3.379,0,0,1-2.316-.808,2.6,2.6,0,0,1-.918-2.039A2.686,2.686,0,0,1,21.8,8.507,5.529,5.529,0,0,1,25.04,7.69h1.169V7.145a1.572,1.572,0,0,0-.338-1.055A1.334,1.334,0,0,0,24.8,5.7,1.507,1.507,0,0,0,23.8,6a1.042,1.042,0,0,0-.365.843h-2.54a2.552,2.552,0,0,1,.51-1.529,3.365,3.365,0,0,1,1.441-1.1,5.262,5.262,0,0,1,2.092-.4,4.152,4.152,0,0,1,2.79.883A3.091,3.091,0,0,1,28.758,7.18V11.3a4.549,4.549,0,0,0,.378,2.048v.15Zm-2.1-1.767a2.175,2.175,0,0,0,1.037-.251,1.635,1.635,0,0,0,.7-.672V9.175H25.26q-1.906,0-2.03,1.319l-.009.149a1.014,1.014,0,0,0,.334.782,1.3,1.3,0,0,0,.914.308" fill="#500c75"/>
            <path id="Trazado_189967" data-name="Trazado 189967" d="M33.047,3.99l.079,1.1A3.321,3.321,0,0,1,35.86,3.814a2.758,2.758,0,0,1,2.249.888,4.132,4.132,0,0,1,.756,2.654V13.5h-2.54V7.4a1.658,1.658,0,0,0-.351-1.177,1.576,1.576,0,0,0-1.169-.365,1.749,1.749,0,0,0-1.609.916V13.5h-2.54V3.99Z" fill="#500c75"/>
            <path id="Trazado_189968" data-name="Trazado 189968" d="M40.4,8.675a5.726,5.726,0,0,1,1-3.542,3.235,3.235,0,0,1,2.729-1.318,2.912,2.912,0,0,1,2.293,1.037V0h2.549V13.5H46.67l-.123-1.011A2.988,2.988,0,0,1,44.1,13.676a3.228,3.228,0,0,1-2.694-1.322A5.915,5.915,0,0,1,40.4,8.675m2.54.181a3.776,3.776,0,0,0,.466,2.058,1.516,1.516,0,0,0,1.353.714,1.7,1.7,0,0,0,1.661-1V6.861a1.674,1.674,0,0,0-1.643-1q-1.837,0-1.837,2.993" fill="#500c75"/>
            <path id="Trazado_189969" data-name="Trazado 189969" d="M50.537,8.657a5.642,5.642,0,0,1,.545-2.522,3.986,3.986,0,0,1,1.569-1.714,4.577,4.577,0,0,1,2.377-.606A4.33,4.33,0,0,1,58.17,4.992a4.727,4.727,0,0,1,1.358,3.2l.018.65a4.97,4.97,0,0,1-1.222,3.512,4.736,4.736,0,0,1-6.561,0,5.061,5.061,0,0,1-1.226-3.586Zm2.54.181a3.549,3.549,0,0,0,.51,2.072,1.83,1.83,0,0,0,2.9.009,3.885,3.885,0,0,0,.519-2.267,3.516,3.516,0,0,0-.519-2.059,1.686,1.686,0,0,0-1.459-.731,1.659,1.659,0,0,0-1.441.727,3.949,3.949,0,0,0-.51,2.249" fill="#500c75"/>
            <path id="Trazado_189970" data-name="Trazado 189970" d="M69.97,13.675a4.668,4.668,0,0,1-3.406-1.283A4.56,4.56,0,0,1,65.25,8.973V8.727A5.743,5.743,0,0,1,65.8,6.166a4.068,4.068,0,0,1,1.569-1.741,4.407,4.407,0,0,1,2.316-.611,3.946,3.946,0,0,1,3.072,1.231,5,5,0,0,1,1.12,3.489V9.571H67.826a2.359,2.359,0,0,0,.742,1.494,2.245,2.245,0,0,0,1.569.563,2.742,2.742,0,0,0,2.294-1.064l1.248,1.4a3.794,3.794,0,0,1-1.547,1.26,5.07,5.07,0,0,1-2.162.453m-.29-7.813a1.587,1.587,0,0,0-1.226.512,2.651,2.651,0,0,0-.6,1.466h3.533v-.2a1.888,1.888,0,0,0-.457-1.31,1.634,1.634,0,0,0-1.248-.464" fill="#500c75"/>
            <path id="Trazado_189971" data-name="Trazado 189971" d="M80.473,10.872a.817.817,0,0,0-.461-.733,5.252,5.252,0,0,0-1.481-.48q-3.393-.711-3.393-2.883a2.615,2.615,0,0,1,1.05-2.114,4.247,4.247,0,0,1,2.747-.848,4.563,4.563,0,0,1,2.9.853,2.685,2.685,0,0,1,1.085,2.215h-2.54a1.234,1.234,0,0,0-.351-.9,1.5,1.5,0,0,0-1.1-.355,1.521,1.521,0,0,0-.993.29.916.916,0,0,0-.352.738.783.783,0,0,0,.4.681,4.094,4.094,0,0,0,1.349.449,11.066,11.066,0,0,1,1.6.426,2.628,2.628,0,0,1,2.013,2.558,2.478,2.478,0,0,1-1.116,2.1,4.813,4.813,0,0,1-2.883.8,5.048,5.048,0,0,1-2.123-.426,3.551,3.551,0,0,1-1.454-1.17,2.71,2.71,0,0,1-.528-1.6h2.408a1.331,1.331,0,0,0,.5,1.038,1.99,1.99,0,0,0,1.248.36,1.849,1.849,0,0,0,1.1-.276.865.865,0,0,0,.374-.726" fill="#500c75"/>
            <path id="Trazado_189972" data-name="Trazado 189972" d="M87.618,1.652V3.99h1.626V5.853H87.618V10.6a1.131,1.131,0,0,0,.2.756,1.018,1.018,0,0,0,.774.229,4.052,4.052,0,0,0,.747-.062v1.925a5.241,5.241,0,0,1-1.538.228,2.425,2.425,0,0,1-2.725-2.7V5.853H83.689V3.99h1.389V1.652Z" fill="#500c75"/>
            <path id="Trazado_189973" data-name="Trazado 189973" d="M96.17,13.5a2.783,2.783,0,0,1-.255-.853,3.073,3.073,0,0,1-2.4,1.028,3.379,3.379,0,0,1-2.316-.808,2.6,2.6,0,0,1-.918-2.039A2.686,2.686,0,0,1,91.4,8.507,5.529,5.529,0,0,1,94.64,7.69h1.169V7.145a1.572,1.572,0,0,0-.338-1.055A1.334,1.334,0,0,0,94.4,5.7,1.507,1.507,0,0,0,93.4,6a1.042,1.042,0,0,0-.365.843h-2.54A2.552,2.552,0,0,1,91,5.317a3.365,3.365,0,0,1,1.441-1.1,5.262,5.262,0,0,1,2.092-.4,4.152,4.152,0,0,1,2.79.883A3.091,3.091,0,0,1,98.358,7.18V11.3a4.549,4.549,0,0,0,.378,2.048v.15Zm-2.1-1.767a2.175,2.175,0,0,0,1.037-.251,1.635,1.635,0,0,0,.7-.672V9.175H94.86q-1.907,0-2.03,1.319l-.009.149a1.014,1.014,0,0,0,.334.782,1.3,1.3,0,0,0,.914.308" fill="#500c75"/>
            <path id="Trazado_189974" data-name="Trazado 189974" d="M107.833,1.652V3.99h1.626V5.853h-1.626V10.6a1.131,1.131,0,0,0,.2.756,1.018,1.018,0,0,0,.774.229,4.052,4.052,0,0,0,.747-.062v1.925a5.241,5.241,0,0,1-1.538.228,2.425,2.425,0,0,1-2.725-2.7V5.853H103.9V3.99h1.389V1.652Z" fill="#500c75"/>
            <path id="Trazado_189975" data-name="Trazado 189975" d="M115.251,13.676a4.67,4.67,0,0,1-3.406-1.283,4.563,4.563,0,0,1-1.314-3.419V8.728a5.731,5.731,0,0,1,.554-2.562,4.063,4.063,0,0,1,1.568-1.74,4.408,4.408,0,0,1,2.316-.612,3.952,3.952,0,0,1,3.073,1.231,5,5,0,0,1,1.12,3.489V9.571h-6.056a2.36,2.36,0,0,0,.743,1.494,2.245,2.245,0,0,0,1.569.563,2.74,2.74,0,0,0,2.293-1.064l1.249,1.4a3.811,3.811,0,0,1-1.547,1.261,5.088,5.088,0,0,1-2.162.453m-.291-7.814a1.59,1.59,0,0,0-1.226.512,2.658,2.658,0,0,0-.6,1.466h3.534v-.2a1.9,1.9,0,0,0-.457-1.311,1.639,1.639,0,0,0-1.249-.464M115.189,0h2.769l-2.435,2.725h-2.065Z" fill="#500c75"/>
            <path id="Trazado_189976" data-name="Trazado 189976" d="M124.559,11.628a1.666,1.666,0,0,0,1.143-.387,1.355,1.355,0,0,0,.457-1.028h2.381a3.252,3.252,0,0,1-.527,1.771,3.472,3.472,0,0,1-1.419,1.248,4.453,4.453,0,0,1-1.991.444,4.127,4.127,0,0,1-3.217-1.3A5.128,5.128,0,0,1,120.208,8.8V8.631a5.073,5.073,0,0,1,1.169-3.507,4.082,4.082,0,0,1,3.208-1.309,4,4,0,0,1,2.862,1.015,3.591,3.591,0,0,1,1.093,2.7h-2.381a1.747,1.747,0,0,0-.457-1.206,1.7,1.7,0,0,0-2.5.183,3.749,3.749,0,0,0-.454,2.1v.265a3.791,3.791,0,0,0,.449,2.112,1.548,1.548,0,0,0,1.362.643" fill="#500c75"/>
            <path id="Trazado_189977" data-name="Trazado 189977" d="M132.328,3.99l.079,1.1a3.321,3.321,0,0,1,2.734-1.275,2.758,2.758,0,0,1,2.249.888,4.132,4.132,0,0,1,.756,2.654V13.5h-2.54V7.4a1.658,1.658,0,0,0-.351-1.177,1.576,1.576,0,0,0-1.169-.365,1.749,1.749,0,0,0-1.609.916V13.5h-2.54V3.99Z" fill="#500c75"/>
            <path id="Trazado_189978" data-name="Trazado 189978" d="M140.054,1.529a1.25,1.25,0,0,1,.383-.94,1.647,1.647,0,0,1,2.078,0,1.245,1.245,0,0,1,.386.94,1.251,1.251,0,0,1-.39.95,1.63,1.63,0,0,1-2.066,0,1.252,1.252,0,0,1-.391-.95m2.7,11.971H140.2V3.99h2.549Z" fill="#500c75"/>
            <path id="Trazado_189979" data-name="Trazado 189979" d="M148.8,11.628a1.666,1.666,0,0,0,1.143-.387,1.355,1.355,0,0,0,.457-1.028h2.381a3.252,3.252,0,0,1-.527,1.771,3.472,3.472,0,0,1-1.419,1.248,4.453,4.453,0,0,1-1.991.444,4.127,4.127,0,0,1-3.217-1.3A5.128,5.128,0,0,1,144.448,8.8V8.631a5.073,5.073,0,0,1,1.169-3.507,4.082,4.082,0,0,1,3.208-1.309,4,4,0,0,1,2.862,1.015,3.591,3.591,0,0,1,1.093,2.7H150.4a1.747,1.747,0,0,0-.457-1.206,1.7,1.7,0,0,0-2.5.183,3.749,3.749,0,0,0-.454,2.1v.265a3.791,3.791,0,0,0,.449,2.112,1.548,1.548,0,0,0,1.362.643" fill="#500c75"/>
            <path id="Trazado_189980" data-name="Trazado 189980" d="M159.742,13.5a2.783,2.783,0,0,1-.255-.853,3.073,3.073,0,0,1-2.4,1.028,3.375,3.375,0,0,1-2.315-.808,2.6,2.6,0,0,1-.919-2.039,2.689,2.689,0,0,1,1.121-2.321,5.529,5.529,0,0,1,3.238-.817h1.169V7.145a1.567,1.567,0,0,0-.338-1.055,1.333,1.333,0,0,0-1.068-.395A1.507,1.507,0,0,0,156.969,6a1.045,1.045,0,0,0-.365.843h-2.54a2.552,2.552,0,0,1,.51-1.529,3.365,3.365,0,0,1,1.441-1.1,5.262,5.262,0,0,1,2.092-.4A4.157,4.157,0,0,1,160.9,4.7,3.093,3.093,0,0,1,161.93,7.18V11.3a4.549,4.549,0,0,0,.378,2.048v.15Zm-2.1-1.767a2.175,2.175,0,0,0,1.037-.251,1.635,1.635,0,0,0,.7-.672V9.175h-.949q-1.907,0-2.03,1.319l-.009.149a1.014,1.014,0,0,0,.334.782,1.3,1.3,0,0,0,.914.308" fill="#500c75"/>
            <path id="Trazado_189981" data-name="Trazado 189981" d="M167.968,8.675a5.732,5.732,0,0,1,1-3.542A3.235,3.235,0,0,1,171.7,3.815a2.912,2.912,0,0,1,2.293,1.037V0h2.549V13.5h-2.294l-.123-1.011a2.988,2.988,0,0,1-2.443,1.186,3.225,3.225,0,0,1-2.693-1.322,5.916,5.916,0,0,1-1.016-3.679m2.54.181a3.776,3.776,0,0,0,.466,2.058,1.516,1.516,0,0,0,1.353.714,1.7,1.7,0,0,0,1.661-1V6.861a1.674,1.674,0,0,0-1.643-1q-1.838,0-1.837,2.993" fill="#500c75"/>
            <path id="Trazado_189982" data-name="Trazado 189982" d="M182.883,13.675a4.665,4.665,0,0,1-3.4-1.283,4.561,4.561,0,0,1-1.315-3.419V8.727a5.743,5.743,0,0,1,.554-2.561,4.074,4.074,0,0,1,1.569-1.741,4.407,4.407,0,0,1,2.316-.611,3.945,3.945,0,0,1,3.072,1.231,5,5,0,0,1,1.12,3.489V9.571h-6.055a2.36,2.36,0,0,0,.743,1.494,2.243,2.243,0,0,0,1.568.563,2.742,2.742,0,0,0,2.294-1.064l1.248,1.4a3.794,3.794,0,0,1-1.547,1.26,5.07,5.07,0,0,1-2.162.453m-.29-7.813a1.589,1.589,0,0,0-1.226.512,2.658,2.658,0,0,0-.6,1.466H184.3v-.2a1.888,1.888,0,0,0-.457-1.31,1.634,1.634,0,0,0-1.248-.464" fill="#500c75"/>
            <path id="Trazado_189983" data-name="Trazado 189983" d="M12.762,37.675a4.668,4.668,0,0,1-3.406-1.283,4.56,4.56,0,0,1-1.314-3.419v-.246A5.743,5.743,0,0,1,8.6,30.166a4.068,4.068,0,0,1,1.569-1.741,4.407,4.407,0,0,1,2.316-.611,3.946,3.946,0,0,1,3.072,1.231,5,5,0,0,1,1.12,3.489v1.037H10.618a2.359,2.359,0,0,0,.742,1.494,2.245,2.245,0,0,0,1.569.563,2.742,2.742,0,0,0,2.294-1.064l1.248,1.4a3.794,3.794,0,0,1-1.547,1.26,5.07,5.07,0,0,1-2.162.453m-.29-7.813a1.587,1.587,0,0,0-1.226.512,2.651,2.651,0,0,0-.6,1.466h3.533v-.2a1.888,1.888,0,0,0-.457-1.31,1.634,1.634,0,0,0-1.248-.464" fill="#500c75"/>
            <path id="Trazado_189984" data-name="Trazado 189984" d="M21.56,34.4l1.767-6.407h2.654L22.773,37.5H20.347l-3.208-9.51h2.654Z" fill="#500c75"/>
            <path id="Trazado_189985" data-name="Trazado 189985" d="M32.476,37.5a2.783,2.783,0,0,1-.255-.853,3.073,3.073,0,0,1-2.4,1.028,3.379,3.379,0,0,1-2.316-.808,2.6,2.6,0,0,1-.918-2.039,2.686,2.686,0,0,1,1.121-2.321,5.529,5.529,0,0,1,3.238-.817h1.169v-.545a1.572,1.572,0,0,0-.338-1.055,1.334,1.334,0,0,0-1.068-.4A1.507,1.507,0,0,0,29.7,30a1.042,1.042,0,0,0-.365.843H26.8a2.552,2.552,0,0,1,.51-1.529,3.365,3.365,0,0,1,1.441-1.1,5.262,5.262,0,0,1,2.092-.4,4.152,4.152,0,0,1,2.79.883,3.091,3.091,0,0,1,1.033,2.483V35.3a4.549,4.549,0,0,0,.378,2.048v.15Zm-2.1-1.767a2.175,2.175,0,0,0,1.037-.251,1.635,1.635,0,0,0,.7-.672V33.175h-.949q-1.906,0-2.03,1.319l-.009.149a1.014,1.014,0,0,0,.334.782,1.3,1.3,0,0,0,.914.308" fill="#500c75"/>
            <path id="Trazado_189986" data-name="Trazado 189986" d="M41.766,34.872a.817.817,0,0,0-.461-.733,5.252,5.252,0,0,0-1.481-.48q-3.393-.711-3.393-2.883a2.615,2.615,0,0,1,1.05-2.114,4.247,4.247,0,0,1,2.747-.848,4.563,4.563,0,0,1,2.9.853,2.685,2.685,0,0,1,1.085,2.215h-2.54a1.234,1.234,0,0,0-.351-.9,1.5,1.5,0,0,0-1.1-.355,1.521,1.521,0,0,0-.993.29.916.916,0,0,0-.352.738.783.783,0,0,0,.4.681,4.094,4.094,0,0,0,1.349.449,11.066,11.066,0,0,1,1.6.426,2.628,2.628,0,0,1,2.013,2.558,2.478,2.478,0,0,1-1.116,2.1,4.813,4.813,0,0,1-2.883.805,5.048,5.048,0,0,1-2.123-.426,3.55,3.55,0,0,1-1.454-1.17,2.71,2.71,0,0,1-.528-1.6H38.54a1.331,1.331,0,0,0,.5,1.038,1.99,1.99,0,0,0,1.248.36,1.849,1.849,0,0,0,1.1-.276.865.865,0,0,0,.374-.726" fill="#500c75"/>
            <path id="Trazado_189987" data-name="Trazado 189987" d="M45.853,25.529a1.249,1.249,0,0,1,.382-.94,1.649,1.649,0,0,1,2.079,0,1.342,1.342,0,0,1,0,1.89,1.63,1.63,0,0,1-2.066,0,1.249,1.249,0,0,1-.391-.95m2.7,11.971H46V27.99h2.549Z" fill="#500c75"/>
            <path id="Trazado_189988" data-name="Trazado 189988" d="M50.248,32.657a5.628,5.628,0,0,1,.545-2.522,3.98,3.98,0,0,1,1.569-1.714,4.578,4.578,0,0,1,2.377-.607,4.33,4.33,0,0,1,3.142,1.178,4.726,4.726,0,0,1,1.358,3.2l.018.651a4.975,4.975,0,0,1-1.222,3.512,4.735,4.735,0,0,1-6.561,0,5.058,5.058,0,0,1-1.226-3.586Zm2.54.181a3.549,3.549,0,0,0,.51,2.072,1.83,1.83,0,0,0,2.9.009,3.887,3.887,0,0,0,.519-2.267,3.516,3.516,0,0,0-.519-2.059,1.684,1.684,0,0,0-1.459-.731,1.655,1.655,0,0,0-1.441.727,3.949,3.949,0,0,0-.51,2.249M55.24,24h2.769l-2.435,2.725H53.509Z" fill="#500c75"/>
            <path id="Trazado_189989" data-name="Trazado 189989" d="M63.159,27.99l.079,1.1a3.321,3.321,0,0,1,2.734-1.275,2.758,2.758,0,0,1,2.249.888,4.132,4.132,0,0,1,.756,2.654V37.5h-2.54V31.4a1.658,1.658,0,0,0-.351-1.177,1.576,1.576,0,0,0-1.169-.365,1.749,1.749,0,0,0-1.609.916V37.5h-2.54V27.99Z" fill="#500c75"/>
            <path id="Trazado_189990" data-name="Trazado 189990" d="M71.561,40.708l-1.327-.694.316-.572a4.56,4.56,0,0,0,.607-2.135V35.338H73.3L73.292,37.1a4.541,4.541,0,0,1-.492,1.968,5.038,5.038,0,0,1-1.239,1.644" fill="#500c75"/>
            <path id="Trazado_189991" data-name="Trazado 189991" d="M85.474,36.533a3.185,3.185,0,0,1-2.6,1.143,3,3,0,0,1-2.333-.879,3.756,3.756,0,0,1-.822-2.576V27.99h2.54v6.15q0,1.488,1.354,1.488a1.833,1.833,0,0,0,1.775-.9V27.99h2.549V37.5H85.544Z" fill="#500c75"/>
            <path id="Trazado_189992" data-name="Trazado 189992" d="M92.189,27.99l.079,1.1A3.321,3.321,0,0,1,95,27.814a2.758,2.758,0,0,1,2.249.888,4.132,4.132,0,0,1,.756,2.654V37.5h-2.54V31.4a1.658,1.658,0,0,0-.351-1.177,1.576,1.576,0,0,0-1.169-.365,1.749,1.749,0,0,0-1.609.916V37.5H89.8V27.99Z" fill="#500c75"/>
            <path id="Trazado_189993" data-name="Trazado 189993" d="M109.926,37.5a2.783,2.783,0,0,1-.255-.853,3.073,3.073,0,0,1-2.4,1.028,3.379,3.379,0,0,1-2.316-.808,2.6,2.6,0,0,1-.918-2.039,2.686,2.686,0,0,1,1.121-2.321,5.529,5.529,0,0,1,3.238-.817h1.169v-.545a1.572,1.572,0,0,0-.338-1.055,1.334,1.334,0,0,0-1.068-.4,1.507,1.507,0,0,0-1.006.308,1.042,1.042,0,0,0-.365.843h-2.54a2.552,2.552,0,0,1,.51-1.529,3.365,3.365,0,0,1,1.441-1.1,5.262,5.262,0,0,1,2.092-.4,4.152,4.152,0,0,1,2.79.883,3.091,3.091,0,0,1,1.033,2.483V35.3a4.549,4.549,0,0,0,.378,2.048v.15Zm-2.1-1.767a2.175,2.175,0,0,0,1.037-.251,1.635,1.635,0,0,0,.7-.672V33.175h-.949q-1.906,0-2.03,1.319l-.009.149a1.014,1.014,0,0,0,.334.782,1.3,1.3,0,0,0,.914.308" fill="#500c75"/>
            <path id="Trazado_189994" data-name="Trazado 189994" d="M117.105,25.652V27.99h1.626v1.863h-1.626V34.6a1.131,1.131,0,0,0,.2.756,1.018,1.018,0,0,0,.774.229,4.052,4.052,0,0,0,.747-.062v1.925a5.241,5.241,0,0,1-1.538.228,2.425,2.425,0,0,1-2.725-2.7V29.853h-1.388V27.99h1.388V25.652Z" fill="#500c75"/>
            <path id="Trazado_189995" data-name="Trazado 189995" d="M125.658,37.5a2.783,2.783,0,0,1-.255-.853,3.073,3.073,0,0,1-2.4,1.028,3.375,3.375,0,0,1-2.315-.808,2.6,2.6,0,0,1-.919-2.039,2.689,2.689,0,0,1,1.121-2.321,5.529,5.529,0,0,1,3.238-.817H125.3v-.545a1.567,1.567,0,0,0-.338-1.055,1.333,1.333,0,0,0-1.068-.4,1.507,1.507,0,0,0-1.006.308,1.045,1.045,0,0,0-.365.843h-2.54a2.552,2.552,0,0,1,.51-1.529,3.365,3.365,0,0,1,1.441-1.1,5.262,5.262,0,0,1,2.092-.4,4.157,4.157,0,0,1,2.791.883,3.093,3.093,0,0,1,1.032,2.483V35.3a4.548,4.548,0,0,0,.378,2.048v.15Zm-2.1-1.767a2.175,2.175,0,0,0,1.037-.251,1.635,1.635,0,0,0,.7-.672V33.175h-.949q-1.906,0-2.03,1.319l-.009.149a1.014,1.014,0,0,0,.334.782,1.3,1.3,0,0,0,.914.308" fill="#500c75"/>
            <path id="Trazado_189996" data-name="Trazado 189996" d="M133.752,35.628a1.666,1.666,0,0,0,1.143-.387,1.355,1.355,0,0,0,.457-1.028h2.381a3.252,3.252,0,0,1-.527,1.771,3.472,3.472,0,0,1-1.419,1.248,4.453,4.453,0,0,1-1.991.444,4.127,4.127,0,0,1-3.217-1.3A5.128,5.128,0,0,1,129.4,32.8v-.167a5.073,5.073,0,0,1,1.169-3.507,4.082,4.082,0,0,1,3.208-1.309,4,4,0,0,1,2.862,1.015,3.591,3.591,0,0,1,1.093,2.7h-2.381a1.747,1.747,0,0,0-.457-1.206,1.7,1.7,0,0,0-2.5.183,3.749,3.749,0,0,0-.454,2.1v.265a3.791,3.791,0,0,0,.449,2.112,1.548,1.548,0,0,0,1.362.643" fill="#500c75"/>
            <path id="Trazado_189997" data-name="Trazado 189997" d="M144.7,37.5a2.783,2.783,0,0,1-.255-.853,3.073,3.073,0,0,1-2.4,1.028,3.375,3.375,0,0,1-2.315-.808,2.6,2.6,0,0,1-.919-2.039,2.689,2.689,0,0,1,1.121-2.321,5.529,5.529,0,0,1,3.238-.817h1.169v-.545A1.567,1.567,0,0,0,144,30.09a1.333,1.333,0,0,0-1.068-.4,1.507,1.507,0,0,0-1.006.308,1.045,1.045,0,0,0-.365.843h-2.54a2.552,2.552,0,0,1,.51-1.529,3.365,3.365,0,0,1,1.441-1.1,5.262,5.262,0,0,1,2.092-.4,4.157,4.157,0,0,1,2.791.883,3.093,3.093,0,0,1,1.032,2.483V35.3a4.549,4.549,0,0,0,.378,2.048v.15Zm-2.1-1.767a2.175,2.175,0,0,0,1.037-.251,1.635,1.635,0,0,0,.7-.672V33.175h-.949q-1.906,0-2.03,1.319l-.009.149a1.014,1.014,0,0,0,.334.782,1.3,1.3,0,0,0,.914.308" fill="#500c75"/>
            <path id="Trazado_189998" data-name="Trazado 189998" d="M151.172,27.99l.079,1.1a3.321,3.321,0,0,1,2.734-1.275,2.757,2.757,0,0,1,2.249.888,4.132,4.132,0,0,1,.756,2.654V37.5h-2.54V31.4a1.658,1.658,0,0,0-.351-1.177,1.575,1.575,0,0,0-1.169-.365,1.749,1.749,0,0,0-1.609.916V37.5h-2.54V27.99Z" fill="#500c75"/>
            <path id="Trazado_189999" data-name="Trazado 189999" d="M161.956,25.652V27.99h1.626v1.863h-1.626V34.6a1.131,1.131,0,0,0,.2.756,1.018,1.018,0,0,0,.774.229,4.052,4.052,0,0,0,.747-.062v1.925a5.241,5.241,0,0,1-1.538.228,2.425,2.425,0,0,1-2.725-2.7V29.853h-1.389V27.99h1.389V25.652Z" fill="#500c75"/>
            <path id="Trazado_190000" data-name="Trazado 190000" d="M169.374,37.675a4.665,4.665,0,0,1-3.4-1.283,4.561,4.561,0,0,1-1.315-3.419v-.246a5.743,5.743,0,0,1,.554-2.561,4.074,4.074,0,0,1,1.569-1.741,4.407,4.407,0,0,1,2.316-.611,3.945,3.945,0,0,1,3.072,1.231,5,5,0,0,1,1.12,3.489v1.037H167.23a2.36,2.36,0,0,0,.743,1.494,2.243,2.243,0,0,0,1.568.563,2.742,2.742,0,0,0,2.294-1.064l1.248,1.4a3.794,3.794,0,0,1-1.547,1.26,5.07,5.07,0,0,1-2.162.453m-.29-7.813a1.589,1.589,0,0,0-1.226.512,2.658,2.658,0,0,0-.6,1.466h3.533v-.2a1.888,1.888,0,0,0-.457-1.31,1.634,1.634,0,0,0-1.248-.464" fill="#500c75"/>
            <path id="Trazado_190001" data-name="Trazado 190001" d="M174.85,29.054a1.281,1.281,0,0,1,.409-.985,1.588,1.588,0,0,1,2.057,0,1.28,1.28,0,0,1,.408.985,1.263,1.263,0,0,1-.4.971,1.617,1.617,0,0,1-2.066,0,1.263,1.263,0,0,1-.4-.971m0,7.2a1.28,1.28,0,0,1,.409-.984,1.588,1.588,0,0,1,2.057,0,1.279,1.279,0,0,1,.408.984,1.262,1.262,0,0,1-.4.971,1.614,1.614,0,0,1-2.066,0,1.262,1.262,0,0,1-.4-.971" fill="#500c75"/>
          </g>
        </g>
      </g>
      <path id="Trazado_190015" data-name="Trazado 190015" d="M8157.975,869.752l11.426-3.208-4.782,12.952Z" transform="matrix(0.342, 0.94, -0.94, 0.342, -1171.709, 4468.957)" fill="#fff"/>
      <g id="Grupo_145313" data-name="Grupo 145313">
        <path id="Trazado_190017" data-name="Trazado 190017" d="M8157.975,869.752l11.426-3.208-4.782,12.952Z" transform="matrix(0.899, 0.438, -0.438, 0.899, -6278.713, 8124.507)" fill="#fff"/>
        <path id="Trazado_190019" data-name="Trazado 190019" d="M8157.975,869.752l11.426-3.208-4.782,12.952Z" transform="translate(-7582.529 12703.684) rotate(-7)" fill="#fff"/>
      </g>
      <g id="Grupo_145314" data-name="Grupo 145314" transform="translate(778.242 12479.572)">
        <path id="Trazado_190017-2" data-name="Trazado 190017" d="M0,9.744l11.426,3.208L6.644,0Z" transform="matrix(-0.899, 0.438, -0.438, -0.899, 151.889, 11.641)" fill="#fff"/>
        <path id="Trazado_190019-2" data-name="Trazado 190019" d="M0,9.744l11.426,3.208L6.644,0Z" transform="translate(198.147 102.845) rotate(-173)" fill="#fff"/>
      </g>
    </g>
    <rect id="Rectángulo_40345" data-name="Rectángulo 40345" width="1030" height="296" transform="translate(285 11895)" fill="none"/>
  </g>
</svg>
