<svg id="Grupo_145440" data-name="Grupo 145440" xmlns="http://www.w3.org/2000/svg" xmlns:xlink="http://www.w3.org/1999/xlink" width="820" height="350.756" viewBox="0 0 820 350.756">
  <defs>
    <linearGradient id="linear-gradient" x1="0.5" x2="0.5" y2="1" gradientUnits="objectBoundingBox">
      <stop offset="0" stop-color="#e9dcfd"/>
      <stop offset="1" stop-color="#e4fdfc"/>
    </linearGradient>
    <clipPath id="clip-path">
      <rect id="Rectángulo_39415" data-name="Rectángulo 39415" width="820" height="350.756" fill="none"/>
    </clipPath>
    <clipPath id="clip-path-4">
      <rect id="Rectángulo_39421" data-name="Rectángulo 39421" width="375" height="124" rx="13" transform="translate(0 30.924)" fill="url(#linear-gradient)"/>
    </clipPath>
    <clipPath id="clip-path-5">
      <rect id="Rectángulo_39423" data-name="Rectángulo 39423" width="400" height="124" rx="13" transform="translate(210 204.924)" fill="url(#linear-gradient)"/>
    </clipPath>
    <clipPath id="clip-path-6">
      <rect id="Rectángulo_39425" data-name="Rectángulo 39425" width="357" height="124" rx="13" transform="translate(463 30.924)" fill="url(#linear-gradient)"/>
    </clipPath>
    <clipPath id="clip-path-8">
      <path id="Trazado_191624" data-name="Trazado 191624" d="M659.732,233.559a6.117,6.117,0,0,0-6.117,6.117v91.053H796.386V239.676a6.117,6.117,0,0,0-6.117-6.117Z" fill="none"/>
    </clipPath>
    <linearGradient id="linear-gradient-7" x1="-4.578" y1="1.206" x2="-4.571" y2="1.206" xlink:href="#linear-gradient"/>
  </defs>
  <g id="Grupo_145423" data-name="Grupo 145423">
    <g id="Grupo_145422" data-name="Grupo 145422" clip-path="url(#clip-path)">
      <path id="Trazado_191457" data-name="Trazado 191457" d="M110.34,239.587h-1.984v4.423h-2.49V231.924h4.491a5.076,5.076,0,0,1,3.3.956,3.293,3.293,0,0,1,1.162,2.7,3.715,3.715,0,0,1-.536,2.062,3.658,3.658,0,0,1-1.622,1.317l2.614,4.938v.116h-2.673Zm-1.984-2.018h2.009a2.055,2.055,0,0,0,1.453-.478,1.7,1.7,0,0,0,.515-1.315,1.826,1.826,0,0,0-.487-1.345,2.017,2.017,0,0,0-1.489-.489h-2Z" fill="#12263f"/>
      <path id="Trazado_191458" data-name="Trazado 191458" d="M120.69,244.176a4.4,4.4,0,0,1-3.214-1.212,4.3,4.3,0,0,1-1.243-3.229V239.5a5.421,5.421,0,0,1,.524-2.419,3.825,3.825,0,0,1,1.482-1.643,4.151,4.151,0,0,1,2.186-.578,3.727,3.727,0,0,1,2.9,1.163,4.714,4.714,0,0,1,1.059,3.3v.979h-5.72a2.234,2.234,0,0,0,.7,1.412,2.119,2.119,0,0,0,1.482.531,2.592,2.592,0,0,0,2.166-1.005l1.177,1.32a3.578,3.578,0,0,1-1.461,1.191,4.789,4.789,0,0,1-2.042.428m-.272-7.379a1.5,1.5,0,0,0-1.159.483,2.515,2.515,0,0,0-.569,1.384h3.337v-.191a1.786,1.786,0,0,0-.431-1.239,1.551,1.551,0,0,0-1.178-.437" fill="#12263f"/>
      <path id="Trazado_191459" data-name="Trazado 191459" d="M128.287,235.029V244.5a3.21,3.21,0,0,1-.789,2.311,3,3,0,0,1-2.275.826,4.871,4.871,0,0,1-1.186-.141v-1.9a4.678,4.678,0,0,0,.755.074q1.087,0,1.087-1.154v-9.488Zm-2.6-2.324a1.182,1.182,0,0,1,.361-.888,1.56,1.56,0,0,1,1.967,0,1.272,1.272,0,0,1-.008,1.784,1.538,1.538,0,0,1-1.951,0,1.177,1.177,0,0,1-.369-.9" fill="#12263f"/>
      <path id="Trazado_191460" data-name="Trazado 191460" d="M134.3,244.176a4.407,4.407,0,0,1-3.216-1.212,4.306,4.306,0,0,1-1.242-3.229V239.5a5.421,5.421,0,0,1,.524-2.419,3.829,3.829,0,0,1,1.481-1.643,4.155,4.155,0,0,1,2.188-.578,3.725,3.725,0,0,1,2.9,1.163,4.718,4.718,0,0,1,1.059,3.3v.979h-5.719a2.227,2.227,0,0,0,.7,1.412,2.121,2.121,0,0,0,1.482.531,2.591,2.591,0,0,0,2.167-1.005l1.178,1.32a3.591,3.591,0,0,1-1.461,1.191,4.793,4.793,0,0,1-2.042.428m-.274-7.379a1.5,1.5,0,0,0-1.158.483,2.507,2.507,0,0,0-.569,1.384h3.337v-.191a1.781,1.781,0,0,0-.431-1.239,1.549,1.549,0,0,0-1.179-.437" fill="#12263f"/>
      <path id="Trazado_191461" data-name="Trazado 191461" d="M143.086,242.243a1.574,1.574,0,0,0,1.079-.365,1.281,1.281,0,0,0,.432-.972h2.25a3.09,3.09,0,0,1-.5,1.673,3.3,3.3,0,0,1-1.341,1.179,4.2,4.2,0,0,1-1.88.419,3.9,3.9,0,0,1-3.038-1.225,4.842,4.842,0,0,1-1.112-3.383v-.157a4.794,4.794,0,0,1,1.1-3.312,3.853,3.853,0,0,1,3.03-1.237,3.779,3.779,0,0,1,2.7.959,3.4,3.4,0,0,1,1.033,2.552H144.6a1.647,1.647,0,0,0-.432-1.139,1.606,1.606,0,0,0-2.361.173,3.538,3.538,0,0,0-.428,1.982v.25a3.59,3.59,0,0,0,.424,2,1.464,1.464,0,0,0,1.286.607" fill="#12263f"/>
      <path id="Trazado_191462" data-name="Trazado 191462" d="M151.088,232.821v2.208h1.536v1.76h-1.536v4.482a1.065,1.065,0,0,0,.191.714.959.959,0,0,0,.731.216,3.884,3.884,0,0,0,.705-.058v1.818a4.961,4.961,0,0,1-1.452.215,2.29,2.29,0,0,1-2.573-2.548v-4.839h-1.312v-1.76h1.312v-2.208Z" fill="#12263f"/>
      <path id="Trazado_191463" data-name="Trazado 191463" d="M158.094,244.176a4.406,4.406,0,0,1-3.215-1.212,4.3,4.3,0,0,1-1.242-3.229V239.5a5.421,5.421,0,0,1,.523-2.419,3.831,3.831,0,0,1,1.482-1.643,4.154,4.154,0,0,1,2.187-.578,3.727,3.727,0,0,1,2.9,1.163,4.718,4.718,0,0,1,1.059,3.3v.979h-5.72a2.233,2.233,0,0,0,.7,1.412,2.121,2.121,0,0,0,1.482.531,2.589,2.589,0,0,0,2.166-1.005l1.178,1.32a3.585,3.585,0,0,1-1.461,1.191,4.789,4.789,0,0,1-2.042.428m-.273-7.379a1.5,1.5,0,0,0-1.158.483,2.507,2.507,0,0,0-.569,1.384h3.337v-.191a1.791,1.791,0,0,0-.431-1.239,1.552,1.552,0,0,0-1.179-.437" fill="#12263f"/>
      <path id="Trazado_191464" data-name="Trazado 191464" d="M162.776,239.454a5.416,5.416,0,0,1,.942-3.346,3.056,3.056,0,0,1,2.577-1.245,2.748,2.748,0,0,1,2.167.98v-4.582h2.407v12.75H168.7l-.116-.955a2.82,2.82,0,0,1-2.307,1.121,3.046,3.046,0,0,1-2.544-1.249,5.584,5.584,0,0,1-.959-3.474m2.4.17a3.565,3.565,0,0,0,.439,1.943,1.433,1.433,0,0,0,1.279.676,1.605,1.605,0,0,0,1.569-.942v-3.562a1.581,1.581,0,0,0-1.553-.941q-1.734,0-1.734,2.826" fill="#12263f"/>
      <path id="Trazado_191465" data-name="Trazado 191465" d="M184.806,239.62a5.338,5.338,0,0,1-.946,3.307,3.024,3.024,0,0,1-2.54,1.249,3.131,3.131,0,0,1-2.631-1.2l-.075,1.037H177.2V231.26h1.536v4.756a3.113,3.113,0,0,1,2.564-1.153,3.042,3.042,0,0,1,2.57,1.237,5.5,5.5,0,0,1,.933,3.387Zm-1.535-.175a4.15,4.15,0,0,0-.606-2.424,2.006,2.006,0,0,0-1.744-.854,2.252,2.252,0,0,0-2.182,1.41v3.885a2.317,2.317,0,0,0,2.2,1.412,2,2,0,0,0,1.719-.856,4.415,4.415,0,0,0,.614-2.573" fill="#12263f"/>
      <path id="Trazado_191466" data-name="Trazado 191466" d="M189.587,241.76l2.092-6.731h1.643l-3.61,10.368q-.84,2.241-2.665,2.24l-.29-.024-.573-.109V246.26l.415.033a2.039,2.039,0,0,0,1.216-.316,2.278,2.278,0,0,0,.718-1.154l.34-.913-3.2-8.881h1.677Z" fill="#12263f"/>
      <path id="Trazado_191467" data-name="Trazado 191467" d="M109.676,268.177a3.924,3.924,0,0,1-2.971-1.2,4.453,4.453,0,0,1-1.146-3.209v-.282a5.392,5.392,0,0,1,.51-2.386,3.981,3.981,0,0,1,1.428-1.644,3.6,3.6,0,0,1,1.988-.594,3.365,3.365,0,0,1,2.723,1.154,5,5,0,0,1,.971,3.3v.639h-6.085a3.194,3.194,0,0,0,.777,2.145,2.44,2.44,0,0,0,1.888.818,2.681,2.681,0,0,0,1.378-.332,3.472,3.472,0,0,0,.988-.879l.938.73a3.772,3.772,0,0,1-3.387,1.735m-.191-8.052a2.052,2.052,0,0,0-1.561.677,3.3,3.3,0,0,0-.78,1.9h4.5v-.116a2.915,2.915,0,0,0-.631-1.813,1.926,1.926,0,0,0-1.527-.644" fill="#12263f"/>
      <path id="Trazado_191468" data-name="Trazado 191468" d="M116.408,259.029l.05,1.129a3.274,3.274,0,0,1,2.689-1.295q2.848,0,2.872,3.212v5.935h-1.535v-5.943a2.064,2.064,0,0,0-.444-1.435,1.776,1.776,0,0,0-1.358-.465,2.22,2.22,0,0,0-1.311.4,2.712,2.712,0,0,0-.88,1.045v6.4h-1.535v-8.981Z" fill="#12263f"/>
      <path id="Trazado_191469" data-name="Trazado 191469" d="M123.962,263.445a5.265,5.265,0,0,1,.979-3.324,3.333,3.333,0,0,1,5.064-.179v-4.681h1.536v12.75H130.13l-.075-.963a3.127,3.127,0,0,1-2.565,1.129,3.065,3.065,0,0,1-2.544-1.279,5.321,5.321,0,0,1-.984-3.337Zm1.536.175a3.985,3.985,0,0,0,.631,2.391,2.039,2.039,0,0,0,1.743.863,2.24,2.24,0,0,0,2.133-1.313v-4.125a2.257,2.257,0,0,0-2.116-1.269,2.048,2.048,0,0,0-1.76.871,4.382,4.382,0,0,0-.631,2.582" fill="#12263f"/>
      <path id="Trazado_191470" data-name="Trazado 191470" d="M143.361,265.628a1.131,1.131,0,0,0-.469-.967,4.53,4.53,0,0,0-1.635-.594,7.735,7.735,0,0,1-1.851-.6,2.631,2.631,0,0,1-1.013-.83,1.98,1.98,0,0,1-.328-1.145,2.332,2.332,0,0,1,.934-1.868,3.648,3.648,0,0,1,2.386-.764,3.758,3.758,0,0,1,2.478.788,2.507,2.507,0,0,1,.95,2.018h-1.544a1.387,1.387,0,0,0-.535-1.088,2.007,2.007,0,0,0-1.349-.456,2.1,2.1,0,0,0-1.311.365,1.148,1.148,0,0,0-.474.954.931.931,0,0,0,.441.839,5.393,5.393,0,0,0,1.59.54,8.291,8.291,0,0,1,1.863.614,2.725,2.725,0,0,1,1.058.859,2.111,2.111,0,0,1,.344,1.225,2.3,2.3,0,0,1-.963,1.929,4.03,4.03,0,0,1-2.5.727,4.512,4.512,0,0,1-1.909-.382,3.109,3.109,0,0,1-1.3-1.066,2.572,2.572,0,0,1-.47-1.482h1.537a1.587,1.587,0,0,0,.618,1.224,2.4,2.4,0,0,0,1.523.452,2.473,2.473,0,0,0,1.4-.353,1.083,1.083,0,0,0,.527-.942" fill="#12263f"/>
      <path id="Trazado_191471" data-name="Trazado 191471" d="M149.835,265.76l2.092-6.731h1.643L149.959,269.4q-.839,2.241-2.664,2.24l-.291-.024-.572-.109V270.26l.415.033a2.042,2.042,0,0,0,1.216-.316,2.27,2.27,0,0,0,.717-1.154l.341-.913-3.2-8.881h1.677Z" fill="#12263f"/>
      <path id="Trazado_191472" data-name="Trazado 191472" d="M160.169,265.628a1.131,1.131,0,0,0-.469-.967,4.515,4.515,0,0,0-1.635-.594,7.735,7.735,0,0,1-1.851-.6,2.639,2.639,0,0,1-1.013-.83,1.98,1.98,0,0,1-.328-1.145,2.332,2.332,0,0,1,.934-1.868,3.65,3.65,0,0,1,2.386-.764,3.755,3.755,0,0,1,2.478.788,2.508,2.508,0,0,1,.951,2.018h-1.544a1.388,1.388,0,0,0-.536-1.088,2.005,2.005,0,0,0-1.349-.456,2.1,2.1,0,0,0-1.311.365,1.148,1.148,0,0,0-.473.954.933.933,0,0,0,.44.839,5.4,5.4,0,0,0,1.59.54,8.256,8.256,0,0,1,1.863.614,2.71,2.71,0,0,1,1.058.859,2.111,2.111,0,0,1,.345,1.225,2.3,2.3,0,0,1-.963,1.929,4.033,4.033,0,0,1-2.5.727,4.519,4.519,0,0,1-1.909-.382,3.116,3.116,0,0,1-1.3-1.066,2.578,2.578,0,0,1-.469-1.482H156.1a1.593,1.593,0,0,0,.618,1.224,2.4,2.4,0,0,0,1.523.452,2.47,2.47,0,0,0,1.4-.353,1.083,1.083,0,0,0,.527-.942" fill="#12263f"/>
      <path id="Trazado_191473" data-name="Trazado 191473" d="M165.79,256.854v2.175h1.677v1.186H165.79v5.577a1.244,1.244,0,0,0,.224.811.943.943,0,0,0,.763.271,3.752,3.752,0,0,0,.731-.1v1.237a4.437,4.437,0,0,1-1.179.165,1.911,1.911,0,0,1-1.552-.623,2.674,2.674,0,0,1-.523-1.767v-5.571h-1.635v-1.186h1.635v-2.175Z" fill="#12263f"/>
      <path id="Trazado_191474" data-name="Trazado 191474" d="M172.985,268.177a3.926,3.926,0,0,1-2.971-1.2,4.453,4.453,0,0,1-1.146-3.209v-.282a5.392,5.392,0,0,1,.511-2.386,3.981,3.981,0,0,1,1.428-1.644,3.594,3.594,0,0,1,1.988-.594,3.367,3.367,0,0,1,2.723,1.154,5,5,0,0,1,.97,3.3v.639H170.4a3.184,3.184,0,0,0,.777,2.145,2.438,2.438,0,0,0,1.887.818,2.676,2.676,0,0,0,1.378-.332,3.463,3.463,0,0,0,.989-.879l.937.73a3.77,3.77,0,0,1-3.387,1.735m-.19-8.052a2.049,2.049,0,0,0-1.561.677,3.294,3.294,0,0,0-.78,1.9h4.5v-.116a2.928,2.928,0,0,0-.631-1.813,1.929,1.929,0,0,0-1.527-.644" fill="#12263f"/>
      <path id="Trazado_191475" data-name="Trazado 191475" d="M179.71,259.029l.041,1a3.32,3.32,0,0,1,2.664-1.162,2.566,2.566,0,0,1,2.565,1.444,3.339,3.339,0,0,1,2.864-1.444q2.955,0,3.006,3.13v6.017h-1.537v-5.926a2.062,2.062,0,0,0-.44-1.441,1.934,1.934,0,0,0-1.477-.476,2.042,2.042,0,0,0-1.419.509,2.077,2.077,0,0,0-.657,1.374v5.96h-1.544v-5.884a1.712,1.712,0,0,0-1.917-1.959,2.054,2.054,0,0,0-2.067,1.286v6.557h-1.535v-8.981Z" fill="#12263f"/>
    </g>
  </g>
  <path id="Trazado_191476" data-name="Trazado 191476" d="M687.9,180.434h-4.366l-.83,2.49h-2.648l4.5-12.086h2.307l4.524,12.086H688.74Zm-3.694-2.018h3.021l-1.519-4.523Z" fill="#12263f"/>
  <g id="Grupo_145425" data-name="Grupo 145425">
    <g id="Grupo_145424" data-name="Grupo 145424" clip-path="url(#clip-path)">
      <path id="Trazado_191477" data-name="Trazado 191477" d="M696.095,181.156a1.576,1.576,0,0,0,1.079-.365,1.281,1.281,0,0,0,.432-.972h2.249a3.073,3.073,0,0,1-.5,1.673,3.286,3.286,0,0,1-1.341,1.179,4.2,4.2,0,0,1-1.879.419,3.9,3.9,0,0,1-3.039-1.225,4.846,4.846,0,0,1-1.112-3.383v-.157a4.789,4.789,0,0,1,1.1-3.312,3.853,3.853,0,0,1,3.03-1.237,3.775,3.775,0,0,1,2.7.959,3.391,3.391,0,0,1,1.033,2.552h-2.249a1.648,1.648,0,0,0-.432-1.139,1.607,1.607,0,0,0-2.362.173,3.548,3.548,0,0,0-.427,1.982v.25a3.591,3.591,0,0,0,.423,2,1.465,1.465,0,0,0,1.287.607" fill="#12263f"/>
      <path id="Trazado_191478" data-name="Trazado 191478" d="M704.96,181.156a1.575,1.575,0,0,0,1.079-.365,1.281,1.281,0,0,0,.432-.972h2.249a3.072,3.072,0,0,1-.5,1.673,3.286,3.286,0,0,1-1.341,1.179,4.2,4.2,0,0,1-1.879.419,3.9,3.9,0,0,1-3.039-1.225,4.846,4.846,0,0,1-1.112-3.383v-.157a4.789,4.789,0,0,1,1.1-3.312,3.853,3.853,0,0,1,3.03-1.237,3.775,3.775,0,0,1,2.7.959,3.391,3.391,0,0,1,1.033,2.552h-2.249a1.647,1.647,0,0,0-.432-1.139,1.607,1.607,0,0,0-2.362.173,3.548,3.548,0,0,0-.427,1.982v.25a3.591,3.591,0,0,0,.423,2,1.465,1.465,0,0,0,1.287.607" fill="#12263f"/>
      <path id="Trazado_191479" data-name="Trazado 191479" d="M714.224,183.09a4.407,4.407,0,0,1-3.216-1.212,4.306,4.306,0,0,1-1.242-3.229v-.233a5.434,5.434,0,0,1,.523-2.419,3.838,3.838,0,0,1,1.482-1.643,4.154,4.154,0,0,1,2.187-.578,3.725,3.725,0,0,1,2.9,1.163,4.718,4.718,0,0,1,1.059,3.295v.979H712.2a2.227,2.227,0,0,0,.7,1.412,2.121,2.121,0,0,0,1.482.531,2.588,2.588,0,0,0,2.166-1.005l1.179,1.32a3.6,3.6,0,0,1-1.461,1.191,4.793,4.793,0,0,1-2.042.428m-.274-7.379a1.5,1.5,0,0,0-1.158.483,2.507,2.507,0,0,0-.569,1.384h3.337v-.191a1.786,1.786,0,0,0-.431-1.239,1.551,1.551,0,0,0-1.179-.437" fill="#12263f"/>
      <path id="Trazado_191480" data-name="Trazado 191480" d="M727.364,178.516a5.39,5.39,0,0,1-.942,3.325,3.021,3.021,0,0,1-2.544,1.249,2.8,2.8,0,0,1-2.2-.946v4.233h-2.4V173.942H721.5l.083.88a2.82,2.82,0,0,1,2.274-1.046,3.043,3.043,0,0,1,2.582,1.229,5.535,5.535,0,0,1,.921,3.387Zm-2.4-.183a3.551,3.551,0,0,0-.444-1.939,1.444,1.444,0,0,0-1.291-.683,1.57,1.57,0,0,0-1.552.865v3.689a1.6,1.6,0,0,0,1.569.891q1.718,0,1.718-2.823" fill="#12263f"/>
      <path id="Trazado_191481" data-name="Trazado 191481" d="M731.722,171.735v2.208h1.536v1.76h-1.536v4.482a1.065,1.065,0,0,0,.191.714.958.958,0,0,0,.73.216,3.9,3.9,0,0,0,.706-.058v1.818a4.968,4.968,0,0,1-1.453.215,2.29,2.29,0,0,1-2.573-2.548V175.7h-1.311v-1.76h1.311v-2.208Z" fill="#12263f"/>
      <path id="Trazado_191482" data-name="Trazado 191482" d="M738.728,183.09a4.407,4.407,0,0,1-3.216-1.212,4.306,4.306,0,0,1-1.242-3.229v-.233a5.434,5.434,0,0,1,.523-2.419,3.837,3.837,0,0,1,1.482-1.643,4.154,4.154,0,0,1,2.187-.578,3.725,3.725,0,0,1,2.9,1.163,4.718,4.718,0,0,1,1.059,3.295v.979H736.7a2.227,2.227,0,0,0,.7,1.412,2.121,2.121,0,0,0,1.482.531,2.588,2.588,0,0,0,2.166-1.005l1.179,1.32a3.6,3.6,0,0,1-1.461,1.191,4.793,4.793,0,0,1-2.042.428m-.274-7.379a1.5,1.5,0,0,0-1.158.483,2.507,2.507,0,0,0-.569,1.384h3.337v-.191a1.786,1.786,0,0,0-.431-1.239,1.551,1.551,0,0,0-1.179-.437" fill="#12263f"/>
      <path id="Trazado_191483" data-name="Trazado 191483" d="M743.41,178.367a5.416,5.416,0,0,1,.942-3.346,3.057,3.057,0,0,1,2.578-1.245,2.748,2.748,0,0,1,2.166.98v-4.582H751.5v12.75h-2.166l-.116-.955a2.822,2.822,0,0,1-2.308,1.121,3.047,3.047,0,0,1-2.544-1.249,5.584,5.584,0,0,1-.959-3.474m2.4.17a3.556,3.556,0,0,0,.44,1.943,1.43,1.43,0,0,0,1.278.676,1.6,1.6,0,0,0,1.569-.942v-3.562a1.581,1.581,0,0,0-1.552-.941q-1.735,0-1.735,2.826" fill="#12263f"/>
      <path id="Trazado_191484" data-name="Trazado 191484" d="M761.007,170.838l3.1,8.766,3.088-8.766h3.271v12.086h-2.5v-3.3l.249-5.7-3.262,9.006h-1.71l-3.254-9,.249,5.694v3.3h-2.49V170.838Z" fill="#12263f"/>
      <path id="Trazado_191485" data-name="Trazado 191485" d="M772.114,178.35a5.314,5.314,0,0,1,.515-2.382,3.764,3.764,0,0,1,1.481-1.618,4.316,4.316,0,0,1,2.246-.573,4.09,4.09,0,0,1,2.967,1.112,4.464,4.464,0,0,1,1.283,3.022l.016.614a4.7,4.7,0,0,1-1.153,3.316,4.473,4.473,0,0,1-6.2,0,4.776,4.776,0,0,1-1.158-3.386Zm2.4.171a3.365,3.365,0,0,0,.481,1.958,1.729,1.729,0,0,0,2.74.008,3.677,3.677,0,0,0,.489-2.141,3.326,3.326,0,0,0-.489-1.945,1.593,1.593,0,0,0-1.378-.69,1.567,1.567,0,0,0-1.362.686,3.742,3.742,0,0,0-.481,2.124" fill="#12263f"/>
      <path id="Trazado_191486" data-name="Trazado 191486" d="M784.308,173.943l.075,1.038a3.134,3.134,0,0,1,2.581-1.2,2.6,2.6,0,0,1,2.125.839,3.906,3.906,0,0,1,.714,2.506v5.8h-2.4v-5.757a1.567,1.567,0,0,0-.332-1.111,1.484,1.484,0,0,0-1.1-.344,1.651,1.651,0,0,0-1.519.864v6.348h-2.4v-8.981Z" fill="#12263f"/>
      <path id="Trazado_191487" data-name="Trazado 191487" d="M791.6,171.618a1.182,1.182,0,0,1,.361-.887,1.551,1.551,0,0,1,1.963,0,1.267,1.267,0,0,1,0,1.784,1.54,1.54,0,0,1-1.95,0,1.178,1.178,0,0,1-.37-.9m2.548,11.306h-2.407v-8.981h2.407Z" fill="#12263f"/>
      <path id="Trazado_191488" data-name="Trazado 191488" d="M799,171.735v2.208h1.536v1.76H799v4.482a1.065,1.065,0,0,0,.191.714.958.958,0,0,0,.73.216,3.9,3.9,0,0,0,.706-.058v1.818a4.968,4.968,0,0,1-1.453.215,2.29,2.29,0,0,1-2.573-2.548V175.7H795.29v-1.76H796.6v-2.208Z" fill="#12263f"/>
      <path id="Trazado_191489" data-name="Trazado 191489" d="M801.249,178.35a5.315,5.315,0,0,1,.515-2.382,3.765,3.765,0,0,1,1.481-1.618,4.315,4.315,0,0,1,2.246-.573,4.09,4.09,0,0,1,2.967,1.112,4.464,4.464,0,0,1,1.283,3.022l.016.614a4.7,4.7,0,0,1-1.153,3.316,4.473,4.473,0,0,1-6.2,0,4.776,4.776,0,0,1-1.158-3.386Zm2.4.171a3.365,3.365,0,0,0,.481,1.958,1.729,1.729,0,0,0,2.74.008,3.677,3.677,0,0,0,.489-2.141,3.326,3.326,0,0,0-.489-1.945,1.593,1.593,0,0,0-1.378-.69,1.567,1.567,0,0,0-1.362.686,3.742,3.742,0,0,0-.481,2.124" fill="#12263f"/>
      <path id="Trazado_191490" data-name="Trazado 191490" d="M816.282,176.192a6.557,6.557,0,0,0-.863-.066,1.757,1.757,0,0,0-1.785.921v5.877h-2.4v-8.981H813.5l.067,1.071a2.221,2.221,0,0,1,2-1.237,2.508,2.508,0,0,1,.747.108Z" fill="#12263f"/>
    </g>
  </g>
  <path id="Trazado_191491" data-name="Trazado 191491" d="M323.351,7.984H318.57v4.939h-2.49V.839h7.869V2.855H318.57V5.977h4.781Z" fill="#500c75"/>
  <g id="Grupo_145427" data-name="Grupo 145427">
    <g id="Grupo_145426" data-name="Grupo 145426" clip-path="url(#clip-path)">
      <path id="Trazado_191492" data-name="Trazado 191492" d="M325.218,1.618a1.182,1.182,0,0,1,.361-.887,1.551,1.551,0,0,1,1.963,0,1.171,1.171,0,0,1,.366.887,1.178,1.178,0,0,1-.37.9,1.54,1.54,0,0,1-1.95,0,1.178,1.178,0,0,1-.37-.9m2.549,11.306H325.36V3.943h2.407Z" fill="#500c75"/>
      <path id="Trazado_191493" data-name="Trazado 191493" d="M329.393,8.367a5.256,5.256,0,0,1,.985-3.329,3.187,3.187,0,0,1,2.652-1.262,2.8,2.8,0,0,1,2.3,1.013l.1-.847H337.6v8.683a3.851,3.851,0,0,1-.535,2.051A3.453,3.453,0,0,1,335.561,16a5.306,5.306,0,0,1-2.275.456,4.92,4.92,0,0,1-1.925-.395,3.414,3.414,0,0,1-1.42-1.016L331,13.588a2.809,2.809,0,0,0,2.174,1,2.059,2.059,0,0,0,1.486-.51,1.916,1.916,0,0,0,.531-1.449v-.481a2.775,2.775,0,0,1-2.183.938,3.174,3.174,0,0,1-2.617-1.266,5.261,5.261,0,0,1-1-3.357Zm2.4.17a3.3,3.3,0,0,0,.49,1.923,1.553,1.553,0,0,0,1.343.7,1.663,1.663,0,0,0,1.569-.826V6.536a1.658,1.658,0,0,0-1.552-.825,1.566,1.566,0,0,0-1.357.708,3.717,3.717,0,0,0-.493,2.118" fill="#500c75"/>
      <path id="Trazado_191494" data-name="Trazado 191494" d="M344.825,12.011a3.006,3.006,0,0,1-2.457,1.079,2.835,2.835,0,0,1-2.2-.83,3.546,3.546,0,0,1-.776-2.432V3.943h2.4V9.751q0,1.405,1.278,1.406a1.733,1.733,0,0,0,1.677-.849V3.943h2.407v8.981h-2.258Z" fill="#500c75"/>
      <path id="Trazado_191495" data-name="Trazado 191495" d="M354.005,6.191a6.718,6.718,0,0,0-.863-.065,1.757,1.757,0,0,0-1.785.921v5.877h-2.4V3.943h2.266l.067,1.071a2.221,2.221,0,0,1,2-1.237,2.507,2.507,0,0,1,.747.108Z" fill="#500c75"/>
      <path id="Trazado_191496" data-name="Trazado 191496" d="M359.135,13.09a4.407,4.407,0,0,1-3.216-1.212,4.306,4.306,0,0,1-1.242-3.229V8.416A5.434,5.434,0,0,1,355.2,6a3.837,3.837,0,0,1,1.482-1.643,4.154,4.154,0,0,1,2.187-.578,3.725,3.725,0,0,1,2.9,1.163,4.718,4.718,0,0,1,1.059,3.3v.979H357.11a2.227,2.227,0,0,0,.7,1.412,2.121,2.121,0,0,0,1.482.531,2.588,2.588,0,0,0,2.166-1.005l1.179,1.32a3.6,3.6,0,0,1-1.461,1.191,4.793,4.793,0,0,1-2.042.428m-.274-7.379a1.5,1.5,0,0,0-1.158.483,2.507,2.507,0,0,0-.569,1.384h3.337V7.387a1.786,1.786,0,0,0-.431-1.239,1.551,1.551,0,0,0-1.179-.437" fill="#500c75"/>
      <path id="Trazado_191497" data-name="Trazado 191497" d="M364.307,4.947a1.2,1.2,0,0,1,.386-.93,1.5,1.5,0,0,1,1.943,0,1.211,1.211,0,0,1,.385.93,1.192,1.192,0,0,1-.381.917,1.39,1.39,0,0,1-.98.353,1.375,1.375,0,0,1-.971-.353,1.189,1.189,0,0,1-.382-.917m0,6.8a1.207,1.207,0,0,1,.386-.93,1.5,1.5,0,0,1,1.943,0,1.213,1.213,0,0,1,.385.93,1.192,1.192,0,0,1-.381.917,1.391,1.391,0,0,1-.98.354,1.375,1.375,0,0,1-.971-.354,1.189,1.189,0,0,1-.382-.917" fill="#500c75"/>
      <rect id="Rectángulo_39417" data-name="Rectángulo 39417" width="2.49" height="12.086" transform="translate(373.537 0.838)" fill="#500c75"/>
      <path id="Trazado_191498" data-name="Trazado 191498" d="M380.385,3.943l.075,1.038a3.134,3.134,0,0,1,2.581-1.2,2.6,2.6,0,0,1,2.125.839,3.906,3.906,0,0,1,.714,2.506v5.8h-2.4V7.167a1.567,1.567,0,0,0-.332-1.111,1.484,1.484,0,0,0-1.1-.344,1.651,1.651,0,0,0-1.519.864v6.348h-2.4V3.943Z" fill="#500c75"/>
      <path id="Trazado_191499" data-name="Trazado 191499" d="M392.563,10.441a.771.771,0,0,0-.437-.691,4.934,4.934,0,0,0-1.4-.453q-3.205-.674-3.2-2.722a2.468,2.468,0,0,1,.993-2,4,4,0,0,1,2.593-.8,4.307,4.307,0,0,1,2.736.806,2.534,2.534,0,0,1,1.025,2.091h-2.4a1.163,1.163,0,0,0-.332-.851,1.408,1.408,0,0,0-1.038-.336,1.444,1.444,0,0,0-.938.273.869.869,0,0,0-.332.7.739.739,0,0,0,.378.643,3.878,3.878,0,0,0,1.274.424,10.479,10.479,0,0,1,1.511.4,2.483,2.483,0,0,1,1.9,2.415,2.344,2.344,0,0,1-1.055,1.989,4.54,4.54,0,0,1-2.722.759,4.741,4.741,0,0,1-2.005-.4,3.364,3.364,0,0,1-1.374-1.1,2.567,2.567,0,0,1-.5-1.515h2.275a1.248,1.248,0,0,0,.473.979,1.874,1.874,0,0,0,1.178.341,1.746,1.746,0,0,0,1.042-.261.818.818,0,0,0,.354-.687" fill="#500c75"/>
      <path id="Trazado_191500" data-name="Trazado 191500" d="M400.573,13.09a4.407,4.407,0,0,1-3.216-1.212,4.306,4.306,0,0,1-1.242-3.229V8.416A5.434,5.434,0,0,1,396.638,6a3.837,3.837,0,0,1,1.482-1.643,4.155,4.155,0,0,1,2.187-.578,3.725,3.725,0,0,1,2.9,1.163,4.718,4.718,0,0,1,1.059,3.3v.979h-5.719a2.227,2.227,0,0,0,.7,1.412,2.121,2.121,0,0,0,1.482.531,2.588,2.588,0,0,0,2.166-1.005l1.179,1.32a3.6,3.6,0,0,1-1.461,1.191,4.793,4.793,0,0,1-2.042.428M400.3,5.711a1.5,1.5,0,0,0-1.158.483,2.507,2.507,0,0,0-.569,1.384h3.337V7.387a1.786,1.786,0,0,0-.431-1.239,1.551,1.551,0,0,0-1.179-.437" fill="#500c75"/>
      <path id="Trazado_191501" data-name="Trazado 191501" d="M410.675,6.191a6.717,6.717,0,0,0-.863-.065,1.757,1.757,0,0,0-1.785.921v5.877h-2.4V3.943h2.266l.067,1.071a2.221,2.221,0,0,1,2-1.237,2.508,2.508,0,0,1,.747.108Z" fill="#500c75"/>
      <path id="Trazado_191502" data-name="Trazado 191502" d="M415.116,1.734V3.943h1.536V5.7h-1.536v4.482a1.06,1.06,0,0,0,.191.713.953.953,0,0,0,.73.217,3.9,3.9,0,0,0,.706-.058v1.818a4.968,4.968,0,0,1-1.453.215,2.29,2.29,0,0,1-2.573-2.548V5.7h-1.311V3.943h1.311V1.734Z" fill="#500c75"/>
      <path id="Trazado_191503" data-name="Trazado 191503" d="M417.971,1.618a1.182,1.182,0,0,1,.361-.887,1.551,1.551,0,0,1,1.963,0,1.171,1.171,0,0,1,.366.887,1.178,1.178,0,0,1-.37.9,1.54,1.54,0,0,1-1.95,0,1.178,1.178,0,0,1-.37-.9m2.549,11.306h-2.407V3.943h2.407Z" fill="#500c75"/>
      <path id="Trazado_191504" data-name="Trazado 191504" d="M422.121,8.35a5.3,5.3,0,0,1,.516-2.382,3.757,3.757,0,0,1,1.48-1.618,4.318,4.318,0,0,1,2.246-.573,4.092,4.092,0,0,1,2.968,1.112,4.459,4.459,0,0,1,1.282,3.022l.016.614a4.7,4.7,0,0,1-1.152,3.316,4.474,4.474,0,0,1-6.2,0,4.781,4.781,0,0,1-1.158-3.386Zm2.4.171a3.365,3.365,0,0,0,.48,1.958,1.729,1.729,0,0,0,2.74.008,3.669,3.669,0,0,0,.489-2.141,3.319,3.319,0,0,0-.489-1.945,1.592,1.592,0,0,0-1.378-.69A1.567,1.567,0,0,0,425,6.4a3.743,3.743,0,0,0-.48,2.124" fill="#500c75"/>
      <path id="Trazado_191505" data-name="Trazado 191505" d="M434.315,3.943l.075,1.038a3.134,3.134,0,0,1,2.581-1.2,2.6,2.6,0,0,1,2.125.839,3.906,3.906,0,0,1,.714,2.506v5.8h-2.4V7.167a1.567,1.567,0,0,0-.332-1.111,1.484,1.484,0,0,0-1.1-.344,1.651,1.651,0,0,0-1.519.864v6.348h-2.4V3.943Z" fill="#500c75"/>
      <path id="Trazado_191506" data-name="Trazado 191506" d="M445.488,8.35A5.315,5.315,0,0,1,446,5.968a3.765,3.765,0,0,1,1.481-1.618,4.315,4.315,0,0,1,2.246-.573A4.09,4.09,0,0,1,452.7,4.889a4.464,4.464,0,0,1,1.283,3.022l.016.614a4.7,4.7,0,0,1-1.153,3.316,4.473,4.473,0,0,1-6.2,0,4.776,4.776,0,0,1-1.158-3.386Zm2.4.171a3.365,3.365,0,0,0,.481,1.958,1.729,1.729,0,0,0,2.74.008,3.677,3.677,0,0,0,.489-2.141,3.326,3.326,0,0,0-.489-1.945,1.593,1.593,0,0,0-1.378-.69,1.567,1.567,0,0,0-1.362.686,3.742,3.742,0,0,0-.481,2.124" fill="#500c75"/>
      <path id="Trazado_191507" data-name="Trazado 191507" d="M456.13,12.924V5.7h-1.336V3.943h1.336V3.179A3.1,3.1,0,0,1,457,.834,3.362,3.362,0,0,1,459.425,0a5.705,5.705,0,0,1,1.221.164l-.025,1.844a3.106,3.106,0,0,0-.731-.074q-1.353,0-1.353,1.28v.729h1.785V5.7h-1.785v7.222Z" fill="#500c75"/>
      <path id="Trazado_191508" data-name="Trazado 191508" d="M468.672,1.734V3.943h1.536V5.7h-1.536v4.482a1.06,1.06,0,0,0,.191.713.953.953,0,0,0,.73.217,3.9,3.9,0,0,0,.706-.058v1.818a4.968,4.968,0,0,1-1.453.215,2.29,2.29,0,0,1-2.573-2.548V5.7h-1.311V3.943h1.311V1.734Z" fill="#500c75"/>
      <path id="Trazado_191509" data-name="Trazado 191509" d="M473.885,4.922a2.993,2.993,0,0,1,2.4-1.146q2.922,0,2.963,3.4v5.752h-2.4v-5.7a1.67,1.67,0,0,0-.332-1.144,1.42,1.42,0,0,0-1.1-.37,1.632,1.632,0,0,0-1.527.815v6.4h-2.4V.174h2.4Z" fill="#500c75"/>
      <path id="Trazado_191510" data-name="Trazado 191510" d="M485.191,13.09a4.407,4.407,0,0,1-3.216-1.212,4.306,4.306,0,0,1-1.242-3.229V8.416A5.434,5.434,0,0,1,481.256,6a3.837,3.837,0,0,1,1.482-1.643,4.154,4.154,0,0,1,2.187-.578,3.725,3.725,0,0,1,2.9,1.163,4.718,4.718,0,0,1,1.059,3.3v.979h-5.719a2.227,2.227,0,0,0,.7,1.412,2.121,2.121,0,0,0,1.482.531,2.588,2.588,0,0,0,2.166-1.005l1.179,1.32a3.6,3.6,0,0,1-1.461,1.191,4.793,4.793,0,0,1-2.042.428m-.274-7.379a1.5,1.5,0,0,0-1.158.483,2.507,2.507,0,0,0-.569,1.384h3.337V7.387a1.786,1.786,0,0,0-.431-1.239,1.551,1.551,0,0,0-1.179-.437" fill="#500c75"/>
      <rect id="Rectángulo_39418" data-name="Rectángulo 39418" width="2.407" height="12.75" transform="translate(494.604 0.174)" fill="#500c75"/>
      <path id="Trazado_191511" data-name="Trazado 191511" d="M503.121,13.09a4.407,4.407,0,0,1-3.216-1.212,4.306,4.306,0,0,1-1.242-3.229V8.416A5.434,5.434,0,0,1,499.186,6a3.837,3.837,0,0,1,1.482-1.643,4.155,4.155,0,0,1,2.187-.578,3.725,3.725,0,0,1,2.9,1.163,4.718,4.718,0,0,1,1.059,3.3v.979H501.1a2.227,2.227,0,0,0,.7,1.412,2.121,2.121,0,0,0,1.482.531,2.588,2.588,0,0,0,2.166-1.005l1.179,1.32a3.6,3.6,0,0,1-1.461,1.191,4.793,4.793,0,0,1-2.042.428m-.274-7.379a1.5,1.5,0,0,0-1.158.483,2.507,2.507,0,0,0-.569,1.384h3.337V7.387a1.786,1.786,0,0,0-.431-1.239,1.551,1.551,0,0,0-1.179-.437" fill="#500c75"/>
      <path id="Trazado_191512" data-name="Trazado 191512" d="M511.048,1.734V3.943h1.536V5.7h-1.536v4.482a1.06,1.06,0,0,0,.191.713.953.953,0,0,0,.73.217,3.9,3.9,0,0,0,.706-.058v1.818a4.968,4.968,0,0,1-1.453.215,2.29,2.29,0,0,1-2.573-2.548V5.7h-1.311V3.943h1.311V1.734Z" fill="#500c75"/>
      <path id="Trazado_191513" data-name="Trazado 191513" d="M516.792,1.734V3.943h1.536V5.7h-1.536v4.482a1.06,1.06,0,0,0,.191.713.954.954,0,0,0,.73.217,3.9,3.9,0,0,0,.706-.058v1.818a4.968,4.968,0,0,1-1.453.215,2.29,2.29,0,0,1-2.573-2.548V5.7h-1.311V3.943h1.311V1.734Z" fill="#500c75"/>
      <path id="Trazado_191514" data-name="Trazado 191514" d="M523.8,13.09a4.407,4.407,0,0,1-3.216-1.212,4.306,4.306,0,0,1-1.242-3.229V8.416A5.435,5.435,0,0,1,519.863,6a3.838,3.838,0,0,1,1.482-1.643,4.155,4.155,0,0,1,2.187-.578,3.725,3.725,0,0,1,2.9,1.163,4.718,4.718,0,0,1,1.059,3.3v.979h-5.719a2.227,2.227,0,0,0,.7,1.412,2.121,2.121,0,0,0,1.482.531,2.588,2.588,0,0,0,2.166-1.005l1.179,1.32a3.6,3.6,0,0,1-1.461,1.191,4.793,4.793,0,0,1-2.042.428m-.274-7.379a1.5,1.5,0,0,0-1.158.483,2.507,2.507,0,0,0-.569,1.384h3.337V7.387a1.786,1.786,0,0,0-.431-1.239,1.551,1.551,0,0,0-1.179-.437" fill="#500c75"/>
      <path id="Trazado_191515" data-name="Trazado 191515" d="M533.9,6.191a6.718,6.718,0,0,0-.863-.065,1.757,1.757,0,0,0-1.785.921v5.877h-2.4V3.943h2.266l.067,1.071a2.221,2.221,0,0,1,2-1.237,2.507,2.507,0,0,1,.747.108Z" fill="#500c75"/>
      <path id="Trazado_191516" data-name="Trazado 191516" d="M540.573,1.319l-.332,3.411H538.9V.173h1.677Zm2.7,0-.324,3.411H541.6V.173h1.668Z" fill="#500c75"/>
      <path id="Trazado_191517" data-name="Trazado 191517" d="M550.726,10.434H546.36l-.83,2.49h-2.648l4.5-12.086h2.307l4.524,12.086h-2.648Zm-3.694-2.018h3.021l-1.519-4.523Z" fill="#500c75"/>
      <path id="Trazado_191518" data-name="Trazado 191518" d="M555.473,1.319l-.332,3.411H553.8V.173h1.677Zm2.7,0-.324,3.411H556.5V.173h1.668Z" fill="#500c75"/>
    </g>
  </g>
  <g id="Grupo_145429" data-name="Grupo 145429">
    <g id="Grupo_145428" data-name="Grupo 145428" clip-path="url(#clip-path-4)">
      <rect id="Rectángulo_39420" data-name="Rectángulo 39420" width="375" height="124" transform="translate(0 30.924)" fill="url(#linear-gradient)"/>
    </g>
  </g>
  <g id="Grupo_145431" data-name="Grupo 145431">
    <g id="Grupo_145430" data-name="Grupo 145430" transform="translate(820 533.848) rotate(180)" clip-path="url(#clip-path-5)">
      <rect id="Rectángulo_39422" data-name="Rectángulo 39422" width="400" height="124" transform="translate(210 204.924)" fill="url(#linear-gradient)"/>
    </g>
  </g>
  <g id="Grupo_145433" data-name="Grupo 145433">
    <g id="Grupo_145432" data-name="Grupo 145432" clip-path="url(#clip-path-6)">
      <rect id="Rectángulo_39424" data-name="Rectángulo 39424" width="357" height="124" transform="translate(463 30.924)" fill="url(#linear-gradient)"/>
    </g>
  </g>
  <g id="Grupo_145435" data-name="Grupo 145435">
    <g id="Grupo_145434" data-name="Grupo 145434" clip-path="url(#clip-path)">
      <path id="Trazado_191519" data-name="Trazado 191519" d="M23.234,53.338H18v4.283h6.085v1.3H16.4V46.838H24v1.3H18v3.893h5.238Z" fill="#12263f"/>
      <path id="Trazado_191520" data-name="Trazado 191520" d="M27.277,49.943l.05,1.129a3.272,3.272,0,0,1,2.689-1.295q2.847,0,2.872,3.212v5.935H31.353V52.981a2.064,2.064,0,0,0-.445-1.435,1.773,1.773,0,0,0-1.357-.465,2.218,2.218,0,0,0-1.311.4,2.7,2.7,0,0,0-.88,1.045v6.4H25.824V49.943Z" fill="#12263f"/>
      <path id="Trazado_191521" data-name="Trazado 191521" d="M34.83,54.358a5.259,5.259,0,0,1,.98-3.324,3.332,3.332,0,0,1,5.063-.179V46.174h1.536v12.75H41l-.075-.963a3.126,3.126,0,0,1-2.565,1.129,3.067,3.067,0,0,1-2.544-1.279,5.32,5.32,0,0,1-.984-3.337Zm1.536.175A3.985,3.985,0,0,0,37,56.924a2.039,2.039,0,0,0,1.743.863,2.24,2.24,0,0,0,2.133-1.313V52.349a2.257,2.257,0,0,0-2.116-1.269,2.048,2.048,0,0,0-1.76.871,4.382,4.382,0,0,0-.631,2.582" fill="#12263f"/>
      <path id="Trazado_191522" data-name="Trazado 191522" d="M52.8,53.537a7.507,7.507,0,0,1-2.984-1.449,2.769,2.769,0,0,1-.934-2.121A2.923,2.923,0,0,1,50.026,47.6a4.536,4.536,0,0,1,2.967-.933,4.948,4.948,0,0,1,2.22.481,3.658,3.658,0,0,1,1.511,1.328,3.4,3.4,0,0,1,.536,1.851h-1.6a2.208,2.208,0,0,0-.7-1.728,2.831,2.831,0,0,0-1.967-.629,2.9,2.9,0,0,0-1.838.52,1.731,1.731,0,0,0-.661,1.442,1.558,1.558,0,0,0,.627,1.252,6.153,6.153,0,0,0,2.133.936,9.875,9.875,0,0,1,2.358.934,3.572,3.572,0,0,1,1.261,1.191,3.031,3.031,0,0,1,.411,1.6,2.824,2.824,0,0,1-1.145,2.354,4.888,4.888,0,0,1-3.063.884,5.666,5.666,0,0,1-2.324-.478,3.916,3.916,0,0,1-1.665-1.307,3.2,3.2,0,0,1-.585-1.884h1.6a2.082,2.082,0,0,0,.809,1.73,3.407,3.407,0,0,0,2.163.636,3.126,3.126,0,0,0,1.934-.516,1.669,1.669,0,0,0,.672-1.4,1.642,1.642,0,0,0-.622-1.374,7.167,7.167,0,0,0-2.258-.958" fill="#12263f"/>
      <path id="Trazado_191523" data-name="Trazado 191523" d="M62.024,56.674l2.092-6.731h1.643l-3.61,10.368q-.84,2.241-2.665,2.24l-.291-.024-.572-.109V61.174l.415.033a2.039,2.039,0,0,0,1.216-.316,2.278,2.278,0,0,0,.718-1.154l.34-.913-3.2-8.881h1.677Z" fill="#12263f"/>
      <path id="Trazado_191524" data-name="Trazado 191524" d="M72.358,56.541a1.131,1.131,0,0,0-.469-.967,4.53,4.53,0,0,0-1.635-.594,7.736,7.736,0,0,1-1.851-.6,2.631,2.631,0,0,1-1.013-.83,1.98,1.98,0,0,1-.328-1.145A2.332,2.332,0,0,1,68,50.54a3.648,3.648,0,0,1,2.386-.764,3.756,3.756,0,0,1,2.478.788,2.508,2.508,0,0,1,.951,2.018H72.267a1.388,1.388,0,0,0-.536-1.088,2,2,0,0,0-1.349-.456,2.1,2.1,0,0,0-1.311.365,1.147,1.147,0,0,0-.473.954.931.931,0,0,0,.44.839,5.393,5.393,0,0,0,1.59.54,8.258,8.258,0,0,1,1.863.614,2.717,2.717,0,0,1,1.058.859,2.111,2.111,0,0,1,.345,1.225,2.3,2.3,0,0,1-.963,1.929,4.035,4.035,0,0,1-2.5.727,4.515,4.515,0,0,1-1.909-.382,3.115,3.115,0,0,1-1.3-1.066,2.571,2.571,0,0,1-.469-1.482h1.536a1.59,1.59,0,0,0,.618,1.224,2.4,2.4,0,0,0,1.523.452,2.47,2.47,0,0,0,1.4-.353,1.083,1.083,0,0,0,.527-.942" fill="#12263f"/>
      <path id="Trazado_191525" data-name="Trazado 191525" d="M77.978,47.768v2.175h1.677v1.186H77.978v5.577a1.249,1.249,0,0,0,.224.811.945.945,0,0,0,.764.271,3.753,3.753,0,0,0,.73-.1v1.237a4.436,4.436,0,0,1-1.178.165,1.912,1.912,0,0,1-1.553-.623,2.674,2.674,0,0,1-.523-1.767V51.129H74.807V49.943h1.635V47.768Z" fill="#12263f"/>
      <path id="Trazado_191526" data-name="Trazado 191526" d="M85.175,59.09a3.928,3.928,0,0,1-2.972-1.2,4.457,4.457,0,0,1-1.145-3.209V54.4a5.392,5.392,0,0,1,.51-2.386A3.981,3.981,0,0,1,83,50.37a3.6,3.6,0,0,1,1.988-.594,3.367,3.367,0,0,1,2.723,1.154,5,5,0,0,1,.971,3.3v.639H82.593a3.184,3.184,0,0,0,.777,2.145,2.438,2.438,0,0,0,1.888.818,2.681,2.681,0,0,0,1.378-.332,3.472,3.472,0,0,0,.988-.879l.938.73a3.772,3.772,0,0,1-3.387,1.735m-.191-8.052a2.05,2.05,0,0,0-1.561.677,3.293,3.293,0,0,0-.78,1.9h4.5v-.116a2.916,2.916,0,0,0-.631-1.813,1.927,1.927,0,0,0-1.527-.644" fill="#12263f"/>
      <path id="Trazado_191527" data-name="Trazado 191527" d="M91.9,49.943l.042,1A3.317,3.317,0,0,1,94.6,49.777a2.568,2.568,0,0,1,2.565,1.444,3.411,3.411,0,0,1,1.166-1.046,3.454,3.454,0,0,1,1.7-.4q2.955,0,3.005,3.13v6.017H101.5V53a2.062,2.062,0,0,0-.44-1.441,1.937,1.937,0,0,0-1.477-.476,2.044,2.044,0,0,0-1.42.509,2.076,2.076,0,0,0-.656,1.374v5.96H95.965V53.04a1.713,1.713,0,0,0-1.917-1.959,2.054,2.054,0,0,0-2.067,1.286v6.557H90.445V49.943Z" fill="#12263f"/>
      <path id="Trazado_191528" data-name="Trazado 191528" d="M262,55.753a1.277,1.277,0,0,0-.5-1.083,6.515,6.515,0,0,0-1.793-.8,12.72,12.72,0,0,1-2.051-.826,3.349,3.349,0,0,1-2.058-3,2.927,2.927,0,0,1,.551-1.748,3.608,3.608,0,0,1,1.586-1.2,5.945,5.945,0,0,1,2.321-.432,5.427,5.427,0,0,1,2.307.469,3.665,3.665,0,0,1,1.572,1.324,3.454,3.454,0,0,1,.561,1.942h-2.49a1.631,1.631,0,0,0-.523-1.291,2.155,2.155,0,0,0-1.469-.46,2.289,2.289,0,0,0-1.419.386,1.216,1.216,0,0,0-.507,1.017,1.168,1.168,0,0,0,.594.988,6.672,6.672,0,0,0,1.747.746,7.552,7.552,0,0,1,3.1,1.586,3.156,3.156,0,0,1,.971,2.357,2.907,2.907,0,0,1-1.186,2.461,5.2,5.2,0,0,1-3.2.893,6.164,6.164,0,0,1-2.54-.511,4.018,4.018,0,0,1-1.747-1.4,3.585,3.585,0,0,1-.6-2.059h2.5q0,2,2.39,2a2.331,2.331,0,0,0,1.387-.361,1.175,1.175,0,0,0,.5-1.009" fill="#500c75"/>
      <path id="Trazado_191529" data-name="Trazado 191529" d="M270.162,59.09a4.406,4.406,0,0,1-3.215-1.212,4.3,4.3,0,0,1-1.242-3.229v-.233A5.42,5.42,0,0,1,266.228,52a3.831,3.831,0,0,1,1.482-1.643,4.155,4.155,0,0,1,2.187-.578,3.727,3.727,0,0,1,2.9,1.163,4.718,4.718,0,0,1,1.059,3.3v.979h-5.72a2.233,2.233,0,0,0,.7,1.412,2.121,2.121,0,0,0,1.482.531,2.589,2.589,0,0,0,2.166-1l1.178,1.32a3.585,3.585,0,0,1-1.461,1.191,4.79,4.79,0,0,1-2.042.428m-.273-7.379a1.5,1.5,0,0,0-1.158.483,2.507,2.507,0,0,0-.569,1.384H271.5v-.191a1.791,1.791,0,0,0-.431-1.239,1.552,1.552,0,0,0-1.179-.437" fill="#500c75"/>
      <path id="Trazado_191530" data-name="Trazado 191530" d="M279.352,59.09a4.407,4.407,0,0,1-3.216-1.212,4.306,4.306,0,0,1-1.242-3.229v-.233A5.421,5.421,0,0,1,275.418,52a3.829,3.829,0,0,1,1.481-1.643,4.156,4.156,0,0,1,2.188-.578,3.725,3.725,0,0,1,2.9,1.163,4.718,4.718,0,0,1,1.059,3.3v.979h-5.719a2.227,2.227,0,0,0,.7,1.412,2.121,2.121,0,0,0,1.482.531,2.591,2.591,0,0,0,2.167-1l1.178,1.32a3.591,3.591,0,0,1-1.461,1.191,4.793,4.793,0,0,1-2.042.428m-.274-7.379a1.5,1.5,0,0,0-1.158.483,2.507,2.507,0,0,0-.569,1.384h3.337v-.191a1.781,1.781,0,0,0-.431-1.239,1.549,1.549,0,0,0-1.179-.437" fill="#500c75"/>
      <path id="Trazado_191531" data-name="Trazado 191531" d="M289.271,56.441a.77.77,0,0,0-.436-.691,4.933,4.933,0,0,0-1.4-.453q-3.206-.674-3.2-2.722a2.467,2.467,0,0,1,.992-2,4,4,0,0,1,2.594-.8,4.3,4.3,0,0,1,2.735.806,2.534,2.534,0,0,1,1.025,2.091h-2.4a1.162,1.162,0,0,0-.332-.851,1.407,1.407,0,0,0-1.038-.336,1.441,1.441,0,0,0-.937.273.866.866,0,0,0-.332.7.74.74,0,0,0,.377.643,3.878,3.878,0,0,0,1.274.424,10.48,10.48,0,0,1,1.511.4,2.483,2.483,0,0,1,1.9,2.415,2.344,2.344,0,0,1-1.055,1.989,4.54,4.54,0,0,1-2.722.759,4.737,4.737,0,0,1-2-.4,3.365,3.365,0,0,1-1.374-1.1,2.567,2.567,0,0,1-.5-1.515h2.274a1.251,1.251,0,0,0,.473.979,1.876,1.876,0,0,0,1.178.341,1.746,1.746,0,0,0,1.042-.261.814.814,0,0,0,.353-.687" fill="#500c75"/>
      <path id="Trazado_191532" data-name="Trazado 191532" d="M298.668,47.319l-.332,3.411h-1.345V46.173h1.677Zm2.7,0-.324,3.411H299.7V46.173h1.669Z" fill="#500c75"/>
      <path id="Trazado_191533" data-name="Trazado 191533" d="M308.819,56.434h-4.366l-.83,2.49h-2.648l4.5-12.086h2.307l4.525,12.086h-2.649Zm-3.694-2.018h3.021l-1.518-4.523Z" fill="#500c75"/>
      <path id="Trazado_191534" data-name="Trazado 191534" d="M316.008,47.734v2.209h1.535V51.7h-1.535v4.482a1.066,1.066,0,0,0,.19.713.958.958,0,0,0,.731.217,3.9,3.9,0,0,0,.706-.058v1.818a4.973,4.973,0,0,1-1.453.215,2.29,2.29,0,0,1-2.573-2.548V51.7H312.3v-1.76h1.312V47.734Z" fill="#500c75"/>
      <path id="Trazado_191535" data-name="Trazado 191535" d="M321.752,47.734v2.209h1.535V51.7h-1.535v4.482a1.066,1.066,0,0,0,.19.713.958.958,0,0,0,.731.217,3.9,3.9,0,0,0,.706-.058v1.818a4.973,4.973,0,0,1-1.453.215,2.29,2.29,0,0,1-2.573-2.548V51.7h-1.312v-1.76h1.312V47.734Z" fill="#500c75"/>
      <path id="Trazado_191536" data-name="Trazado 191536" d="M329.828,58.924a2.689,2.689,0,0,1-.24-.805,2.9,2.9,0,0,1-2.266.971,3.193,3.193,0,0,1-2.188-.764,2.454,2.454,0,0,1-.867-1.925,2.536,2.536,0,0,1,1.058-2.192,5.222,5.222,0,0,1,3.059-.771h1.105v-.516a1.479,1.479,0,0,0-.321-1,1.26,1.26,0,0,0-1.008-.373,1.432,1.432,0,0,0-.951.291.987.987,0,0,0-.343.8h-2.4a2.416,2.416,0,0,1,.482-1.446,3.191,3.191,0,0,1,1.361-1.041,4.958,4.958,0,0,1,1.975-.377,3.924,3.924,0,0,1,2.636.833,2.918,2.918,0,0,1,.976,2.345v3.894a4.293,4.293,0,0,0,.356,1.934v.141Zm-1.983-1.668a2.059,2.059,0,0,0,.979-.237,1.561,1.561,0,0,0,.665-.635V54.84h-.9q-1.8,0-1.918,1.245l-.008.142a.956.956,0,0,0,.316.738,1.228,1.228,0,0,0,.863.291" fill="#500c75"/>
      <path id="Trazado_191537" data-name="Trazado 191537" d="M337.474,57.156a1.577,1.577,0,0,0,1.079-.365,1.288,1.288,0,0,0,.432-.972h2.249a3.073,3.073,0,0,1-.5,1.673,3.293,3.293,0,0,1-1.341,1.179,4.2,4.2,0,0,1-1.88.419,3.9,3.9,0,0,1-3.038-1.225,4.846,4.846,0,0,1-1.112-3.383v-.157a4.79,4.79,0,0,1,1.1-3.312,3.85,3.85,0,0,1,3.029-1.237,3.776,3.776,0,0,1,2.7.959,3.4,3.4,0,0,1,1.033,2.552h-2.249a1.656,1.656,0,0,0-.432-1.139,1.607,1.607,0,0,0-2.362.173,3.548,3.548,0,0,0-.427,1.982v.25a3.591,3.591,0,0,0,.423,2,1.464,1.464,0,0,0,1.287.607" fill="#500c75"/>
      <path id="Trazado_191538" data-name="Trazado 191538" d="M345.866,55.321l-.863.863v2.74h-2.4V46.174H345v7.064l.465-.6,2.3-2.7h2.88L347.4,53.685l3.527,5.239h-2.755Z" fill="#500c75"/>
      <path id="Trazado_191539" data-name="Trazado 191539" d="M352.971,47.319l-.332,3.411h-1.345V46.173h1.677Zm2.7,0-.324,3.411H354V46.173h1.669Z" fill="#500c75"/>
      <path id="Trazado_191540" data-name="Trazado 191540" d="M512.346,55.753a1.277,1.277,0,0,0-.5-1.083,6.515,6.515,0,0,0-1.793-.8,12.665,12.665,0,0,1-2.05-.826,3.348,3.348,0,0,1-2.059-3A2.921,2.921,0,0,1,506.5,48.3a3.6,3.6,0,0,1,1.586-1.2,5.94,5.94,0,0,1,2.32-.432,5.424,5.424,0,0,1,2.307.469,3.661,3.661,0,0,1,1.573,1.324,3.462,3.462,0,0,1,.561,1.942h-2.491a1.631,1.631,0,0,0-.523-1.291,2.153,2.153,0,0,0-1.469-.46,2.289,2.289,0,0,0-1.419.386,1.216,1.216,0,0,0-.507,1.017,1.168,1.168,0,0,0,.594.988,6.687,6.687,0,0,0,1.747.746,7.552,7.552,0,0,1,3.1,1.586,3.157,3.157,0,0,1,.972,2.357,2.908,2.908,0,0,1-1.187,2.461,5.2,5.2,0,0,1-3.2.893,6.157,6.157,0,0,1-2.54-.511,4.007,4.007,0,0,1-1.747-1.4,3.578,3.578,0,0,1-.6-2.059h2.5q0,2,2.391,2a2.33,2.33,0,0,0,1.386-.361,1.176,1.176,0,0,0,.5-1.009" fill="#500c75"/>
      <path id="Trazado_191541" data-name="Trazado 191541" d="M520.506,59.09a4.407,4.407,0,0,1-3.216-1.212,4.305,4.305,0,0,1-1.242-3.229v-.233A5.435,5.435,0,0,1,516.571,52a3.838,3.838,0,0,1,1.482-1.643,4.155,4.155,0,0,1,2.187-.578,3.725,3.725,0,0,1,2.9,1.163,4.718,4.718,0,0,1,1.059,3.3v.979h-5.719a2.227,2.227,0,0,0,.7,1.412,2.121,2.121,0,0,0,1.482.531,2.588,2.588,0,0,0,2.166-1l1.179,1.32a3.6,3.6,0,0,1-1.461,1.191,4.792,4.792,0,0,1-2.042.428m-.274-7.379a1.5,1.5,0,0,0-1.158.483,2.508,2.508,0,0,0-.569,1.384h3.337v-.191a1.786,1.786,0,0,0-.431-1.239,1.551,1.551,0,0,0-1.179-.437" fill="#500c75"/>
      <path id="Trazado_191542" data-name="Trazado 191542" d="M529.7,59.09a4.407,4.407,0,0,1-3.216-1.212,4.305,4.305,0,0,1-1.242-3.229v-.233A5.434,5.434,0,0,1,525.76,52a3.838,3.838,0,0,1,1.482-1.643,4.154,4.154,0,0,1,2.187-.578,3.725,3.725,0,0,1,2.9,1.163,4.718,4.718,0,0,1,1.059,3.3v.979H527.67a2.228,2.228,0,0,0,.7,1.412,2.121,2.121,0,0,0,1.482.531,2.588,2.588,0,0,0,2.166-1l1.179,1.32a3.6,3.6,0,0,1-1.461,1.191,4.793,4.793,0,0,1-2.042.428m-.274-7.379a1.5,1.5,0,0,0-1.158.483,2.507,2.507,0,0,0-.569,1.384h3.337v-.191a1.786,1.786,0,0,0-.431-1.239,1.55,1.55,0,0,0-1.179-.437" fill="#500c75"/>
      <path id="Trazado_191543" data-name="Trazado 191543" d="M539.614,56.441a.77.77,0,0,0-.436-.691,4.933,4.933,0,0,0-1.4-.453q-3.206-.674-3.205-2.722a2.468,2.468,0,0,1,.993-2,4,4,0,0,1,2.593-.8,4.307,4.307,0,0,1,2.736.806,2.534,2.534,0,0,1,1.025,2.091h-2.4a1.162,1.162,0,0,0-.332-.851,1.408,1.408,0,0,0-1.038-.336,1.444,1.444,0,0,0-.938.273.869.869,0,0,0-.332.7.739.739,0,0,0,.378.643,3.879,3.879,0,0,0,1.274.424,10.481,10.481,0,0,1,1.511.4,2.483,2.483,0,0,1,1.9,2.415,2.344,2.344,0,0,1-1.055,1.989,4.54,4.54,0,0,1-2.722.759,4.742,4.742,0,0,1-2.005-.4,3.364,3.364,0,0,1-1.374-1.1,2.567,2.567,0,0,1-.5-1.515h2.275a1.248,1.248,0,0,0,.473.979,1.874,1.874,0,0,0,1.178.341,1.745,1.745,0,0,0,1.042-.261.817.817,0,0,0,.353-.687" fill="#500c75"/>
      <path id="Trazado_191544" data-name="Trazado 191544" d="M549.01,47.319l-.332,3.411h-1.345V46.173h1.677Zm2.7,0-.324,3.411H550.04V46.173h1.668Z" fill="#500c75"/>
      <path id="Trazado_191545" data-name="Trazado 191545" d="M559.163,56.434H554.8l-.83,2.49h-2.648l4.5-12.086h2.307l4.524,12.086H560Zm-3.694-2.018h3.021l-1.519-4.523Z" fill="#500c75"/>
      <path id="Trazado_191546" data-name="Trazado 191546" d="M566.351,47.734v2.209h1.536V51.7h-1.536v4.482a1.06,1.06,0,0,0,.191.713.954.954,0,0,0,.73.217,3.9,3.9,0,0,0,.706-.058v1.818a4.968,4.968,0,0,1-1.453.215,2.29,2.29,0,0,1-2.573-2.548V51.7h-1.311v-1.76h1.311V47.734Z" fill="#500c75"/>
      <path id="Trazado_191547" data-name="Trazado 191547" d="M572.095,47.734v2.209h1.536V51.7h-1.536v4.482a1.06,1.06,0,0,0,.191.713.953.953,0,0,0,.73.217,3.9,3.9,0,0,0,.706-.058v1.818a4.967,4.967,0,0,1-1.453.215,2.29,2.29,0,0,1-2.573-2.548V51.7h-1.311v-1.76H569.7V47.734Z" fill="#500c75"/>
      <path id="Trazado_191548" data-name="Trazado 191548" d="M580.172,58.924a2.659,2.659,0,0,1-.241-.805,2.9,2.9,0,0,1-2.266.971,3.188,3.188,0,0,1-2.187-.764,2.452,2.452,0,0,1-.868-1.925,2.537,2.537,0,0,1,1.059-2.192,5.218,5.218,0,0,1,3.059-.771h1.1v-.516a1.484,1.484,0,0,0-.32-1,1.26,1.26,0,0,0-1.009-.373,1.429,1.429,0,0,0-.95.291.984.984,0,0,0-.344.8h-2.4a2.415,2.415,0,0,1,.481-1.446,3.191,3.191,0,0,1,1.361-1.041,4.959,4.959,0,0,1,1.976-.377,3.928,3.928,0,0,1,2.636.833,2.92,2.92,0,0,1,.975,2.345v3.894a4.278,4.278,0,0,0,.357,1.934v.141Zm-1.984-1.668a2.059,2.059,0,0,0,.979-.237,1.555,1.555,0,0,0,.665-.635V54.84h-.9q-1.8,0-1.917,1.245l-.009.142a.956.956,0,0,0,.316.738,1.228,1.228,0,0,0,.863.291" fill="#500c75"/>
      <path id="Trazado_191549" data-name="Trazado 191549" d="M587.817,57.156a1.575,1.575,0,0,0,1.079-.365,1.281,1.281,0,0,0,.432-.972h2.249a3.073,3.073,0,0,1-.5,1.673,3.286,3.286,0,0,1-1.341,1.179,4.2,4.2,0,0,1-1.879.419,3.9,3.9,0,0,1-3.039-1.225,4.846,4.846,0,0,1-1.112-3.383v-.157a4.789,4.789,0,0,1,1.1-3.312,3.853,3.853,0,0,1,3.03-1.237,3.775,3.775,0,0,1,2.7.959,3.392,3.392,0,0,1,1.033,2.552h-2.249a1.647,1.647,0,0,0-.432-1.139,1.607,1.607,0,0,0-2.362.173,3.548,3.548,0,0,0-.427,1.982v.25a3.591,3.591,0,0,0,.423,2,1.465,1.465,0,0,0,1.287.607" fill="#500c75"/>
      <path id="Trazado_191550" data-name="Trazado 191550" d="M596.209,55.321l-.863.863v2.74h-2.4V46.174h2.4v7.064l.465-.6,2.3-2.7h2.88l-3.245,3.743,3.527,5.239h-2.755Z" fill="#500c75"/>
      <path id="Trazado_191551" data-name="Trazado 191551" d="M603.314,47.319l-.332,3.411h-1.345V46.173h1.677Zm2.7,0-.324,3.411h-1.344V46.173h1.668Z" fill="#500c75"/>
      <path id="Trazado_191552" data-name="Trazado 191552" d="M28,83.924H47a13,13,0,0,1,13,13v19a13,13,0,0,1-13,13H28a13,13,0,0,1-13-13v-19a13,13,0,0,1,13-13" fill="#fff"/>
      <rect id="Rectángulo_39426" data-name="Rectángulo 39426" width="44" height="44" rx="12.5" transform="translate(15.5 84.424)" fill="none" stroke="#707070" stroke-width="1"/>
      <path id="Trazado_191553" data-name="Trazado 191553" d="M88,83.924h19a13,13,0,0,1,13,13v19a13,13,0,0,1-13,13H88a13,13,0,0,1-13-13v-19a13,13,0,0,1,13-13" fill="#ffecf2"/>
      <rect id="Rectángulo_39427" data-name="Rectángulo 39427" width="44" height="44" rx="12.5" transform="translate(75.5 84.424)" fill="none" stroke="#e01650" stroke-width="1"/>
      <path id="Trazado_191554" data-name="Trazado 191554" d="M148,83.924h19a13,13,0,0,1,13,13v19a13,13,0,0,1-13,13H148a13,13,0,0,1-13-13v-19a13,13,0,0,1,13-13" fill="#fff"/>
      <rect id="Rectángulo_39428" data-name="Rectángulo 39428" width="44" height="44" rx="12.5" transform="translate(135.5 84.424)" fill="none" stroke="#707070" stroke-width="1"/>
      <path id="Trazado_191555" data-name="Trazado 191555" d="M208,83.924h19a13,13,0,0,1,13,13v19a13,13,0,0,1-13,13H208a13,13,0,0,1-13-13v-19a13,13,0,0,1,13-13" fill="#fff"/>
      <rect id="Rectángulo_39429" data-name="Rectángulo 39429" width="44" height="44" rx="12.5" transform="translate(195.5 84.424)" fill="none" stroke="#707070" stroke-width="1"/>
      <path id="Trazado_191556" data-name="Trazado 191556" d="M268,83.924h19a13,13,0,0,1,13,13v19a13,13,0,0,1-13,13H268a13,13,0,0,1-13-13v-19a13,13,0,0,1,13-13" fill="#ffecf2"/>
      <rect id="Rectángulo_39430" data-name="Rectángulo 39430" width="44" height="44" rx="12.5" transform="translate(255.5 84.424)" fill="none" stroke="#e01650" stroke-width="1"/>
      <path id="Trazado_191557" data-name="Trazado 191557" d="M328,83.924h19a13,13,0,0,1,13,13v19a13,13,0,0,1-13,13H328a13,13,0,0,1-13-13v-19a13,13,0,0,1,13-13" fill="#fff"/>
      <rect id="Rectángulo_39431" data-name="Rectángulo 39431" width="44" height="44" rx="12.5" transform="translate(315.5 84.424)" fill="none" stroke="#707070" stroke-width="1"/>
      <path id="Trazado_191558" data-name="Trazado 191558" d="M31.017,114.923v-1.708l1.015-.147,4.522-12.363h2.92l4.492,12.363,1.016.147v1.708H40.138v-1.708l.986-.176-.625-1.953h-5l-.625,1.953.987.176v1.708Zm5.156-5.937h3.652l-1.66-4.873-.137-.43H37.97l-.147.459Z" fill="#e01650"/>
      <path id="Trazado_191559" data-name="Trazado 191559" d="M95.037,114.924v-1.709l1.523-.293V102.9H93.973l-.157,1.7H91.658v-3.9h12.686v3.9h-2.168l-.157-1.7H99.412v10.019l1.533.293v1.709Z" fill="#e01650"/>
      <path id="Trazado_191560" data-name="Trazado 191560" d="M155.037,114.924v-1.709l1.523-.293V102.9h-2.587l-.157,1.7h-2.158v-3.9h12.686v3.9h-2.168l-.157-1.7h-2.607v10.019l1.533.293v1.709Z" fill="#e01650"/>
      <path id="Trazado_191561" data-name="Trazado 191561" d="M211.017,114.923v-1.708l1.015-.147,4.522-12.363h2.92l4.492,12.363,1.016.147v1.708h-4.844v-1.708l.986-.176-.625-1.953h-5l-.625,1.953.987.176v1.708Zm5.156-5.937h3.652l-1.66-4.873-.137-.43h-.058l-.147.459Z" fill="#e01650"/>
      <path id="Trazado_191562" data-name="Trazado 191562" d="M278.864,115.129a7.222,7.222,0,0,1-3.6-.864,5.922,5.922,0,0,1-2.368-2.451,7.968,7.968,0,0,1-.835-3.755v-.479a8.035,8.035,0,0,1,.806-3.667,6.072,6.072,0,0,1,2.3-2.505,6.717,6.717,0,0,1,3.555-.908,8.742,8.742,0,0,1,2.709.41,6.674,6.674,0,0,1,2.261,1.25V105.6h-2.119l-.293-2.158a3.694,3.694,0,0,0-.7-.4,4.074,4.074,0,0,0-.825-.254,5.012,5.012,0,0,0-.962-.088,3.59,3.59,0,0,0-2.08.6,3.773,3.773,0,0,0-1.333,1.685,6.564,6.564,0,0,0-.464,2.583v.5a6.32,6.32,0,0,0,.488,2.588,3.883,3.883,0,0,0,1.387,1.694,3.744,3.744,0,0,0,2.129.6,5.494,5.494,0,0,0,1.235-.141,6.272,6.272,0,0,0,1.128-.366l.293-2h2.119v3.4a7.976,7.976,0,0,1-2.07.923,9.46,9.46,0,0,1-2.754.376" fill="#e01650"/>
      <path id="Trazado_191563" data-name="Trazado 191563" d="M331,114.924v-1.709l1.514-.293v-10.2L331,102.424v-1.719h5.811v1.719l-1.445.293v10.2l1.445.293v1.709Zm3.77-3.486-1.475-1.69,6.963-7.178.02-.029-1.406-.117v-1.719h5.849v1.719l-1.338.264Zm4.414,3.486v-1.709l1.328-.117h.01l-3.613-4.981,1.884-1.884,5.039,6.738,1.4.244v1.709Z" fill="#e01650"/>
      <path id="Trazado_191564" data-name="Trazado 191564" d="M671.691,58.924h-1.6L664,49.611v9.313h-1.6V46.838H664l6.1,9.356V46.838h1.585Z" fill="#12263f"/>
      <path id="Trazado_191565" data-name="Trazado 191565" d="M678.008,59.09a3.928,3.928,0,0,1-2.972-1.2,4.457,4.457,0,0,1-1.145-3.209V54.4a5.391,5.391,0,0,1,.51-2.386,3.981,3.981,0,0,1,1.428-1.644,3.6,3.6,0,0,1,1.988-.594,3.367,3.367,0,0,1,2.723,1.154,5,5,0,0,1,.971,3.3v.639h-6.085a3.183,3.183,0,0,0,.777,2.145,2.438,2.438,0,0,0,1.888.818,2.681,2.681,0,0,0,1.378-.332,3.472,3.472,0,0,0,.988-.879l.938.73a3.772,3.772,0,0,1-3.387,1.735m-.191-8.052a2.05,2.05,0,0,0-1.561.677,3.293,3.293,0,0,0-.78,1.9h4.5v-.116a2.915,2.915,0,0,0-.631-1.813,1.927,1.927,0,0,0-1.527-.644" fill="#12263f"/>
      <path id="Trazado_191566" data-name="Trazado 191566" d="M685.371,47.768v2.175h1.677v1.186h-1.677v5.577a1.249,1.249,0,0,0,.224.811.945.945,0,0,0,.764.271,3.753,3.753,0,0,0,.73-.1v1.237a4.436,4.436,0,0,1-1.178.165,1.912,1.912,0,0,1-1.553-.623,2.674,2.674,0,0,1-.523-1.767V51.129H682.2V49.943h1.635V47.768Z" fill="#12263f"/>
      <path id="Trazado_191567" data-name="Trazado 191567" d="M696.793,56.807l1.727-6.864h1.535l-2.615,8.981H696.2l-2.183-6.806-2.125,6.806h-1.245l-2.606-8.981h1.527l1.768,6.723,2.092-6.723h1.237Z" fill="#12263f"/>
      <path id="Trazado_191568" data-name="Trazado 191568" d="M701.209,54.349a5.3,5.3,0,0,1,.519-2.373,3.864,3.864,0,0,1,1.444-1.627,3.93,3.93,0,0,1,2.113-.573,3.786,3.786,0,0,1,2.968,1.271,4.887,4.887,0,0,1,1.132,3.378v.108a5.349,5.349,0,0,1-.5,2.353,3.819,3.819,0,0,1-1.436,1.623,3.979,3.979,0,0,1-2.146.581,3.78,3.78,0,0,1-2.959-1.27,4.862,4.862,0,0,1-1.133-3.362Zm1.544.184a3.84,3.84,0,0,0,.693,2.4,2.349,2.349,0,0,0,3.715-.012,4.206,4.206,0,0,0,.689-2.57,3.832,3.832,0,0,0-.7-2.394,2.229,2.229,0,0,0-1.863-.917,2.206,2.206,0,0,0-1.835.905,4.168,4.168,0,0,0-.7,2.59" fill="#12263f"/>
      <path id="Trazado_191569" data-name="Trazado 191569" d="M715.652,51.32a4.562,4.562,0,0,0-.755-.059,2.025,2.025,0,0,0-2.051,1.288v6.375h-1.535V49.942H712.8l.025,1.038a2.389,2.389,0,0,1,2.141-1.2,1.577,1.577,0,0,1,.681.116Z" fill="#12263f"/>
      <path id="Trazado_191570" data-name="Trazado 191570" d="M719.57,54.766l-.963,1v3.154h-1.536V46.174h1.536v7.711l.822-.987,2.8-2.955h1.868L720.6,53.695l3.9,5.229h-1.8Z" fill="#12263f"/>
      <path id="Trazado_191571" data-name="Trazado 191571" d="M732.188,46.838l3.951,9.861,3.951-9.861h2.067V58.924h-1.594V54.217l.15-5.08-3.968,9.787h-1.22l-3.96-9.762.158,5.055v4.707h-1.594V46.838Z" fill="#12263f"/>
      <path id="Trazado_191572" data-name="Trazado 191572" d="M744.323,54.349a5.3,5.3,0,0,1,.519-2.373,3.865,3.865,0,0,1,1.444-1.627,3.93,3.93,0,0,1,2.113-.573,3.786,3.786,0,0,1,2.968,1.271,4.888,4.888,0,0,1,1.132,3.378v.108a5.35,5.35,0,0,1-.5,2.353,3.819,3.819,0,0,1-1.436,1.623,3.979,3.979,0,0,1-2.146.581,3.78,3.78,0,0,1-2.959-1.27,4.862,4.862,0,0,1-1.133-3.362Zm1.544.184a3.84,3.84,0,0,0,.693,2.4,2.349,2.349,0,0,0,3.715-.012,4.206,4.206,0,0,0,.689-2.57,3.832,3.832,0,0,0-.7-2.394,2.229,2.229,0,0,0-1.863-.917,2.206,2.206,0,0,0-1.835.905,4.168,4.168,0,0,0-.7,2.59" fill="#12263f"/>
      <path id="Trazado_191573" data-name="Trazado 191573" d="M755.878,49.943l.05,1.129a3.272,3.272,0,0,1,2.689-1.295q2.847,0,2.872,3.212v5.935h-1.535V52.981a2.064,2.064,0,0,0-.445-1.435,1.773,1.773,0,0,0-1.357-.465,2.218,2.218,0,0,0-1.311.4,2.7,2.7,0,0,0-.88,1.045v6.4h-1.536V49.943Z" fill="#12263f"/>
      <path id="Trazado_191574" data-name="Trazado 191574" d="M763.813,47.561a.916.916,0,0,1,.229-.631.854.854,0,0,1,.676-.258.87.87,0,0,1,.681.258.9.9,0,0,1,.232.631.877.877,0,0,1-.232.622.887.887,0,0,1-.681.249.871.871,0,0,1-.676-.249.888.888,0,0,1-.229-.622m1.661,11.363h-1.536V49.943h1.536Z" fill="#12263f"/>
      <path id="Trazado_191575" data-name="Trazado 191575" d="M770.014,47.768v2.175h1.677v1.186h-1.677v5.577a1.249,1.249,0,0,0,.224.811.945.945,0,0,0,.764.271,3.753,3.753,0,0,0,.73-.1v1.237a4.436,4.436,0,0,1-1.178.165A1.912,1.912,0,0,1,769,58.467a2.674,2.674,0,0,1-.523-1.767V51.129h-1.635V49.943h1.635V47.768Z" fill="#12263f"/>
      <path id="Trazado_191576" data-name="Trazado 191576" d="M772.911,54.349a5.3,5.3,0,0,1,.519-2.373,3.865,3.865,0,0,1,1.444-1.627,3.93,3.93,0,0,1,2.113-.573,3.786,3.786,0,0,1,2.968,1.271,4.888,4.888,0,0,1,1.132,3.378v.108a5.35,5.35,0,0,1-.5,2.353,3.819,3.819,0,0,1-1.436,1.623A3.979,3.979,0,0,1,777,59.09a3.78,3.78,0,0,1-2.959-1.27,4.862,4.862,0,0,1-1.133-3.362Zm1.544.184a3.84,3.84,0,0,0,.693,2.4,2.349,2.349,0,0,0,3.715-.012,4.206,4.206,0,0,0,.689-2.57,3.832,3.832,0,0,0-.7-2.394,2.229,2.229,0,0,0-1.863-.917,2.206,2.206,0,0,0-1.835.905,4.169,4.169,0,0,0-.7,2.59" fill="#12263f"/>
      <path id="Trazado_191577" data-name="Trazado 191577" d="M787.354,51.32a4.562,4.562,0,0,0-.755-.059,2.025,2.025,0,0,0-2.051,1.288v6.375h-1.535V49.942h1.494l.025,1.038a2.389,2.389,0,0,1,2.141-1.2,1.578,1.578,0,0,1,.681.116Z" fill="#12263f"/>
      <path id="Trazado_191578" data-name="Trazado 191578" d="M518,83.924h19a13,13,0,0,1,13,13v19a13,13,0,0,1-13,13H518a13,13,0,0,1-13-13v-19a13,13,0,0,1,13-13" fill="#fff"/>
      <rect id="Rectángulo_39432" data-name="Rectángulo 39432" width="44" height="44" rx="12.5" transform="translate(505.5 84.424)" fill="none" stroke="#707070" stroke-width="1"/>
      <path id="Trazado_191579" data-name="Trazado 191579" d="M578,83.924h19a13,13,0,0,1,13,13v19a13,13,0,0,1-13,13H578a13,13,0,0,1-13-13v-19a13,13,0,0,1,13-13" fill="#ffecf2"/>
      <rect id="Rectángulo_39433" data-name="Rectángulo 39433" width="44" height="44" rx="12.5" transform="translate(565.5 84.424)" fill="none" stroke="#e01650" stroke-width="1"/>
      <path id="Trazado_191580" data-name="Trazado 191580" d="M638,83.924h19a13,13,0,0,1,13,13v19a13,13,0,0,1-13,13H638a13,13,0,0,1-13-13v-19a13,13,0,0,1,13-13" fill="#fff"/>
      <rect id="Rectángulo_39434" data-name="Rectángulo 39434" width="44" height="44" rx="12.5" transform="translate(625.5 84.424)" fill="none" stroke="#707070" stroke-width="1"/>
      <path id="Trazado_191581" data-name="Trazado 191581" d="M698,83.924h19a13,13,0,0,1,13,13v19a13,13,0,0,1-13,13H698a13,13,0,0,1-13-13v-19a13,13,0,0,1,13-13" fill="#fff"/>
      <rect id="Rectángulo_39435" data-name="Rectángulo 39435" width="44" height="44" rx="12.5" transform="translate(685.5 84.424)" fill="none" stroke="#707070" stroke-width="1"/>
      <path id="Trazado_191582" data-name="Trazado 191582" d="M758,83.924h19a13,13,0,0,1,13,13v19a13,13,0,0,1-13,13H758a13,13,0,0,1-13-13v-19a13,13,0,0,1,13-13" fill="#ffecf2"/>
      <rect id="Rectángulo_39436" data-name="Rectángulo 39436" width="44" height="44" rx="12.5" transform="translate(745.5 84.424)" fill="none" stroke="#e01650" stroke-width="1"/>
      <path id="Trazado_191583" data-name="Trazado 191583" d="M521.017,114.923v-1.708l1.015-.147,4.522-12.363h2.92l4.492,12.363,1.016.147v1.708h-4.844v-1.708l.986-.176-.625-1.953h-5l-.625,1.953.987.176v1.708Zm5.156-5.937h3.652l-1.66-4.873-.137-.43h-.058l-.147.459Z" fill="#e01650"/>
      <path id="Trazado_191584" data-name="Trazado 191584" d="M585.037,114.924v-1.709l1.523-.293V102.9h-2.587l-.157,1.7h-2.158v-3.9h12.686v3.9h-2.168l-.157-1.7h-2.607v10.019l1.533.293v1.709Z" fill="#e01650"/>
      <path id="Trazado_191585" data-name="Trazado 191585" d="M645.037,114.924v-1.709l1.523-.293V102.9h-2.587l-.157,1.7h-2.158v-3.9h12.686v3.9h-2.168l-.157-1.7h-2.607v10.019l1.533.293v1.709Z" fill="#e01650"/>
      <path id="Trazado_191586" data-name="Trazado 191586" d="M708.865,115.129a7.219,7.219,0,0,1-3.6-.864,5.916,5.916,0,0,1-2.368-2.451,7.968,7.968,0,0,1-.835-3.755v-.479a8.036,8.036,0,0,1,.806-3.667,6.072,6.072,0,0,1,2.3-2.505,6.714,6.714,0,0,1,3.555-.908,8.746,8.746,0,0,1,2.709.41,6.684,6.684,0,0,1,2.261,1.25V105.6H711.57l-.293-2.158a3.692,3.692,0,0,0-.7-.4,4.074,4.074,0,0,0-.825-.254,5.012,5.012,0,0,0-.962-.088,3.588,3.588,0,0,0-2.08.6,3.766,3.766,0,0,0-1.333,1.685,6.546,6.546,0,0,0-.464,2.583v.5a6.3,6.3,0,0,0,.488,2.588,3.87,3.87,0,0,0,1.387,1.694,3.744,3.744,0,0,0,2.129.6,5.5,5.5,0,0,0,1.235-.141,6.323,6.323,0,0,0,1.128-.366l.293-2h2.119v3.4a7.992,7.992,0,0,1-2.07.923,9.459,9.459,0,0,1-2.754.376" fill="#e01650"/>
      <path id="Trazado_191587" data-name="Trazado 191587" d="M761,114.924v-1.709l1.513-.293v-10.2L761,102.424v-1.719h5.81v1.719l-1.445.293v10.2l1.445.293v1.709Zm3.77-3.486-1.476-1.69,6.963-7.178.021-.029-1.406-.117v-1.719h5.849v1.719l-1.339.264Zm4.414,3.486v-1.709l1.327-.117h.01l-3.613-4.981,1.884-1.884,5.039,6.738,1.4.244v1.709Z" fill="#e01650"/>
      <path id="Trazado_191588" data-name="Trazado 191588" d="M407.9,301.434h-4.366l-.83,2.49h-2.648l4.5-12.086h2.307l4.524,12.086H408.74Zm-3.694-2.018h3.021l-1.519-4.523Z" fill="#500c75"/>
      <path id="Trazado_191589" data-name="Trazado 191589" d="M415.091,292.735v2.208h1.536v1.76h-1.536v4.482a1.065,1.065,0,0,0,.191.714.958.958,0,0,0,.73.216,3.9,3.9,0,0,0,.706-.058v1.818a4.968,4.968,0,0,1-1.453.215,2.29,2.29,0,0,1-2.573-2.548V296.7h-1.311v-1.76h1.311v-2.208Z" fill="#500c75"/>
      <path id="Trazado_191590" data-name="Trazado 191590" d="M420.835,292.735v2.208h1.536v1.76h-1.536v4.482a1.065,1.065,0,0,0,.191.714.958.958,0,0,0,.73.216,3.9,3.9,0,0,0,.706-.058v1.818a4.968,4.968,0,0,1-1.453.215,2.29,2.29,0,0,1-2.573-2.548V296.7h-1.311v-1.76h1.311v-2.208Z" fill="#500c75"/>
      <path id="Trazado_191591" data-name="Trazado 191591" d="M428.912,303.924a2.661,2.661,0,0,1-.241-.805,2.9,2.9,0,0,1-2.266.971,3.188,3.188,0,0,1-2.187-.764,2.452,2.452,0,0,1-.868-1.925,2.537,2.537,0,0,1,1.059-2.192,5.218,5.218,0,0,1,3.059-.771h1.1v-.516a1.484,1.484,0,0,0-.32-1,1.26,1.26,0,0,0-1.009-.373,1.429,1.429,0,0,0-.95.291.984.984,0,0,0-.344.8h-2.4a2.415,2.415,0,0,1,.481-1.446,3.191,3.191,0,0,1,1.361-1.041,4.959,4.959,0,0,1,1.976-.377,3.928,3.928,0,0,1,2.636.833,2.92,2.92,0,0,1,.975,2.345v3.894a4.278,4.278,0,0,0,.357,1.934v.141Zm-1.984-1.668a2.059,2.059,0,0,0,.979-.237,1.556,1.556,0,0,0,.665-.635V299.84h-.9q-1.8,0-1.917,1.245l-.009.142a.956.956,0,0,0,.316.738,1.228,1.228,0,0,0,.863.291" fill="#500c75"/>
      <path id="Trazado_191592" data-name="Trazado 191592" d="M436.557,302.156a1.575,1.575,0,0,0,1.079-.365,1.281,1.281,0,0,0,.432-.972h2.249a3.073,3.073,0,0,1-.5,1.673,3.287,3.287,0,0,1-1.341,1.179,4.2,4.2,0,0,1-1.879.419,3.9,3.9,0,0,1-3.039-1.225,4.846,4.846,0,0,1-1.112-3.383v-.157a4.79,4.79,0,0,1,1.1-3.312,3.853,3.853,0,0,1,3.03-1.237,3.775,3.775,0,0,1,2.7.959,3.391,3.391,0,0,1,1.033,2.552h-2.249a1.647,1.647,0,0,0-.432-1.139,1.607,1.607,0,0,0-2.362.173,3.548,3.548,0,0,0-.427,1.982v.25a3.591,3.591,0,0,0,.423,2,1.465,1.465,0,0,0,1.287.607" fill="#500c75"/>
      <path id="Trazado_191593" data-name="Trazado 191593" d="M444.949,300.321l-.863.863v2.74h-2.4v-12.75h2.4v7.064l.465-.6,2.3-2.7h2.88l-3.245,3.743,3.527,5.239h-2.755Z" fill="#500c75"/>
      <path id="Trazado_191594" data-name="Trazado 191594" d="M454.735,304.09a4.407,4.407,0,0,1-3.216-1.212,4.305,4.305,0,0,1-1.242-3.229v-.233A5.434,5.434,0,0,1,450.8,297a3.838,3.838,0,0,1,1.482-1.643,4.154,4.154,0,0,1,2.187-.578,3.725,3.725,0,0,1,2.9,1.163,4.718,4.718,0,0,1,1.059,3.3v.979H452.71a2.227,2.227,0,0,0,.7,1.412,2.121,2.121,0,0,0,1.482.531,2.588,2.588,0,0,0,2.166-1.005l1.179,1.32a3.6,3.6,0,0,1-1.461,1.191,4.793,4.793,0,0,1-2.042.428m-.274-7.379a1.5,1.5,0,0,0-1.158.483,2.507,2.507,0,0,0-.569,1.384h3.337v-.191a1.786,1.786,0,0,0-.431-1.239,1.551,1.551,0,0,0-1.179-.437" fill="#500c75"/>
      <path id="Trazado_191595" data-name="Trazado 191595" d="M464.837,297.192a6.563,6.563,0,0,0-.863-.066,1.757,1.757,0,0,0-1.785.921v5.877h-2.4v-8.981h2.266l.067,1.071a2.221,2.221,0,0,1,2-1.237,2.507,2.507,0,0,1,.747.108Z" fill="#500c75"/>
      <path id="Trazado_191596" data-name="Trazado 191596" d="M467.543,291.174h2.615l-2.3,2.573h-1.95Z" fill="#500c75"/>
      <path id="Trazado_191597" data-name="Trazado 191597" d="M476.492,301.442a.771.771,0,0,0-.436-.692,4.933,4.933,0,0,0-1.4-.453q-3.205-.674-3.2-2.722a2.468,2.468,0,0,1,.993-2,4,4,0,0,1,2.593-.8,4.307,4.307,0,0,1,2.736.806,2.536,2.536,0,0,1,1.025,2.091h-2.4a1.162,1.162,0,0,0-.332-.851,1.408,1.408,0,0,0-1.038-.336,1.444,1.444,0,0,0-.938.273.869.869,0,0,0-.332.7.739.739,0,0,0,.378.643,3.878,3.878,0,0,0,1.274.424,10.485,10.485,0,0,1,1.511.4,2.483,2.483,0,0,1,1.9,2.415,2.343,2.343,0,0,1-1.055,1.989,4.54,4.54,0,0,1-2.722.759,4.741,4.741,0,0,1-2.005-.4,3.365,3.365,0,0,1-1.374-1.1,2.567,2.567,0,0,1-.5-1.515h2.275a1.247,1.247,0,0,0,.473.979,1.874,1.874,0,0,0,1.178.341,1.746,1.746,0,0,0,1.042-.261.816.816,0,0,0,.353-.686" fill="#500c75"/>
      <path id="Trazado_191598" data-name="Trazado 191598" d="M485.058,303.924V291.838h3.412a5.492,5.492,0,0,1,2.789.7,4.71,4.71,0,0,1,1.872,1.984,6.458,6.458,0,0,1,.668,2.955v.771a6.482,6.482,0,0,1-.66,3,4.646,4.646,0,0,1-1.884,1.976,5.845,5.845,0,0,1-2.852.705Zm1.594-10.783v9.48h1.677a3.647,3.647,0,0,0,2.867-1.146,4.739,4.739,0,0,0,1.026-3.266V297.5a4.811,4.811,0,0,0-.967-3.2,3.445,3.445,0,0,0-2.744-1.159Z" fill="#12263f"/>
      <path id="Trazado_191599" data-name="Trazado 191599" d="M501.51,303.924a3.233,3.233,0,0,1-.215-.946,3.428,3.428,0,0,1-2.557,1.112,3.17,3.17,0,0,1-2.179-.751,2.432,2.432,0,0,1-.851-1.9,2.539,2.539,0,0,1,1.067-2.179,5.023,5.023,0,0,1,3-.776h1.495v-.705a1.728,1.728,0,0,0-.482-1.284,1.935,1.935,0,0,0-1.419-.476,2.235,2.235,0,0,0-1.378.414,1.223,1.223,0,0,0-.556,1.005h-1.544a2.119,2.119,0,0,1,.477-1.3,3.251,3.251,0,0,1,1.295-.992,4.364,4.364,0,0,1,1.8-.366,3.546,3.546,0,0,1,2.432.777,2.8,2.8,0,0,1,.913,2.137v4.134a5.036,5.036,0,0,0,.316,1.967v.133Zm-2.548-1.17a2.7,2.7,0,0,0,1.37-.374,2.263,2.263,0,0,0,.938-.972v-1.842h-1.2q-2.822,0-2.822,1.652a1.4,1.4,0,0,0,.481,1.129,1.853,1.853,0,0,0,1.237.407" fill="#12263f"/>
      <path id="Trazado_191600" data-name="Trazado 191600" d="M507.3,292.768v2.175h1.677v1.186H507.3v5.577a1.25,1.25,0,0,0,.224.811.945.945,0,0,0,.764.271,3.753,3.753,0,0,0,.73-.1v1.237a4.435,4.435,0,0,1-1.178.165,1.912,1.912,0,0,1-1.553-.623,2.674,2.674,0,0,1-.523-1.767v-5.571h-1.635v-1.186h1.635v-2.175Z" fill="#12263f"/>
      <path id="Trazado_191601" data-name="Trazado 191601" d="M516.31,303.924a3.235,3.235,0,0,1-.215-.946,3.428,3.428,0,0,1-2.557,1.112,3.17,3.17,0,0,1-2.179-.751,2.432,2.432,0,0,1-.851-1.9,2.539,2.539,0,0,1,1.067-2.179,5.023,5.023,0,0,1,3-.776h1.495v-.705a1.728,1.728,0,0,0-.482-1.284,1.935,1.935,0,0,0-1.419-.476,2.235,2.235,0,0,0-1.378.414,1.223,1.223,0,0,0-.556,1.005h-1.544a2.119,2.119,0,0,1,.477-1.3,3.251,3.251,0,0,1,1.3-.992,4.363,4.363,0,0,1,1.8-.366,3.546,3.546,0,0,1,2.432.777,2.8,2.8,0,0,1,.913,2.137v4.134a5.036,5.036,0,0,0,.316,1.967v.133Zm-2.548-1.17a2.7,2.7,0,0,0,1.37-.374,2.264,2.264,0,0,0,.938-.972v-1.842h-1.2q-2.822,0-2.822,1.652a1.4,1.4,0,0,0,.481,1.129,1.853,1.853,0,0,0,1.237.407" fill="#12263f"/>
      <path id="Trazado_191602" data-name="Trazado 191602" d="M528.023,298.537a7.506,7.506,0,0,1-2.984-1.449,2.769,2.769,0,0,1-.934-2.121,2.923,2.923,0,0,1,1.142-2.362,4.536,4.536,0,0,1,2.967-.933,4.948,4.948,0,0,1,2.22.481,3.657,3.657,0,0,1,1.511,1.328,3.4,3.4,0,0,1,.536,1.851h-1.6a2.208,2.208,0,0,0-.7-1.728,2.831,2.831,0,0,0-1.967-.629,2.9,2.9,0,0,0-1.838.52,1.731,1.731,0,0,0-.661,1.442,1.558,1.558,0,0,0,.627,1.252,6.153,6.153,0,0,0,2.133.936,9.876,9.876,0,0,1,2.358.934,3.572,3.572,0,0,1,1.261,1.191,3.031,3.031,0,0,1,.411,1.6,2.824,2.824,0,0,1-1.145,2.354,4.887,4.887,0,0,1-3.063.884,5.666,5.666,0,0,1-2.324-.478,3.916,3.916,0,0,1-1.665-1.307,3.2,3.2,0,0,1-.585-1.884h1.6a2.082,2.082,0,0,0,.809,1.73,3.407,3.407,0,0,0,2.163.636,3.126,3.126,0,0,0,1.934-.516,1.669,1.669,0,0,0,.672-1.4,1.642,1.642,0,0,0-.622-1.374,7.167,7.167,0,0,0-2.258-.958" fill="#12263f"/>
      <path id="Trazado_191603" data-name="Trazado 191603" d="M536.39,292.768v2.175h1.677v1.186H536.39v5.577a1.25,1.25,0,0,0,.224.811.945.945,0,0,0,.764.271,3.753,3.753,0,0,0,.73-.1v1.237a4.435,4.435,0,0,1-1.178.165,1.912,1.912,0,0,1-1.553-.623,2.674,2.674,0,0,1-.523-1.767v-5.571h-1.635v-1.186h1.635v-2.175Z" fill="#12263f"/>
      <path id="Trazado_191604" data-name="Trazado 191604" d="M544.2,296.32a4.562,4.562,0,0,0-.755-.059,2.025,2.025,0,0,0-2.051,1.288v6.375H539.86v-8.982h1.494l.025,1.038a2.389,2.389,0,0,1,2.141-1.2,1.578,1.578,0,0,1,.681.116Z" fill="#12263f"/>
      <path id="Trazado_191605" data-name="Trazado 191605" d="M549.182,304.09a3.928,3.928,0,0,1-2.972-1.2,4.457,4.457,0,0,1-1.145-3.209V299.4a5.391,5.391,0,0,1,.51-2.386A3.981,3.981,0,0,1,547,295.37a3.6,3.6,0,0,1,1.988-.594,3.367,3.367,0,0,1,2.723,1.154,5,5,0,0,1,.971,3.3v.639H546.6a3.184,3.184,0,0,0,.777,2.145,2.438,2.438,0,0,0,1.888.818,2.681,2.681,0,0,0,1.378-.332,3.472,3.472,0,0,0,.988-.879l.938.73a3.772,3.772,0,0,1-3.387,1.735m-.191-8.052a2.05,2.05,0,0,0-1.561.677,3.293,3.293,0,0,0-.78,1.9h4.5v-.116a2.915,2.915,0,0,0-.631-1.813,1.927,1.927,0,0,0-1.527-.644" fill="#12263f"/>
      <path id="Trazado_191606" data-name="Trazado 191606" d="M560.005,303.924a3.233,3.233,0,0,1-.215-.946,3.428,3.428,0,0,1-2.557,1.112,3.167,3.167,0,0,1-2.178-.751,2.429,2.429,0,0,1-.852-1.9,2.54,2.54,0,0,1,1.068-2.179,5.023,5.023,0,0,1,3-.776h1.495v-.705a1.732,1.732,0,0,0-.482-1.284,1.936,1.936,0,0,0-1.419-.476,2.233,2.233,0,0,0-1.378.414,1.222,1.222,0,0,0-.557,1.005h-1.544a2.119,2.119,0,0,1,.477-1.3,3.255,3.255,0,0,1,1.3-.992,4.357,4.357,0,0,1,1.8-.366,3.548,3.548,0,0,1,2.432.777,2.8,2.8,0,0,1,.912,2.137v4.134a5.035,5.035,0,0,0,.317,1.967v.133Zm-2.547-1.17a2.706,2.706,0,0,0,1.37-.374,2.275,2.275,0,0,0,.938-.972v-1.842h-1.205q-2.821,0-2.821,1.652a1.4,1.4,0,0,0,.48,1.129,1.856,1.856,0,0,0,1.238.407" fill="#12263f"/>
      <path id="Trazado_191607" data-name="Trazado 191607" d="M565.152,294.943l.042,1a3.317,3.317,0,0,1,2.664-1.162,2.568,2.568,0,0,1,2.565,1.444,3.411,3.411,0,0,1,1.166-1.046,3.454,3.454,0,0,1,1.7-.4q2.955,0,3.005,3.13v6.017h-1.536V298a2.062,2.062,0,0,0-.44-1.441,1.937,1.937,0,0,0-1.477-.476,2.044,2.044,0,0,0-1.42.509,2.076,2.076,0,0,0-.656,1.374v5.96h-1.544V298.04a1.713,1.713,0,0,0-1.917-1.959,2.054,2.054,0,0,0-2.067,1.286v6.557H563.7v-8.981Z" fill="#12263f"/>
      <path id="Trazado_191608" data-name="Trazado 191608" d="M251,225.924h19a13,13,0,0,1,13,13v19a13,13,0,0,1-13,13H251a13,13,0,0,1-13-13v-19a13,13,0,0,1,13-13" fill="#fff"/>
      <rect id="Rectángulo_39437" data-name="Rectángulo 39437" width="44" height="44" rx="12.5" transform="translate(238.5 226.424)" fill="none" stroke="#707070" stroke-width="1"/>
      <path id="Trazado_191609" data-name="Trazado 191609" d="M311,225.924h19a13,13,0,0,1,13,13v19a13,13,0,0,1-13,13H311a13,13,0,0,1-13-13v-19a13,13,0,0,1,13-13" fill="#ffecf2"/>
      <rect id="Rectángulo_39438" data-name="Rectángulo 39438" width="44" height="44" rx="12.5" transform="translate(298.5 226.424)" fill="none" stroke="#e01650" stroke-width="1"/>
      <path id="Trazado_191610" data-name="Trazado 191610" d="M371,225.924h19a13,13,0,0,1,13,13v19a13,13,0,0,1-13,13H371a13,13,0,0,1-13-13v-19a13,13,0,0,1,13-13" fill="#fff"/>
      <rect id="Rectángulo_39439" data-name="Rectángulo 39439" width="44" height="44" rx="12.5" transform="translate(358.5 226.424)" fill="none" stroke="#707070" stroke-width="1"/>
      <path id="Trazado_191611" data-name="Trazado 191611" d="M431,225.924h19a13,13,0,0,1,13,13v19a13,13,0,0,1-13,13H431a13,13,0,0,1-13-13v-19a13,13,0,0,1,13-13" fill="#fff"/>
      <rect id="Rectángulo_39440" data-name="Rectángulo 39440" width="44" height="44" rx="12.5" transform="translate(418.5 226.424)" fill="none" stroke="#707070" stroke-width="1"/>
      <path id="Trazado_191612" data-name="Trazado 191612" d="M491,225.924h19a13,13,0,0,1,13,13v19a13,13,0,0,1-13,13H491a13,13,0,0,1-13-13v-19a13,13,0,0,1,13-13" fill="#ffecf2"/>
      <rect id="Rectángulo_39441" data-name="Rectángulo 39441" width="44" height="44" rx="12.5" transform="translate(478.5 226.424)" fill="none" stroke="#e01650" stroke-width="1"/>
      <path id="Trazado_191613" data-name="Trazado 191613" d="M551,225.924h19a13,13,0,0,1,13,13v19a13,13,0,0,1-13,13H551a13,13,0,0,1-13-13v-19a13,13,0,0,1,13-13" fill="#fff"/>
      <rect id="Rectángulo_39442" data-name="Rectángulo 39442" width="44" height="44" rx="12.5" transform="translate(538.5 226.424)" fill="none" stroke="#707070" stroke-width="1"/>
      <path id="Trazado_191614" data-name="Trazado 191614" d="M258.037,256.924v-1.709l1.523-.293V244.9h-2.587l-.157,1.7h-2.158v-3.9h12.686v3.9h-2.168l-.157-1.7h-2.607v10.019l1.533.293v1.709Z" fill="#e01650"/>
      <path id="Trazado_191615" data-name="Trazado 191615" d="M318.037,256.924v-1.709l1.523-.293V244.9h-2.587l-.157,1.7h-2.158v-3.9h12.686v3.9h-2.168l-.157-1.7h-2.607v10.019l1.533.293v1.709Z" fill="#e01650"/>
      <path id="Trazado_191616" data-name="Trazado 191616" d="M381.864,257.129a7.222,7.222,0,0,1-3.6-.864,5.922,5.922,0,0,1-2.368-2.451,7.968,7.968,0,0,1-.835-3.755v-.479a8.035,8.035,0,0,1,.806-3.667,6.072,6.072,0,0,1,2.3-2.5,6.717,6.717,0,0,1,3.555-.908,8.742,8.742,0,0,1,2.709.41,6.674,6.674,0,0,1,2.261,1.25V247.6h-2.119l-.293-2.158a3.694,3.694,0,0,0-.7-.4,4.074,4.074,0,0,0-.825-.254,5.013,5.013,0,0,0-.962-.088,3.59,3.59,0,0,0-2.08.6,3.773,3.773,0,0,0-1.333,1.685,6.564,6.564,0,0,0-.464,2.583v.5a6.32,6.32,0,0,0,.488,2.588,3.883,3.883,0,0,0,1.387,1.694,3.744,3.744,0,0,0,2.129.6,5.494,5.494,0,0,0,1.235-.141,6.273,6.273,0,0,0,1.128-.366l.293-2h2.119v3.4a7.975,7.975,0,0,1-2.07.923,9.459,9.459,0,0,1-2.754.376" fill="#e01650"/>
      <path id="Trazado_191617" data-name="Trazado 191617" d="M434.017,256.923v-1.708l1.015-.147,4.522-12.363h2.92l4.492,12.363,1.016.147v1.708h-4.844v-1.708l.986-.176-.625-1.953h-5l-.625,1.953.987.176v1.708Zm5.156-5.937h3.652l-1.66-4.873-.137-.43h-.058l-.147.459Z" fill="#e01650"/>
      <path id="Trazado_191618" data-name="Trazado 191618" d="M494.017,256.923v-1.708l1.015-.147,4.522-12.363h2.92l4.492,12.363,1.016.147v1.708h-4.844v-1.708l.986-.176-.625-1.953h-5l-.625,1.953.987.176v1.708Zm5.156-5.937h3.652l-1.66-4.873-.137-.43h-.058l-.147.459Z" fill="#500c75"/>
      <path id="Trazado_191619" data-name="Trazado 191619" d="M554,256.924v-1.709l1.513-.293V244.717L554,244.424v-1.719h5.81v1.719l-1.445.293v10.205l1.445.293v1.709Zm3.77-3.486-1.476-1.69,6.963-7.178.021-.029-1.406-.117v-1.719h5.849v1.719l-1.339.264Zm4.414,3.486v-1.709l1.327-.117h.01l-3.613-4.981,1.884-1.884,5.039,6.738,1.4.244v1.709Z" fill="#e01650"/>
      <path id="Trazado_191620" data-name="Trazado 191620" d="M647.5,128.924v50.66H320.7v46.661" fill="none" stroke="#707070" stroke-width="1"/>
      <path id="Trazado_191621" data-name="Trazado 191621" d="M320.7,269.924v80.332H144.36V283.363" fill="none" stroke="#707070" stroke-width="1"/>
      <path id="Trazado_191622" data-name="Trazado 191622" d="M144,277.924a5,5,0,1,1-5,5,5,5,0,0,1,5-5" fill="#fff"/>
      <circle id="Elipse_5572" data-name="Elipse 5572" cx="4.5" cy="4.5" r="4.5" transform="translate(139.5 278.424)" fill="none" stroke="#707070" stroke-width="1"/>
      <path id="Trazado_191623" data-name="Trazado 191623" d="M642.892,230.181V330.728H807.108V230.181a9.175,9.175,0,0,0-9.175-9.175H652.067a9.175,9.175,0,0,0-9.175,9.175" fill="#afafaf"/>
    </g>
  </g>
  <g id="Grupo_145437" data-name="Grupo 145437">
    <g id="Grupo_145436" data-name="Grupo 145436" clip-path="url(#clip-path-8)">
      <rect id="Rectángulo_39444" data-name="Rectángulo 39444" width="142.771" height="97.17" transform="translate(653.615 233.559)" fill="url(#linear-gradient-7)"/>
    </g>
  </g>
  <g id="Grupo_145439" data-name="Grupo 145439">
    <g id="Grupo_145438" data-name="Grupo 145438" clip-path="url(#clip-path)">
      <path id="Trazado_191625" data-name="Trazado 191625" d="M630,341.081v-7.293a3.058,3.058,0,0,1,3.058-3.058H816.941A3.058,3.058,0,0,1,820,333.787v7.293a9.175,9.175,0,0,1-9.175,9.175H639.175A9.175,9.175,0,0,1,630,341.081" fill="#afafaf"/>
      <path id="Trazado_191626" data-name="Trazado 191626" d="M816.942,330.729h-9.175a3.058,3.058,0,0,1,3.058,3.058v7.293a9.175,9.175,0,0,1-9.175,9.175h9.175A9.175,9.175,0,0,0,820,341.08v-7.293a3.058,3.058,0,0,0-3.058-3.058" fill="#636363"/>
      <path id="Trazado_191627" data-name="Trazado 191627" d="M705.248,335.712v-4.983h39.5v4.983a3.823,3.823,0,0,1-3.823,3.823H709.074a3.824,3.824,0,0,1-3.826-3.82Z" fill="#636363"/>
      <path id="Trazado_191628" data-name="Trazado 191628" d="M745.128,308.682H740.99a10.172,10.172,0,0,1-10.139-9.343l-.8-9.772h26.014l-.8,9.772a10.171,10.171,0,0,1-10.137,9.343" fill="#52668d"/>
      <path id="Trazado_191629" data-name="Trazado 191629" d="M707.8,308.682h-4.138a10.172,10.172,0,0,1-10.139-9.343l-.8-9.772h26.014l-.8,9.772a10.173,10.173,0,0,1-10.137,9.343" fill="#52668d"/>
      <path id="Trazado_191630" data-name="Trazado 191630" d="M745.129,311.465h-4.137a13.029,13.029,0,0,1-12.912-11.9l-.8-9.771a2.782,2.782,0,0,1,2.545-3c.076-.006.152-.009.229-.009h26.015a2.783,2.783,0,0,1,2.783,2.783c0,.076,0,.151-.009.227l-.8,9.772a13.03,13.03,0,0,1-12.914,11.9m-12.055-19.114.553,6.761a7.432,7.432,0,0,0,7.365,6.787h4.137a7.432,7.432,0,0,0,7.365-6.787l.553-6.761Z" fill="#243b5d"/>
      <path id="Trazado_191631" data-name="Trazado 191631" d="M707.8,311.465h-4.137a13.028,13.028,0,0,1-12.913-11.9l-.8-9.772a2.782,2.782,0,0,1,2.545-3c.076-.006.152-.009.229-.009h26.015a2.781,2.781,0,0,1,2.783,2.781c0,.076,0,.153-.009.229l-.8,9.772a13.03,13.03,0,0,1-12.913,11.9m-12.056-19.114.554,6.761a7.432,7.432,0,0,0,7.365,6.787H707.8a7.432,7.432,0,0,0,7.365-6.787l.554-6.761Z" fill="#243b5d"/>
      <path id="Trazado_191632" data-name="Trazado 191632" d="M762.82,292.351H687.179a2.783,2.783,0,1,1,0-5.566H762.82a2.783,2.783,0,1,1,0,5.566" fill="#243b5d"/>
      <path id="Trazado_191633" data-name="Trazado 191633" d="M753.474,236.856a8.179,8.179,0,0,0-7.327-6.907c-3.822-.363-8.328-.424-10.437.918-2.828,1.8-7.16,7.229-10.711,7.229s-7.883-5.431-10.711-7.229c-2.109-1.341-6.614-1.281-10.437-.918a8.179,8.179,0,0,0-7.327,6.907l-4.873,32.084h66.7Z" fill="#c88b4f"/>
      <path id="Trazado_191634" data-name="Trazado 191634" d="M753.474,236.856a8.179,8.179,0,0,0-7.327-6.907,28.7,28.7,0,0,0-8.594.194,8.167,8.167,0,0,1,6.2,6.713l4.874,32.088h9.725Z" fill="#af6a39"/>
      <path id="Trazado_191635" data-name="Trazado 191635" d="M693.28,258.221l-1.629,10.727h66.7l-1.634-10.727Z" fill="#52668d"/>
      <path id="Trazado_191636" data-name="Trazado 191636" d="M746.995,258.221l1.629,10.727h9.725l-1.625-10.727Z" fill="#243b5d"/>
      <rect id="Rectángulo_39445" data-name="Rectángulo 39445" width="92" height="9.217" rx="2.6" transform="translate(678.997 268.944)" fill="#c88b4f"/>
      <path id="Trazado_191637" data-name="Trazado 191637" d="M768.4,268.944h-9.987a2.6,2.6,0,0,1,2.6,2.6v4.017a2.6,2.6,0,0,1-2.6,2.6H768.4a2.6,2.6,0,0,0,2.6-2.6v-4.017a2.6,2.6,0,0,0-2.6-2.6" fill="#af6a39"/>
      <path id="Trazado_191638" data-name="Trazado 191638" d="M759.581,226.417a2.783,2.783,0,0,1-1.968-4.751l5.676-5.676a2.783,2.783,0,1,1,3.98,3.891l-.045.045-5.676,5.673a2.774,2.774,0,0,1-1.967.818" fill="#e01650"/>
      <path id="Trazado_191639" data-name="Trazado 191639" d="M749.655,222.206a2.783,2.783,0,0,1-2.783-2.783v-8.872a2.783,2.783,0,1,1,5.566,0v8.87a2.783,2.783,0,0,1-2.781,2.785Z" fill="#e01650"/>
      <path id="Trazado_191640" data-name="Trazado 191640" d="M772.662,236.342h-8.87a2.783,2.783,0,1,1,0-5.566h8.87a2.783,2.783,0,1,1,0,5.566" fill="#e01650"/>
    </g>
  </g>
</svg>
