<svg xmlns="http://www.w3.org/2000/svg" xmlns:xlink="http://www.w3.org/1999/xlink" width="820" height="225" viewBox="0 0 820 225">
  <defs>
    <clipPath id="clip-path">
      <rect id="Rectángulo_37556" data-name="Rectángulo 37556" width="116.219" height="108.204" fill="none"/>
    </clipPath>
  </defs>
  <g id="Grupo_146836" data-name="Grupo 146836" transform="translate(-390 -19664)">
    <rect id="Rectángulo_38289" data-name="Rectángulo 38289" width="820" height="145" rx="32" transform="translate(390 19744)" fill="#ffecf2"/>
    <g id="Grupo_144346" data-name="Grupo 144346" transform="translate(0 103)">
      <g id="document" transform="translate(705 19605.346)">
        <path id="Trazado_186207" data-name="Trazado 186207" d="M455.582,151.825h3.772a.925.925,0,1,1,0,1.851h-2.847v13.357a.925.925,0,0,1-1.851,0V152.75A.925.925,0,0,1,455.582,151.825Z" transform="translate(-454.656 -133.091)" fill="#0290cf"/>
        <path id="Trazado_186208" data-name="Trazado 186208" d="M11.21,0H38.928a5.4,5.4,0,0,1,3.829,1.579l10,9.313.024.023a5.4,5.4,0,0,1,1.591,3.841V58.985A3.673,3.673,0,0,1,50.7,62.654H11.21a3.673,3.673,0,0,1-3.669-3.669V3.669A3.673,3.673,0,0,1,11.21,0Z" transform="translate(6.424)" fill="#edf5fa"/>
        <path id="Trazado_186209" data-name="Trazado 186209" d="M330.99,0h3.7a3.673,3.673,0,0,0-3.669,3.669V58.985a3.673,3.673,0,0,0,3.669,3.669h-3.7a3.673,3.673,0,0,1-3.669-3.669V3.669A3.673,3.673,0,0,1,330.99,0Z" transform="translate(-313.356)" fill="#d0e7f2"/>
        <g id="Grupo_144345" data-name="Grupo 144345" transform="translate(22.198 0.006)">
          <path id="Trazado_186210" data-name="Trazado 186210" d="M11.191,1.624l10,9.313.024.023a5.39,5.39,0,0,1,1.58,3.549H11.44a3.808,3.808,0,0,1-3.785-3.8L7.628.052a5.393,5.393,0,0,1,3.563,1.572Z" transform="translate(15.79 -0.052)" fill="#b7d9eb"/>
          <ellipse id="Elipse_5500" data-name="Elipse 5500" cx="1.337" cy="1.337" rx="1.337" ry="1.337" transform="translate(26.762 30.442)" fill="#b7d9eb"/>
          <path id="Trazado_186211" data-name="Trazado 186211" d="M132.256,251.945h21.469a.925.925,0,1,0,0-1.851H132.256a.925.925,0,1,0,0,1.851Z" transform="translate(-131.331 -219.241)" fill="#b7d9eb"/>
          <ellipse id="Elipse_5501" data-name="Elipse 5501" cx="1.337" cy="1.337" rx="1.337" ry="1.337" transform="translate(26.762 37.041)" fill="#b7d9eb"/>
          <path id="Trazado_186212" data-name="Trazado 186212" d="M132.256,305.429h21.469a.925.925,0,1,0,0-1.851H132.256a.925.925,0,1,0,0,1.851Z" transform="translate(-131.331 -266.126)" fill="#b7d9eb"/>
          <ellipse id="Elipse_5502" data-name="Elipse 5502" cx="1.337" cy="1.337" rx="1.337" ry="1.337" transform="translate(26.762 43.64)" fill="#b7d9eb"/>
          <path id="Trazado_186213" data-name="Trazado 186213" d="M132.256,358.913h21.469a.925.925,0,1,0,0-1.851H132.256a.925.925,0,1,0,0,1.851Z" transform="translate(-131.331 -313.011)" fill="#b7d9eb"/>
          <path id="Trazado_186214" data-name="Trazado 186214" d="M79.566,177.545H90.521a.925.925,0,1,0,0-1.851H79.566a.925.925,0,1,0,0,1.851Z" transform="translate(-61.625 -154.021)" fill="#b7d9eb"/>
        </g>
        <path id="Trazado_186215" data-name="Trazado 186215" d="M423.757,418.711a.288.288,0,0,0,.272-.193l2.647-10.053-2.919-1.234-2.919,1.234,2.647,10.053A.289.289,0,0,0,423.757,418.711Z" transform="translate(-416.881 -356.983)" fill="#fead8a"/>
        <path id="Trazado_186216" data-name="Trazado 186216" d="M426.677,408.465l-2.919-1.234-2.919,1.234" transform="translate(-416.88 -356.983)" fill="#fead8a"/>
        <path id="Trazado_186217" data-name="Trazado 186217" d="M433.7,417.231l1.007,4.292-1.517,5.761a.288.288,0,0,1-.544,0L430,417.231Z" transform="translate(-426.038 -365.749)" fill="#fe996d"/>
        <path id="Trazado_186218" data-name="Trazado 186218" d="M426.677,165.325h-5.838v31.083h5.838Z" transform="translate(-416.88 -144.926)" fill="#fedf30"/>
        <path id="Trazado_186219" data-name="Trazado 186219" d="M441.857,165.325h-3.7v31.083h3.7Z" transform="translate(-434.197 -144.926)" fill="#fed402"/>
        <path id="Trazado_186220" data-name="Trazado 186220" d="M426.677,122.682v-3.648a2.919,2.919,0,1,0-5.839,0v3.738" transform="translate(-416.881 -101.787)" fill="#8ac9fe"/>
        <path id="Trazado_186221" data-name="Trazado 186221" d="M432.415,116.114a2.907,2.907,0,0,1,1.851.662,2.913,2.913,0,0,0-1.068,2.257v3.681l-3.7.057v-3.738A2.919,2.919,0,0,1,432.415,116.114Z" transform="translate(-425.538 -101.787)" fill="#01c0fa"/>
      </g>
      <g id="Grupo_142827" data-name="Grupo 142827">
        <rect id="Rectángulo_38303" data-name="Rectángulo 38303" width="190" height="115" transform="translate(705 19561)" fill="none"/>
        <g id="Grupo_142826" data-name="Grupo 142826" transform="translate(-210.962 15722.582)">
          <ellipse id="Elipse_4078" data-name="Elipse 4078" cx="57.545" cy="5.231" rx="57.545" ry="5.231" transform="translate(954.482 3940.421)" fill="#e01650" opacity="0.3"/>
          <g id="Grupo_112109" data-name="Grupo 112109" transform="translate(953.353 3838.621)">
            <rect id="Rectángulo_37555" data-name="Rectángulo 37555" width="28.053" height="12.023" transform="translate(44.083 82.155)" fill="#35495e"/>
            <g id="Grupo_112108" data-name="Grupo 112108">
              <g id="Grupo_112107" data-name="Grupo 112107" clip-path="url(#clip-path)">
                <path id="Trazado_174571" data-name="Trazado 174571" d="M4.008,0h108.2a4.008,4.008,0,0,1,4.008,4.008V80.151a4.008,4.008,0,0,1-4.008,4.008H4.008A4.008,4.008,0,0,1,0,80.151V4.008A4.008,4.008,0,0,1,4.008,0" fill="#547580"/>
                <path id="Trazado_174572" data-name="Trazado 174572" d="M36.138,34.133h96.181a2,2,0,0,1,2,2V92.242a2,2,0,0,1-2,2H36.138a2,2,0,0,1-2-2V36.137a2,2,0,0,1,2-2" transform="translate(-26.119 -26.118)" fill="#b0d3f0"/>
                <path id="Trazado_174573" data-name="Trazado 174573" d="M231.885,319.741H223.87a2,2,0,1,1,0-4.008h8.015a2,2,0,0,1,0,4.008" transform="translate(-169.768 -241.593)" fill="#d1d4d1"/>
                <path id="Trazado_174574" data-name="Trazado 174574" d="M145.067,400.549v4.008a4.008,4.008,0,0,0,4.008,4.007H189.15a4.008,4.008,0,0,0,4.008-4.007v-4.008l-10.019-8.015H155.086Z" transform="translate(-111.003 -300.36)" fill="#3f5c6c"/>
                <path id="Trazado_174575" data-name="Trazado 174575" d="M193.158,426.667v4.008a4.019,4.019,0,0,1-4.008,4.007H149.075a4.019,4.019,0,0,1-4.008-4.007v-4.008Z" transform="translate(-111.003 -326.478)" fill="#547580"/>
                <path id="Trazado_174576" data-name="Trazado 174576" d="M134.322,120.7V144.42a2,2,0,0,1-2,2H36.137a2,2,0,0,1-2-2v-6.633A62.117,62.117,0,0,1,134.322,120.7" transform="translate(-26.118 -78.296)" fill="#90bae1"/>
              </g>
            </g>
          </g>
        </g>
        <g id="cuatro-dedos" transform="translate(766 19569)">
          <path id="Trazado_182913" data-name="Trazado 182913" d="M19,28l.57,1.7A8.626,8.626,0,0,1,20,32.37v5.97A13.653,13.653,0,0,0,24,48V60H44V48a13.653,13.653,0,0,0,4-9.66V31a3,3,0,0,0-3-3H44L47.36,9.54A3.288,3.288,0,0,0,47.41,9a3.008,3.008,0,0,0-5.94-.66L38,23.77V7a3,3,0,0,0-6,0V23.77L28.53,8.34A3.007,3.007,0,0,0,22.59,9a3.287,3.287,0,0,0,.05.54L25,24l-3.81-6.85a2.55,2.55,0,0,0-3.38-1.05l-.39.19A2.567,2.567,0,0,0,16,18.58a2.455,2.455,0,0,0,.13.81Z" fill="#f4d3a9"/>
          <path id="Trazado_182914" data-name="Trazado 182914" d="M32,28H45a3,3,0,0,1,3,3v3H35a3,3,0,0,1-3-3Z" fill="#f0c691"/>
          <path id="Trazado_182915" data-name="Trazado 182915" d="M38,45a1,1,0,0,1-1-1V40a7.008,7.008,0,0,1,7-7,1,1,0,0,1,0,2,5.006,5.006,0,0,0-5,5v4A1,1,0,0,1,38,45Z" fill="#d5b182"/>
        </g>
      </g>
      <g id="document-2" data-name="document" transform="translate(824.058 19605.346)">
        <path id="Trazado_186207-2" data-name="Trazado 186207" d="M459.354,151.825h-3.772a.925.925,0,1,0,0,1.851h2.847v13.357a.925.925,0,0,0,1.851,0V152.75A.925.925,0,0,0,459.354,151.825Z" transform="translate(-391.945 -133.091)" fill="#0290cf"/>
        <path id="Trazado_186208-2" data-name="Trazado 186208" d="M50.7,0H22.983a5.4,5.4,0,0,0-3.829,1.579l-10,9.313-.024.023a5.4,5.4,0,0,0-1.591,3.841V58.985a3.673,3.673,0,0,0,3.669,3.669H50.7a3.673,3.673,0,0,0,3.669-3.669V3.669A3.673,3.673,0,0,0,50.7,0Z" transform="translate(0)" fill="#edf5fa"/>
        <path id="Trazado_186209-2" data-name="Trazado 186209" d="M331.023,0h-3.7a3.673,3.673,0,0,1,3.669,3.669V58.985a3.673,3.673,0,0,1-3.669,3.669h3.7a3.673,3.673,0,0,0,3.669-3.669V3.669A3.673,3.673,0,0,0,331.023,0Z" transform="translate(-280.322)" fill="#d0e7f2"/>
        <g id="Grupo_144345-2" data-name="Grupo 144345" transform="translate(7.552 0.006)">
          <path id="Trazado_186210-2" data-name="Trazado 186210" d="M19.23,1.624l-10,9.313-.024.023a5.39,5.39,0,0,0-1.58,3.549H18.982a3.808,3.808,0,0,0,3.785-3.8L22.793.052A5.393,5.393,0,0,0,19.23,1.624Z" transform="translate(-7.628 -0.052)" fill="#b7d9eb"/>
          <circle id="Elipse_5500-2" data-name="Elipse 5500" cx="1.337" cy="1.337" r="1.337" transform="translate(9.149 30.442)" fill="#b7d9eb"/>
          <path id="Trazado_186211-2" data-name="Trazado 186211" d="M153.725,251.945H132.256a.925.925,0,1,1,0-1.851h21.469a.925.925,0,1,1,0,1.851Z" transform="translate(-116.067 -219.241)" fill="#b7d9eb"/>
          <circle id="Elipse_5501-2" data-name="Elipse 5501" cx="1.337" cy="1.337" r="1.337" transform="translate(9.149 37.041)" fill="#b7d9eb"/>
          <path id="Trazado_186212-2" data-name="Trazado 186212" d="M153.725,305.429H132.256a.925.925,0,1,1,0-1.851h21.469a.925.925,0,1,1,0,1.851Z" transform="translate(-116.067 -266.126)" fill="#b7d9eb"/>
          <circle id="Elipse_5502-2" data-name="Elipse 5502" cx="1.337" cy="1.337" r="1.337" transform="translate(9.149 43.64)" fill="#b7d9eb"/>
          <path id="Trazado_186213-2" data-name="Trazado 186213" d="M153.725,358.913H132.256a.925.925,0,1,1,0-1.851h21.469a.925.925,0,1,1,0,1.851Z" transform="translate(-116.067 -313.01)" fill="#b7d9eb"/>
          <path id="Trazado_186214-2" data-name="Trazado 186214" d="M90.521,177.545H79.566a.925.925,0,1,1,0-1.851H90.521a.925.925,0,1,1,0,1.851Z" transform="translate(-69.879 -154.021)" fill="#b7d9eb"/>
        </g>
        <path id="Trazado_186215-2" data-name="Trazado 186215" d="M423.757,418.711a.288.288,0,0,1-.272-.193l-2.647-10.053,2.919-1.234,2.919,1.234-2.647,10.053A.289.289,0,0,1,423.757,418.711Z" transform="translate(-362.3 -356.983)" fill="#fead8a"/>
        <path id="Trazado_186216-2" data-name="Trazado 186216" d="M420.838,408.465l2.919-1.234,2.919,1.234" transform="translate(-362.3 -356.983)" fill="#fead8a"/>
        <path id="Trazado_186217-2" data-name="Trazado 186217" d="M431,417.231,430,421.523l1.517,5.761a.288.288,0,0,0,.544,0l2.647-10.053Z" transform="translate(-370.328 -365.749)" fill="#fe996d"/>
        <path id="Trazado_186218-2" data-name="Trazado 186218" d="M420.838,165.325h5.838v31.083h-5.838Z" transform="translate(-362.3 -144.925)" fill="#fedf30"/>
        <path id="Trazado_186219-2" data-name="Trazado 186219" d="M438.155,165.325h3.7v31.083h-3.7Z" transform="translate(-377.48 -144.925)" fill="#fed402"/>
        <path id="Trazado_186220-2" data-name="Trazado 186220" d="M420.838,122.682v-3.648a2.919,2.919,0,1,1,5.839,0v3.738" transform="translate(-362.3 -101.787)" fill="#8ac9fe"/>
        <path id="Trazado_186221-2" data-name="Trazado 186221" d="M431.347,116.114a2.907,2.907,0,0,0-1.851.662,2.913,2.913,0,0,1,1.068,2.257v3.681l3.7.057v-3.738A2.919,2.919,0,0,0,431.347,116.114Z" transform="translate(-369.89 -101.787)" fill="#01c0fa"/>
      </g>
    </g>
  </g>
</svg>
